<svg width="19" height="21" viewBox="0 0 19 21" fill="none" xmlns="http://www.w3.org/2000/svg">
<path d="M14.8921 9.374C14.5671 8.5206 14.0946 7.75462 13.5043 7.124L13.0171 6.60252C13.0005 6.5853 12.9806 6.57307 12.9591 6.56693C12.9376 6.56078 12.9151 6.56089 12.8936 6.56726C12.8721 6.57362 12.8523 6.58604 12.8359 6.60342C12.8195 6.62081 12.807 6.64263 12.7995 6.66697L12.5818 7.39549C12.4462 7.85252 12.1968 8.31931 11.8435 8.7783C11.8201 8.8076 11.7933 8.81541 11.7749 8.81736C11.7565 8.81931 11.728 8.81541 11.7029 8.78806C11.6795 8.76463 11.6678 8.72947 11.6694 8.69431C11.7314 7.51853 11.43 6.19236 10.7704 4.749C10.2247 3.54978 9.46631 2.61423 8.51876 1.96189L7.82736 1.48728C7.73696 1.42478 7.62144 1.50681 7.62646 1.62986L7.66329 2.56736C7.68841 3.20798 7.62479 3.77439 7.47412 4.24509C7.28997 4.82127 7.02546 5.35642 6.68729 5.83689C6.45195 6.1708 6.18521 6.47283 5.89209 6.73728C5.18613 7.37042 4.61209 8.18168 4.21296 9.11033C3.81481 10.0471 3.60742 11.0784 3.60693 12.124C3.60693 13.0459 3.76263 13.9385 4.07066 14.7803C4.36809 15.5907 4.79732 16.3263 5.33461 16.9463C5.87702 17.5713 6.50649 18.0635 7.20794 18.4053C7.9345 18.7607 8.70459 18.9404 9.49979 18.9404C10.295 18.9404 11.0651 18.7607 11.7916 18.4072C12.4914 18.0674 13.1277 17.5719 13.665 16.9482C14.2074 16.3232 14.6326 15.5928 14.9289 14.7822C15.2365 13.9427 15.3943 13.0389 15.3926 12.126C15.3926 11.1728 15.2252 10.247 14.8921 9.374Z" fill="#EF4444"/>
</svg>
