<svg width="120" height="120" viewBox="0 0 120 120" fill="none" xmlns="http://www.w3.org/2000/svg">
<rect x="0.5" y="0.5" width="119" height="119" rx="59.5" fill="white"/>
<path d="M65.0813 89.9832C65.3152 89.9832 65.5323 89.9999 65.7662 89.9999C73.0994 89.9999 80.4326 89.9999 87.7825 89.9999C89.7035 89.9999 91.2403 88.413 91.0899 86.492C91.0064 85.473 90.689 84.5042 89.62 84.0364C88.9685 84.0197 88.3003 84.003 87.6488 83.9863C87.6488 75.2834 87.6488 66.5804 87.6488 57.8608C87.6488 57.7104 87.6488 57.5768 87.6321 57.4265C87.5653 56.6915 87.131 56.3073 86.3626 56.2739C86.0786 56.2739 85.778 56.2572 85.494 56.2572C82.4037 56.2572 79.3134 56.2405 76.2398 56.2405C76.2398 51.8806 76.2398 47.5208 76.2231 43.161C76.2231 42.9438 76.3233 42.6933 76.1229 42.5095C75.5549 41.9583 74.987 41.4237 74.419 40.8725C70.9946 37.4481 67.5536 34.0237 64.1292 30.616C63.9454 30.449 63.7617 30.282 63.5779 30.1149C63.3775 29.9646 63.1269 30.0314 62.9098 30.0314C52.5197 30.0314 42.1296 30.0314 31.7395 30.0314C30.1192 30.0147 29 31.1172 29 32.7041C29 50.9619 29 69.2364 29 87.4942C29 87.9453 29.1503 88.3629 29.3675 88.7471C29.8352 89.6157 30.6036 89.9999 31.5725 89.9999C41.1774 89.9999 50.7824 89.9999 60.3874 89.9999C61.6569 89.9999 62.9265 89.9832 64.196 89.9832C64.4967 89.9832 64.7806 89.9832 65.0813 89.9832Z" fill="#FEFEFE"/>
<path d="M29 87.5111C29 69.2532 29 50.9787 29 32.7209C29 31.1173 30.1192 30.0148 31.7061 30.0148C42.0962 30.0148 52.4863 30.0148 62.8764 30.0148C63.0935 30.0148 63.3441 29.948 63.5445 30.0983C63.5445 33.4726 63.5278 36.8302 63.5445 40.1877C63.5445 41.3236 64.196 42.2257 65.215 42.5597C65.6493 42.6934 66.117 42.7268 66.568 42.7268C68.94 42.7268 71.312 42.7435 73.684 42.7435C73.684 47.2369 73.684 51.7304 73.684 56.2239C70.0926 56.2239 66.5179 56.2406 62.9265 56.2406C61.5567 56.2406 61.1725 56.6248 61.1725 57.9778C61.1725 67.1819 61.1725 76.3693 61.1725 85.5734C61.1725 86.2248 61.2059 86.8596 61.3563 87.4944C61.0389 87.4944 60.7215 87.4944 60.4208 87.4944C49.9472 87.5111 39.4736 87.5111 29 87.5111ZM36.9011 54.7539V54.804C36.4668 54.8207 36.0325 54.8374 35.5982 54.8541C35.2474 54.8541 34.8799 54.8875 34.8799 55.3385C34.8799 55.823 35.2474 55.8731 35.6316 55.8731C35.7318 55.8731 35.8321 55.8731 35.949 55.8731C43.2488 55.8731 50.5486 55.8731 57.8651 55.8731C58.0154 55.8731 58.149 55.8731 58.2994 55.8731C58.6335 55.8564 58.884 55.706 58.9007 55.3552C58.9007 55.0045 58.6502 54.8708 58.3161 54.8541C57.8149 54.8207 57.3138 54.9376 56.8294 54.7873C56.8294 49.609 56.8461 44.4473 56.8461 39.269C56.8461 38.2166 56.6623 38.0663 55.5766 38.25C54.7079 38.25 53.8226 38.25 52.954 38.2333C52.4194 38.2166 52.219 38.4672 52.219 38.985C52.2357 44.0297 52.2357 49.0911 52.2357 54.1358C52.2357 54.353 52.219 54.5701 52.219 54.7873C51.2167 54.8708 50.2145 54.8541 49.2122 54.804C49.2122 51.1458 49.2122 47.4875 49.2122 43.8293C49.2122 43.0776 49.1454 43.0108 48.3937 43.0108C48.2434 43.0108 48.1097 43.0275 47.9594 43.0275C47.0908 43.0275 46.2221 43.0275 45.3368 42.9941C44.8023 42.9773 44.5851 43.2112 44.5851 43.729C44.6018 47.1868 44.6018 50.6613 44.6018 54.1191C44.5851 54.353 44.5851 54.5701 44.5684 54.804C43.5662 54.8374 42.5639 54.8875 41.5616 54.7873C41.5616 53.0166 41.5616 51.2627 41.5616 49.492C41.5616 48.9909 41.3612 48.757 40.8601 48.7737C40.6763 48.7737 40.4926 48.8072 40.3088 48.8072C39.4402 48.8072 38.5716 48.8072 37.6862 48.7904C37.1183 48.7737 36.9178 49.041 36.9178 49.5923C36.9345 51.1123 36.9345 52.6157 36.9345 54.1358C36.9345 54.3029 36.9345 54.4699 36.9178 54.6203C36.8844 54.6704 36.8844 54.7038 36.9011 54.7539ZM37.1851 62.4713C34.6126 65.3444 34.7463 69.5873 37.4858 72.1264C37.586 72.2099 37.6695 72.2934 37.7698 72.3769C39.5237 73.8803 41.5616 74.3648 43.7666 73.8469C46.5896 73.1788 48.4104 71.3413 48.9951 68.5182C49.563 65.7787 48.661 63.4568 46.4226 61.6862C45.2032 60.7507 43.8 60.283 42.2632 60.283C40.2253 60.2329 38.5549 61.018 37.1851 62.4713ZM46.907 81.3472C43.2321 81.3472 39.5571 81.3472 35.8989 81.3472C35.7151 81.3472 35.5147 81.3472 35.3309 81.3639C35.047 81.3806 34.8632 81.5476 34.8632 81.8483C34.8465 82.149 35.047 82.2993 35.3142 82.3494C35.4479 82.3828 35.5982 82.3661 35.7485 82.3661C43.1486 82.3661 50.5486 82.3661 57.9653 82.3661C58.1657 82.3661 58.3829 82.3995 58.5833 82.2993C58.7838 82.1991 58.9174 82.032 58.884 81.7982C58.8506 81.581 58.7337 81.3973 58.4831 81.3806C58.2827 81.3639 58.0655 81.3639 57.8651 81.3639C54.2068 81.3472 50.5653 81.3472 46.907 81.3472ZM46.907 76.3359C43.2321 76.3359 39.5571 76.3359 35.8989 76.3359C35.7151 76.3359 35.5147 76.3359 35.3309 76.3526C35.047 76.3693 34.8632 76.5363 34.8632 76.837C34.8465 77.1377 35.047 77.288 35.3142 77.3381C35.4479 77.3715 35.5982 77.3548 35.7485 77.3548C43.1486 77.3548 50.5486 77.3548 57.9653 77.3548C58.1657 77.3548 58.3829 77.3882 58.5833 77.288C58.7838 77.1878 58.9174 77.0207 58.884 76.7869C58.8506 76.5697 58.7337 76.386 58.4831 76.3693C58.2827 76.3526 58.0655 76.3526 57.8651 76.3526C54.2068 76.3359 50.5653 76.3359 46.907 76.3359ZM31.0045 42.5764C31.0045 40.288 31.0045 37.9995 31.0045 35.711C31.0045 35.3769 31.0713 34.9927 30.5368 35.0094C30.1025 35.0428 30.0023 35.3101 30.0023 35.6943C30.0023 40.2712 30.0023 44.8482 30.0023 49.4252C30.0023 49.8428 30.1359 50.1268 30.6036 50.1268C31.088 50.1101 31.0045 49.7426 31.0045 49.4419C31.0045 47.1534 31.0045 44.8649 31.0045 42.5764ZM54.6244 61.3354C53.4551 61.3354 52.2858 61.3354 51.1165 61.3354C50.7657 61.3354 50.3982 61.3521 50.3815 61.8031C50.3648 62.2875 50.7323 62.3377 51.1165 62.3377C53.4551 62.3377 55.777 62.3377 58.1156 62.3377C58.5165 62.3377 58.8673 62.2541 58.8506 61.7864C58.8339 61.3521 58.4664 61.3187 58.0989 61.3187C56.963 61.3521 55.7937 61.3354 54.6244 61.3354ZM54.6077 67.3489C55.777 67.3489 56.9463 67.3489 58.0989 67.3489C58.4831 67.3489 58.8673 67.2821 58.8673 66.8311C58.8673 66.3634 58.4664 66.33 58.0822 66.33C55.777 66.33 53.4551 66.33 51.1499 66.33C50.7824 66.33 50.3815 66.33 50.3982 66.8311C50.3982 67.3155 50.7991 67.3322 51.1666 67.3322C52.3192 67.3489 53.4551 67.3489 54.6077 67.3489ZM54.6578 71.3413C53.4885 71.3413 52.3192 71.3413 51.1499 71.3413C50.7824 71.3413 50.3815 71.358 50.3982 71.8591C50.4149 72.3435 50.7991 72.3602 51.1666 72.3602C53.4551 72.3602 55.7436 72.3602 58.0488 72.3602C58.4497 72.3602 58.884 72.3268 58.8673 71.8257C58.8673 71.3079 58.3996 71.3413 58.0154 71.3413C56.8962 71.3413 55.777 71.3413 54.6578 71.3413ZM31.0045 33.3891C31.0212 33.0717 30.9043 32.8712 30.5535 32.8879C30.2361 32.9046 30.0357 33.055 30.019 33.3724C30.019 33.6897 30.2194 33.8568 30.5201 33.8735C30.8709 33.9069 31.0212 33.7232 31.0045 33.3891Z" fill="#F0F1F1"/>
<path d="M61.373 87.4945C61.2059 86.8597 61.1892 86.225 61.1892 85.5735C61.1892 76.3694 61.1892 67.182 61.1892 57.978C61.1892 56.6416 61.5901 56.2574 62.9432 56.2407C66.5346 56.2407 70.1093 56.224 73.7007 56.224C74.1184 56.224 74.536 56.224 74.9536 56.224C75.3712 56.224 75.8055 56.224 76.2231 56.224C79.3134 56.224 82.4037 56.2407 85.4773 56.2407C85.7613 56.2407 86.0619 56.2574 86.3459 56.2574C86.3459 65.4949 86.3459 74.7491 86.3459 83.9866C86.1455 83.9866 85.9283 83.9866 85.7278 83.9866C79.5807 83.9866 73.4335 83.9866 67.2863 83.9866C67.1025 83.9866 66.8687 83.8863 66.7685 84.0868C66.6682 84.2872 66.9355 84.3875 67.0357 84.5211C67.5034 85.1058 67.754 85.7405 67.8208 86.5089C67.9043 87.3274 67.47 87.9956 67.2863 88.7139C67.2028 88.7139 67.1359 88.7306 67.0524 88.7306C65.3152 88.6471 63.5612 88.9645 61.8574 88.3631C61.6235 88.1459 61.5567 87.7952 61.373 87.4945ZM72.7319 75.9184L72.6985 75.885C72.7987 75.6511 72.8822 75.4173 72.9825 75.2001C73.1328 74.8827 73.066 74.6155 72.7486 74.4651C72.4312 74.3148 72.2141 74.4818 72.0804 74.7491C71.7296 75.4173 71.4122 76.0854 71.0782 76.7536C70.9278 77.0376 70.9779 77.3215 71.2619 77.4552C71.9468 77.7559 72.6484 78.0064 73.3667 78.257C73.6172 78.3405 73.8678 78.257 73.968 77.9563C74.0682 77.6723 73.9346 77.4886 73.7007 77.3383C73.5003 77.2213 73.233 77.2046 73.066 76.9875C73.1495 76.9373 73.1996 76.8872 73.2497 76.8705C76.5739 75.3003 78.8457 72.7446 80.1987 69.3536C80.5996 68.368 80.8836 67.3491 81.0673 66.2967C81.1175 65.996 81.0673 65.6953 80.6831 65.6285C80.3324 65.5784 80.1486 65.7789 80.0818 66.113C80.0484 66.3134 79.9983 66.5139 79.9482 66.731C79.2633 69.671 77.9102 72.2267 75.5883 74.1978C74.7364 74.8994 73.8511 75.601 72.7319 75.9184ZM83.6064 78.1568C83.6231 76.3527 82.2199 74.9161 80.4493 74.8827C78.6452 74.866 77.1251 76.336 77.1418 78.0899C77.1585 79.8439 78.6118 81.3139 80.3658 81.3473C82.0863 81.3807 83.5897 79.9107 83.6064 78.1568ZM68.0714 65.8958C69.8755 65.8958 71.312 64.4926 71.3287 62.7387C71.3454 60.9179 69.9256 59.498 68.0881 59.498C66.3007 59.498 64.8642 60.9179 64.8475 62.6886C64.8308 64.4258 66.3007 65.8791 68.0714 65.8958ZM69.7418 80.2448C69.9256 80.2281 70.0926 80.1279 70.1594 79.9441C70.2597 79.7103 70.1928 79.4931 70.0258 79.3094C69.5414 78.8249 69.0569 78.3238 68.5725 77.8561C68.3387 77.6389 68.322 77.4886 68.5725 77.2547C69.0569 76.8037 69.5247 76.3193 69.9924 75.8516C70.2429 75.601 70.3599 75.317 70.0759 75.0331C69.7919 74.7491 69.508 74.8827 69.2574 75.1333C68.8565 75.5509 68.4055 75.9351 68.0213 76.3694C67.6872 76.7536 67.4533 76.8037 67.1025 76.3861C66.735 75.9518 66.284 75.5509 65.8664 75.15C65.6159 74.8827 65.3152 74.699 65.0145 75.0331C64.7138 75.3504 64.9143 75.6344 65.1648 75.885C65.6326 76.336 66.0669 76.8037 66.5346 77.2547C66.7685 77.4719 66.7852 77.6222 66.5346 77.8394C66.0669 78.2737 65.6159 78.7581 65.1648 79.1924C64.8976 79.443 64.6971 79.727 64.9978 80.0444C65.3319 80.4118 65.6326 80.1613 65.8998 79.894C66.3508 79.4597 66.8019 79.0254 67.2195 78.5744C67.47 78.3071 67.6371 78.3238 67.8709 78.5744C68.2885 79.0254 68.7563 79.4597 69.1906 79.894C69.3576 80.0778 69.4913 80.2281 69.7418 80.2448ZM78.712 60.0159C78.5116 60.0326 78.3612 60.1495 78.2777 60.3333C78.1775 60.5504 78.2777 60.7342 78.4281 60.9012C78.8791 61.3689 79.3301 61.8366 79.7978 62.271C80.1319 62.5716 80.182 62.7888 79.8145 63.1062C79.3468 63.5238 78.9292 63.9915 78.4782 64.4258C78.2109 64.6764 78.1274 64.9604 78.4114 65.2443C78.6786 65.5116 78.9459 65.378 79.1798 65.1441C79.6475 64.6764 80.1319 64.2087 80.5996 63.7242C80.8502 63.457 81.0172 63.4737 81.2511 63.7242C81.6854 64.192 82.1698 64.643 82.6208 65.094C82.8547 65.3279 83.122 65.5116 83.4227 65.2276C83.7567 64.9102 83.573 64.6263 83.3224 64.359C82.8714 63.8913 82.4204 63.4236 81.9527 62.9892C81.6854 62.7387 81.7021 62.5716 81.9527 62.3378C82.4204 61.9035 82.8714 61.4357 83.3224 60.968C83.573 60.7175 83.7233 60.4502 83.4394 60.1662C83.1554 59.8655 82.8714 60.0159 82.6376 60.2664C82.2199 60.7008 81.7689 61.1017 81.368 61.5527C81.0673 61.8868 80.8502 61.9369 80.5328 61.5694C80.1319 61.1184 79.6809 60.7175 79.2466 60.2999C79.0962 60.1662 78.9459 59.9992 78.712 60.0159Z" fill="#5E9CF6"/>
<path d="M67.3029 88.7304C67.5034 87.9954 67.921 87.3439 67.8375 86.5254C67.7707 85.7737 67.5201 85.1223 67.0524 84.5376C66.9355 84.404 66.6849 84.3038 66.7851 84.1033C66.8853 83.9029 67.1192 84.0031 67.3029 84.0031C73.4501 84.0031 79.5973 84.0031 85.7445 84.0031C85.945 84.0031 86.1621 84.0031 86.3626 84.0031C86.7969 84.0031 87.2145 83.9864 87.6488 83.9864C88.3003 84.0031 88.9684 84.0198 89.6199 84.0365C89.6032 84.5877 89.9206 85.0722 89.8705 85.6234C89.6533 87.4776 88.2502 88.7471 86.3793 88.7471C82.4872 88.7471 78.5951 88.7471 74.6863 88.7471C72.214 88.7471 69.7585 88.7471 67.3029 88.7304Z" fill="#377DE1"/>
<path d="M73.7006 42.7602C71.3285 42.7602 68.9565 42.7435 66.5845 42.7435C66.1168 42.7435 65.6658 42.71 65.2315 42.5764C64.2125 42.2423 63.561 41.3403 63.561 40.2044C63.561 36.8468 63.561 33.4726 63.561 30.115C63.7448 30.282 63.9452 30.4324 64.1123 30.6161C67.5367 34.0405 70.9777 37.4649 74.4021 40.8726C74.9534 41.4238 75.538 41.9751 76.106 42.5096C75.7719 42.8437 75.3042 42.543 74.9367 42.7267C74.5358 42.6599 74.1182 42.6098 73.7006 42.7602Z" fill="#929497"/>
<path d="M64.1959 89.9833C62.9264 89.9833 61.6569 90 60.3873 90C50.7824 90 41.1774 90 31.5724 90C30.6036 90 29.8519 89.6158 29.3674 88.7472C29.6848 88.4799 30.0022 88.7639 30.3196 88.7639C40.9101 88.7472 51.5007 88.7472 62.0912 88.7472C62.6758 89.3485 63.3941 89.7494 64.1959 89.9833Z" fill="#D0D2D3"/>
<path d="M62.0745 88.7471C51.484 88.7471 40.8935 88.7471 30.3029 88.7638C29.9856 88.7638 29.6682 88.4798 29.3508 88.7471C29.1503 88.3629 29 87.962 29 87.511C39.4736 87.511 49.9472 87.511 60.4375 87.511C60.7549 87.511 61.0556 87.511 61.373 87.511C61.5567 87.795 61.6235 88.1625 61.8908 88.413C61.9576 88.5132 62.0077 88.6302 62.0745 88.7471Z" fill="#E5E6E7"/>
<path d="M67.3033 88.7305C69.7589 88.7305 72.2144 88.7472 74.6699 88.7472C78.562 88.7472 82.4541 88.7472 86.3629 88.7472C88.2338 88.7472 89.6537 87.4777 89.8541 85.6235C89.921 85.0723 89.5869 84.5879 89.6036 84.0366C90.6894 84.5043 90.99 85.4732 91.0736 86.4922C91.2239 88.4132 89.6871 90.0001 87.7661 90.0001C80.4329 90.0001 73.0997 90.0001 65.7498 90.0001C65.516 90.0001 65.2988 89.9834 65.0649 89.9834C65.8333 89.7495 66.585 89.4822 67.0528 88.7639C67.153 88.7472 67.2198 88.7472 67.3033 88.7305Z" fill="#2366D2"/>
<path d="M87.6488 83.9864C87.2145 83.9864 86.7969 84.0031 86.3625 84.0031C86.3625 74.7656 86.3625 65.5114 86.3625 56.2739C87.1477 56.3073 87.5653 56.6915 87.6321 57.4265C87.6488 57.5769 87.6488 57.7105 87.6488 57.8608C87.6488 66.5805 87.6488 75.2834 87.6488 83.9864Z" fill="#478CF6"/>
<path d="M74.9368 42.7268C75.3043 42.5431 75.7553 42.8437 76.1061 42.5096C76.3065 42.6934 76.2063 42.944 76.2063 43.1611C76.2063 47.5209 76.223 51.8808 76.223 56.2406C75.8054 56.2406 75.3711 56.2406 74.9535 56.2406C74.9535 51.7304 74.9535 47.237 74.9368 42.7268Z" fill="#D0D2D3"/>
<path d="M67.0692 88.7638C66.6015 89.4821 65.8498 89.7494 65.0814 89.9833C64.7974 89.9833 64.4967 89.9833 64.2128 89.9833C63.411 89.7327 62.6927 89.3318 62.0913 88.7471C62.0245 88.6302 61.9577 88.5133 61.8909 88.3796C63.578 88.9977 65.3487 88.6803 67.0692 88.7638Z" fill="#478CF6"/>
<path d="M37.7701 72.377C37.6698 72.2935 37.5863 72.21 37.4861 72.1265C37.6531 71.9427 37.8369 71.7757 38.0039 71.5919C39.357 70.0718 40.9105 68.7021 42.1967 67.1319C42.3136 66.9815 42.2635 66.8145 42.2635 66.6474C42.2635 64.526 42.2635 62.4213 42.2635 60.2998C43.8003 60.3165 45.2035 60.7675 46.4229 61.703C46.3895 61.9368 46.5064 62.1039 46.64 62.2709C47.8762 64.0416 48.0933 65.9793 47.5588 68.0339C46.5565 71.9928 41.9962 74.0475 38.3213 72.4773C38.1543 72.4104 37.9872 72.1599 37.7701 72.377Z" fill="#E53950"/>
<path d="M52.2022 54.1358C52.2022 49.0911 52.2023 44.0297 52.1855 38.985C52.1855 38.4672 52.386 38.2166 52.9205 38.2333C53.7892 38.25 54.6745 38.25 55.5431 38.25C55.5431 43.0609 55.5431 47.855 55.5431 52.6659C55.5431 53.5846 55.0086 54.1191 54.0731 54.1358C53.4551 54.1358 52.8203 54.1358 52.2022 54.1358Z" fill="#77A350"/>
<path d="M44.5516 54.1357C44.5516 50.6779 44.5516 47.2034 44.5349 43.7456C44.5349 43.2111 44.7521 42.994 45.2866 43.0107C46.1719 43.0274 47.0406 43.0274 47.9092 43.0274C47.9092 46.2346 47.9092 49.4585 47.9092 52.6658C47.9092 53.5511 47.3913 54.1023 46.4893 54.119C45.8546 54.1524 45.2031 54.1357 44.5516 54.1357Z" fill="#FEC81F"/>
<path d="M42.1966 67.1151C40.8937 68.702 39.3569 70.0551 38.0038 71.5752C37.8368 71.7589 37.6697 71.9427 37.486 72.1097C34.7465 69.5874 34.6128 65.3445 37.1853 62.4713C38.8557 64.0248 40.5262 65.5616 42.1966 67.1151Z" fill="#77A350"/>
<path d="M46.9071 81.3473C50.5653 81.3473 54.2069 81.3473 57.8651 81.3473C58.0656 81.3473 58.2827 81.3473 58.4832 81.364C58.717 81.3974 58.8507 81.5644 58.8841 81.7816C58.9175 82.0154 58.7839 82.1825 58.5834 82.2827C58.383 82.3829 58.1825 82.3495 57.9653 82.3495C50.5653 82.3495 43.1653 82.3495 35.7486 82.3495C35.5983 82.3495 35.4479 82.3662 35.3143 82.3328C35.047 82.2827 34.8466 82.1324 34.8633 81.8317C34.88 81.531 35.047 81.3807 35.331 81.3473C35.5147 81.3306 35.6985 81.3306 35.8989 81.3306C39.5739 81.3473 43.2321 81.3473 46.9071 81.3473Z" fill="#484749"/>
<path d="M46.9071 76.3359C50.5653 76.3359 54.2069 76.3359 57.8651 76.3359C58.0656 76.3359 58.2827 76.3359 58.4832 76.3526C58.717 76.386 58.8507 76.5531 58.8841 76.7702C58.9175 77.0041 58.7839 77.1711 58.5834 77.2714C58.383 77.3716 58.1825 77.3382 57.9653 77.3382C50.5653 77.3382 43.1653 77.3382 35.7486 77.3382C35.5983 77.3382 35.4479 77.3549 35.3143 77.3215C35.047 77.2714 34.8466 77.121 34.8633 76.8203C34.88 76.5197 35.047 76.3693 35.331 76.3359C35.5147 76.3192 35.6985 76.3192 35.8989 76.3192C39.5739 76.3359 43.2321 76.3359 46.9071 76.3359Z" fill="#484749"/>
<path d="M56.7954 54.7706C57.2798 54.921 57.7977 54.804 58.2821 54.8374C58.6162 54.8542 58.8668 54.9878 58.8668 55.3386C58.8668 55.6894 58.5995 55.8397 58.2654 55.8564C58.1151 55.8564 57.9814 55.8564 57.8311 55.8564C50.5313 55.8564 43.2315 55.8564 35.915 55.8564C35.8148 55.8564 35.7146 55.8564 35.5976 55.8564C35.2134 55.8564 34.8459 55.823 34.8459 55.3219C34.8459 54.8709 35.2134 54.8374 35.5642 54.8374C35.9985 54.8374 36.4329 54.804 36.8672 54.7873C38.404 54.9043 39.9575 54.9043 41.4943 54.7873C42.4965 54.8876 43.4988 54.8542 44.501 54.804C46.0545 54.8709 47.5913 54.8876 49.1448 54.804C50.1471 54.8542 51.1494 54.8876 52.1516 54.7873C53.3209 54.9711 54.5069 54.8374 55.6762 54.8542C56.0604 54.8709 56.4446 54.9878 56.7954 54.7706Z" fill="#484749"/>
<path d="M56.7959 54.7706C56.4451 54.9711 56.0609 54.8709 55.7102 54.8709C54.5409 54.8375 53.3548 54.9711 52.1855 54.804C52.1855 54.5869 52.2022 54.3697 52.2022 54.1526C52.8203 54.1526 53.4551 54.1526 54.0731 54.1526C55.0253 54.1359 55.5431 53.618 55.5431 52.6826C55.5431 47.8718 55.5431 43.0776 55.5431 38.2668C56.6289 38.0663 56.8126 38.2167 56.8126 39.2857C56.8126 44.4307 56.7959 49.609 56.7959 54.7706Z" fill="#648840"/>
<path d="M37.7698 72.3769C38.0036 72.1598 38.154 72.4103 38.321 72.4772C41.996 74.0641 46.5562 71.9927 47.5585 68.0338C48.0763 65.9792 47.8759 64.0415 46.6398 62.2708C46.5228 62.1038 46.4059 61.92 46.4226 61.7029C48.6443 63.4735 49.563 65.7787 48.9951 68.5349C48.4104 71.358 46.6064 73.1955 43.7666 73.8636C41.545 74.3648 39.507 73.8803 37.7698 72.3769Z" fill="#D1052B"/>
<path d="M42.1964 67.1152C40.5259 65.5617 38.8555 64.0249 37.1851 62.4714C38.5715 61.0181 40.2252 60.233 42.2632 60.2831C42.2632 62.4046 42.2632 64.5093 42.2632 66.6308C42.2632 66.7978 42.2966 66.9649 42.1964 67.1152Z" fill="#FEC81F"/>
<path d="M49.1787 54.8041C47.6252 54.8876 46.0884 54.8876 44.5349 54.8041C44.5516 54.5702 44.5516 54.3531 44.5683 54.1192C45.2198 54.1192 45.8546 54.1359 46.506 54.1192C47.4081 54.1025 47.9259 53.5513 47.9259 52.666C47.9259 49.4587 47.9259 46.2348 47.9259 43.0276C48.0762 43.0276 48.2099 43.0109 48.3602 43.0109C49.1119 43.0109 49.1787 43.0777 49.1787 43.8294C49.1787 47.4876 49.1787 51.1459 49.1787 54.8041Z" fill="#FCA71A"/>
<path d="M36.9176 54.1359C36.9176 52.6158 36.9176 51.1124 36.9009 49.5923C36.9009 49.0411 37.1013 48.7738 37.6693 48.7905C38.5379 48.8072 39.4065 48.8072 40.2919 48.8072C40.2919 50.0935 40.2919 51.3797 40.2752 52.6659C40.2752 53.568 39.7573 54.0858 38.8553 54.1192C38.2038 54.1359 37.5523 54.1359 36.9176 54.1359Z" fill="#E53950"/>
<path d="M74.9368 42.7267C74.9368 47.2369 74.9368 51.7303 74.9535 56.2405C74.5359 56.2405 74.1183 56.2405 73.7007 56.2405C73.7007 51.747 73.7007 47.2536 73.7007 42.7601C74.1183 42.6098 74.5359 42.6599 74.9368 42.7267Z" fill="#E5E6E7"/>
<path d="M31.0047 42.5762C31.0047 44.8647 31.0047 47.1532 31.0047 49.4417C31.0047 49.7424 31.0715 50.1099 30.6038 50.1266C30.1361 50.1433 30.0024 49.8426 30.0024 49.425C30.0024 44.848 30.0024 40.2711 30.0024 35.6941C30.0024 35.3099 30.1194 35.0259 30.537 35.0092C31.0548 34.9925 31.0047 35.3767 31.0047 35.7108C31.0047 37.9993 31.0047 40.2878 31.0047 42.5762Z" fill="#FEFEFE"/>
<path d="M36.9177 54.136C37.5692 54.136 38.204 54.136 38.8554 54.1193C39.7575 54.1026 40.2753 53.568 40.2753 52.666C40.2753 51.3798 40.292 50.0935 40.292 48.8073C40.4757 48.7906 40.6595 48.7739 40.8432 48.7739C41.3444 48.7572 41.5448 48.9911 41.5448 49.4922C41.5281 51.2461 41.5448 53.0168 41.5448 54.7875C40.008 54.9211 38.4545 54.9044 36.9177 54.7875V54.7373C36.9344 54.7206 36.9678 54.7206 36.9511 54.7039C36.9511 54.6705 36.9344 54.6371 36.9177 54.6204C36.9177 54.4701 36.9177 54.303 36.9177 54.136Z" fill="#D1052B"/>
<path d="M54.6244 61.3354C55.7937 61.3354 56.963 61.3354 58.1156 61.3354C58.4664 61.3354 58.8506 61.3689 58.8673 61.8032C58.884 62.2709 58.5165 62.3544 58.1324 62.3544C55.7937 62.3544 53.4718 62.3544 51.1332 62.3544C50.749 62.3544 50.3815 62.3043 50.3983 61.8199C50.415 61.3689 50.7825 61.3522 51.1332 61.3522C52.3025 61.3354 53.4551 61.3354 54.6244 61.3354Z" fill="#484749"/>
<path d="M54.6077 67.3491C53.4551 67.3491 52.3192 67.3491 51.1666 67.3491C50.7991 67.3491 50.3982 67.3324 50.3982 66.8479C50.3815 66.3468 50.7824 66.3468 51.1499 66.3468C53.4551 66.3468 55.777 66.3468 58.0822 66.3468C58.4497 66.3468 58.8673 66.3635 58.8673 66.8479C58.8673 67.2989 58.4831 67.3825 58.0989 67.3658C56.9463 67.3491 55.777 67.3491 54.6077 67.3491Z" fill="#484749"/>
<path d="M54.6577 71.3413C55.7769 71.3413 56.9128 71.3413 58.032 71.3413C58.4162 71.3413 58.8672 71.3078 58.8839 71.8257C58.8839 72.3268 58.4663 72.3602 58.0654 72.3602C55.7769 72.3602 53.4884 72.3602 51.1832 72.3602C50.8157 72.3602 50.4148 72.3435 50.4148 71.8591C50.3981 71.358 50.799 71.3413 51.1665 71.3413C52.3191 71.3413 53.4884 71.3413 54.6577 71.3413Z" fill="#484749"/>
<path d="M31.0047 33.3891C31.0214 33.7231 30.8711 33.9069 30.537 33.8735C30.2196 33.8568 30.0192 33.6897 30.0359 33.3724C30.0359 33.055 30.253 32.9046 30.5704 32.8879C30.9045 32.8712 31.0214 33.0717 31.0047 33.3891Z" fill="#FEFEFE"/>
<path d="M36.901 54.6368C36.9177 54.6702 36.9344 54.687 36.9344 54.7204C36.9344 54.7204 36.901 54.7371 36.901 54.7538C36.8843 54.7037 36.8843 54.6702 36.901 54.6368Z" fill="#E53950"/>
<path d="M72.732 75.9183C73.8345 75.601 74.7365 74.9161 75.5884 74.1978C77.927 72.2267 79.2801 69.6709 79.9482 66.731C79.9983 66.5305 80.0318 66.3301 80.0819 66.1129C80.1487 65.7788 80.3324 65.5784 80.6832 65.6285C81.0674 65.6786 81.1175 65.9793 81.0674 66.2967C80.8837 67.349 80.5997 68.368 80.1988 69.3536C78.8457 72.7445 76.574 75.3003 73.2498 76.8705C73.1997 76.9039 73.1496 76.9373 73.0661 76.9874C73.2331 77.2046 73.5004 77.2213 73.7008 77.3382C73.9347 77.4886 74.085 77.6723 73.9681 77.9563C73.8679 78.2402 73.6173 78.3405 73.3667 78.2569C72.6652 78.0064 71.9469 77.7558 71.262 77.4551C70.978 77.3382 70.9279 77.0375 71.0782 76.7536C71.4123 76.0854 71.7464 75.4172 72.0805 74.749C72.2141 74.4818 72.4313 74.3147 72.7487 74.4651C73.0661 74.6154 73.1329 74.8827 72.9825 75.2001C72.8823 75.4172 72.7821 75.6511 72.6986 75.8849C72.6819 75.9183 72.6652 75.9351 72.6484 75.9685C72.6819 75.9351 72.7153 75.9183 72.732 75.9183Z" fill="#FEFEFE"/>
<path d="M83.6062 78.1566C83.5895 79.9106 82.0861 81.3806 80.3488 81.3472C78.5949 81.3137 77.1416 79.8438 77.1249 78.0898C77.1082 76.3359 78.6283 74.8659 80.4323 74.8826C82.2197 74.8993 83.6062 76.3526 83.6062 78.1566ZM80.3655 80.2948C81.6351 80.2948 82.6039 79.3593 82.6039 78.1232C82.6039 76.9038 81.6351 75.9016 80.3989 75.8848C79.1795 75.8681 78.194 76.8537 78.1773 78.0898C78.1773 79.3593 79.096 80.2948 80.3655 80.2948Z" fill="#FEFEFE"/>
<path d="M68.0712 65.8955C66.3006 65.8955 64.8306 64.4256 64.8473 62.6716C64.864 60.9009 66.3006 59.4811 68.0879 59.4811C69.9254 59.4811 71.3453 60.9009 71.3286 62.7217C71.3119 64.4924 69.8586 65.8955 68.0712 65.8955ZM68.0712 64.8933C69.3074 64.8933 70.3096 63.9244 70.3263 62.705C70.343 61.4856 69.3408 60.4833 68.1214 60.4833C66.8685 60.4833 65.883 61.4355 65.8663 62.6549C65.8329 63.8576 66.8518 64.8933 68.0712 64.8933Z" fill="#FEFEFE"/>
<path d="M69.7422 80.2447C69.4916 80.2447 69.358 80.0777 69.2076 79.9441C68.7733 79.5098 68.3056 79.0754 67.888 78.6244C67.6541 78.3739 67.4871 78.3572 67.2365 78.6244C66.8189 79.0754 66.3679 79.5098 65.9169 79.9441C65.6496 80.1946 65.3489 80.4619 65.0148 80.0944C64.7142 79.7603 64.9313 79.493 65.1819 79.2425C65.6496 78.7915 66.0839 78.3237 66.5516 77.8894C66.8022 77.6556 66.7688 77.5219 66.5516 77.3048C66.0839 76.8705 65.6329 76.4028 65.1819 75.935C64.9313 75.6845 64.7142 75.4005 65.0315 75.0831C65.3322 74.7657 65.6329 74.9495 65.8835 75.2C66.3011 75.6176 66.7354 76.0018 67.1196 76.4362C67.4704 76.8538 67.7209 76.7869 68.0383 76.4195C68.4225 75.9851 68.8568 75.6009 69.2744 75.1833C69.525 74.9328 69.7923 74.7991 70.093 75.0831C70.3769 75.3671 70.2433 75.6511 70.0094 75.9016C69.5417 76.3693 69.074 76.8538 68.5896 77.3048C68.339 77.5386 68.3557 77.6723 68.5896 77.9061C69.0907 78.3739 69.5584 78.875 70.0428 79.3594C70.2266 79.5432 70.2767 79.7603 70.1765 79.9942C70.093 80.1278 69.9259 80.228 69.7422 80.2447Z" fill="#FEFEFE"/>
<path d="M78.7124 60.0157C78.9463 59.999 79.0966 60.1661 79.2469 60.2997C79.6812 60.7173 80.149 61.1182 80.5332 61.5692C80.8505 61.9367 81.0677 61.8866 81.3684 61.5525C81.7693 61.1015 82.2203 60.7006 82.6379 60.2663C82.8885 60.0157 83.1557 59.8654 83.4397 60.1661C83.7237 60.4668 83.5734 60.734 83.3228 60.9679C82.8551 61.4189 82.4208 61.8866 81.953 62.3376C81.7025 62.5715 81.6858 62.7385 81.953 62.9891C82.4208 63.4234 82.8718 63.8911 83.3228 64.3589C83.5734 64.6094 83.7571 64.9101 83.423 65.2275C83.1223 65.5115 82.8551 65.3277 82.6212 65.0939C82.1702 64.6428 81.7025 64.1918 81.2514 63.7241C81.0176 63.4735 80.8338 63.4568 80.6 63.7241C80.149 64.2085 79.6645 64.6762 79.1801 65.144C78.9463 65.3778 78.6957 65.5115 78.4117 65.2442C78.1277 64.9769 78.2113 64.693 78.4785 64.4257C78.9296 63.9914 79.3472 63.5236 79.8149 63.106C80.1824 62.7887 80.1323 62.5715 79.7982 62.2708C79.3137 61.8365 78.8794 61.3688 78.4284 60.9011C78.2781 60.7507 78.1779 60.567 78.2781 60.3331C78.3616 60.1494 78.4952 60.0324 78.7124 60.0157Z" fill="#FEFEFE"/>
<path d="M72.7317 75.9183C72.6983 75.935 72.6649 75.9517 72.6482 75.9684C72.6649 75.935 72.6816 75.9183 72.6983 75.8849C72.6983 75.8682 72.7317 75.9183 72.7317 75.9183Z" fill="#5E9CF6"/>
<path d="M80.3655 80.2947C79.096 80.2947 78.1772 79.3592 78.1772 78.0897C78.1772 76.8536 79.1795 75.868 80.3989 75.8847C81.6183 75.9014 82.6039 76.9037 82.6039 78.1231C82.6039 79.3592 81.635 80.3114 80.3655 80.2947Z" fill="#5E9CF6"/>
<path d="M68.0715 64.8933C66.8521 64.8933 65.8331 63.8744 65.8498 62.6717C65.8665 61.4355 66.8688 60.4834 68.1049 60.5001C69.3243 60.5001 70.3266 61.5024 70.3099 62.7218C70.3099 63.9245 69.3076 64.8933 68.0715 64.8933Z" fill="#5E9CF6"/>
<rect x="0.5" y="0.5" width="119" height="119" rx="59.5" stroke="#C4C4C4"/>
</svg>
