<svg width="104" height="100" viewBox="0 0 104 100" fill="none" xmlns="http://www.w3.org/2000/svg">
<g clip-path="url(#clip0_218_48291)">
<path d="M60.1336 99.9721C60.5234 99.9721 60.8853 100 61.2751 100C73.4967 100 85.7183 100 97.9677 100C101.169 100 103.731 97.3552 103.48 94.1537C103.341 92.4554 102.812 90.8407 101.03 90.0612C99.9443 90.0334 98.8307 90.0056 97.745 89.9777C97.745 75.4733 97.745 60.9688 97.745 46.4365C97.745 46.186 97.745 45.9632 97.7171 45.7127C97.6058 44.4877 96.882 43.8474 95.6013 43.7917C95.1281 43.7917 94.6269 43.7639 94.1537 43.7639C89.0033 43.7639 83.853 43.7361 78.7305 43.7361C78.7305 36.4699 78.7305 29.2038 78.7027 21.9376C78.7027 21.5757 78.8697 21.1581 78.5356 20.8519C77.5891 19.9332 76.6425 19.0423 75.696 18.1236C69.9889 12.4165 64.2539 6.70934 58.5468 1.03005C58.2405 0.751658 57.9343 0.473261 57.6281 0.194865C57.294 -0.055692 56.8764 0.0556666 56.5145 0.0556666C39.1982 0.0556666 21.882 0.0556666 4.5657 0.0556666C1.86526 0.0278269 0 1.86524 0 4.51001C0 34.9387 0 65.3953 0 95.824C0 96.5757 0.250557 97.2717 0.612472 97.912C1.39198 99.3597 2.67261 100 4.2873 100C20.2951 100 36.3029 100 52.3107 100C54.4265 100 56.5423 99.9721 58.6581 99.9721C59.1592 99.9721 59.6325 99.9721 60.1336 99.9721Z" fill="#FEFEFE"/>
<path d="M0 95.8519C0 65.4231 0 34.9666 0 4.53786C0 1.86525 1.86526 0.0278345 4.51002 0.0278345C21.8263 0.0278345 39.1425 0.0278345 56.4588 0.0278345C56.8207 0.0278345 57.2383 -0.083524 57.5724 0.167033C57.5724 5.79064 57.5445 11.3864 57.5724 16.9822C57.5724 18.8753 58.6581 20.3786 60.3563 20.9354C61.0802 21.1581 61.8597 21.2138 62.6114 21.2138C66.5646 21.2138 70.5178 21.2416 74.471 21.2416C74.471 28.7305 74.471 36.2194 74.471 43.7082C68.4855 43.7082 62.5278 43.7361 56.5423 43.7361C54.2595 43.7361 53.6192 44.3764 53.6192 46.6314C53.6192 61.971 53.6192 77.2829 53.6192 92.6225C53.6192 93.7082 53.6748 94.7661 53.9254 95.8241C53.3964 95.8241 52.8675 95.8241 52.3664 95.8241C34.9109 95.8519 17.4555 95.8519 0 95.8519ZM13.1682 41.2583V41.3419C12.4443 41.3697 11.7205 41.3975 10.9967 41.4254C10.412 41.4254 9.79955 41.4811 9.79955 42.2327C9.79955 43.0401 10.412 43.1236 11.0523 43.1236C11.2194 43.1236 11.3864 43.1236 11.5813 43.1236C23.7472 43.1236 35.9131 43.1236 48.1069 43.1236C48.3575 43.1236 48.5802 43.1236 48.8307 43.1236C49.3875 43.0958 49.8051 42.8452 49.833 42.2606C49.833 41.6759 49.4154 41.4532 48.8586 41.4254C48.0234 41.3697 47.1882 41.5646 46.3808 41.314C46.3808 32.6837 46.4087 24.0813 46.4087 15.451C46.4087 13.6971 46.1025 13.4465 44.2929 13.7528C42.8452 13.7528 41.3697 13.7528 39.922 13.7249C39.0312 13.6971 38.6971 14.1147 38.6971 14.9777C38.7249 23.3853 38.7249 31.8207 38.7249 40.2283C38.7249 40.5902 38.6971 40.9521 38.6971 41.314C37.0267 41.4532 35.3563 41.4254 33.686 41.3419C33.686 35.245 33.686 29.1481 33.686 23.0512C33.686 21.7984 33.5746 21.6871 32.3218 21.6871C32.0713 21.6871 31.8486 21.7149 31.598 21.7149C30.1503 21.7149 28.7027 21.7149 27.2272 21.6592C26.3363 21.6314 25.9744 22.0212 25.9744 22.8842C26.0022 28.647 26.0022 34.4376 26.0022 40.2004C25.9744 40.5902 25.9744 40.9521 25.9465 41.3419C24.2762 41.3975 22.6058 41.4811 20.9354 41.314C20.9354 38.363 20.9354 35.4399 20.9354 32.4889C20.9354 31.6537 20.6013 31.2639 19.7661 31.2918C19.4599 31.2918 19.1537 31.3474 18.8474 31.3474C17.3998 31.3474 15.9521 31.3474 14.4766 31.3196C13.5301 31.2918 13.196 31.7372 13.196 32.6559C13.2238 35.1893 13.2238 37.6949 13.2238 40.2283C13.2238 40.5067 13.2238 40.7851 13.196 41.0356C13.1403 41.1191 13.1403 41.1748 13.1682 41.2583ZM13.6414 54.1203C9.35412 58.9087 9.57684 65.9799 14.1425 70.2116C14.3096 70.3508 14.4488 70.49 14.6158 70.6292C17.539 73.1347 20.9354 73.9421 24.6102 73.0791C29.3151 71.9655 32.3497 68.9031 33.3241 64.1982C34.2706 59.6325 32.7673 55.7628 29.0367 52.8118C27.0045 51.2528 24.6659 50.4733 22.1047 50.4733C18.7082 50.3898 15.9243 51.6982 13.6414 54.1203ZM29.8441 85.5791C23.7194 85.5791 17.5947 85.5791 11.4978 85.5791C11.1915 85.5791 10.8575 85.5791 10.5512 85.6069C10.078 85.6347 9.77171 85.9131 9.77171 86.4142C9.74387 86.9154 10.078 87.1659 10.5234 87.2494C10.7461 87.3051 10.9967 87.2773 11.2472 87.2773C23.5802 87.2773 35.9131 87.2773 48.2739 87.2773C48.608 87.2773 48.9699 87.333 49.304 87.1659C49.6381 86.9989 49.8608 86.7205 49.8051 86.3307C49.7494 85.9688 49.5546 85.6626 49.137 85.6347C48.8029 85.6069 48.441 85.6069 48.1069 85.6069C42.01 85.5791 35.941 85.5791 29.8441 85.5791ZM29.8441 77.2272C23.7194 77.2272 17.5947 77.2272 11.4978 77.2272C11.1915 77.2272 10.8575 77.2272 10.5512 77.255C10.078 77.2828 9.77171 77.5612 9.77171 78.0624C9.74387 78.5635 10.078 78.814 10.5234 78.8975C10.7461 78.9532 10.9967 78.9254 11.2472 78.9254C23.5802 78.9254 35.9131 78.9254 48.2739 78.9254C48.608 78.9254 48.9699 78.9811 49.304 78.814C49.6381 78.647 49.8608 78.3686 49.8051 77.9788C49.7494 77.6169 49.5546 77.3107 49.137 77.2828C48.8029 77.255 48.441 77.255 48.1069 77.255C42.01 77.2272 35.941 77.2272 29.8441 77.2272ZM3.34076 20.9632C3.34076 17.1492 3.34076 13.3352 3.34076 9.52115C3.34076 8.96436 3.45212 8.32405 2.56125 8.35189C1.83742 8.40757 1.67038 8.853 1.67038 9.49331C1.67038 17.1214 1.67038 24.7494 1.67038 32.3775C1.67038 33.0735 1.8931 33.5468 2.67261 33.5468C3.47996 33.5189 3.34076 32.9065 3.34076 32.4053C3.34076 28.5913 3.34076 24.7773 3.34076 20.9632ZM42.706 52.2272C40.7572 52.2272 38.8085 52.2272 36.8597 52.2272C36.2751 52.2272 35.6626 52.255 35.6347 53.0067C35.6069 53.814 36.2194 53.8975 36.8597 53.8975C40.7572 53.8975 44.6269 53.8975 48.5245 53.8975C49.1926 53.8975 49.7773 53.7583 49.7494 52.9788C49.7216 52.255 49.1091 52.1993 48.4967 52.1993C46.6036 52.255 44.6548 52.2272 42.706 52.2272ZM42.6782 62.2494C44.6269 62.2494 46.5757 62.2494 48.4967 62.2494C49.137 62.2494 49.7773 62.1381 49.7773 61.3864C49.7773 60.6069 49.1091 60.5512 48.4688 60.5512C44.6269 60.5512 40.7572 60.5512 36.9154 60.5512C36.3029 60.5512 35.6347 60.5512 35.6626 61.3864C35.6626 62.1938 36.3307 62.2216 36.9432 62.2216C38.8641 62.2494 40.7572 62.2494 42.6782 62.2494ZM42.7617 68.9031C40.8129 68.9031 38.8641 68.9031 36.9154 68.9031C36.3029 68.9031 35.6347 68.931 35.6626 69.7661C35.6904 70.5735 36.3307 70.6013 36.9432 70.6013C40.7572 70.6013 44.5713 70.6013 48.4131 70.6013C49.0813 70.6013 49.8051 70.5456 49.7773 69.7105C49.7773 68.8474 48.9978 68.9031 48.3575 68.9031C46.4922 68.9031 44.6269 68.9031 42.7617 68.9031ZM3.34076 5.65144C3.3686 5.12249 3.17372 4.78841 2.58909 4.81625C2.06013 4.84409 1.72606 5.09465 1.69822 5.6236C1.69822 6.15256 2.03229 6.43095 2.53341 6.45879C3.11804 6.51447 3.3686 6.20823 3.34076 5.65144Z" fill="#F0F1F1"/>
<path d="M53.9532 95.8241C53.6748 94.7662 53.647 93.7083 53.647 92.6225C53.647 77.2829 53.647 61.9711 53.647 46.6314C53.647 44.4042 54.3152 43.7639 56.5702 43.7361C62.5557 43.7361 68.5134 43.7083 74.4989 43.7083C75.1949 43.7083 75.8909 43.7083 76.5869 43.7083C77.2829 43.7083 78.0067 43.7083 78.7027 43.7083C83.853 43.7083 89.0034 43.7361 94.1258 43.7361C94.5991 43.7361 95.1002 43.7639 95.5735 43.7639C95.5735 59.1593 95.5735 74.5824 95.5735 89.9777C95.2394 89.9777 94.8775 89.9777 94.5434 89.9777C84.2985 89.9777 74.0535 89.9777 63.8085 89.9777C63.5022 89.9777 63.1125 89.8107 62.9454 90.1448C62.7784 90.4788 63.2238 90.6459 63.3909 90.8686C64.1704 91.843 64.588 92.9009 64.6993 94.1815C64.8385 95.5457 64.1147 96.6593 63.8085 97.8564C63.6693 97.8564 63.5579 97.8842 63.4187 97.8842C60.5234 97.745 57.6002 98.2739 54.7606 97.2717C54.3708 96.9098 54.2595 96.3252 53.9532 95.8241ZM72.8842 76.5312L72.8285 76.4755C72.9956 76.0858 73.1348 75.696 73.3018 75.3341C73.5523 74.8051 73.441 74.3597 72.912 74.1091C72.3831 73.8586 72.0212 74.137 71.7984 74.5824C71.2138 75.696 70.6849 76.8096 70.1281 77.9232C69.8775 78.3964 69.961 78.8697 70.4343 79.0924C71.5757 79.5936 72.745 80.0111 73.9421 80.4287C74.3597 80.5679 74.7773 80.4287 74.9443 79.9276C75.1114 79.4544 74.8887 79.1481 74.4989 78.8976C74.1648 78.7027 73.7194 78.6748 73.441 78.3129C73.5802 78.2294 73.6637 78.1459 73.7472 78.1181C79.2873 75.5011 83.0735 71.2417 85.3285 65.5902C85.9967 63.9477 86.4699 62.2495 86.7762 60.4956C86.8597 59.9944 86.7762 59.4933 86.1359 59.382C85.5512 59.2985 85.245 59.6325 85.1336 60.1893C85.078 60.5234 84.9944 60.8575 84.9109 61.2194C83.7695 66.1192 81.5145 70.3786 77.6448 73.6637C76.225 74.833 74.7495 76.0022 72.8842 76.5312ZM91.0078 80.2617C91.0356 77.255 88.6971 74.8608 85.7461 74.8051C82.7394 74.7773 80.206 77.2272 80.2339 80.1503C80.2617 83.0735 82.6838 85.5234 85.6069 85.5791C88.4744 85.6348 90.98 83.1849 91.0078 80.2617ZM65.1169 59.8274C68.1236 59.8274 70.5178 57.4889 70.5457 54.5657C70.5735 51.5312 68.2071 49.1648 65.1448 49.1648C62.1659 49.1648 59.7717 51.5312 59.7439 54.4822C59.716 57.3775 62.1659 59.7996 65.1169 59.8274ZM67.9009 83.7417C68.2071 83.7138 68.4855 83.5468 68.5969 83.2405C68.7639 82.8508 68.6526 82.4889 68.3742 82.1826C67.5668 81.3753 66.7595 80.5401 65.9521 79.7606C65.5624 79.3987 65.5345 79.1481 65.9521 78.7584C66.7595 78.0067 67.539 77.1993 68.3185 76.4198C68.7361 76.0022 68.931 75.529 68.4577 75.0557C67.9844 74.5824 67.5111 74.8051 67.0936 75.2227C66.4254 75.9187 65.6737 76.559 65.0334 77.2829C64.4766 77.9232 64.0869 78.0067 63.5022 77.3107C62.8898 76.5869 62.1381 75.9187 61.4421 75.2506C61.0245 74.8051 60.5234 74.4989 60.0223 75.0557C59.5212 75.5846 59.8552 76.0579 60.2728 76.4755C61.0523 77.2272 61.7762 78.0067 62.5557 78.7584C62.9454 79.1203 62.9733 79.3708 62.5557 79.7327C61.7762 80.4566 61.0245 81.2639 60.2728 81.9878C59.8274 82.4054 59.4933 82.8786 59.9944 83.4076C60.5512 84.0201 61.0523 83.6025 61.4978 83.157C62.2495 82.4332 63.0011 81.7094 63.6971 80.9577C64.1147 80.5123 64.3931 80.5401 64.7829 80.9577C65.4789 81.7094 66.2584 82.4332 66.9822 83.157C67.2606 83.4633 67.4833 83.7138 67.9009 83.7417ZM82.8508 50.0279C82.5167 50.0557 82.2662 50.2506 82.127 50.5568C81.9599 50.9187 82.127 51.225 82.3775 51.5034C83.1292 52.2829 83.8809 53.0624 84.6604 53.7862C85.2172 54.2873 85.3007 54.6492 84.6882 55.1782C83.9087 55.8742 83.2127 56.6537 82.461 57.3775C82.0156 57.7951 81.8764 58.2684 82.3497 58.7417C82.7951 59.1871 83.2405 58.9644 83.6303 58.5746C84.4098 57.7951 85.2172 57.0156 85.9967 56.2083C86.4143 55.7628 86.6927 55.7907 87.0824 56.2083C87.8062 56.9878 88.6136 57.7394 89.3653 58.4911C89.755 58.8809 90.2005 59.1871 90.7016 58.7138C91.2584 58.1849 90.9521 57.7116 90.5345 57.2662C89.7829 56.4866 89.0312 55.7071 88.2517 54.9833C87.8062 54.5657 87.8341 54.2873 88.2517 53.8976C89.0312 53.1737 89.7829 52.3942 90.5345 51.6147C90.9521 51.1971 91.2027 50.7517 90.7294 50.2784C90.2561 49.7773 89.7829 50.0279 89.3931 50.4454C88.6971 51.1693 87.9454 51.8374 87.2773 52.5891C86.7762 53.1459 86.4143 53.2294 85.8853 52.6169C85.2172 51.8653 84.4655 51.1971 83.7417 50.5011C83.4911 50.2784 83.2405 50 82.8508 50.0279Z" fill="#5E9CF6"/>
<path d="M63.8363 97.8841C64.1704 96.6592 64.8664 95.5734 64.7272 94.2093C64.6158 92.9565 64.1982 91.8708 63.4187 90.8964C63.2238 90.6737 62.8062 90.5066 62.9733 90.1725C63.1403 89.8385 63.5301 90.0055 63.8363 90.0055C74.0813 90.0055 84.3263 90.0055 94.5713 90.0055C94.9054 90.0055 95.2673 90.0055 95.6013 90.0055C96.3252 90.0055 97.0212 89.9777 97.745 89.9777C98.8307 90.0055 99.9443 90.0333 101.03 90.0612C101.002 90.9799 101.531 91.7872 101.448 92.706C101.086 95.7962 98.7472 97.912 95.6292 97.912C89.1425 97.912 82.6559 97.912 76.1414 97.912C72.0212 97.912 67.9287 97.912 63.8363 97.8841Z" fill="#377DE1"/>
<path d="M74.4989 21.2694C70.5457 21.2694 66.5924 21.2416 62.6392 21.2416C61.8597 21.2416 61.108 21.1859 60.3842 20.9632C58.686 20.4064 57.6002 18.9031 57.6002 17.01C57.6002 11.4142 57.6002 5.79059 57.6002 0.194824C57.9065 0.473221 58.2405 0.723777 58.5189 1.03001C64.2261 6.73714 69.961 12.4443 75.6681 18.1236C76.5869 19.0423 77.5612 19.961 78.5078 20.8518C77.951 21.4086 77.1715 20.9075 76.559 21.2138C75.8909 21.1024 75.1949 21.0189 74.4989 21.2694Z" fill="#929497"/>
<path d="M58.6581 99.9722C56.5423 99.9722 54.4265 100 52.3107 100C36.3029 100 20.2951 100 4.28729 100C2.67259 100 1.41981 99.3597 0.612457 97.9121C1.14141 97.4666 1.67036 97.9399 2.19932 97.9399C19.8497 97.9121 37.5 97.9121 55.1503 97.9121C56.1247 98.9143 57.3218 99.5825 58.6581 99.9722Z" fill="#D0D2D3"/>
<path d="M55.1225 97.9121C37.4722 97.9121 19.8218 97.9121 2.17149 97.9399C1.64254 97.9399 1.11359 97.4666 0.584632 97.9121C0.250557 97.2718 0 96.6036 0 95.8519C17.4555 95.8519 34.9109 95.8519 52.3942 95.8519C52.9232 95.8519 53.4243 95.8519 53.9532 95.8519C54.2595 96.3252 54.3708 96.9377 54.8163 97.3553C54.9276 97.5223 55.0111 97.7172 55.1225 97.9121Z" fill="#E5E6E7"/>
<path d="M63.8363 97.8842C67.9287 97.8842 72.0211 97.9121 76.1136 97.9121C82.6002 97.9121 89.0868 97.9121 95.6013 97.9121C98.7194 97.9121 101.086 95.7962 101.42 92.706C101.531 91.7873 100.974 90.98 101.002 90.0613C102.812 90.8408 103.313 92.4555 103.452 94.1537C103.703 97.3553 101.141 100 97.9398 100C85.7182 100 73.4966 100 61.2472 100C60.8574 100 60.4955 99.9722 60.1058 99.9722C61.3864 99.5824 62.6392 99.137 63.4187 97.9399C63.5857 97.9121 63.6971 97.9121 63.8363 97.8842Z" fill="#2366D2"/>
<path d="M97.745 89.9777C97.0211 89.9777 96.3251 90.0056 95.6013 90.0056C95.6013 74.6102 95.6013 59.1871 95.6013 43.7917C96.9098 43.8474 97.6058 44.4877 97.7171 45.7127C97.745 45.9632 97.745 46.186 97.745 46.4365C97.745 60.9688 97.745 75.4733 97.745 89.9777Z" fill="#478CF6"/>
<path d="M76.559 21.2138C77.1715 20.9076 77.9232 21.4087 78.5078 20.8519C78.8419 21.1582 78.6748 21.5758 78.6748 21.9377C78.6748 29.2038 78.7027 36.47 78.7027 43.7361C78.0067 43.7361 77.2829 43.7361 76.5869 43.7361C76.5869 36.2194 76.5869 28.7305 76.559 21.2138Z" fill="#D0D2D3"/>
<path d="M63.4465 97.9399C62.667 99.137 61.4143 99.5824 60.1336 99.9722C59.6604 99.9722 59.1592 99.9722 58.686 99.9722C57.3497 99.5546 56.1526 98.8864 55.1503 97.912C55.039 97.7172 54.9276 97.5223 54.8163 97.2996C57.6281 98.3296 60.5791 97.8007 63.4465 97.9399Z" fill="#478CF6"/>
<path d="M14.6158 70.6292C14.4488 70.49 14.3096 70.3508 14.1425 70.2116C14.4209 69.9053 14.7272 69.6269 15.0056 69.3207C17.2606 66.7873 19.8497 64.5044 21.9933 61.8875C22.1882 61.637 22.1047 61.3586 22.1047 61.0802C22.1047 57.5445 22.1047 54.0367 22.1047 50.5011C24.6659 50.5289 27.0045 51.2806 29.0368 52.8396C28.9811 53.2294 29.176 53.5078 29.3987 53.7862C31.4588 56.7372 31.8207 59.9666 30.9299 63.3909C29.2595 69.9888 21.6593 73.4131 15.5345 70.7962C15.2561 70.6848 14.9777 70.2672 14.6158 70.6292Z" fill="#E53950"/>
<path d="M38.6693 40.2283C38.6693 31.8207 38.6693 23.3853 38.6414 14.9777C38.6414 14.1147 38.9755 13.6971 39.8664 13.7249C41.314 13.7528 42.7895 13.7528 44.2372 13.7528C44.2372 21.7706 44.2372 29.7606 44.2372 37.7784C44.2372 39.3096 43.3463 40.2004 41.7873 40.2283C40.7572 40.2283 39.6993 40.2283 38.6693 40.2283Z" fill="#77A350"/>
<path d="M25.9187 40.2282C25.9187 34.4654 25.9187 28.6748 25.8909 22.912C25.8909 22.0211 26.2528 21.6592 27.1437 21.687C28.6192 21.7149 30.0668 21.7149 31.5145 21.7149C31.5145 27.0601 31.5145 32.4331 31.5145 37.7783C31.5145 39.2538 30.6514 40.1726 29.1481 40.2004C28.0902 40.2561 27.0045 40.2282 25.9187 40.2282Z" fill="#FEC81F"/>
<path d="M21.9933 61.8597C19.8218 64.5044 17.2606 66.7594 15.0056 69.2928C14.7272 69.5991 14.4488 69.9053 14.1425 70.1837C9.57684 65.9799 9.35412 58.9087 13.6414 54.1202C16.4254 56.7093 19.2094 59.2706 21.9933 61.8597Z" fill="#77A350"/>
<path d="M29.8441 85.5791C35.941 85.5791 42.01 85.5791 48.1069 85.5791C48.441 85.5791 48.8029 85.5791 49.137 85.607C49.5267 85.6626 49.7494 85.941 49.8051 86.3029C49.8608 86.6927 49.6381 86.9711 49.304 87.1381C48.9699 87.3052 48.6358 87.2495 48.2739 87.2495C35.941 87.2495 23.608 87.2495 11.2472 87.2495C10.9966 87.2495 10.7461 87.2773 10.5234 87.2216C10.0779 87.1381 9.74386 86.8876 9.7717 86.3865C9.79954 85.8853 10.0779 85.6348 10.5512 85.5791C10.8574 85.5513 11.1637 85.5513 11.4978 85.5513C17.6225 85.5791 23.7194 85.5791 29.8441 85.5791Z" fill="#484749"/>
<path d="M29.8441 77.2272C35.941 77.2272 42.01 77.2272 48.1069 77.2272C48.441 77.2272 48.8029 77.2272 49.137 77.255C49.5267 77.3107 49.7494 77.5891 49.8051 77.951C49.8608 78.3408 49.6381 78.6192 49.304 78.7862C48.9699 78.9532 48.6358 78.8976 48.2739 78.8976C35.941 78.8976 23.608 78.8976 11.2472 78.8976C10.9966 78.8976 10.7461 78.9254 10.5234 78.8697C10.0779 78.7862 9.74386 78.5356 9.7717 78.0345C9.79954 77.5334 10.0779 77.2829 10.5512 77.2272C10.8574 77.1993 11.1637 77.1993 11.4978 77.1993C17.6225 77.2272 23.7194 77.2272 29.8441 77.2272Z" fill="#484749"/>
<path d="M46.3252 41.2861C47.1325 41.5367 47.9955 41.3418 48.8029 41.3975C49.3597 41.4253 49.7773 41.648 49.7773 42.2327C49.7773 42.8173 49.3318 43.0679 48.775 43.0957C48.5245 43.0957 48.3018 43.0957 48.0512 43.0957C35.8853 43.0957 23.7194 43.0957 11.5256 43.0957C11.3586 43.0957 11.1915 43.0957 10.9966 43.0957C10.3563 43.0957 9.74387 43.04 9.74387 42.2048C9.74387 41.4532 10.3563 41.3975 10.941 41.3975C11.6648 41.3975 12.3886 41.3418 13.1125 41.314C15.6737 41.5088 18.2628 41.5088 20.824 41.314C22.4944 41.481 24.1648 41.4253 25.8352 41.3418C28.4243 41.4532 30.9855 41.481 33.5746 41.3418C35.245 41.4253 36.9154 41.481 38.5857 41.314C40.5345 41.6202 42.5111 41.3975 44.4599 41.4253C45.1002 41.4532 45.7405 41.648 46.3252 41.2861Z" fill="#484749"/>
<path d="M46.3252 41.2862C45.7405 41.6202 45.1002 41.4532 44.5156 41.4532C42.5668 41.3975 40.5902 41.6202 38.6414 41.3418C38.6414 40.9799 38.6693 40.618 38.6693 40.2561C39.6993 40.2561 40.7572 40.2561 41.7873 40.2561C43.3742 40.2283 44.2372 39.3652 44.2372 37.8062C44.2372 29.7884 44.2372 21.7984 44.2372 13.7806C46.0468 13.4465 46.353 13.6971 46.353 15.4788C46.353 24.0534 46.3252 32.6837 46.3252 41.2862Z" fill="#648840"/>
<path d="M14.6158 70.6291C15.0056 70.2672 15.2561 70.6848 15.5345 70.7962C21.6592 73.4409 29.2595 69.9888 30.9298 63.3908C31.7929 59.9665 31.4588 56.7371 29.3987 53.7861C29.2038 53.5077 29.0089 53.2015 29.0367 52.8396C32.7394 55.7906 34.2706 59.6325 33.3241 64.226C32.3497 68.9309 29.343 71.9933 24.6102 73.1069C20.9076 73.942 17.5111 73.1347 14.6158 70.6291Z" fill="#D1052B"/>
<path d="M21.9933 61.8597C19.2093 59.2706 16.4254 56.7093 13.6414 54.1202C15.9521 51.6982 18.7082 50.3897 22.1047 50.4732C22.1047 54.0089 22.1047 57.5167 22.1047 61.0523C22.1047 61.3307 22.1603 61.6091 21.9933 61.8597Z" fill="#FEC81F"/>
<path d="M33.6303 41.3419C31.0412 41.4811 28.48 41.4811 25.8909 41.3419C25.9187 40.9522 25.9187 40.5903 25.9465 40.2005C27.0323 40.2005 28.0902 40.2283 29.1759 40.2005C30.6793 40.1727 31.5423 39.2539 31.5423 37.7784C31.5423 32.4332 31.5423 27.0602 31.5423 21.715C31.7929 21.715 32.0156 21.6871 32.2661 21.6871C33.5189 21.6871 33.6303 21.7985 33.6303 23.0513C33.6303 29.1482 33.6303 35.245 33.6303 41.3419Z" fill="#FCA71A"/>
<path d="M13.196 40.2283C13.196 37.6949 13.196 35.1893 13.1682 32.6559C13.1682 31.7372 13.5022 31.2917 14.4488 31.3196C15.8964 31.3474 17.3441 31.3474 18.8196 31.3474C18.8196 33.4911 18.8196 35.6347 18.7918 37.7784C18.7918 39.2817 17.9287 40.1448 16.4254 40.2004C15.3396 40.2283 14.2539 40.2283 13.196 40.2283Z" fill="#E53950"/>
<path d="M76.559 21.2138C76.559 28.7305 76.559 36.2194 76.5869 43.7361C75.8909 43.7361 75.1949 43.7361 74.4989 43.7361C74.4989 36.2472 74.4989 28.7583 74.4989 21.2695C75.1949 21.0189 75.8909 21.1024 76.559 21.2138Z" fill="#E5E6E7"/>
<path d="M3.34076 20.9632C3.34076 24.7772 3.34076 28.5912 3.34076 32.4053C3.34076 32.9064 3.45212 33.5189 2.67261 33.5467C1.8931 33.5745 1.67038 33.0734 1.67038 32.3774C1.67038 24.7494 1.67038 17.1213 1.67038 9.49325C1.67038 8.85294 1.86526 8.37967 2.56125 8.35183C3.42428 8.32399 3.34076 8.9643 3.34076 9.52109C3.34076 13.3351 3.34076 17.1492 3.34076 20.9632Z" fill="#FEFEFE"/>
<path d="M13.196 40.2283C14.2817 40.2283 15.3396 40.2283 16.4254 40.2005C17.9287 40.1726 18.7918 39.2818 18.7918 37.7784C18.7918 35.6348 18.8196 33.4911 18.8196 31.3475C19.1258 31.3196 19.4321 31.2918 19.7383 31.2918C20.5735 31.264 20.9076 31.6537 20.9076 32.4889C20.8797 35.4121 20.9076 38.3631 20.9076 41.3141C18.3463 41.5368 15.7572 41.5089 13.196 41.3141V41.2305C13.2238 41.2027 13.2795 41.2027 13.2517 41.1749C13.2517 41.1192 13.2238 41.0635 13.196 41.0357C13.196 40.7851 13.196 40.5067 13.196 40.2283Z" fill="#D1052B"/>
<path d="M42.706 52.2272C44.6548 52.2272 46.6036 52.2272 48.5245 52.2272C49.1091 52.2272 49.7495 52.2828 49.7773 53.0067C49.8051 53.7862 49.1927 53.9254 48.5523 53.9254C44.6548 53.9254 40.7851 53.9254 36.8875 53.9254C36.2472 53.9254 35.6348 53.8419 35.6626 53.0345C35.6904 52.2829 36.3029 52.255 36.8875 52.255C38.8363 52.2272 40.7572 52.2272 42.706 52.2272Z" fill="#484749"/>
<path d="M42.6782 62.2495C40.7572 62.2495 38.8641 62.2495 36.9432 62.2495C36.3307 62.2495 35.6626 62.2216 35.6626 61.4143C35.6347 60.5791 36.3029 60.5791 36.9154 60.5791C40.7572 60.5791 44.6269 60.5791 48.4688 60.5791C49.0813 60.5791 49.7773 60.6069 49.7773 61.4143C49.7773 62.166 49.137 62.3052 48.4967 62.2773C46.5757 62.2495 44.6269 62.2495 42.6782 62.2495Z" fill="#484749"/>
<path d="M42.7617 68.9031C44.6269 68.9031 46.52 68.9031 48.3853 68.9031C49.0256 68.9031 49.7773 68.8474 49.8051 69.7104C49.8051 70.5456 49.1091 70.6013 48.441 70.6013C44.6269 70.6013 40.8129 70.6013 36.971 70.6013C36.3586 70.6013 35.6904 70.5735 35.6904 69.7661C35.6626 68.9309 36.3307 68.9031 36.9432 68.9031C38.8641 68.9031 40.8129 68.9031 42.7617 68.9031Z" fill="#484749"/>
<path d="M3.34077 5.6515C3.36861 6.2083 3.11805 6.51453 2.56126 6.45885C2.03231 6.43101 1.69823 6.15262 1.72607 5.62366C1.72607 5.09471 2.08799 4.84415 2.61694 4.81631C3.17373 4.78847 3.36861 5.12255 3.34077 5.6515Z" fill="#FEFEFE"/>
<path d="M13.1682 41.0635C13.196 41.1192 13.2238 41.147 13.2238 41.2027C13.2238 41.2027 13.1682 41.2305 13.1682 41.2584C13.1403 41.1748 13.1403 41.1192 13.1682 41.0635Z" fill="#E53950"/>
<path d="M72.8842 76.5312C74.7216 76.0023 76.2249 74.8608 77.6448 73.6637C81.5423 70.3787 83.7973 66.1192 84.9109 61.2194C84.9944 60.8853 85.0501 60.5513 85.1336 60.1893C85.245 59.6325 85.5512 59.2985 86.1359 59.382C86.7762 59.4655 86.8597 59.9666 86.7762 60.4956C86.4699 62.2495 85.9967 63.9477 85.3285 65.5902C83.0735 71.2417 79.2873 75.5011 73.7472 78.1181C73.6637 78.1738 73.5802 78.2294 73.441 78.3129C73.7194 78.6749 74.1648 78.7027 74.4989 78.8976C74.8886 79.1481 75.1392 79.4544 74.9443 79.9276C74.7773 80.4009 74.3597 80.568 73.9421 80.4288C72.7728 80.0112 71.5757 79.5936 70.4343 79.0925C69.961 78.8976 69.8775 78.3965 70.1281 77.9232C70.6849 76.8096 71.2416 75.696 71.7984 74.5824C72.0212 74.137 72.3831 73.8586 72.912 74.1092C73.441 74.3597 73.5523 74.8052 73.3018 75.3341C73.1347 75.696 72.9677 76.0858 72.8285 76.4755C72.8007 76.5312 72.7728 76.5591 72.745 76.6147C72.8007 76.5591 72.8563 76.5312 72.8842 76.5312Z" fill="#FEFEFE"/>
<path d="M91.0078 80.2617C90.9799 83.1849 88.4744 85.6348 85.5791 85.5791C82.6559 85.5234 80.2338 83.0735 80.206 80.1504C80.1782 77.2272 82.7116 74.7773 85.7183 74.8052C88.6971 74.833 91.0078 77.255 91.0078 80.2617ZM85.6069 83.8252C87.7227 83.8252 89.3374 82.2662 89.3374 80.2061C89.3374 78.1738 87.7227 76.5034 85.6626 76.4755C83.6303 76.4477 81.9877 78.0902 81.9599 80.1504C81.9599 82.2662 83.4911 83.8252 85.6069 83.8252Z" fill="#FEFEFE"/>
<path d="M65.1169 59.8274C62.1659 59.8274 59.716 57.3775 59.7439 54.4543C59.7717 51.5033 62.1659 49.137 65.1448 49.137C68.2071 49.137 70.5735 51.5033 70.5457 54.5379C70.5178 57.4889 68.0958 59.8274 65.1169 59.8274ZM65.1169 58.157C67.1771 58.157 68.8474 56.5423 68.8753 54.51C68.9031 52.4777 67.2327 50.8073 65.2005 50.8073C63.1125 50.8073 61.4699 52.3942 61.4421 54.4265C61.3864 56.4309 63.0846 58.157 65.1169 58.157Z" fill="#FEFEFE"/>
<path d="M67.9009 83.7416C67.4833 83.7416 67.2606 83.4633 67.01 83.2405C66.2862 82.5167 65.5067 81.7929 64.8107 81.0412C64.4209 80.6236 64.1425 80.5958 63.7249 81.0412C63.0289 81.7929 62.2773 82.5167 61.5256 83.2405C61.0802 83.6581 60.5791 84.1036 60.0223 83.4911C59.5212 82.9343 59.8831 82.4889 60.3007 82.0713C61.0802 81.3196 61.804 80.5401 62.5835 79.8163C63.0011 79.4265 62.9454 79.2038 62.5835 78.8419C61.804 78.118 61.0523 77.3385 60.3007 76.559C59.8831 76.1414 59.5212 75.6682 60.0501 75.1392C60.5512 74.6102 61.0523 74.9165 61.4699 75.3341C62.1659 76.0301 62.8897 76.6704 63.5301 77.3942C64.1147 78.0902 64.5323 77.9788 65.0612 77.3664C65.7016 76.6425 66.4254 76.0022 67.1214 75.3062C67.539 74.8886 67.9844 74.6659 68.4855 75.1392C68.9588 75.6125 68.7361 76.0857 68.3463 76.5033C67.5668 77.2828 66.7873 78.0902 65.98 78.8419C65.5624 79.2316 65.5902 79.4543 65.98 79.8441C66.8151 80.6236 67.5946 81.4588 68.402 82.2661C68.7082 82.5724 68.7918 82.9343 68.6247 83.3241C68.4855 83.5468 68.2071 83.7138 67.9009 83.7416Z" fill="#FEFEFE"/>
<path d="M82.8508 50.0278C83.2405 50 83.4911 50.2784 83.7416 50.5011C84.4655 51.1971 85.245 51.8652 85.8853 52.6169C86.4142 53.2294 86.7762 53.1459 87.2773 52.5891C87.9454 51.8374 88.6971 51.1692 89.3931 50.4454C89.8107 50.0278 90.2561 49.7773 90.7294 50.2784C91.2027 50.7795 90.9521 51.2249 90.5345 51.6147C89.755 52.3664 89.0312 53.1459 88.2517 53.8975C87.8341 54.2873 87.8062 54.5657 88.2517 54.9833C89.0312 55.7071 89.7828 56.4866 90.5345 57.2661C90.9521 57.6837 91.2583 58.1848 90.7015 58.7138C90.2004 59.1871 89.755 58.8808 89.3652 58.4911C88.6136 57.7394 87.8341 56.9877 87.0824 56.2082C86.6926 55.7906 86.3864 55.7628 85.9966 56.2082C85.245 57.0156 84.4376 57.7951 83.6303 58.5746C83.2405 58.9643 82.8229 59.1871 82.3497 58.7416C81.8764 58.2962 82.0156 57.8229 82.461 57.3775C83.2127 56.6537 83.9087 55.8741 84.6882 55.1782C85.3007 54.6492 85.2171 54.2873 84.6603 53.7862C83.853 53.0623 83.1292 52.2828 82.3775 51.5033C82.1269 51.2528 81.9599 50.9465 82.1269 50.5568C82.2661 50.2505 82.4889 50.0557 82.8508 50.0278Z" fill="#FEFEFE"/>
<path d="M72.8842 76.5312C72.8285 76.559 72.7728 76.5869 72.745 76.6147C72.7728 76.559 72.8007 76.5312 72.8285 76.4755C72.8285 76.4477 72.8842 76.5312 72.8842 76.5312Z" fill="#5E9CF6"/>
<path d="M85.6069 83.8251C83.4911 83.8251 81.9599 82.2661 81.9599 80.1503C81.9599 78.0901 83.6303 76.4476 85.6626 76.4754C87.6949 76.5033 89.3374 78.1737 89.3374 80.206C89.3374 82.2661 87.7227 83.853 85.6069 83.8251Z" fill="#5E9CF6"/>
<path d="M65.1169 58.157C63.0846 58.157 61.3864 56.4588 61.4142 54.4544C61.4421 52.3942 63.1125 50.8074 65.1726 50.8352C67.2049 50.8352 68.8753 52.5056 68.8474 54.5379C68.8474 56.5423 67.1771 58.157 65.1169 58.157Z" fill="#5E9CF6"/>
</g>
<defs>
<clipPath id="clip0_218_48291">
<rect width="103.508" height="100" fill="white"/>
</clipPath>
</defs>
</svg>
