<svg width="24" height="24" viewBox="0 0 24 24" fill="none" xmlns="http://www.w3.org/2000/svg">
<path d="M6 11H8.4V13.6667H6V11ZM6 16.3333H8.4V19H6V16.3333ZM10.8 11H13.2V13.6667H10.8V11ZM10.8 16.3333H13.2V19H10.8V16.3333ZM15.6 11H18V13.6667H15.6V11ZM15.6 16.3333H18V19H15.6V16.3333Z" fill="white"/>
<path d="M20.3333 3.53846H17V2H15.3333V3.53846H8.66667V2H7V3.53846H3.66667C2.75 3.53846 2 4.23077 2 5.07692V20.4615C2 21.3077 2.75 22 3.66667 22H20.3333C21.25 22 22 21.3077 22 20.4615V5.07692C22 4.23077 21.25 3.53846 20.3333 3.53846ZM20.3333 20.4615H3.66667V9.69231H20.3333V20.4615ZM20.3333 8.15385H3.66667V5.07692H7V6.61538H8.66667V5.07692H15.3333V6.61538H17V5.07692H20.3333V8.15385Z" fill="white"/>
</svg>
