<svg width="25" height="25" viewBox="0 0 25 25" fill="none" xmlns="http://www.w3.org/2000/svg">
<path d="M6.5 11.21H8.9V13.8766H6.5V11.21ZM6.5 16.5433H8.9V19.21H6.5V16.5433ZM11.3 11.21H13.7V13.8766H11.3V11.21ZM11.3 16.5433H13.7V19.21H11.3V16.5433ZM16.1 11.21H18.5V13.8766H16.1V11.21ZM16.1 16.5433H18.5V19.21H16.1V16.5433Z" fill="#6B7980"/>
<path d="M20.8333 3.74842H17.5V2.20996H15.8333V3.74842H9.16667V2.20996H7.5V3.74842H4.16667C3.25 3.74842 2.5 4.44073 2.5 5.28688V20.6715C2.5 21.5177 3.25 22.21 4.16667 22.21H20.8333C21.75 22.21 22.5 21.5177 22.5 20.6715V5.28688C22.5 4.44073 21.75 3.74842 20.8333 3.74842ZM20.8333 20.6715H4.16667V9.90227H20.8333V20.6715ZM20.8333 8.36381H4.16667V5.28688H7.5V6.82535H9.16667V5.28688H15.8333V6.82535H17.5V5.28688H20.8333V8.36381Z" fill="#6B7980"/>
</svg>
