<svg width="67" height="61" viewBox="0 0 67 61" fill="none" xmlns="http://www.w3.org/2000/svg">
<g clip-path="url(#clip0_253_39782)">
<path d="M64.4652 35.9074C64.9695 39.9759 65.5055 44.0444 66.0099 48.1129C66.5773 52.7156 64.276 57.7704 60.7768 59.6608C57.183 61.5923 52.8957 60.0718 50.6575 56.0444C49.8379 54.606 49.3019 52.9211 48.6715 51.3595C47.379 48.0718 46.118 44.7841 44.8885 41.4964C44.6048 40.7156 44.2896 40.4691 43.6276 40.5101C40.0968 40.5512 36.5661 40.5101 33.0354 40.4691C33.0354 27.1951 33.0354 13.88 33.0354 0.606045V0.482758C38.4891 0.482758 43.9428 0.523853 49.428 0.523853C50.4053 0.523853 51.3825 0.688237 52.3283 1.0581C57.0885 2.78413 60.0202 6.89371 61.5019 12.8937C62.4791 20.5375 63.4879 28.2225 64.4652 35.9074ZM47.1898 21.3184C47.1898 18.8526 45.5821 16.7156 43.6906 16.6745C41.7991 16.6334 40.1599 18.7293 40.1284 21.1951C40.0968 23.7019 41.673 25.8389 43.5645 25.9211C45.4875 25.9622 47.1898 23.8663 47.1898 21.3184Z" fill="#E85D04"/>
<path d="M33.0357 0.602962C33.0357 13.8769 33.0357 27.192 33.0357 40.466C29.568 40.466 26.1318 40.5482 22.6641 40.5071C21.8445 40.5071 21.4032 40.7947 21.0564 41.781C19.4802 45.9728 17.8724 50.1235 16.2647 54.2742C14.3417 59.2468 10.8425 61.3838 6.64975 60.2331C2.99293 59.2057 0.187258 54.8906 0.0926847 49.7125C0.029636 46.7125 0.754696 43.7536 1.06994 40.7947C1.25909 39.192 1.44823 37.5482 1.63738 35.9454C2.36244 30.4797 3.05598 25.055 3.78104 19.6304C4.06476 17.3701 4.38 15.1098 4.66372 12.8495C4.75829 12.4797 4.85286 12.0687 4.97896 11.6988C6.64975 5.45228 11.1262 0.808441 16.1071 0.602962C21.7499 0.397482 27.3928 0.561866 33.0357 0.602962ZM22.4119 25.918C24.398 25.918 26.0057 23.7399 25.9742 21.192C25.9427 18.7262 24.2719 16.6304 22.3804 16.6715C20.489 16.7125 18.8812 18.8084 18.8812 21.3153C18.8812 23.781 20.5205 25.918 22.4119 25.918Z" fill="#F48C06"/>
<path d="M47.1898 21.3184C47.1898 23.8663 45.4875 26.0033 43.533 25.9211C41.6415 25.8389 40.0653 23.7019 40.0968 21.1951C40.1284 18.7293 41.7676 16.6334 43.6591 16.6745C45.5821 16.7156 47.1898 18.8115 47.1898 21.3184Z" fill="#433658"/>
<path d="M22.4117 25.9211C20.5202 25.9211 18.9125 23.8252 18.9125 21.3184C18.9125 18.8115 20.4887 16.7156 22.4117 16.6745C24.3031 16.6334 25.9424 18.7293 26.0054 21.1951C26.0054 23.743 24.3662 25.88 22.4117 25.9211Z" fill="#564672"/>
</g>
<defs>
<clipPath id="clip0_253_39782">
<rect width="65.9805" height="60" fill="white" transform="translate(0.0924072 0.482758)"/>
</clipPath>
</defs>
</svg>
