<svg width="113" height="100" viewBox="0 0 113 100" fill="none" xmlns="http://www.w3.org/2000/svg">
<path d="M7.85 72.9762C7.85 50.2257 7.85 27.5053 7.85 4.75474C7.85 4.12278 7.81981 3.46073 7.97077 2.85886C8.36327 1.26392 9.8125 0.150466 11.5335 0.0300933C11.8958 0 12.2883 0.0300933 12.6506 0.0300933C41.6352 0.0300933 70.5896 0.0601866 99.5741 0C102.352 0 104.435 1.38429 104.435 4.78483C104.375 27.5354 104.405 50.2558 104.405 73.0063C104.043 73.0063 103.65 73.0364 103.288 73.0364C71.8576 73.0364 40.4275 73.0364 8.99731 73.0364C8.60481 73.0364 8.21231 73.0063 7.85 72.9762ZM56.0671 65.3325C68.7478 65.3325 81.4286 65.3325 94.0792 65.3325C96.1322 65.3325 96.6153 64.8511 96.6153 62.8348C96.6153 45.3205 96.6153 27.7761 96.6153 10.2618C96.6153 8.39603 95.9209 7.67379 94.049 7.67379C68.7478 7.67379 43.4165 7.67379 18.1154 7.67379C16.3038 7.67379 15.5792 8.39603 15.5792 10.1414C15.5792 27.7159 15.5792 45.2603 15.5792 62.8348C15.5792 64.821 16.0925 65.3025 18.1456 65.3025C30.7961 65.3325 43.4467 65.3325 56.0671 65.3325Z" fill="#205B75"/>
<path d="M7.84995 72.9762C8.21226 72.9762 8.60476 73.0063 8.96706 73.0063C40.3972 73.0063 71.8274 73.0063 103.258 73.0063C103.62 73.0063 104.012 72.9762 104.375 72.9762C106.881 79.2055 109.387 85.4348 111.893 91.6641C111.983 91.8748 111.983 92.0854 112.044 92.3262C100.419 92.3262 88.7955 92.3262 77.1714 92.3262C77.1714 92.1757 77.2318 91.9952 77.1714 91.8748C76.0845 89.046 75.058 86.2172 73.7295 83.4788C73.4276 82.8468 72.7935 82.6361 72.0991 82.6662C61.4412 82.6662 50.7834 82.6662 40.1255 82.6662C39.2197 82.6662 38.5555 83.0875 38.2234 83.9602C37.4686 85.8862 36.6836 87.7821 35.959 89.678C35.6269 90.5507 35.023 91.3331 35.0834 92.3262C23.4594 92.3262 11.8353 92.3262 0.211304 92.3262C0.966111 89.8284 2.08323 87.4511 3.01919 85.0436C4.58918 80.981 6.21957 77.0087 7.84995 72.9762Z" fill="#C8D9E8"/>
<path d="M77.1715 92.3262C88.7955 92.3262 100.42 92.3262 112.044 92.3262C112.315 94.0114 112.225 95.6966 112.225 97.3818C112.225 99.3078 111.47 100 109.538 100C73.9409 100 38.314 100 2.71729 100C0.784986 100 0.0301783 99.2777 0.0301783 97.3818C0.0301783 95.6966 -0.0603985 94.0114 0.211332 92.3262C11.8354 92.3262 23.4594 92.3262 35.0834 92.3262C49.1228 92.3262 63.1321 92.3262 77.1715 92.3262Z" fill="#AABACB"/>
<path d="M56.0671 65.3325C43.4165 65.3325 30.7961 65.3325 18.1456 65.3325C16.0925 65.3325 15.5792 64.851 15.5792 62.8649C15.5792 45.2904 15.5792 27.746 15.5792 10.1715C15.5792 8.396 16.3038 7.70386 18.1154 7.70386C43.4165 7.70386 68.7478 7.70386 94.0489 7.70386C95.9209 7.70386 96.6153 8.396 96.6153 10.2919C96.6153 27.8062 96.6153 45.3506 96.6153 62.8649C96.6153 64.8811 96.1322 65.3626 94.0791 65.3626C81.4286 65.3325 68.7478 65.3325 56.0671 65.3325ZM58.0296 46.1631C54.3461 46.1631 50.6325 46.1631 46.949 46.1631C45.379 46.1631 44.5638 46.8251 44.5336 48.059C44.5336 49.2928 45.379 49.9849 46.9188 49.9849C54.3461 49.9849 61.7734 49.9849 69.1705 49.9849C70.7103 49.9849 71.5255 49.2928 71.5255 48.0289C71.4953 46.8251 70.7103 46.1631 69.2007 46.1631C65.5172 46.1631 61.7734 46.1631 58.0296 46.1631ZM72.4917 57.6888C75.8732 57.6888 79.2849 57.6888 82.6664 57.6888C84.2063 57.6888 85.0818 56.9967 85.0818 55.7929C85.0818 54.6193 84.1761 53.8369 82.6966 53.8369C75.9034 53.8369 69.1403 53.8369 62.347 53.8369C60.8676 53.8369 59.9317 54.6193 59.9619 55.7929C59.9921 56.9365 60.8676 57.6587 62.2867 57.6587C65.7286 57.6888 69.1101 57.6888 72.4917 57.6888ZM46.4357 30.8155C44.0203 30.8155 41.605 30.8155 39.1896 30.8155C37.6196 30.8155 36.8044 31.4776 36.8346 32.7415C36.8648 33.9753 37.68 34.6374 39.25 34.6374C44.0807 34.6374 48.9115 34.6374 53.7423 34.6374C55.2217 34.6374 56.1274 33.8549 56.1274 32.6512C56.0972 31.4776 55.2821 30.7854 53.8026 30.7854C51.3269 30.8155 48.8813 30.8155 46.4357 30.8155ZM36.7742 38.4893C34.3286 38.4893 31.8831 38.4893 29.4375 38.4893C28.0184 38.4893 27.1429 39.2416 27.1731 40.4153C27.2032 41.5287 28.0788 42.3112 29.3771 42.3112C34.3286 42.3112 39.25 42.3112 44.2015 42.3112C45.6205 42.3112 46.4659 41.5588 46.4357 40.3551C46.4055 39.1815 45.6507 38.4893 44.2317 38.4893C41.7559 38.4893 39.25 38.4893 36.7742 38.4893ZM47.4925 57.6888C49.6059 57.6888 51.7194 57.6888 53.8328 57.6888C55.2519 57.6888 56.1274 56.9666 56.1576 55.7929C56.1576 54.6494 55.2519 53.867 53.863 53.867C49.6059 53.867 45.3488 53.867 41.0917 53.867C39.7029 53.867 38.7669 54.6494 38.7669 55.7629C38.7669 56.9064 39.6727 57.6888 41.0615 57.6888C43.175 57.6888 45.3186 57.6888 47.4925 57.6888ZM27.1731 26.9636C27.8977 26.9034 28.5317 26.6024 28.8638 25.9103C29.2261 25.1881 29.1657 24.4357 28.6223 23.8038C27.9581 23.0815 27.2938 22.3894 26.5692 21.7273C26.1163 21.306 26.1465 21.0352 26.5692 20.644C27.2032 20.0722 27.8071 19.4402 28.4109 18.8083C29.2563 17.9055 29.2563 16.7619 28.5015 16.0096C27.7165 15.2272 26.5994 15.2573 25.6936 16.13C24.4859 17.3036 23.2783 18.4773 22.1008 19.7111C21.1346 20.7042 21.1346 21.6972 22.1008 22.6903C23.2783 23.8941 24.4859 25.0677 25.6936 26.2714C26.0559 26.6626 26.539 26.9034 27.1731 26.9636ZM46.4659 26.9335C47.0094 26.9034 47.4925 26.6927 47.9151 26.2714C49.1228 25.0376 50.3909 23.8339 51.5986 22.6C52.5044 21.6671 52.5044 20.6741 51.5986 19.7111C50.3909 18.4773 49.1832 17.2434 47.9151 16.0397C47.0396 15.1971 45.8621 15.2272 45.0771 16.0096C44.3525 16.792 44.3525 17.8754 45.1677 18.718C45.7413 19.3199 46.315 19.9217 46.9188 20.4634C47.4623 20.9148 47.5528 21.2458 46.949 21.7574C46.2244 22.3593 45.5903 23.0514 44.9563 23.7436C44.4128 24.3154 44.3827 25.0376 44.6846 25.7297C45.0469 26.5423 45.6507 26.8733 46.4659 26.9335ZM33.8154 50.015C35.325 50.015 36.8346 50.015 38.3442 50.015C39.7632 50.015 40.6388 49.2627 40.669 48.1192C40.6992 47.0057 39.7632 46.1932 38.4046 46.1932C35.3854 46.1932 32.3963 46.1932 29.3771 46.1932C28.0486 46.1932 27.1731 46.9455 27.1731 48.059C27.1429 49.2025 28.0486 49.9849 29.4375 50.015C30.8867 50.015 32.3661 50.015 33.8154 50.015ZM34.8721 26.9636C35.5363 26.9034 36.1704 26.6626 36.5025 26.0006C37.8611 23.3524 39.1896 20.7343 40.4879 18.056C40.9407 17.1231 40.4878 16.0999 39.6425 15.6485C38.7367 15.167 37.5894 15.4077 37.1063 16.3707C35.7175 18.9888 34.3588 21.607 33.1209 24.2853C32.5171 25.5492 33.5134 26.9335 34.8721 26.9636ZM28.1392 30.8155C27.1731 30.8155 26.1767 30.7854 25.2106 30.8155C24.1236 30.8456 23.399 31.5378 23.3084 32.5007C23.2179 33.4637 23.8217 34.4568 24.8483 34.5471C27.0221 34.7577 29.1959 34.7276 31.3698 34.5471C32.3661 34.4568 33.0304 33.4637 32.97 32.5308C32.8794 31.5979 32.1246 30.8456 31.0981 30.7854C30.1017 30.7854 29.1054 30.8155 28.1392 30.8155ZM80.3114 46.1631C79.3453 46.1631 78.3489 46.133 77.3828 46.1631C76.2355 46.1932 75.4203 47.0358 75.4203 48.0891C75.4203 49.1122 76.2657 49.9548 77.413 49.9849C79.3151 50.015 81.2474 50.015 83.1495 49.9849C84.2968 49.9548 85.0818 49.1122 85.0818 48.059C85.0818 47.0057 84.2666 46.1932 83.1193 46.1631C82.1834 46.133 81.2474 46.1631 80.3114 46.1631ZM31.0981 57.6587C31.7321 57.6587 32.3661 57.6888 33.0002 57.6587C34.1173 57.5985 34.8419 56.8462 34.8419 55.7929C34.8721 54.7698 34.1475 53.9272 33.0605 53.867C31.7019 53.8068 30.3734 53.8068 29.0148 53.867C27.8977 53.9272 27.1127 54.83 27.1429 55.8531C27.1731 56.8763 27.9279 57.5985 29.045 57.6587C29.7394 57.6888 30.4338 57.6587 31.0981 57.6587Z" fill="#114559"/>
<path d="M77.1714 92.3262C63.132 92.3262 49.1228 92.3262 35.0834 92.3262C35.023 91.3331 35.5967 90.5507 35.959 89.678C36.7138 87.752 37.4988 85.8561 38.2234 83.9603C38.5555 83.0876 39.2197 82.6663 40.1255 82.6663C50.7834 82.6663 61.4412 82.6663 72.0991 82.6663C72.7935 82.6663 73.4276 82.8769 73.7295 83.4788C75.058 86.2173 76.0845 89.046 77.1714 91.8748C77.2016 91.9952 77.1714 92.1757 77.1714 92.3262Z" fill="#E0E9F3"/>
<path d="M58.0295 46.1631C61.7734 46.1631 65.487 46.1631 69.2309 46.1631C70.7103 46.1631 71.5255 46.8251 71.5557 48.0289C71.5859 49.2928 70.7405 49.9849 69.2007 49.9849C61.7734 49.9849 54.3461 49.9849 46.949 49.9849C45.4092 49.9849 44.5638 49.2928 44.5638 48.059C44.5638 46.8251 45.379 46.1631 46.9792 46.1631C50.6626 46.1631 54.3461 46.1631 58.0295 46.1631Z" fill="#E96373"/>
<path d="M72.4916 57.6888C69.1101 57.6888 65.6983 57.6888 62.3168 57.6888C60.8676 57.6888 59.992 56.9666 59.992 55.823C59.9618 54.6494 60.8676 53.8669 62.3772 53.8669C69.1705 53.8669 75.9335 53.8669 82.7268 53.8669C84.2062 53.8669 85.1422 54.6193 85.112 55.823C85.112 57.0267 84.2062 57.7189 82.6966 57.7189C79.2849 57.6888 75.8732 57.6888 72.4916 57.6888Z" fill="#81EAFD"/>
<path d="M46.4357 30.8156C48.8813 30.8156 51.3269 30.8156 53.7724 30.8156C55.2519 30.8156 56.0972 31.5077 56.0972 32.6813C56.1274 33.8851 55.1915 34.6675 53.712 34.6675C48.8813 34.6675 44.0505 34.6675 39.2197 34.6675C37.6497 34.6675 36.8346 33.9753 36.8044 32.7716C36.7742 31.5077 37.5592 30.8456 39.1594 30.8456C41.6049 30.8156 44.0203 30.8156 46.4357 30.8156Z" fill="#E66273"/>
<path d="M36.7742 38.4894C39.25 38.4894 41.7559 38.4894 44.2317 38.4894C45.6205 38.4894 46.4055 39.1815 46.4357 40.3552C46.4659 41.5589 45.6205 42.3112 44.2015 42.3112C39.25 42.3112 34.3286 42.3112 29.3771 42.3112C28.0486 42.3112 27.1731 41.5288 27.1731 40.4154C27.1429 39.2417 28.0184 38.4894 29.4375 38.4894C31.8831 38.4894 34.3286 38.4894 36.7742 38.4894Z" fill="#E2B933"/>
<path d="M47.4925 57.6888C45.3488 57.6888 43.2052 57.6888 41.0615 57.6888C39.6727 57.6888 38.7367 56.9064 38.7669 55.7628C38.7669 54.6494 39.7028 53.8669 41.0917 53.8669C45.3488 53.8669 49.6059 53.8669 53.863 53.8669C55.2519 53.8669 56.1576 54.6494 56.1576 55.7929C56.1576 56.9666 55.2821 57.6888 53.8328 57.6888C51.6892 57.6888 49.5757 57.6888 47.4925 57.6888Z" fill="#E86273"/>
<path d="M27.173 26.9636C26.539 26.9335 26.0559 26.6627 25.6332 26.2714C24.4255 25.0677 23.2178 23.8941 22.0403 22.6903C21.1044 21.7274 21.1044 20.7042 22.0403 19.7111C23.2178 18.5074 24.4255 17.3036 25.6332 16.13C26.539 15.2573 27.6561 15.2573 28.4411 16.0096C29.2261 16.7921 29.1959 17.9055 28.3505 18.8083C27.7769 19.4403 27.1428 20.0421 26.5088 20.644C26.0861 21.0352 26.0559 21.3061 26.5088 21.7274C27.2334 22.3894 27.9278 23.0816 28.5619 23.8038C29.1053 24.4358 29.1657 25.158 28.8034 25.9103C28.5317 26.6025 27.8977 26.9034 27.173 26.9636Z" fill="#F7F9F9"/>
<path d="M46.4659 26.9335C45.6507 26.8733 45.0469 26.5122 44.7148 25.7899C44.4128 25.0677 44.443 24.3756 44.9865 23.8038C45.6205 23.1116 46.2546 22.4195 46.9792 21.8176C47.583 21.306 47.4623 20.975 46.949 20.5236C46.315 19.9819 45.7413 19.3801 45.1978 18.7782C44.3827 17.9055 44.3525 16.8221 45.1073 16.0698C45.8621 15.2874 47.0396 15.2573 47.9453 16.0999C49.1832 17.3036 50.4211 18.5074 51.6288 19.7713C52.5346 20.7042 52.5346 21.6973 51.6288 22.6602C50.4211 23.8941 49.1832 25.0978 47.9453 26.3316C47.5227 26.7228 47.0094 26.9335 46.4659 26.9335Z" fill="#FBFCFC"/>
<path d="M33.8153 50.0151C32.3359 50.0151 30.8867 50.0151 29.4072 50.0151C28.0184 50.0151 27.1126 49.2026 27.1428 48.059C27.173 46.9456 28.0184 46.1932 29.3469 46.1932C32.3661 46.1932 35.3551 46.1932 38.3743 46.1932C39.7632 46.1932 40.6992 47.0058 40.6388 48.1192C40.6086 49.2628 39.7028 50.0151 38.314 50.0151C36.8345 50.0151 35.3249 50.0151 33.8153 50.0151Z" fill="#E3BA33"/>
<path d="M34.8721 26.9636C33.4832 26.9335 32.5171 25.5492 33.0907 24.3154C34.3588 21.6371 35.6873 19.019 37.0761 16.4009C37.5894 15.4379 38.7065 15.1971 39.6123 15.6786C40.4576 16.13 40.9105 17.1532 40.4576 18.0861C39.1896 20.7644 37.8309 23.3825 36.4723 26.0307C36.2005 26.6627 35.5665 26.9034 34.8721 26.9636Z" fill="#FAFBFB"/>
<path d="M28.1392 30.8155C29.1053 30.8155 30.1017 30.7854 31.0678 30.8155C32.0944 30.8456 32.8794 31.5979 32.9398 32.5609C33.0303 33.4938 32.3359 34.4869 31.3396 34.5772C29.1657 34.7577 26.9919 34.7878 24.818 34.5772C23.8217 34.4869 23.1877 33.5239 23.2782 32.5308C23.3688 31.5678 24.0934 30.8757 25.1803 30.8456C26.1767 30.7854 27.173 30.8155 28.1392 30.8155Z" fill="#E0B834"/>
<path d="M80.3115 46.163C81.2475 46.163 82.1834 46.1329 83.1194 46.163C84.2667 46.1931 85.0819 47.0056 85.0819 48.0589C85.0819 49.1122 84.2969 49.9548 83.1496 49.9849C81.2475 50.015 79.3152 50.015 77.413 49.9849C76.2657 49.9548 75.4505 49.1122 75.4203 48.089C75.4203 47.0658 76.2355 46.2232 77.3828 46.163C78.349 46.1329 79.3453 46.163 80.3115 46.163Z" fill="#81EAFD"/>
<path d="M31.098 57.6588C30.4338 57.6588 29.7394 57.6889 29.0751 57.6588C27.958 57.5986 27.2032 56.8764 27.173 55.8532C27.1428 54.83 27.9278 53.8971 29.0449 53.867C30.4036 53.8069 31.7622 53.8069 33.0907 53.867C34.1776 53.9272 34.9022 54.7698 34.8721 55.793C34.8419 56.8463 34.1172 57.5986 33.0303 57.6588C32.3661 57.6889 31.7321 57.6588 31.098 57.6588Z" fill="#E2B933"/>
</svg>
