<svg width="120" height="120" viewBox="0 0 120 120" fill="none" xmlns="http://www.w3.org/2000/svg">
<rect x="0.5" y="0.5" width="119" height="119" rx="59.5" fill="white"/>
<g clip-path="url(#clip0_352_19635)">
<path d="M31.1121 73.7857C31.1121 60.1354 31.1121 46.5032 31.1121 32.8528C31.1121 32.4737 31.094 32.0764 31.1845 31.7153C31.42 30.7584 32.2896 30.0903 33.3221 30.0181C33.5395 30 33.775 30.0181 33.9924 30.0181C51.3832 30.0181 68.7558 30.0361 86.1466 30C87.8132 30 89.0631 30.8306 89.0631 32.8709C89.0269 46.5212 89.045 60.1535 89.045 73.8038C88.8276 73.8038 88.5921 73.8219 88.3748 73.8219C69.5167 73.8219 50.6586 73.8219 31.8005 73.8219C31.565 73.8219 31.3295 73.8038 31.1121 73.7857ZM60.0423 69.1995C67.6508 69.1995 75.2592 69.1995 82.8496 69.1995C84.0814 69.1995 84.3713 68.9106 84.3713 67.7009C84.3713 57.1923 84.3713 46.6657 84.3713 36.1571C84.3713 35.0376 83.9546 34.6043 82.8315 34.6043C67.6508 34.6043 52.452 34.6043 37.2713 34.6043C36.1844 34.6043 35.7496 35.0376 35.7496 36.0849C35.7496 46.6296 35.7496 57.1562 35.7496 67.7009C35.7496 68.8926 36.0576 69.1815 37.2894 69.1815C44.8798 69.1995 52.4701 69.1995 60.0423 69.1995Z" fill="#205B75"/>
<path d="M31.112 73.7858C31.3294 73.7858 31.5649 73.8038 31.7823 73.8038C50.6404 73.8038 69.4985 73.8038 88.3566 73.8038C88.5739 73.8038 88.8094 73.7858 89.0268 73.7858C90.5304 77.5234 92.034 81.2609 93.5376 84.9985C93.5919 85.1249 93.5919 85.2513 93.6281 85.3958C86.6537 85.3958 79.6793 85.3958 72.7049 85.3958C72.7049 85.3055 72.7411 85.1971 72.7049 85.1249C72.0527 83.4277 71.4368 81.7304 70.6397 80.0873C70.4586 79.7081 70.0782 79.5817 69.6615 79.5998C63.2668 79.5998 56.872 79.5998 50.4773 79.5998C49.9339 79.5998 49.5353 79.8526 49.3361 80.3762C48.8832 81.5318 48.4122 82.6693 47.9774 83.8068C47.7781 84.3305 47.4158 84.7999 47.4521 85.3958C40.4776 85.3958 33.5032 85.3958 26.5288 85.3958C26.9817 83.8971 27.652 82.4707 28.2135 81.0262C29.1555 78.5887 30.1338 76.2053 31.112 73.7858Z" fill="#C8D9E8"/>
<path d="M72.7049 85.3958C79.6793 85.3958 86.6537 85.3958 93.6281 85.3958C93.7912 86.4069 93.7368 87.418 93.7368 88.4292C93.7368 89.5847 93.2839 90 92.1245 90C70.7665 90 49.3904 90 28.0323 90C26.873 90 26.4201 89.5667 26.4201 88.4292C26.4201 87.418 26.3657 86.4069 26.5288 85.3958C33.5032 85.3958 40.4776 85.3958 47.452 85.3958C55.8757 85.3958 64.2812 85.3958 72.7049 85.3958Z" fill="#AABACB"/>
<path d="M60.0422 69.1995C52.4519 69.1995 44.8797 69.1995 37.2893 69.1995C36.0575 69.1995 35.7495 68.9106 35.7495 67.7189C35.7495 57.1742 35.7495 46.6476 35.7495 36.1029C35.7495 35.0376 36.1843 34.6223 37.2712 34.6223C52.4519 34.6223 67.6507 34.6223 82.8313 34.6223C83.9545 34.6223 84.3712 35.0376 84.3712 36.1751C84.3712 46.6837 84.3712 57.2103 84.3712 67.7189C84.3712 68.9287 84.0813 69.2176 82.8495 69.2176C75.2591 69.1995 67.6507 69.1995 60.0422 69.1995ZM61.2197 57.6979C59.0096 57.6979 56.7815 57.6979 54.5714 57.6979C53.6294 57.6979 53.1403 58.0951 53.1221 58.8354C53.1221 59.5757 53.6294 59.991 54.5533 59.991C59.0096 59.991 63.466 59.991 67.9043 59.991C68.8282 59.991 69.3173 59.5757 69.3173 58.8173C69.2992 58.0951 68.8282 57.6979 67.9224 57.6979C65.7123 57.6979 63.466 57.6979 61.2197 57.6979ZM69.897 64.6133C71.9259 64.6133 73.9729 64.6133 76.0019 64.6133C76.9257 64.6133 77.4511 64.198 77.4511 63.4758C77.4511 62.7716 76.9076 62.3021 76.02 62.3021C71.944 62.3021 67.8862 62.3021 63.8102 62.3021C62.9226 62.3021 62.361 62.7716 62.3791 63.4758C62.3972 64.1619 62.9226 64.5952 63.774 64.5952C65.8391 64.6133 67.8681 64.6133 69.897 64.6133ZM54.2634 48.4893C52.8142 48.4893 51.365 48.4893 49.9157 48.4893C48.9737 48.4893 48.4846 48.8865 48.5027 49.6449C48.5208 50.3852 49.01 50.7824 49.952 50.7824C52.8504 50.7824 55.7489 50.7824 58.6473 50.7824C59.535 50.7824 60.0784 50.313 60.0784 49.5907C60.0603 48.8865 59.5712 48.4713 58.6836 48.4713C57.1981 48.4893 55.7308 48.4893 54.2634 48.4893ZM48.4665 53.0936C46.9992 53.0936 45.5318 53.0936 44.0645 53.0936C43.213 53.0936 42.6877 53.545 42.7058 54.2492C42.7239 54.9172 43.2493 55.3867 44.0282 55.3867C46.9992 55.3867 49.952 55.3867 52.9229 55.3867C53.7743 55.3867 54.2815 54.9353 54.2634 54.2131C54.2453 53.5089 53.7924 53.0936 52.941 53.0936C51.4555 53.0936 49.952 53.0936 48.4665 53.0936ZM54.8975 64.6133C56.1655 64.6133 57.4336 64.6133 58.7017 64.6133C59.5531 64.6133 60.0784 64.1799 60.0966 63.4758C60.0966 62.7896 59.5531 62.3202 58.7198 62.3202C56.1655 62.3202 53.6113 62.3202 51.057 62.3202C50.2237 62.3202 49.6621 62.7896 49.6621 63.4577C49.6621 64.1438 50.2056 64.6133 51.0389 64.6133C52.307 64.6133 53.5931 64.6133 54.8975 64.6133ZM42.7058 46.1781C43.1406 46.142 43.521 45.9615 43.7203 45.5462C43.9377 45.1128 43.9014 44.6614 43.5754 44.2823C43.1768 43.8489 42.7783 43.4336 42.3435 43.0364C42.0718 42.7836 42.0899 42.6211 42.3435 42.3864C42.7239 42.0433 43.0862 41.6641 43.4485 41.285C43.9558 40.7433 43.9558 40.0572 43.5029 39.6058C43.0319 39.1363 42.3616 39.1544 41.8182 39.678C41.0935 40.3822 40.3689 41.0864 39.6624 41.8267C39.0827 42.4225 39.0827 43.0183 39.6624 43.6142C40.3689 44.3364 41.0935 45.0406 41.8182 45.7629C42.0355 45.9976 42.3254 46.142 42.7058 46.1781ZM54.2815 46.1601C54.6076 46.142 54.8975 46.0156 55.1511 45.7629C55.8757 45.0226 56.6365 44.3003 57.3611 43.56C57.9046 43.0003 57.9046 42.4044 57.3611 41.8267C56.6365 41.0864 55.9119 40.3461 55.1511 39.6238C54.6257 39.1183 53.9192 39.1363 53.4482 39.6058C53.0135 40.0752 53.0135 40.7252 53.5026 41.2308C53.8468 41.5919 54.191 41.953 54.5533 42.278C54.8793 42.5489 54.9337 42.7475 54.5714 43.0545C54.1366 43.4156 53.7562 43.8309 53.3758 44.2462C53.0497 44.5892 53.0316 45.0226 53.2127 45.4378C53.4301 45.9254 53.7924 46.124 54.2815 46.1601ZM46.6912 60.009C47.597 60.009 48.5027 60.009 49.4085 60.009C50.2599 60.009 50.7853 59.5576 50.8034 58.8715C50.8215 58.2034 50.2599 57.7159 49.4447 57.7159C47.6332 57.7159 45.8398 57.7159 44.0282 57.7159C43.2312 57.7159 42.7058 58.1673 42.7058 58.8354C42.6877 59.5215 43.2312 59.991 44.0645 60.009C44.934 60.009 45.8217 60.009 46.6912 60.009ZM47.3252 46.1781C47.7238 46.142 48.1042 45.9976 48.3035 45.6003C49.1187 44.0114 49.9157 42.4406 50.6947 40.8336C50.9664 40.2738 50.6947 39.6599 50.1875 39.3891C49.644 39.1002 48.9556 39.2446 48.6658 39.8224C47.8325 41.3933 47.0173 42.9642 46.2745 44.5712C45.9122 45.3295 46.51 46.1601 47.3252 46.1781ZM43.2855 48.4893C42.7058 48.4893 42.108 48.4713 41.5283 48.4893C40.8762 48.5074 40.4414 48.9226 40.387 49.5004C40.3327 50.0782 40.695 50.6741 41.3109 50.7282C42.6152 50.8546 43.9195 50.8366 45.2238 50.7282C45.8217 50.6741 46.2202 50.0782 46.184 49.5185C46.1296 48.9588 45.6767 48.5074 45.0608 48.4713C44.463 48.4713 43.8652 48.4893 43.2855 48.4893ZM74.5889 57.6979C74.0092 57.6979 73.4114 57.6798 72.8317 57.6979C72.1433 57.7159 71.6542 58.2215 71.6542 58.8534C71.6542 59.4673 72.1614 59.9729 72.8498 59.991C73.991 60.009 75.1504 60.009 76.2917 59.991C76.9801 59.9729 77.4511 59.4673 77.4511 58.8354C77.4511 58.2034 76.962 57.7159 76.2736 57.6979C75.712 57.6798 75.1504 57.6979 74.5889 57.6979ZM45.0608 64.5952C45.4412 64.5952 45.8217 64.6133 46.2021 64.5952C46.8723 64.5591 47.3071 64.1077 47.3071 63.4758C47.3252 62.8619 46.8905 62.3563 46.2383 62.3202C45.4231 62.2841 44.626 62.2841 43.8108 62.3202C43.1406 62.3563 42.6696 62.898 42.6877 63.5119C42.7058 64.1258 43.1587 64.5591 43.829 64.5952C44.2456 64.6133 44.6623 64.5952 45.0608 64.5952Z" fill="#114559"/>
<path d="M72.7049 85.3957C64.2813 85.3957 55.8758 85.3957 47.4521 85.3957C47.4159 84.7998 47.7601 84.3304 47.9775 83.8068C48.4303 82.6512 48.9013 81.5137 49.3361 80.3761C49.5354 79.8525 49.9339 79.5997 50.4774 79.5997C56.8721 79.5997 63.2668 79.5997 69.6615 79.5997C70.0782 79.5997 70.4586 79.7261 70.6398 80.0872C71.4369 81.7303 72.0528 83.4276 72.7049 85.1249C72.723 85.1971 72.7049 85.3054 72.7049 85.3957Z" fill="#E0E9F3"/>
<path d="M61.2196 57.6979C63.4659 57.6979 65.6941 57.6979 67.9404 57.6979C68.828 57.6979 69.3172 58.0951 69.3353 58.8173C69.3534 59.5757 68.8462 59.991 67.9223 59.991C63.4659 59.991 59.0095 59.991 54.5712 59.991C53.6474 59.991 53.1401 59.5757 53.1401 58.8354C53.1401 58.0951 53.6293 57.6979 54.5894 57.6979C56.7994 57.6979 59.0095 57.6979 61.2196 57.6979Z" fill="#E96373"/>
<path d="M69.8969 64.6133C67.868 64.6133 65.821 64.6133 63.7921 64.6133C62.9225 64.6133 62.3972 64.18 62.3972 63.4938C62.3791 62.7896 62.9225 62.3202 63.8283 62.3202C67.9042 62.3202 71.9621 62.3202 76.038 62.3202C76.9257 62.3202 77.4873 62.7716 77.4692 63.4938C77.4692 64.2161 76.9257 64.6314 76.0199 64.6314C73.9729 64.6133 71.9259 64.6133 69.8969 64.6133Z" fill="#81EAFD"/>
<path d="M54.2634 48.4894C55.7308 48.4894 57.1981 48.4894 58.6655 48.4894C59.5531 48.4894 60.0604 48.9047 60.0604 49.6089C60.0785 50.3311 59.5169 50.8005 58.6292 50.8005C55.7308 50.8005 52.8323 50.8005 49.9339 50.8005C48.9919 50.8005 48.5027 50.3853 48.4846 49.663C48.4665 48.9047 48.9375 48.5074 49.8976 48.5074C51.365 48.4894 52.8142 48.4894 54.2634 48.4894Z" fill="#E66273"/>
<path d="M48.4665 53.0936C49.9519 53.0936 51.4555 53.0936 52.941 53.0936C53.7743 53.0936 54.2453 53.5089 54.2634 54.2131C54.2815 54.9353 53.7743 55.3867 52.9228 55.3867C49.9519 55.3867 46.9991 55.3867 44.0282 55.3867C43.2311 55.3867 42.7058 54.9173 42.7058 54.2492C42.6877 53.545 43.213 53.0936 44.0644 53.0936C45.5318 53.0936 46.9991 53.0936 48.4665 53.0936Z" fill="#E2B933"/>
<path d="M54.8974 64.6133C53.6112 64.6133 52.325 64.6133 51.0388 64.6133C50.2055 64.6133 49.6439 64.1438 49.662 63.4577C49.662 62.7896 50.2236 62.3202 51.0569 62.3202C53.6112 62.3202 56.1655 62.3202 58.7197 62.3202C59.553 62.3202 60.0965 62.7896 60.0965 63.4758C60.0965 64.18 59.5712 64.6133 58.7016 64.6133C57.4154 64.6133 56.1474 64.6133 54.8974 64.6133Z" fill="#E86273"/>
<path d="M42.7059 46.1782C42.3255 46.1601 42.0356 45.9976 41.782 45.7629C41.0574 45.0406 40.3328 44.3364 39.6263 43.6142C39.0647 43.0364 39.0647 42.4225 39.6263 41.8267C40.3328 41.1044 41.0574 40.3822 41.782 39.678C42.3255 39.1544 42.9957 39.1544 43.4667 39.6058C43.9377 40.0752 43.9196 40.7433 43.4124 41.285C43.0682 41.6642 42.6878 42.0253 42.3073 42.3864C42.0537 42.6211 42.0356 42.7836 42.3073 43.0364C42.7421 43.4336 43.1588 43.8489 43.5392 44.2823C43.8653 44.6615 43.9015 45.0948 43.6841 45.5462C43.5211 45.9615 43.1406 46.142 42.7059 46.1782Z" fill="#F7F9F9"/>
<path d="M54.2815 46.1601C53.7924 46.124 53.4301 45.9073 53.2308 45.474C53.0497 45.0406 53.0678 44.6253 53.3938 44.2823C53.7743 43.867 54.1547 43.4517 54.5895 43.0906C54.9518 42.7836 54.8793 42.585 54.5713 42.3142C54.1909 41.9892 53.8467 41.628 53.5206 41.2669C53.0315 40.7433 53.0134 40.0933 53.4663 39.6419C53.9192 39.1724 54.6257 39.1544 55.1691 39.6599C55.9119 40.3822 56.6546 41.1044 57.3792 41.8628C57.9227 42.4225 57.9227 43.0184 57.3792 43.5961C56.6546 44.3364 55.9119 45.0587 55.1691 45.799C54.9155 46.0337 54.6076 46.1601 54.2815 46.1601Z" fill="#FBFCFC"/>
<path d="M46.6912 60.0091C45.8035 60.0091 44.934 60.0091 44.0463 60.0091C43.213 60.0091 42.6696 59.5215 42.6877 58.8354C42.7058 58.1673 43.213 57.7159 44.0101 57.7159C45.8217 57.7159 47.6151 57.7159 49.4266 57.7159C50.2599 57.7159 50.8215 58.2035 50.7853 58.8715C50.7671 59.5577 50.2237 60.0091 49.3904 60.0091C48.5027 60.0091 47.597 60.0091 46.6912 60.0091Z" fill="#E3BA33"/>
<path d="M47.3251 46.1781C46.4918 46.1601 45.9121 45.3295 46.2563 44.5892C47.0171 42.9822 47.8142 41.4114 48.6475 39.8405C48.9555 39.2627 49.6257 39.1182 50.1692 39.4071C50.6764 39.678 50.9482 40.2919 50.6764 40.8516C49.9156 42.4586 49.1004 44.0295 48.2852 45.6184C48.1222 45.9976 47.7417 46.142 47.3251 46.1781Z" fill="#FAFBFB"/>
<path d="M43.2855 48.4893C43.8652 48.4893 44.463 48.4713 45.0427 48.4893C45.6586 48.5074 46.1296 48.9588 46.1658 49.5366C46.2202 50.0963 45.8035 50.6922 45.2057 50.7463C43.9014 50.8547 42.5971 50.8727 41.2928 50.7463C40.695 50.6922 40.3146 50.1144 40.3689 49.5185C40.4233 48.9407 40.858 48.5255 41.5102 48.5074C42.108 48.4713 42.7058 48.4893 43.2855 48.4893Z" fill="#E0B834"/>
<path d="M74.5887 57.6978C75.1503 57.6978 75.7119 57.6798 76.2735 57.6978C76.9619 57.7159 77.451 58.2034 77.451 58.8354C77.451 59.4673 76.98 59.9729 76.2916 59.991C75.1503 60.009 73.9909 60.009 72.8497 59.991C72.1613 59.9729 71.6722 59.4673 71.6541 58.8534C71.6541 58.2395 72.1432 57.734 72.8315 57.6978C73.4112 57.6798 74.0091 57.6978 74.5887 57.6978Z" fill="#81EAFD"/>
<path d="M45.0608 64.5952C44.6623 64.5952 44.2456 64.6133 43.8471 64.5952C43.1768 64.5591 42.7239 64.1258 42.7058 63.5119C42.6877 62.898 43.1587 62.3382 43.829 62.3202C44.6442 62.2841 45.4594 62.2841 46.2564 62.3202C46.9086 62.3563 47.3434 62.8619 47.3252 63.4758C47.3071 64.1077 46.8724 64.5591 46.2202 64.5952C45.8217 64.6133 45.4412 64.5952 45.0608 64.5952Z" fill="#E2B933"/>
</g>
<rect x="0.5" y="0.5" width="119" height="119" rx="59.5" stroke="#E9E4E4"/>
<defs>
<clipPath id="clip0_352_19635">
<rect width="67.3529" height="60" fill="white" transform="translate(26.4019 30)"/>
</clipPath>
</defs>
</svg>
