<svg width="90" height="100" viewBox="0 0 90 100" fill="none" xmlns="http://www.w3.org/2000/svg">
<path d="M82.6506 97.0301C84.2137 97.0301 85.7573 97.0496 87.3204 97.0301C88.1411 97.0105 88.9226 97.1082 89.2157 98.007C89.5283 98.9449 89.0398 99.5506 88.2778 100C59.1844 100 30.0715 100 0.978092 100C0.450542 99.5701 -0.116085 99.1403 0.0206869 98.3392C0.157459 97.499 0.685009 97.0301 1.56426 97.0301C3.18599 97.0105 4.80771 97.0105 6.42944 96.991C10.7671 97.0105 15.1242 97.0301 19.4619 97.0301C21.4939 97.0301 23.5455 96.991 25.5775 96.9714C31.8886 97.0887 38.1997 97.0496 44.5107 96.991C50.8999 96.991 57.2892 96.991 63.6588 97.0105C69.9894 97.0301 76.32 97.0301 82.6506 97.0301Z" fill="#2F5066"/>
<path d="M69.3253 0C70.5757 1.01602 70.0091 2.42282 70.1459 3.67331C69.6379 3.90778 68.7 3.22392 68.7196 4.49394C68.7586 7.93279 68.7586 11.3912 68.7196 14.83C68.7196 15.4748 68.9345 15.7093 69.5597 15.6506C69.7551 15.6311 69.9505 15.6897 70.1459 15.7093C70.1459 17.5655 70.1459 19.4021 70.1264 21.2583C69.4425 21.9031 68.4655 22.0399 67.7621 22.6651C67.5863 22.7237 67.3909 22.8019 67.2151 22.8605C67.2151 15.807 67.2151 8.73388 67.176 1.68034C67.176 0.898789 67.6058 0.429855 68.1529 0C68.5437 0 68.9345 0 69.3253 0Z" fill="#A9C7D2"/>
<path d="M44.5108 97.0106C38.1997 97.0692 31.8886 97.1083 25.5776 96.9911C25.5776 95.7406 25.6167 94.4705 25.5776 93.2201C25.558 92.3017 25.7534 91.3639 25.4408 90.4651C25.4408 88.0618 25.4017 85.6585 25.4408 83.2552C25.4799 80.9496 26.9844 79.5038 29.2704 79.5038C31.0876 79.5038 32.9047 79.5038 34.7218 79.5038C36.0309 79.5038 37.3205 79.5038 38.6296 79.5038C39.2157 79.5038 39.8019 79.5233 40.3685 79.4842C42.4006 79.367 43.7683 80.2462 44.4717 82.161C44.4912 87.1044 44.4912 92.0673 44.5108 97.0106Z" fill="#89B3C8"/>
<path d="M38.6294 79.5037C37.3203 79.5037 36.0307 79.5037 34.7216 79.5037C36.3824 75.9477 37.9064 72.3134 39.7822 68.8746C41.3843 65.9242 41.9901 62.8566 42.0291 59.5545C42.0487 57.0926 42.2831 54.6307 42.4394 52.1688C42.4981 52.0907 42.5371 52.0321 42.5958 51.9539H42.5762C43.0061 51.9734 43.3773 51.739 43.7681 51.6022C46.6989 50.4299 49.6298 49.2575 52.541 48.0657C52.5801 48.1243 52.5997 48.1829 52.5997 48.2415C52.1307 48.9058 52.2089 49.7265 52.0721 50.469C51.6227 52.8527 51.2124 55.2364 50.8021 57.6202C50.5481 59.027 50.3136 60.4338 50.0205 61.821C49.7079 63.3646 49.6102 64.9473 48.5356 66.2759C46.8552 68.3666 45.253 70.5549 43.6704 72.7237C41.9705 74.9707 40.1729 77.1395 38.6294 79.5037Z" fill="#507693"/>
<path d="M25.4408 90.465C25.7535 91.3638 25.5385 92.3017 25.5776 93.22C25.6167 94.4705 25.5776 95.7405 25.5776 96.991C23.5456 97.0106 21.494 97.0496 19.4619 97.0496C15.1243 97.0496 10.7671 97.0301 6.42951 97.0106C6.44905 95.3888 6.44905 93.7671 6.44905 92.1258C6.44905 89.6835 7.87539 88.2767 10.3178 88.2767C13.698 88.2767 17.0782 88.3548 20.4584 88.2376C22.5491 88.179 24.3271 88.5111 25.4408 90.465Z" fill="#A7C6D2"/>
<path d="M52.5218 48.0461C49.591 49.2184 46.6601 50.4103 43.7489 51.5826C43.3581 51.739 43.0064 51.9539 42.557 51.9343C42.7133 50.6643 43.065 49.4334 43.5925 48.261C43.8075 48.2415 44.081 48.261 44.2569 48.1633C46.5429 46.9519 48.5554 45.4279 50.0795 43.2982C51.7403 40.973 52.4827 38.2962 53.3229 35.6389C53.6746 34.5057 54.3389 33.7241 55.3159 33.1184C58.1686 31.399 61.0017 29.6405 63.8739 27.9406C65.9255 26.7292 67.3127 25.0293 67.7817 22.6651C68.4851 22.0399 69.462 21.9031 70.1459 21.2583C70.7516 22.4893 70.5757 23.7593 70.3413 25.0293C70.2631 25.4005 70.185 25.7913 70.1263 26.1626C69.4034 27.5498 68.446 28.7417 67.2151 29.6991C63.7762 31.7898 60.3178 33.8609 56.879 35.932C56.5077 36.1665 56.371 36.4986 56.2537 36.8699C54.9837 40.6018 53.7528 44.3142 52.5218 48.0461Z" fill="#60C9EC"/>
<path d="M67.762 22.6652C67.2931 25.0489 65.9058 26.7292 63.8542 27.9407C60.982 29.6405 58.1489 31.3795 55.2962 33.1185C54.3192 33.7046 53.6549 34.5057 53.3032 35.639C52.463 38.2963 51.7206 40.9731 50.0598 43.2982C48.5357 45.4475 46.5232 46.952 44.2372 48.1634C44.0418 48.2611 43.7878 48.222 43.5729 48.2611C43.9832 45.975 44.8038 43.7867 45.39 41.5397C45.8589 39.7617 46.3865 38.0032 46.914 36.2251C47.422 34.4666 48.3599 33.0598 50.0207 32.2197C51.0758 31.7117 52.1504 31.2623 53.0883 30.5393C55.7847 29.0935 58.481 27.6867 61.1774 26.2212C63.2094 25.1271 65.2024 23.9938 67.2149 22.8605C67.3908 22.8019 67.5861 22.7238 67.762 22.6652Z" fill="#83D8FE"/>
<path d="M53.0885 30.5198C52.1506 31.2427 51.076 31.6921 50.0209 32.2001C48.2428 32.2978 46.9533 31.6335 46.2303 29.9531C45.82 29.0348 45.3315 28.1556 44.8821 27.2568C44.0029 25.4592 44.6281 23.8375 46.328 22.8214C49.2589 21.0629 51.1346 21.864 52.346 24.7558C52.6391 25.4397 53.0299 26.0844 53.3816 26.7488C54.0459 28.0579 53.7333 29.3084 53.0885 30.5198Z" fill="#FDCBAA"/>
<path d="M42.5568 51.9343C42.4982 52.0125 42.4591 52.0711 42.4005 52.1493C42.4005 52.032 42.4201 51.9539 42.5568 51.9343Z" fill="#60C9EC"/>
<path d="M82.6507 97.0301C76.3201 97.0301 69.9895 97.0301 63.6589 97.0105C63.6589 89.0973 63.6589 81.1841 63.6589 73.2903C63.6589 73.0168 63.7566 72.7042 63.4831 72.4697C63.4831 68.3079 63.4831 64.1657 63.5026 60.0039C63.5026 57.3075 64.5577 56.0766 67.1954 55.6663C68.1724 55.6663 69.1493 55.6467 70.1263 55.6467C72.8617 55.6663 75.5972 55.6858 78.3326 55.7053C81.2048 55.7249 82.6116 57.0926 82.6116 59.9257C82.6116 71.864 82.6116 83.8218 82.6116 95.7601C82.5921 96.1899 82.6312 96.6198 82.6507 97.0301Z" fill="#618AA9"/>
<path d="M70.1459 15.7093C69.9505 15.6898 69.7551 15.6311 69.5597 15.6507C68.9345 15.7288 68.7195 15.4944 68.7195 14.83C68.7391 11.3912 68.7586 7.93282 68.7195 4.49397C68.7 3.20441 69.6574 3.90781 70.1459 3.67334C75.6949 3.69288 81.2635 3.69288 86.8125 3.71242C87.0665 3.71242 87.3401 3.71242 87.5941 3.71242C87.9458 3.69288 88.2389 3.81011 88.3952 4.14227C88.571 4.51351 88.3366 4.76752 88.0826 4.98245C86.6172 6.27201 85.1713 7.58112 83.7059 8.87068C82.9243 9.57408 82.9048 9.84763 83.7254 10.5706C85.0736 11.7624 86.4218 12.9152 87.7504 14.1071C88.0044 14.3416 88.3757 14.537 88.4343 14.9082C88.532 15.6311 88.0044 15.6702 87.4964 15.6702C84.507 15.6702 81.5175 15.6702 78.5281 15.6702C75.734 15.6702 72.9399 15.6898 70.1459 15.7093Z" fill="#FCB659"/>
<path d="M70.1264 55.6468C69.1494 55.6468 68.1725 55.6663 67.1955 55.6663C67.1955 47.0106 67.1955 38.3549 67.176 29.6796C68.4069 28.7222 69.3643 27.5303 70.0873 26.1431C70.1068 29.7187 70.1264 33.2748 70.1264 36.8504C70.1459 43.1224 70.1264 49.3943 70.1264 55.6468Z" fill="#A7C6D2"/>
<path d="M63.4828 72.4698C63.7564 72.7042 63.6587 73.0168 63.6587 73.2904C63.6587 81.2036 63.6587 89.1169 63.6587 97.0106C57.2695 97.0106 50.8802 97.0106 44.5106 96.9911C44.5106 92.0477 44.491 87.0848 44.491 82.1415C44.5106 79.3279 44.5106 76.4948 44.5301 73.6812C44.5496 71.5319 45.9564 70.086 48.1253 70.0665C50.0987 70.0274 52.0721 70.0665 54.0455 70.0469C54.3972 70.0469 54.7685 70.1642 55.0811 69.9102C56.3121 69.9102 57.5235 69.9102 58.7544 69.8906C58.9107 69.9492 59.0475 70.0469 59.2038 70.0274C61.1968 69.832 62.584 70.7113 63.4828 72.4698Z" fill="#6C96B2"/>
<path d="M52.5803 48.2219C54.8663 50.8206 57.1133 53.4779 59.3017 56.1742C60.4544 57.6201 60.1027 59.1637 59.9074 60.7268C59.5361 63.7944 59.1453 66.8425 58.7741 69.9101C57.5432 69.9101 56.3317 69.9101 55.1008 69.9296C54.7882 66.862 54.456 63.7944 54.1825 60.7073C54.1043 59.8866 53.7721 59.3005 53.0492 58.9292C52.2677 58.5189 51.6229 57.9132 50.8022 57.6006C51.2126 55.2168 51.6229 52.8331 52.0723 50.4494C52.1895 49.7069 52.1113 48.8862 52.5803 48.2219Z" fill="#3A637D"/>
</svg>
