<svg width="112" height="100" viewBox="0 0 112 100" fill="none" xmlns="http://www.w3.org/2000/svg">
<g clip-path="url(#clip0_253_35400)">
<path d="M50.1761 92.1655C51.4085 93.3979 52.7289 94.7183 53.9613 95.9507C55.3697 95.9507 56.8662 95.9507 58.2746 95.9507C59.507 95.9507 60.8275 95.9507 62.0599 95.9507C62.2359 95.9507 62.412 95.9507 62.588 95.9507C63.8204 94.7183 65.1408 93.3979 66.3732 92.1655H58.2746H50.1761Z" fill="#000B36"/>
<path d="M57.9226 99.7359C57.8345 99.3838 57.8345 99.0317 57.7465 98.7676L58.9789 98.5916C59.7711 97.7993 60.6514 97.007 61.4437 96.1268C61.7078 96.1268 61.8838 96.0387 62.0599 95.8627C60.8275 95.8627 59.5071 95.8627 58.2747 95.8627C56.8662 95.8627 55.3697 95.8627 53.9613 95.8627C52.6409 94.6303 51.4085 93.3099 50.1761 92.0775C49.5599 92.0775 49.1197 91.6373 49.1197 91.0211V90.669V89.0845V87.5V85.9155V84.331V82.7465V81.162V79.5775C47.1831 79.5775 47.1831 78.5211 46.831 77.0247C46.4789 75.5282 46.2148 73.1514 45.4225 71.2148C44.6303 69.2782 43.3979 67.6937 42.1655 66.1972C38.8204 62.412 36.7958 57.3944 36.7958 51.9366C36.7958 46.3908 38.9085 41.2852 42.4296 37.412C36.0916 41.1972 31.8662 48.0634 31.8662 55.8979C31.8662 61.3556 33.8909 66.3732 37.2359 70.1585C38.4683 71.6549 39.7007 73.2394 40.493 75.1761C41.2852 77.1127 41.5493 79.5775 41.9014 80.9859C42.2535 82.4824 42.2535 83.5387 44.1902 83.5387V85.1232V86.7077V88.2923V89.8768V91.4613V93.0458V94.6303V94.9824C44.1902 95.5106 44.6303 96.0387 45.2465 96.0387C46.4789 97.2711 47.7993 98.5916 49.0317 99.8239C50.4402 99.8239 51.9366 99.8239 53.3451 99.8239C54.7535 99.8239 56.25 99.8239 57.6585 99.8239C57.7465 99.912 57.8345 99.824 57.9226 99.7359Z" fill="#3B52A7"/>
<path d="M24.8239 61.5317L0 61.3556V63.2923L24.8239 63.3803V61.5317Z" fill="#3B52A7"/>
<path d="M27.1127 42.9578L5.72182 30.4577L4.75351 32.1303L26.1444 44.6303L27.1127 42.9578Z" fill="#3B52A7"/>
<path d="M25.5282 11.2676L37.7641 32.8345L39.4366 31.9542L27.2007 10.2993L25.5282 11.2676Z" fill="#3B52A7"/>
<path d="M54.3134 28.8732L54.1373 4.04929H52.2007L52.3768 28.8732H54.3134Z" fill="#3B52A7"/>
<path d="M106.69 61.3556L81.8662 61.5317V63.4683L106.69 63.2923V61.3556Z" fill="#3B52A7"/>
<path d="M67.2535 31.9542L68.9261 32.8345L81.162 11.2676L79.4895 10.2993L67.2535 31.9542Z" fill="#3B52A7"/>
<path d="M85.0352 39.7887L79.5775 43.0458L80.5458 44.6303L101.937 32.1303L101.496 31.25L85.4754 40.581L85.0352 39.7887Z" fill="#3B52A7"/>
<path d="M52.1127 52.2007C52.4648 53.081 53.6092 53.3451 54.3134 52.7289C54.9296 52.2007 55.1937 51.1444 55.1056 50.3521C55.1056 49.912 55.0176 49.4718 54.7535 49.1197C54.5775 48.7676 54.3134 48.5035 54.0493 48.2394L53.9613 48.3275C53.257 48.8556 52.6409 49.5599 52.2887 50.4401C52.0247 50.9683 51.9366 51.6725 52.1127 52.2007Z" fill="#FFB224"/>
<path d="M64.9648 47.7113C64.4366 47.7113 63.9965 47.7993 63.5563 47.9754C63.5563 47.9754 63.5563 47.9753 63.6444 48.0634C64.2606 48.8556 64.6127 49.912 64.7007 50.8803C64.7007 51.6725 64.5247 52.4648 63.9965 53.081C63.6444 53.6092 62.9401 53.9613 62.324 53.8732C62.2359 53.8732 62.1479 53.8732 62.1479 53.7852C61.4437 53.5211 61.0916 52.8169 60.9155 52.1127C60.7394 51.3204 60.7394 50.4401 61.0035 49.6479C61.2676 48.8556 61.7958 48.2394 62.412 47.7993C61.9718 47.3592 61.3556 47.007 60.7394 46.831C58.9789 46.3028 56.6021 46.831 54.9296 47.7993C55.1937 48.0634 55.4578 48.3275 55.6338 48.6796C56.338 50 56.162 52.2007 55.0176 53.257C53.8732 54.2254 52.1127 53.8732 51.5845 52.4648C51.3204 51.6725 51.4085 50.7923 51.7606 50.088C52.1127 49.2077 52.8169 48.4155 53.6092 47.7993C52.9049 47.4472 52.1127 47.3592 51.3204 47.5352C49.912 47.7993 48.5916 48.9437 47.5352 50L55.4578 79.5775H58.5387H61.4437L69.4542 49.6479C67.9578 48.7676 66.3732 47.7993 64.9648 47.7113Z" fill="#FFB224"/>
<path d="M61.5317 51.9366C61.6197 52.2887 61.8838 52.9049 62.2359 53.081H62.324C62.6761 53.169 63.0282 52.8169 63.2923 52.5528C63.6444 52.1127 63.8204 51.4965 63.8204 50.8803C63.8204 50.088 63.4683 49.2077 62.9401 48.5035C62.9401 48.4155 62.8521 48.4155 62.8521 48.3275C62.324 48.6796 61.7958 49.2958 61.6197 49.912C61.3556 50.6162 61.3556 51.3204 61.5317 51.9366Z" fill="#FFB224"/>
<path d="M42.1655 66.1092C43.3979 67.6056 44.6303 69.1901 45.4225 71.1268C46.2148 73.0634 46.4789 75.5282 46.831 76.9366C47.1831 78.4331 47.1831 79.4894 49.1197 79.4894H53.6972C51.0563 69.5423 48.5916 60.3873 45.8627 50.3521C47.1831 48.9437 48.9437 47.1831 50.9683 46.743C52.0247 46.5669 53.169 46.743 54.1373 47.2711C56.0739 46.1268 58.8028 45.4225 60.8275 46.0387C61.6197 46.3028 62.412 46.743 62.9401 47.3592C63.5563 47.0951 64.2606 46.919 64.9648 46.919C66.9014 46.919 69.1901 48.5035 70.6866 49.6479C67.9578 59.6831 65.4049 69.4542 62.6761 79.4894H67.4296C69.3662 79.2254 69.3662 78.3451 69.7183 76.9366C70.0704 75.4401 70.3345 73.0634 71.1268 71.1268C71.919 69.1901 73.1514 67.6056 74.3838 66.1092C77.7289 62.3239 79.7535 57.3063 79.7535 51.8486C79.7535 39.9648 70.0704 30.2817 58.1866 30.2817C51.8486 30.2817 46.2148 33.0106 42.2535 37.3239C38.7324 41.1092 36.6197 46.2148 36.6197 51.8486C36.7958 57.3063 38.8204 62.3239 42.1655 66.1092Z" fill="#FFB224"/>
<path d="M67.5176 81.162H49.1197V82.7465H67.5176V81.162Z" fill="#4885CA"/>
<path d="M67.5176 84.331H49.1197V85.9155H67.5176V84.331Z" fill="#4885CA"/>
<path d="M49.1197 91.1092C49.1197 91.6373 49.5599 92.1655 50.1761 92.1655H58.2746H66.3732C66.9894 92.1655 67.4296 91.7254 67.4296 91.1092V90.757H49.1197V91.1092Z" fill="#4885CA"/>
<path d="M67.5176 87.588H49.1197V89.1725H67.5176V87.588Z" fill="#4885CA"/>
<path d="M67.4296 79.5775H62.7641H61.1796H58.2746H55.1937H53.6972H49.1197V81.162H67.5176V79.5775H67.4296Z" fill="#000B36"/>
<path d="M49.1197 84.331H67.5176V82.7465H49.1197V84.331Z" fill="#000B36"/>
<path d="M49.1197 87.588H67.5176V85.9155H49.1197V87.588Z" fill="#000B36"/>
<path d="M49.1197 90.757H67.5176V89.1725H49.1197V90.757Z" fill="#000B36"/>
<path d="M47.2711 50C48.3275 49.0317 49.7359 47.7993 51.0563 47.5352C51.7606 47.3592 52.6409 47.5352 53.3451 47.7993C52.6409 48.4155 51.9366 49.2077 51.5845 50.1761C51.3204 50.8803 51.1444 51.7606 51.4085 52.5528C51.9366 53.9613 53.7852 54.3134 54.8416 53.3451C55.9859 52.2887 56.25 50.088 55.4578 48.7676C55.2817 48.4155 55.0176 48.1514 54.7535 47.8873C56.4261 46.919 58.8028 46.3908 60.5634 46.919C61.1796 47.0951 61.7958 47.4472 62.2359 47.8873C61.6197 48.3275 61.0916 49.0317 60.8275 49.7359C60.5634 50.5282 60.5634 51.4085 60.7394 52.2007C60.9155 52.8169 61.2676 53.6092 61.9718 53.8732C62.0599 53.8732 62.1479 53.9613 62.1479 53.9613C62.7641 54.0493 63.3803 53.6972 63.8204 53.169C64.3486 52.5528 64.5247 51.7606 64.5247 50.9683C64.5247 50 64.0845 48.9437 63.4683 48.1514C63.4683 48.1514 63.4683 48.1514 63.3803 48.0634C63.8204 47.8873 64.3486 47.7993 64.7887 47.7993C66.1972 47.7993 67.7817 48.7676 69.1021 49.6479L61.0916 79.5775H62.588C65.2289 69.5423 67.8697 59.7711 70.5986 49.7359C69.0141 48.5916 66.7254 47.0951 64.8768 47.007C64.1725 47.007 63.4683 47.1831 62.8521 47.4472C62.2359 46.831 61.5317 46.3908 60.7394 46.1268C58.6268 45.5106 55.8979 46.1268 54.0493 47.3592C53.081 46.831 51.9366 46.6549 50.8803 46.831C48.9437 47.1831 47.0951 48.9437 45.7747 50.4401C48.5916 60.3873 51.0563 69.5423 53.6972 79.5775H55.1937L47.2711 50ZM62.8521 48.4155C62.8521 48.5035 62.9402 48.5035 62.9402 48.5916C63.3803 49.2958 63.8204 50.088 63.8204 50.9683C63.8204 51.5845 63.6444 52.2007 63.2923 52.6408C63.1162 52.9049 62.6761 53.169 62.324 53.169H62.2359C61.8838 52.993 61.6197 52.4648 61.5317 52.0246C61.3556 51.4085 61.3556 50.7042 61.6197 50.088C61.7958 49.2958 62.2359 48.7676 62.8521 48.4155ZM53.9613 48.3275L54.0493 48.2394C54.3134 48.5035 54.5775 48.7676 54.7535 49.1197C54.9296 49.4718 55.1056 49.912 55.1056 50.3521C55.1056 51.1444 54.9296 52.2007 54.3134 52.7289C53.6092 53.3451 52.4648 53.081 52.1127 52.2007C51.9366 51.6725 52.0247 50.9683 52.2887 50.4401C52.6409 49.5599 53.2571 48.8556 53.9613 48.3275Z" fill="white"/>
<path d="M59.243 24.8239L59.0669 0H57.2183L57.3063 24.8239H59.243Z" fill="white"/>
<path d="M86.0916 7.21829L84.507 6.33801L72.1831 27.9049L73.8556 28.7852L86.0916 7.21829Z" fill="white"/>
<path d="M85.0352 39.7887L85.4754 40.581L101.496 31.25L106.866 28.081L105.986 26.4084L84.507 38.9965L85.0352 39.7887Z" fill="white"/>
<path d="M86.7958 59.419L111.62 59.243V57.3063L86.7958 57.4824V59.419Z" fill="white"/>
<path d="M44.3662 27.9049L32.1303 6.33801L30.4577 7.21829L42.6937 28.7852L44.3662 27.9049Z" fill="white"/>
<path d="M32.0423 38.9965L10.6514 26.4084L9.68311 28.081L31.0739 40.581L32.0423 38.9965Z" fill="white"/>
<path d="M4.92957 59.243L29.7535 59.419V57.4824L4.92957 57.3063V59.243Z" fill="white"/>
</g>
<defs>
<clipPath id="clip0_253_35400">
<rect width="111.62" height="100" fill="white"/>
</clipPath>
</defs>
</svg>
