<svg width="130" height="159" viewBox="0 0 130 159" fill="none" xmlns="http://www.w3.org/2000/svg">
<g clip-path="url(#clip0_218_47063)">
<path d="M109.519 67.9312C98.7398 54.6116 82.0749 38.9999 70.6139 38.9999C68.0738 38.9999 65.7197 39.7433 63.9231 41.2301C59.7104 44.6375 58.905 50.5848 61.445 58.8863C61.0733 67.2497 58.8431 78.1532 51.4089 88.3132L43.3552 96.9865C42.1162 98.3494 36.1688 103.491 33.3191 105.907C32.3278 106.775 31.4605 107.518 30.9649 107.952C28.7966 109.872 27.4337 112.35 27.1239 115.076C26.9381 116.811 26.9381 118.669 27.2478 120.528C28.3629 128.272 33.443 134.529 40.7532 137.255C42.4879 137.936 44.2845 138.308 46.0191 138.494C46.3289 138.556 46.7006 138.556 47.0103 138.556C47.5059 138.556 48.0016 138.494 48.4972 138.432L67.4543 155.593C69.9324 157.761 73.0919 159 76.3753 159C79.411 159 82.4466 157.947 84.8007 156.026C87.8983 153.548 89.6949 149.831 89.8188 145.866C89.9427 141.901 88.27 138.122 85.3583 135.52L72.1007 123.502L77.3666 120.404C83.9334 117.43 91.0578 115.944 98.6159 115.944C101.775 115.944 104.935 116.191 108.094 116.749C112.369 119.165 116.086 120.342 119.308 120.342C121.848 120.342 124.202 119.599 125.998 118.112C137.521 108.881 121.042 82.242 109.519 67.9312Z" fill="#004693"/>
<path d="M81.3314 151.69C78.3578 154.106 74.0212 153.982 71.1714 151.442L45.8333 128.52L58.2235 118.484L81.5793 139.671C85.2963 142.893 85.1724 148.654 81.3314 151.69Z" fill="white"/>
<path d="M58.2855 118.484L45.8952 128.52L53.3294 135.272C55.7455 133.786 63.9231 128.644 67.3924 126.785L58.2855 118.484Z" fill="#C6C1C7"/>
<path d="M66.4011 46.9297C66.4011 46.9297 72.7821 78.1532 47.8157 100.456C46.8864 101.323 46.3289 102.5 46.3289 103.739C46.3289 104.73 46.4528 106.093 46.8245 107.704C48.1874 113.466 52.0903 118.298 57.4182 120.838C58.905 121.519 60.206 121.953 61.1353 122.139C62.3743 122.387 63.6753 122.139 64.6665 121.395C91.7393 101.695 120.918 114.519 120.918 114.519L104.997 71.5864L66.4011 46.9297Z" fill="#E13434"/>
<path d="M122.535 113.829C128.178 109.272 120.414 90.2995 105.194 71.4532C89.9743 52.6068 73.0612 41.0233 67.418 45.5807C61.7747 50.1381 69.5382 69.1106 84.7582 87.957C99.9782 106.803 116.891 118.387 122.535 113.829Z" fill="white"/>
<path d="M100.598 75.1175C112.245 89.4903 119.122 103.243 116.024 105.722C112.927 108.2 100.97 98.5971 89.3851 84.1624C77.7382 69.8516 70.7997 56.0984 73.8972 53.6204C76.9948 51.1423 88.9514 60.7448 100.598 75.1175Z" fill="#C6C1C7"/>
<path d="M89.3231 84.2244C97.129 93.8888 105.059 101.385 110.387 104.544C108.404 98.6591 102.767 89.3663 94.9607 79.7019C87.1548 70.0375 79.225 62.5414 73.9592 59.3818C75.8797 65.2672 81.5792 74.5599 89.3231 84.2244Z" fill="#9B8CA3"/>
<path d="M84.0573 77.2859C85.668 79.5161 87.4646 81.8703 89.3231 84.2244C90.6861 85.9591 92.1109 87.5698 93.4739 89.1186C96.6334 86.4547 97.129 81.8083 94.5271 78.5868C91.9251 75.3654 87.3407 74.8698 84.0573 77.2859Z" fill="url(#paint0_linear_218_47063)"/>
<path d="M47.6298 105.35C47.382 103.553 47.382 102.005 47.5059 100.766C45.5854 102.81 36.9742 110.182 34.682 112.165C33.5668 113.156 32.8854 114.395 32.6995 115.696C32.5756 116.749 32.5756 118.05 32.7615 119.661C33.5668 125.422 37.2839 129.945 42.7357 131.989C44.2844 132.547 45.5854 132.794 46.6386 132.918C47.9396 133.042 49.3645 132.609 50.5415 131.741C53.0196 129.945 62.0026 123.006 64.4187 121.581C63.1796 121.457 61.6928 121.148 59.9582 120.466C53.2055 118.05 48.621 112.412 47.6298 105.35Z" fill="white"/>
</g>
<path d="M34.4893 57.1981L1.51807 39.9866L0.193013 42.5694L33.2244 59.6635L34.4893 57.1981Z" fill="#3B52A7"/>
<path d="M50.2482 33.9916L30.2856 2.69163L27.8504 4.26006L47.813 35.56L50.2482 33.9916Z" fill="#3B52A7"/>
<path d="M59.53 32.0795L39.6277 0.662211L37.1926 2.23064L57.1551 33.5306L59.53 32.0795Z" fill="#E89A01"/>
<path d="M9.53432 40.54L42.5055 57.7515L43.8306 55.1686L10.8594 37.9572L9.53432 40.54Z" fill="#E89A01"/>
<defs>
<linearGradient id="paint0_linear_218_47063" x1="94.03" y1="78.9725" x2="88.3292" y2="83.5765" gradientUnits="userSpaceOnUse">
<stop offset="0.072973" stop-color="#A10005"/>
<stop offset="1" stop-color="#630719"/>
</linearGradient>
<clipPath id="clip0_218_47063">
<rect width="102.901" height="120" fill="white" transform="translate(27 39)"/>
</clipPath>
</defs>
</svg>
