<svg width="29" height="28" viewBox="0 0 29 28" fill="none" xmlns="http://www.w3.org/2000/svg">
<path d="M21.9332 27.9955C20.3941 27.8369 19.0306 27.4277 17.7007 26.885C14.9822 25.7745 12.5815 24.1714 10.3482 22.2843C7.28671 19.7043 4.71041 16.7151 2.74472 13.2166C1.70751 11.3797 0.929601 9.44256 0.544829 7.35515C0.427724 6.72057 0.503006 6.1862 0.879414 5.65182C2.1592 3.83994 3.54773 2.11991 5.18719 0.608625C5.36285 0.449981 5.55524 0.299687 5.75599 0.174442C6.1324 -0.0760474 6.40006 -0.0593481 6.74301 0.24124C6.91867 0.391533 7.0776 0.558527 7.21143 0.742219C8.49122 2.54575 9.67063 4.39937 10.6158 6.39494C11.1261 7.46369 11.0759 7.64739 10.1976 8.43225C9.59535 8.97498 8.93454 9.45926 8.37411 10.0437C8.24028 10.1857 8.21519 10.2942 8.27374 10.4779C9.10184 13.2584 10.666 15.5629 12.8743 17.4165C14.3966 18.694 16.0947 19.6625 18.0269 20.1886C18.2025 20.2387 18.3113 20.2136 18.4368 20.0884C18.9721 19.579 19.4321 18.9946 19.9089 18.4351C20.829 17.358 20.988 17.3079 22.2594 17.9175C24.1749 18.8443 25.9733 19.9631 27.7048 21.1989C28.7085 21.917 28.742 22.3344 27.9222 23.2362C26.333 24.9646 24.5346 26.4425 22.5689 27.72C22.3514 27.8703 22.1172 28.0289 21.9332 27.9955Z" fill="white"/>
<path d="M27.4773 12.9826C27.1678 12.9826 26.7663 13.0995 26.5655 12.9492C26.3648 12.7989 26.4819 12.3647 26.4568 12.0641C26.0135 7.02093 22.1908 2.90454 17.2055 2.13638C16.712 2.06123 16.2101 2.00278 15.7082 2.01113C15.4991 2.01948 15.474 1.93598 15.474 1.76064C15.4824 1.25131 15.4908 0.741983 15.474 0.232653C15.4657 0.0239118 15.5409 -0.00113721 15.725 0.00721245C17.8663 0.0656601 19.8905 0.56664 21.7475 1.62705C25.4447 3.73116 27.6362 6.88733 28.3555 11.0705C28.4559 11.6466 28.4894 12.2228 28.5061 12.8072C28.5061 12.9492 28.481 13.0076 28.3221 12.9993C28.0377 12.9909 27.7617 12.9993 27.4773 12.9993C27.4773 12.9909 27.4773 12.9909 27.4773 12.9826Z" fill="white"/>
<path d="M22.4647 12.9829C22.1552 12.9829 21.7537 13.0997 21.553 12.9495C21.3857 12.8326 21.461 12.39 21.4191 12.0978C21.0762 9.52609 18.8428 7.34683 16.2665 7.05459C16.208 7.04624 16.1411 7.03789 16.0825 7.02954C15.8901 7.01284 15.589 7.05459 15.5221 6.9544C15.4217 6.79575 15.4803 6.53691 15.4803 6.31982C15.4803 5.96914 15.497 5.6101 15.4719 5.25942C15.4552 5.02562 15.5388 4.98388 15.7479 5.00058C18.7843 5.19262 21.0595 6.61206 22.5484 9.25055C23.159 10.3277 23.435 11.505 23.4852 12.7407C23.4936 12.9411 23.4434 13.0163 23.2343 12.9996C22.975 12.9829 22.7157 12.9912 22.4564 12.9912C22.4647 12.9912 22.4647 12.9829 22.4647 12.9829Z" fill="white"/>
</svg>
