<svg width="41" height="51" viewBox="0 0 41 51" fill="none" xmlns="http://www.w3.org/2000/svg">
<g clip-path="url(#clip0_253_35946)">
<path d="M40.2567 51C26.9593 51 13.641 51 0.343628 51C0.343628 35.6832 0.343628 20.3453 0.343628 5.00742C0.343628 4.73391 0.364635 4.48143 0.385642 4.20792C0.574703 4.22896 0.742758 4.25 0.93182 4.25C11.1832 4.25 21.4555 4.25 31.7069 4.25C31.7069 5.44925 31.7279 6.66955 31.7069 7.86881C31.7069 8.31064 31.8119 8.45792 32.2741 8.45792C34.8999 8.43688 37.5258 8.43688 40.1516 8.43688C40.3407 8.62623 40.2567 8.87871 40.2567 9.11014C40.2567 23.0804 40.2567 37.0507 40.2567 51ZM24.2494 25.5631C25.4048 25.5631 26.5602 25.5421 27.7156 25.5631C28.4718 25.5842 28.976 25.2686 29.3541 24.6584C30.0053 23.5854 30.1734 22.4072 30.1524 21.1869C30.1314 20.0087 29.9423 18.8725 29.2701 17.8837C28.976 17.4418 28.5769 17.1052 28.0097 17.1052C27.0854 17.1052 26.1611 17.1052 25.2368 17.1052C24.9427 17.1052 24.8797 17.2104 24.8797 17.4839C24.9007 17.9678 24.8797 18.4517 24.8797 18.9356C24.8586 20.5767 23.8503 21.5866 22.2118 21.6077C20.8673 21.6077 19.5229 21.6077 18.1995 21.6077C16.75 21.6077 15.9517 22.3861 15.9517 23.8379C15.9517 25.5421 15.9727 27.2463 15.9517 28.9505C15.9517 29.6448 16.2458 30.1287 16.792 30.4864C17.5062 30.9703 18.3255 31.2017 19.1658 31.2859C20.7203 31.4542 22.2328 31.349 23.6192 30.4864C24.1654 30.1497 24.4595 29.6869 24.4385 28.9926C24.4175 28.172 24.4175 27.3725 24.4385 26.552C24.4595 26.1733 24.3545 26.026 23.9553 26.047C22.884 26.0681 21.8126 26.0681 20.7203 26.047C20.5312 26.047 20.2161 26.2153 20.2161 25.7945C20.2161 25.4158 20.5312 25.5631 20.6993 25.5631C21.8547 25.5421 23.0521 25.5631 24.2494 25.5631ZM16.0778 17.1052C14.9224 17.1052 13.767 17.1262 12.6116 17.1052C11.8974 17.0842 11.4142 17.3997 11.0571 17.9678C10.553 18.7463 10.3429 19.5879 10.2589 20.4926C10.1328 21.9864 10.2379 23.4381 11.0781 24.7426C11.4353 25.2896 11.8974 25.6052 12.5906 25.5842C13.4309 25.5631 14.2712 25.5631 15.1115 25.5842C15.3845 25.5842 15.4896 25.521 15.4686 25.2265C15.4476 24.7426 15.4476 24.2587 15.4686 23.7958C15.4896 22.1126 16.4979 21.1238 18.1785 21.1027C19.5229 21.1027 20.8463 21.1027 22.1908 21.1027C23.6192 21.1027 24.3965 20.3243 24.3965 18.8936C24.3965 17.1894 24.3755 15.4851 24.4175 13.7809C24.4385 13.0235 24.1024 12.5186 23.4932 12.1609C22.1488 11.3614 20.6783 11.2562 19.1868 11.4245C18.3255 11.5087 17.5062 11.7401 16.771 12.245C16.2248 12.6238 15.9307 13.1077 15.9517 13.7809C15.9727 14.6015 15.9727 15.401 15.9517 16.2215C15.9517 16.5582 16.0358 16.6844 16.3929 16.6634C17.5272 16.6423 18.6826 16.6423 19.817 16.6634C19.964 16.6634 20.1951 16.5582 20.2161 16.8738C20.2371 17.2104 20.0061 17.1473 19.817 17.1473C18.5566 17.1052 17.3172 17.1052 16.0778 17.1052ZM15.3845 37.8923C14.9014 37.8923 14.5233 37.9134 14.1451 37.8923C13.851 37.8713 13.746 37.9765 13.746 38.2921C13.746 40.7327 13.746 43.1943 13.746 45.6349C13.746 45.9505 13.8721 46.0346 14.1661 46.0136C14.6283 45.9926 15.0904 45.9926 15.5526 46.0136C15.8677 46.0346 15.9517 45.8874 15.9517 45.5928C15.9307 45.0879 15.9517 44.604 15.9517 44.099C15.9517 43.3837 15.9517 43.3837 16.645 43.2995C16.855 43.2785 17.0651 43.2364 17.2752 43.2153C18.6406 43.047 19.5439 42.0582 19.5859 40.5644C19.6279 39.323 19.0397 38.2921 17.5903 38.0186C16.834 37.9134 16.0568 37.8713 15.3845 37.8923ZM23.7663 40.8168C23.5562 40.6064 23.4932 40.354 23.3882 40.1436C23.0941 39.4913 22.8 38.8601 22.5059 38.2079C22.4218 38.0186 22.3168 37.8713 22.0647 37.8923C21.4765 37.9134 20.9094 37.8923 20.3212 37.8923C20.0481 37.8923 20.0061 37.9765 20.1321 38.2079C20.7203 39.302 21.2665 40.4171 21.8967 41.4901C22.3798 42.3317 22.7369 43.1522 22.6109 44.1621C22.5479 44.625 22.6109 45.0879 22.5899 45.5507C22.5689 45.9295 22.7159 46.0557 23.0941 46.0347C23.5352 46.0136 23.9764 46.0136 24.4385 46.0347C24.7536 46.0557 24.8797 45.9084 24.8797 45.5928C24.8586 44.7723 24.8797 43.9728 24.8797 43.1522C24.8797 42.9208 24.9427 42.7104 25.0477 42.5C25.804 41.1324 26.5392 39.7228 27.2954 38.3552C27.5055 37.9765 27.4215 37.8713 27.0013 37.8923C26.5392 37.9134 26.077 37.9134 25.6149 37.8923C25.2788 37.8713 25.1107 37.9975 24.9637 38.2921C24.5645 39.1337 24.1654 39.9752 23.7663 40.8168Z" fill="#E7E7E7"/>
<path d="M0.385642 4.20792C0.343628 2.81931 0.427655 1.40965 0.343628 0C10.805 0 21.2665 0 31.7069 0C31.7069 1.40965 31.7069 2.84035 31.7069 4.25C21.4555 4.25 11.1832 4.25 0.93182 4.25C0.742758 4.25 0.574703 4.22896 0.385642 4.20792Z" fill="#024B94"/>
<path d="M31.7069 4.25C31.7069 2.84035 31.7069 1.40965 31.7069 0C31.7489 0 31.7699 0 31.8119 0C31.9379 0.147277 32.064 0.294554 32.211 0.441832C34.7319 2.96658 37.2527 5.49134 39.7525 8.01609C39.8995 8.16337 40.0046 8.31064 40.1516 8.45792C37.5258 8.45792 34.8999 8.43688 32.2741 8.47896C31.7909 8.47896 31.6859 8.33168 31.7069 7.88985C31.7279 6.66955 31.7069 5.44926 31.7069 4.25Z" fill="#D0D2D2"/>
<path d="M24.2494 25.5631C23.052 25.5631 21.8757 25.5631 20.6783 25.5631C20.5102 25.5631 20.1951 25.4158 20.1951 25.7945C20.1951 26.2153 20.5102 26.047 20.6993 26.047C21.7706 26.0681 22.842 26.0681 23.9343 26.047C24.3335 26.026 24.4385 26.1733 24.4175 26.552C24.3965 27.3725 24.3965 28.172 24.4175 28.9926C24.4385 29.6658 24.1444 30.1287 23.5982 30.4864C22.2328 31.349 20.6993 31.4542 19.1448 31.2859C18.3045 31.2017 17.4852 30.9703 16.771 30.4864C16.2248 30.1287 15.9307 29.6448 15.9307 28.9505C15.9517 27.2463 15.9307 25.5421 15.9307 23.8379C15.9307 22.3861 16.729 21.6077 18.1785 21.6077C19.5229 21.6077 20.8673 21.6077 22.1908 21.6077C23.8293 21.6077 24.8376 20.5978 24.8586 18.9356C24.8586 18.4517 24.8796 17.9678 24.8586 17.4839C24.8586 17.2104 24.9217 17.1052 25.2158 17.1052C26.1401 17.1262 27.0644 17.1052 27.9887 17.1052C28.5558 17.1052 28.955 17.4418 29.2491 17.8837C29.9213 18.8725 30.1103 20.0087 30.1314 21.1869C30.1524 22.4072 29.9843 23.6064 29.3331 24.6584C28.955 25.2686 28.4508 25.6052 27.6946 25.5631C26.5602 25.521 25.4048 25.5631 24.2494 25.5631ZM22.4639 29.0767C22.821 29.0346 23.0731 28.8453 23.0731 28.4666C23.0731 28.1089 22.842 27.8775 22.4849 27.8775C22.1277 27.8775 21.8967 28.0879 21.8967 28.4666C21.8757 28.8663 22.1067 29.0346 22.4639 29.0767Z" fill="#FA9201"/>
<path d="M16.0778 17.1052C17.3172 17.1052 18.5566 17.1052 19.796 17.1052C19.985 17.1052 20.2161 17.1683 20.1951 16.8317C20.1741 16.5161 19.943 16.6213 19.796 16.6213C18.6616 16.6213 17.5062 16.6002 16.3719 16.6213C16.0147 16.6213 15.9307 16.5161 15.9307 16.1795C15.9517 15.3589 15.9517 14.5594 15.9307 13.7389C15.9097 13.0446 16.2038 12.5817 16.75 12.203C17.4852 11.698 18.3045 11.4666 19.1658 11.3824C20.6783 11.2352 22.1488 11.3193 23.4722 12.1188C24.0814 12.4765 24.3965 12.9814 24.3965 13.7389C24.3545 15.4431 24.3965 17.1473 24.3755 18.8515C24.3755 20.2822 23.5982 21.0606 22.1698 21.0606C20.8253 21.0606 19.5019 21.0606 18.1574 21.0606C16.4769 21.0606 15.4686 22.0705 15.4476 23.7537C15.4476 24.2376 15.4266 24.7215 15.4476 25.1844C15.4686 25.479 15.3635 25.5421 15.0904 25.5421C14.2502 25.521 13.4099 25.521 12.5696 25.5421C11.8764 25.5631 11.3932 25.2475 11.0571 24.7005C10.2379 23.396 10.1118 21.9443 10.2379 20.4505C10.3219 19.5458 10.532 18.6832 11.0361 17.9257C11.4142 17.3577 11.8764 17.0421 12.5906 17.0631C13.746 17.1262 14.9014 17.1052 16.0778 17.1052ZM17.2962 14.1597C17.3172 14.5594 17.5272 14.7698 17.8844 14.7698C18.2415 14.7698 18.4936 14.5384 18.4936 14.1807C18.4936 13.823 18.2625 13.5916 17.8844 13.5916C17.5272 13.5705 17.2962 13.802 17.2962 14.1597Z" fill="#014A94"/>
<path d="M15.3845 37.8923C16.0568 37.8713 16.834 37.9134 17.5903 38.0396C19.0397 38.3131 19.6069 39.3441 19.5859 40.5854C19.5439 42.0582 18.6196 43.0681 17.2752 43.2364C17.0651 43.2574 16.855 43.2995 16.645 43.3205C15.9517 43.4047 15.9517 43.3837 15.9517 44.12C15.9517 44.625 15.9307 45.1089 15.9517 45.6139C15.9517 45.9084 15.8677 46.0347 15.5526 46.0347C15.0904 46.0136 14.6283 46.0136 14.1661 46.0347C13.872 46.0347 13.746 45.9715 13.746 45.6559C13.746 43.2153 13.746 40.7537 13.746 38.3131C13.746 38.0186 13.851 37.8923 14.1451 37.9134C14.5233 37.9134 14.9014 37.8923 15.3845 37.8923ZM15.9307 40.6696C16.0358 40.922 15.6996 41.3639 16.1408 41.5322C16.4769 41.6795 17.1071 41.3218 17.2542 40.9851C17.3382 40.7748 17.3382 40.5644 17.3172 40.354C17.2752 39.8911 16.9391 39.6807 16.3088 39.6597C15.7417 39.6386 15.9727 40.0594 15.9307 40.3119C15.9097 40.4171 15.9307 40.5223 15.9307 40.6696Z" fill="#A4A9AD"/>
<path d="M23.7663 40.8168C24.1654 39.9542 24.5856 39.1337 24.9637 38.2921C25.0897 37.9975 25.2788 37.8713 25.6149 37.8923C26.077 37.9134 26.5392 37.9134 27.0013 37.8923C27.4215 37.8713 27.5055 37.9765 27.2954 38.3552C26.5392 39.7228 25.804 41.1324 25.0477 42.5C24.9217 42.7104 24.8796 42.9208 24.8796 43.1522C24.8796 43.9728 24.8796 44.7723 24.8796 45.5928C24.8796 45.9084 24.7746 46.0346 24.4385 46.0346C23.9974 46.0136 23.5352 46.0136 23.0941 46.0346C22.7369 46.0557 22.5899 45.9295 22.5899 45.5507C22.6109 45.0879 22.5479 44.625 22.6109 44.1621C22.7369 43.1733 22.3798 42.3317 21.8967 41.4901C21.2665 40.4171 20.7203 39.302 20.1321 38.2079C20.0061 37.9765 20.0691 37.8923 20.3212 37.8923C20.9094 37.8923 21.4765 37.9134 22.0647 37.8923C22.3168 37.8923 22.4218 38.0186 22.5059 38.2079C22.8 38.8601 23.0941 39.4913 23.3882 40.1436C23.4932 40.375 23.5562 40.6064 23.7663 40.8168Z" fill="#A5AAAE"/>
<path d="M22.4639 29.0767C22.1067 29.0346 21.8757 28.8453 21.8757 28.4666C21.8757 28.0879 22.1067 27.8775 22.4639 27.8775C22.821 27.8775 23.0521 28.1089 23.0521 28.4666C23.0731 28.8453 22.821 29.0346 22.4639 29.0767Z" fill="#FEFAF4"/>
<path d="M17.2962 14.1597C17.3172 13.802 17.5272 13.5916 17.8844 13.5916C18.2415 13.5916 18.4936 13.823 18.4936 14.1807C18.4936 14.5384 18.2625 14.7698 17.8844 14.7698C17.5272 14.7698 17.2962 14.5594 17.2962 14.1597Z" fill="#F3F6F9"/>
<path d="M15.9307 40.6696C15.9307 40.5223 15.9097 40.4171 15.9307 40.3329C15.9727 40.0594 15.7417 39.6597 16.3088 39.6807C16.939 39.7017 17.2962 39.8911 17.3172 40.375C17.3382 40.5854 17.3382 40.7958 17.2542 41.0062C17.0861 41.3428 16.4769 41.7005 16.1408 41.5532C15.6996 41.3428 16.0358 40.922 15.9307 40.6696Z" fill="#E5E6E6"/>
</g>
<defs>
<clipPath id="clip0_253_35946">
<rect width="39.913" height="51" fill="white" transform="translate(0.343628)"/>
</clipPath>
</defs>
</svg>
