<svg width="58" height="60" viewBox="0 0 58 60" fill="none" xmlns="http://www.w3.org/2000/svg">
<g clip-path="url(#clip0_253_38798)">
<path d="M57.3334 15.8803C47.9948 15.8803 38.6712 15.8803 29.3327 15.8803C29.1082 15.8803 28.8837 15.896 28.6592 15.896L28.6742 15.8646C28.6742 10.5816 28.6742 5.29856 28.6742 0.0155402C28.8239 0.0155402 28.9735 -0.000183105 29.1232 -0.000183105C36.8454 -0.000183105 44.5677 -0.000183105 52.3049 -0.000183105C54.6246 -0.000183105 56.6001 1.60359 57.1987 3.94636C57.2286 4.08787 57.1388 4.27655 57.3334 4.35516C57.3334 8.19164 57.3334 12.0438 57.3334 15.8803ZM43.8194 7.05957C42.1582 7.05957 40.4971 7.05957 38.8359 7.05957C37.8332 7.05957 37.055 7.84573 37.055 8.8363C37.055 9.82686 37.8332 10.5816 38.8508 10.5973C42.1283 10.5973 45.4058 10.5973 48.6982 10.5973C49.7308 10.5973 50.4941 9.85831 50.4941 8.85202C50.5091 7.83001 49.7458 7.07529 48.6683 7.07529C47.067 7.05957 45.4507 7.05957 43.8194 7.05957Z" fill="#1F377E"/>
<path d="M29.3327 15.8805C29.1082 15.8805 28.8837 15.8962 28.6592 15.8962C28.6592 21.1006 28.6592 26.305 28.6592 31.5094C28.6592 31.8082 28.6742 32.0912 28.6742 32.3899C28.6592 32.4843 28.6592 32.5943 28.6443 32.6887C28.6443 35.3302 28.6443 37.9717 28.6592 40.6132C28.6592 40.8333 28.5844 41.0849 28.764 41.2893C28.7041 41.4465 28.6443 41.6038 28.5844 41.761C28.7041 41.9969 28.6592 42.2641 28.6592 42.5157C28.6592 48.3491 28.6592 54.1667 28.6742 60C36.621 60 44.5677 60.0157 52.5294 60C54.5498 60 56.5851 58.3176 57.1239 56.2421C57.1837 56.0063 57.1837 55.739 57.3484 55.5346C57.3484 42.327 57.3484 29.1038 57.3484 15.8962C48.0098 15.8805 38.6712 15.8805 29.3327 15.8805Z" fill="#C2DEF3"/>
<path d="M28.6742 15.8647C27.9259 15.8647 27.1776 15.8805 26.4443 15.8805C17.854 15.8805 9.26377 15.8805 0.688465 15.8805C0.463981 15.8805 0.239496 15.8647 0.0150118 15.8647C0.0150118 12.327 -0.0149195 8.77355 0.0150118 5.23581C0.0299774 2.37418 2.19999 0.0314101 4.90877 0.0156868C12.7957 -0.0157597 20.6825 -3.64673e-05 28.5694 -3.64673e-05C28.5994 -3.64673e-05 28.6443 0.0156868 28.6742 0.0156868C28.6742 5.29871 28.6742 10.5817 28.6742 15.8647ZM8.50052 7.05971C7.58762 7.07544 6.83934 7.87732 6.83934 8.82072C6.83934 9.77984 7.60259 10.5817 8.51549 10.5817C9.44336 10.5817 10.2216 9.76412 10.2066 8.78927C10.1767 7.83015 9.41343 7.05971 8.50052 7.05971ZM16.9112 8.805C16.8962 7.84588 16.133 7.05971 15.2201 7.07544C14.3072 7.07544 13.5589 7.89305 13.5589 8.83644C13.5589 9.81129 14.3521 10.6289 15.28 10.5974C16.1779 10.566 16.9262 9.74839 16.9112 8.805ZM21.9397 10.5974C22.8376 10.5974 23.6158 9.81129 23.6308 8.85217C23.6457 7.90877 22.8975 7.09116 21.9846 7.05971C21.0567 7.02827 20.2635 7.8616 20.2635 8.82072C20.2785 9.77984 21.0417 10.5817 21.9397 10.5974Z" fill="#2F53BD"/>
<path d="M43.8194 7.05973C45.4357 7.05973 47.0669 7.05973 48.6832 7.05973C49.7458 7.05973 50.509 7.81445 50.509 8.83646C50.4941 9.84275 49.7458 10.5817 48.7131 10.5817C45.4357 10.5817 42.1582 10.5817 38.8658 10.5817C37.8481 10.5817 37.0699 9.8113 37.0699 8.82074C37.0699 7.83017 37.8481 7.04401 38.8508 7.04401C40.512 7.05973 42.1582 7.05973 43.8194 7.05973Z" fill="#2F53BD"/>
<path d="M28.5994 41.761C27.4919 44.4497 26.3845 47.1383 25.292 49.8427C26.3845 47.1541 27.4919 44.4497 28.5994 41.761C28.6592 41.6037 28.7191 41.4465 28.779 41.2893C28.6143 41.0849 28.6742 40.8333 28.6742 40.6132C28.6592 37.9717 28.6592 35.3302 28.6592 32.6886C28.6742 32.5943 28.6742 32.4842 28.6892 32.3899C28.6892 32.0912 28.6742 31.8081 28.6742 31.5094C28.6742 26.305 28.6742 21.1006 28.6742 15.8962L28.6892 15.8647C27.9409 15.8647 27.1926 15.8805 26.4593 15.8805C17.869 15.8805 9.27874 15.8805 0.703434 15.8805C0.478949 15.8805 0.254465 15.8647 0.0299803 15.8647C0.0299803 28.7107 0.0299803 41.5409 0.0150146 54.3868C0.0150146 54.8427 0.0449459 55.283 0.119774 55.7232C0.538812 58.0817 2.634 59.9843 4.89381 59.9843C12.8256 60 20.7574 59.9843 28.6892 59.9843C28.6892 54.1509 28.6892 48.3333 28.6742 42.5C28.6742 42.2641 28.7191 41.9968 28.5994 41.761Z" fill="#E4F3FE"/>
<path d="M8.50055 7.05974C9.41346 7.04402 10.1767 7.83018 10.1917 8.7893C10.2066 9.76414 9.42842 10.5975 8.50055 10.5818C7.58765 10.5818 6.83937 9.77987 6.8244 8.82075C6.83937 7.87735 7.58765 7.07546 8.50055 7.05974Z" fill="#7ED352"/>
<path d="M16.9112 8.80499C16.9262 9.76411 16.1779 10.5817 15.265 10.5974C14.3371 10.6289 13.5439 9.81128 13.5439 8.83643C13.5439 7.87731 14.3072 7.07543 15.2051 7.07543C16.133 7.0597 16.8962 7.84587 16.9112 8.80499Z" fill="#E8BB2D"/>
<path d="M21.9397 10.5975C21.0418 10.5975 20.2785 9.77987 20.2785 8.83647C20.2785 7.86163 21.0717 7.04402 21.9996 7.07546C22.8975 7.09119 23.6607 7.92452 23.6458 8.86792C23.6158 9.79559 22.8376 10.5975 21.9397 10.5975Z" fill="#CC3B10"/>
<path d="M27.2974 57.0755C26.7736 56.9025 26.2049 56.9183 25.6811 56.7768C25.6362 56.761 25.5913 56.7453 25.5464 56.7296C25.5763 56.5095 25.726 56.4151 25.8756 56.3051C27.5368 55.0629 29.183 53.8051 30.8592 52.5786C31.1884 52.3271 31.4728 51.9654 31.9217 51.9183C31.9068 52.0126 31.8918 52.0912 31.8918 52.1856C31.8918 53.129 32.5204 53.8837 33.4033 54.0252C34.1666 54.1353 34.9598 53.522 35.1693 52.673C35.3938 51.7453 34.9598 50.9749 33.9571 50.5189C33.9571 50.3145 34.0618 50.1887 34.2265 50.0629C34.9598 49.5283 35.6931 48.9623 36.4264 48.4277C36.5312 48.3491 36.606 48.2705 36.591 48.129C37.4441 48.0818 37.459 48.0818 37.4441 48.9466C37.4291 49.9686 37.489 51.0063 37.4141 52.0283C37.3094 53.3805 36.6509 54.3711 35.6183 55.1415C34.4659 55.9906 33.1489 56.3994 31.802 56.7296C31.1735 56.8868 30.5299 56.9969 29.8715 57.0441C29.7966 57.0441 29.7218 57.0283 29.6769 57.1227C28.8837 57.0755 28.0905 57.0755 27.2974 57.0755Z" fill="#F2D34D"/>
<path d="M23.5111 36.8554C22.8825 36.9969 22.254 37.1227 21.7002 37.4371C19.7547 38.5849 18.6622 40.2988 18.6024 42.673C18.5724 43.9623 18.5874 45.2359 18.6024 46.5252C18.6024 46.8396 18.5126 46.9183 18.2282 46.9025C17.1357 46.8711 16.0432 46.9654 14.9657 46.8396C14.1875 46.761 13.4841 46.478 12.9005 45.9277C13.0501 45.7705 13.1549 45.5661 13.2896 45.3931C13.7984 44.8113 14.2773 44.2139 14.7562 43.6164C15.5344 42.6573 16.3126 41.6824 17.0908 40.7233C17.7194 39.9529 18.3479 39.1981 18.9765 38.4277C19.8744 37.3271 20.7574 36.2107 21.6553 35.0944C22.4336 34.1352 23.2118 33.2076 23.99 32.2485C24.9478 31.0849 25.8906 29.9057 26.8335 28.7264C27.013 28.5063 27.2525 28.3019 27.2974 27.9717C27.6117 27.9088 27.9409 27.9246 28.2552 27.9403C28.5395 27.956 28.6144 27.8459 28.5844 27.5629C28.5695 27.3585 28.5844 27.1541 28.5844 26.9654C28.5844 26.8554 28.5844 26.761 28.4497 26.7453C28.4497 26.651 28.4497 26.5724 28.5246 26.4937C28.8089 26.1478 29.0783 25.8019 29.3626 25.456C29.9912 24.6856 30.6198 23.9308 31.2483 23.1604C32.0565 22.1698 32.8646 21.1793 33.6578 20.1887C33.987 19.7799 34.3761 19.4025 34.6305 18.9308C35.4387 19.3239 36.1271 19.8585 36.621 20.6447C36.3666 20.8019 36.172 21.0378 35.9924 21.2579C35.1094 22.3585 34.2265 23.4591 33.3435 24.5598C32.4306 25.6919 31.4878 26.8082 30.5599 27.9403C29.3776 29.3868 28.2253 30.8648 27.043 32.3113C25.9804 33.6321 24.8879 34.9214 23.8254 36.2422C23.6907 36.4466 23.4961 36.6038 23.5111 36.8554Z" fill="#5174A1"/>
<path d="M27.2824 28.0032C27.2375 28.3334 27.013 28.5378 26.8185 28.7579C25.8756 29.9371 24.9178 31.1007 23.975 32.2799C23.1968 33.2233 22.4186 34.1667 21.6404 35.1258C20.7424 36.2264 19.8595 37.3428 18.9615 38.4591C18.333 39.2296 17.7044 39.9843 17.0758 40.7547C16.2976 41.7139 15.5194 42.6887 14.7412 43.6478C14.2623 44.2453 13.7834 44.8428 13.2746 45.4246C13.1249 45.5975 13.0351 45.8019 12.8855 45.9591C12.0773 45.3617 11.6134 44.4969 11.2393 43.5692C11.1195 43.2547 10.9998 42.9403 10.9399 42.5944C11.0597 42.5944 11.1345 42.5 11.1944 42.4057C11.6882 41.7925 12.1821 41.1635 12.6909 40.5503C13.4691 39.6069 14.2473 38.6635 15.0256 37.7044C15.8187 36.7296 16.6119 35.739 17.4051 34.7642C18.1384 33.868 18.8717 32.956 19.605 32.0598C20.4132 31.0535 21.2363 30.0786 22.0295 29.0566C22.2689 28.7422 22.7029 28.522 22.7029 28.0189C24.2444 28.0032 25.7709 28.0032 27.2824 28.0032Z" fill="#5579A8"/>
<path d="M21.3111 54.8742C20.5927 54.3082 20.054 53.6164 19.8744 52.673C19.9043 52.5944 19.9791 52.5315 20.039 52.4843C20.7424 51.9654 21.4308 51.4466 22.1342 50.9277C24.5437 49.1195 26.9531 47.3113 29.3626 45.5032C30.8292 44.4025 32.3108 43.3176 33.7775 42.217C36.0672 40.5032 38.3569 38.7736 40.6467 37.0598C42.1881 35.8962 43.7296 34.7327 45.286 33.5849C45.6153 33.3491 45.8996 33.0189 46.3187 32.9088C46.4833 33.5849 46.6329 34.2767 46.7377 34.9686C46.4384 34.9214 46.2438 35.1572 46.0343 35.3145C43.1759 37.4528 40.3174 39.6069 37.459 41.7453C35.3489 43.3333 33.2237 44.9057 31.1136 46.4937C30.9939 46.5881 30.8442 46.6824 30.8592 46.8868C30.2156 46.9654 29.5871 46.9182 28.9436 46.9182C28.6742 46.9182 28.5844 46.9811 28.5844 47.2799C28.5844 48.0818 28.5844 48.0818 29.3327 48.0818C29.602 48.0818 29.8565 48.0975 30.1258 48.0975C30.1558 48.2547 30.0361 48.3176 29.9463 48.3962C29.6469 48.6164 29.3626 48.8365 29.0633 49.0566C26.4742 50.9906 23.8702 52.8774 21.3111 54.8742Z" fill="#F5DC62"/>
<path d="M37.4291 24.2767C37.4291 25.8176 37.459 27.3742 37.4441 28.9151C37.4441 30.1572 37.5189 31.3994 37.3992 32.6415C37.1897 34.9371 35.4087 36.7453 33.2088 36.8239C31.2184 36.8868 29.2279 36.8396 27.2226 36.8239C27.2076 36.6667 27.2674 36.5409 27.3722 36.4151C27.8511 35.8491 28.315 35.2673 28.7939 34.6855C29.6769 33.5849 30.5599 32.4843 31.4429 31.3837C32.2211 30.4245 32.9993 29.4969 33.7775 28.5377C34.8251 27.2327 35.8727 25.9277 36.9203 24.6384C37.055 24.4969 37.1597 24.2767 37.4291 24.2767Z" fill="#496A96"/>
<path d="M22.7179 28.0032C22.7179 28.5063 22.2839 28.7264 22.0444 29.0409C21.2662 30.0629 20.4431 31.0535 19.62 32.0441C18.8867 32.9403 18.1534 33.8522 17.4201 34.7485C16.6269 35.7233 15.8337 36.7139 15.0405 37.6887C14.2623 38.6321 13.4841 39.5755 12.7059 40.5346C12.212 41.1478 11.7181 41.761 11.2093 42.39C11.1345 42.4843 11.0746 42.5629 10.9549 42.5786C10.6107 41.4308 10.4311 40.2516 10.2964 39.0566C10.2216 38.4277 10.1917 37.7988 10.2365 37.1698C10.491 37.1069 10.6257 36.8711 10.7753 36.6824C11.5535 35.7233 12.3317 34.7642 13.1099 33.8051C13.7385 33.0346 14.3671 32.2799 14.9956 31.5095C15.7888 30.5346 16.567 29.5598 17.3452 28.6007C17.4799 28.4277 17.6445 28.2705 17.6445 28.0189C19.3357 28.0032 21.0268 28.0032 22.7179 28.0032Z" fill="#5C82B2"/>
<path d="M46.3187 32.8931C45.8996 33.0032 45.6153 33.3333 45.286 33.5692C43.7296 34.717 42.1881 35.8805 40.6467 37.044C38.3569 38.7579 36.0672 40.4874 33.7775 42.2013C32.3108 43.3019 30.8292 44.3868 29.3626 45.4874C26.9531 47.2956 24.5437 49.1038 22.1342 50.912C21.4458 51.4308 20.7424 51.9497 20.039 52.4686C19.9642 52.5157 19.9043 52.5629 19.8744 52.6573C19.6499 52.1384 19.7547 51.5881 19.7247 51.0535C19.7098 50.8648 19.7247 50.6761 19.7247 50.4874C20.0689 50.4246 20.2934 50.1573 20.5478 49.9529C22.9124 48.2076 25.247 46.4308 27.6116 44.6698C29.4674 43.2862 31.3231 41.9025 33.1788 40.5189C35.4835 38.7893 37.8032 37.044 40.1079 35.3145C41.6494 34.1667 43.1759 32.9874 44.7323 31.8554C45.0765 31.6038 45.3758 31.2107 45.8398 31.1793C46.0642 31.7453 46.2438 32.2956 46.3187 32.8931Z" fill="#F6DF68"/>
<path d="M37.4291 24.2768C37.1747 24.2768 37.055 24.4969 36.9203 24.6698C35.8577 25.9592 34.8251 27.2799 33.7775 28.5692C32.9993 29.5283 32.2211 30.456 31.4429 31.4151C30.5599 32.5158 29.6769 33.6164 28.7939 34.717C28.33 35.2988 27.8511 35.8648 27.3722 36.4466C27.2674 36.5724 27.2076 36.6981 27.2225 36.8554C25.9804 36.8711 24.7532 36.8711 23.5111 36.8868C23.4811 36.6195 23.6907 36.478 23.8104 36.3051C24.8729 34.9843 25.9654 33.6793 27.028 32.3742C28.2103 30.9277 29.3626 29.4654 30.5449 28.0032C31.4578 26.8711 32.4007 25.7548 33.3285 24.6227C34.2115 23.522 35.0945 22.4214 35.9774 21.3208C36.157 21.0849 36.3516 20.8491 36.606 20.7076C37.1448 21.4309 37.3842 22.2642 37.4291 23.1761C37.459 23.522 37.4291 23.8994 37.4291 24.2768Z" fill="#4F719F"/>
<path d="M45.8248 31.2107C45.3609 31.2579 45.0615 31.6353 44.7173 31.8868C43.1609 33.0189 41.6344 34.1824 40.093 35.346C37.7883 37.0755 35.4686 38.8208 33.1639 40.5504C31.3081 41.934 29.4524 43.3177 27.5967 44.7013C25.2471 46.4623 22.8975 48.239 20.5329 49.9843C20.2785 50.173 20.054 50.456 19.7098 50.5189C19.7098 49.9372 19.7098 49.3554 19.7098 48.7579C19.8744 48.7422 19.9941 48.6164 20.1138 48.5221C21.775 47.2957 23.4362 46.0535 25.0824 44.8114C27.8361 42.7516 30.6048 40.6762 33.3584 38.6007C33.6128 38.3963 33.987 38.3177 34.0917 37.9246C35.0046 37.6416 35.8278 37.217 36.5611 36.5567C37.0699 36.1007 37.459 35.5346 37.8182 34.9529C37.9678 34.9686 38.0876 34.9057 38.2073 34.8114C39.8236 33.585 41.4548 32.39 43.0711 31.1636C43.7296 30.6762 44.4031 30.2202 45.0167 29.6699C45.4058 30.1101 45.6302 30.6447 45.8248 31.2107Z" fill="#F6E26E"/>
<path d="M19.7397 46.2422C19.7397 44.9686 19.7248 43.695 19.7397 42.4371C19.7846 40.3617 21.5356 38.3491 23.4961 38.0818C24.1097 37.9874 24.7233 38.0189 25.3369 38.0189C27.1028 38.0189 28.8688 38.0346 30.6347 38.0346C30.6048 38.2076 30.4701 38.3176 30.3504 38.412C29.8715 38.7736 29.3926 39.1352 28.9137 39.4969C27.6266 40.456 26.3546 41.4151 25.0675 42.3742C23.4063 43.6164 21.7302 44.8742 20.069 46.1164C19.9642 46.195 19.8744 46.2579 19.7397 46.2422Z" fill="#F8E67A"/>
<path d="M34.6305 18.9623C34.3761 19.434 33.987 19.8114 33.6578 20.2202C32.8646 21.2265 32.0564 22.2013 31.2483 23.1919C30.6197 23.9623 29.9912 24.717 29.3626 25.4875C29.0783 25.8334 28.8089 26.1793 28.5246 26.5252C28.4647 26.6038 28.4497 26.6824 28.4497 26.7768C26.9532 26.7768 25.4416 26.7768 23.9451 26.7768C24.1546 26.3208 24.5287 25.9749 24.828 25.5975C25.5913 24.6384 26.3845 23.695 27.1627 22.7516C28.1055 21.6038 29.0483 20.4403 29.9613 19.2768C30.2456 18.9151 30.6347 18.6164 30.7694 18.129C31.8769 18.2233 32.9993 18.3019 34.0618 18.695C34.2564 18.7736 34.436 18.868 34.6305 18.9623Z" fill="#5579A8"/>
<path d="M30.7843 18.1289C30.6497 18.6164 30.2605 18.9151 29.9762 19.2767C29.0633 20.4403 28.1205 21.6038 27.1776 22.7516C26.3994 23.7107 25.6062 24.6384 24.843 25.5975C24.5437 25.9748 24.1695 26.3208 23.96 26.7767C22.6281 26.7767 21.2961 26.7767 19.9492 26.7925C19.7846 26.7925 19.7098 26.7296 19.7098 26.5566C19.7247 26.2107 19.7247 25.8491 19.7247 25.5031C19.8594 25.5031 19.9492 25.4088 20.0241 25.3145C20.4132 24.8428 20.7873 24.3553 21.2063 23.8994C21.4458 23.6478 21.5206 23.1918 21.9846 23.2233C22.1043 23.6478 22.3587 23.9465 22.7029 24.1667C23.2866 24.5597 24.0199 24.5283 24.5736 24.0881C25.1273 23.6478 25.3818 22.8774 25.1872 22.1541C25.0076 21.4623 24.424 20.9748 23.7505 20.912C23.96 20.3459 24.4389 19.9843 24.7682 19.5126C25.0974 19.0566 25.5164 18.695 25.7858 18.1918C27.432 17.9717 29.1082 17.9717 30.7843 18.1289Z" fill="#5C82B2"/>
<path d="M35.9325 46.8711C34.8251 46.934 33.7027 46.934 32.5952 46.8711C32.5802 46.7296 32.67 46.6353 32.7748 46.5566C33.4183 46.0849 34.0469 45.5975 34.6904 45.1258C36.3665 43.868 38.0427 42.6258 39.7188 41.368C41.9338 39.717 44.1487 38.0503 46.3486 36.3837C46.5132 36.2579 46.6629 36.1007 46.8874 36.0692C46.9921 36.7139 46.9772 37.3742 46.9772 38.0346C46.9772 38.2233 46.9622 38.412 46.8874 38.5849C46.6928 38.5692 46.5731 38.7107 46.4384 38.8051C44.9418 39.9214 43.4603 41.0378 41.9787 42.1541C40.108 43.5535 38.2372 44.9371 36.3815 46.3365C36.2019 46.4937 35.9325 46.5724 35.9325 46.8711Z" fill="#F4D857"/>
<path d="M19.7397 46.2422C19.8744 46.2579 19.9642 46.195 20.069 46.1164C21.7302 44.8742 23.3914 43.6164 25.0675 42.3742C26.3546 41.4151 27.6266 40.456 28.9137 39.4969C29.3926 39.1353 29.8715 38.7893 30.3504 38.412C30.4701 38.3176 30.6048 38.2233 30.6347 38.0346C31.3082 38.0346 31.9816 38.0189 32.6551 38.0189C33.149 38.0189 33.6428 38.0032 34.1217 37.9246C34.017 38.3176 33.6428 38.412 33.3884 38.6007C30.6347 40.6761 27.8811 42.7516 25.1124 44.8114C23.4512 46.0535 21.805 47.2799 20.1438 48.522C20.0241 48.6164 19.9044 48.7422 19.7397 48.7579C19.7397 47.9246 19.7397 47.0755 19.7397 46.2422Z" fill="#F7E474"/>
<path d="M31.9068 51.9025C31.4578 51.9497 31.1734 52.3271 30.8442 52.5629C29.1681 53.7893 27.5218 55.0472 25.8606 56.2893C25.711 56.3994 25.5613 56.4937 25.5314 56.7139C24.7532 56.5724 24.0049 56.3522 23.2866 56.0378C23.2866 55.8805 23.3464 55.7705 23.4811 55.6604C23.975 55.3145 24.4389 54.9371 24.9178 54.5755C27.6715 52.5158 30.4252 50.456 33.1788 48.412C33.2986 48.3176 33.3884 48.2547 33.3734 48.0818C34.436 48.0818 35.4985 48.0818 36.5611 48.0818C36.576 48.2233 36.5012 48.3019 36.3964 48.3805C35.6631 48.9151 34.9298 49.4812 34.1965 50.0158C34.0319 50.1415 33.9271 50.2673 33.9271 50.4717C32.9244 50.3145 32.221 50.8019 31.9068 51.9025Z" fill="#F3D551"/>
<path d="M17.6295 28.0032C17.6445 28.2547 17.4799 28.412 17.3302 28.5849C16.552 29.5598 15.7588 30.5346 14.9806 31.4937C14.3521 32.2642 13.7235 33.0189 13.095 33.7893C12.3167 34.7485 11.5535 35.7233 10.7603 36.6667C10.6107 36.8554 10.476 37.0755 10.2216 37.1541C10.2665 35.1415 10.5059 33.1447 11.314 31.3051C12.2419 29.1981 13.8881 28.1132 16.103 28.0032C16.6119 27.9717 17.1207 28.0032 17.6295 28.0032Z" fill="#6289BA"/>
<path d="M33.3884 48.0818C33.4033 48.2547 33.2986 48.3176 33.1938 48.412C30.4401 50.4717 27.6865 52.5158 24.9178 54.5755C24.4389 54.9371 23.975 55.3145 23.4811 55.6604C23.3464 55.7547 23.2866 55.8648 23.2866 56.0378C22.5682 55.7705 21.8798 55.4246 21.3111 54.8742C23.8553 52.8931 26.4742 50.9906 29.0633 49.0566C29.3626 48.8365 29.647 48.6164 29.9463 48.3963C30.0361 48.3176 30.1558 48.2547 30.1259 48.0975C31.2183 48.0818 32.2959 48.0818 33.3884 48.0818Z" fill="#F4D857"/>
<path d="M35.9326 46.8711C35.9326 46.5566 36.2019 46.4938 36.3815 46.368C38.2373 44.9686 40.108 43.5849 41.9787 42.1856C43.4752 41.0692 44.9568 39.9529 46.4384 38.8365C46.5731 38.7422 46.6928 38.5849 46.8874 38.6164C46.9622 39.434 46.8126 40.2044 46.603 40.9749C46.4085 40.9434 46.2888 41.0849 46.1541 41.195C43.9092 42.8617 41.6494 44.5283 39.4195 46.2265C39.1801 46.3994 38.8509 46.5252 38.7611 46.8711C37.8182 46.934 36.8754 46.934 35.9326 46.8711Z" fill="#F3D551"/>
<path d="M46.8874 36.1007C46.6779 36.1321 46.5133 36.2894 46.3486 36.4152C44.1337 38.0661 41.9188 39.7328 39.7189 41.3994C38.0427 42.6573 36.3666 43.8994 34.6904 45.1573C34.0469 45.629 33.4183 46.1164 32.7748 46.5881C32.67 46.6667 32.5803 46.7453 32.5952 46.9026C32.0116 46.9655 31.4279 46.9655 30.8442 46.9026C30.8442 46.7139 30.9789 46.6038 31.0987 46.5095C33.2088 44.9214 35.3339 43.3491 37.4441 41.7611C40.3025 39.6227 43.1609 37.4686 46.0194 35.3302C46.2289 35.173 46.4085 34.9372 46.7228 34.9843C46.7826 35.3302 46.8275 35.7233 46.8874 36.1007Z" fill="#F4DA5D"/>
<path d="M38.761 46.8711C38.8508 46.5095 39.1801 46.3994 39.4195 46.2265C41.6494 44.5441 43.9092 42.8617 46.1541 41.195C46.2888 41.1007 46.4085 40.9592 46.603 40.9749C46.3337 42.1856 45.9595 43.3648 45.4208 44.4655C44.897 45.5189 44.2085 46.3837 43.0562 46.7296C42.7269 46.824 42.3977 46.8711 42.0535 46.8711C40.961 46.9183 39.8685 46.934 38.761 46.8711Z" fill="#F2D34D"/>
<path d="M25.7709 18.1761C25.5015 18.6793 25.0825 19.0409 24.7532 19.4969C24.424 19.9686 23.9451 20.3302 23.7356 20.8963C22.5832 20.739 21.6703 21.9497 21.9846 23.1918C21.5206 23.1604 21.4458 23.6164 21.2064 23.8679C20.7873 24.3082 20.4282 24.8113 20.0241 25.283C19.9493 25.3774 19.8595 25.4717 19.7248 25.4717C19.6649 24.1195 19.62 22.7516 19.8744 21.4151C20.0839 20.3774 20.6826 19.6541 21.5805 19.1824C22.673 18.6007 23.8702 18.3963 25.0675 18.2233C25.307 18.2233 25.5314 18.1447 25.7709 18.1761Z" fill="#6289BA"/>
<path d="M38.5515 32.5943C38.5515 31.1793 38.5515 29.7799 38.5515 28.3648C38.5515 28.0975 38.6114 27.9874 38.8957 27.9874C40.0481 28.0032 41.1855 27.9874 42.3378 28.0032C42.9514 28.0189 43.5201 28.2076 44.014 28.6006C42.6521 29.6069 41.2902 30.6289 39.9283 31.6195C39.4644 31.9654 39.0603 32.3742 38.5515 32.5943Z" fill="#F8E67A"/>
<path d="M38.5515 32.5944C39.0753 32.3743 39.4794 31.9655 39.9284 31.651C41.2902 30.6604 42.6521 29.6384 44.014 28.6321C44.3732 28.9466 44.8072 29.1982 45.0466 29.6699C44.448 30.2359 43.7596 30.6762 43.1011 31.1636C41.4848 32.39 39.8535 33.6007 38.2373 34.8114C38.1175 34.9057 37.9978 34.9843 37.8481 34.9529C38.2073 34.2139 38.4318 33.412 38.5515 32.5944Z" fill="#F7E474"/>
<path d="M31.9068 51.9026C32.221 50.8177 32.9244 50.3145 33.9571 50.4875C34.9598 50.9435 35.3938 51.7139 35.1693 52.6416C34.9598 53.5064 34.1666 54.1038 33.4033 53.9938C32.5054 53.868 31.8768 53.0975 31.8918 52.1542C31.8918 52.0755 31.9068 51.9812 31.9068 51.9026Z" fill="#FEFEFE"/>
<path d="M21.9846 23.2076C21.6703 21.9497 22.5832 20.739 23.7355 20.912C24.424 20.9749 24.9926 21.4623 25.1722 22.1541C25.3668 22.8774 25.1273 23.6479 24.5586 24.0881C24.0049 24.5126 23.2716 24.5441 22.6879 24.1667C22.3587 23.9309 22.1043 23.6321 21.9846 23.2076Z" fill="#FEFEFE"/>
</g>
<defs>
<clipPath id="clip0_253_38798">
<rect width="57.3333" height="60" fill="white"/>
</clipPath>
</defs>
</svg>
