<svg width="58" height="60" viewBox="0 0 58 60" fill="none" xmlns="http://www.w3.org/2000/svg">
<g clip-path="url(#clip0_253_39117)">
<path d="M57.3333 15.8803C47.9948 15.8803 38.6712 15.8803 29.3326 15.8803C29.1081 15.8803 28.8837 15.896 28.6592 15.896L28.6741 15.8646C28.6741 10.5816 28.6741 5.29853 28.6741 0.0155097C28.8238 0.0155097 28.9735 -0.000213623 29.1231 -0.000213623C36.8454 -0.000213623 44.5676 -0.000213623 52.3049 -0.000213623C54.6245 -0.000213623 56.6 1.60356 57.1986 3.94633C57.2286 4.08784 57.1388 4.27652 57.3333 4.35513C57.3333 8.19161 57.3333 12.0438 57.3333 15.8803ZM43.8194 7.05954C42.1582 7.05954 40.497 7.05954 38.8358 7.05954C37.8331 7.05954 37.0549 7.8457 37.0549 8.83627C37.0549 9.82683 37.8331 10.5816 38.8508 10.5973C42.1282 10.5973 45.4057 10.5973 48.6982 10.5973C49.7308 10.5973 50.494 9.85828 50.494 8.85199C50.509 7.82998 49.7458 7.07526 48.6682 7.07526C47.0669 7.05954 45.4506 7.05954 43.8194 7.05954Z" fill="#1F377E"/>
<path d="M29.3326 15.8805C29.1081 15.8805 28.8837 15.8962 28.6592 15.8962C28.6592 21.1006 28.6592 26.305 28.6592 31.5094C28.6592 31.8082 28.6741 32.0912 28.6741 32.3899C28.6592 32.4843 28.6592 32.5943 28.6442 32.6887C28.6442 35.3302 28.6442 37.9717 28.6592 40.6132C28.6592 40.8333 28.5844 41.0849 28.7639 41.2893C28.7041 41.4465 28.6442 41.6038 28.5844 41.761C28.7041 41.9969 28.6592 42.2641 28.6592 42.5157C28.6592 48.3491 28.6592 54.1667 28.6741 60C36.6209 60 44.5676 60.0157 52.5294 60C54.5497 60 56.585 58.3176 57.1238 56.2421C57.1837 56.0063 57.1837 55.739 57.3483 55.5346C57.3483 42.327 57.3483 29.1038 57.3483 15.8962C48.0097 15.8805 38.6712 15.8805 29.3326 15.8805Z" fill="#C2DEF3"/>
<path d="M28.6742 15.8647C27.9259 15.8647 27.1776 15.8805 26.4443 15.8805C17.854 15.8805 9.26377 15.8805 0.688465 15.8805C0.463981 15.8805 0.239496 15.8647 0.0150118 15.8647C0.0150118 12.327 -0.0149195 8.77355 0.0150118 5.23581C0.0299774 2.37418 2.19999 0.0314101 4.90877 0.0156868C12.7957 -0.0157597 20.6826 -3.64673e-05 28.5694 -3.64673e-05C28.5994 -3.64673e-05 28.6443 0.0156868 28.6742 0.0156868C28.6742 5.29871 28.6742 10.5817 28.6742 15.8647ZM8.50053 7.05971C7.58762 7.07544 6.83934 7.87732 6.83934 8.82072C6.83934 9.77984 7.60259 10.5817 8.51549 10.5817C9.44336 10.5817 10.2216 9.76412 10.2066 8.78927C10.1767 7.83015 9.41343 7.05971 8.50053 7.05971ZM16.9112 8.805C16.8962 7.84588 16.133 7.05971 15.2201 7.07544C14.3072 7.07544 13.5589 7.89305 13.5589 8.83644C13.5589 9.81129 14.3521 10.6289 15.28 10.5974C16.1779 10.566 16.9262 9.74839 16.9112 8.805ZM21.9397 10.5974C22.8376 10.5974 23.6158 9.81129 23.6308 8.85217C23.6457 7.90877 22.8975 7.09116 21.9846 7.05971C21.0567 7.02827 20.2635 7.8616 20.2635 8.82072C20.2785 9.77984 21.0417 10.5817 21.9397 10.5974Z" fill="#2F53BD"/>
<path d="M43.8194 7.05973C45.4357 7.05973 47.0669 7.05973 48.6832 7.05973C49.7458 7.05973 50.509 7.81445 50.509 8.83646C50.4941 9.84275 49.7458 10.5817 48.7131 10.5817C45.4357 10.5817 42.1582 10.5817 38.8658 10.5817C37.8481 10.5817 37.0699 9.8113 37.0699 8.82074C37.0699 7.83017 37.8481 7.04401 38.8508 7.04401C40.512 7.05973 42.1582 7.05973 43.8194 7.05973Z" fill="#2F53BD"/>
<path d="M28.5993 41.761C27.4918 44.4497 26.3844 47.1384 25.2919 49.8428C26.3844 47.1541 27.4918 44.4497 28.5993 41.761C28.6592 41.6038 28.719 41.4465 28.7789 41.2893C28.6143 41.0849 28.6741 40.8333 28.6741 40.6132C28.6592 37.9717 28.6592 35.3302 28.6592 32.6887C28.6741 32.5943 28.6741 32.4843 28.6891 32.3899C28.6891 32.0912 28.6741 31.8082 28.6741 31.5094C28.6741 26.305 28.6741 21.1006 28.6741 15.8962L28.6891 15.8648C27.9408 15.8648 27.1925 15.8805 26.4592 15.8805C17.8689 15.8805 9.27868 15.8805 0.703373 15.8805C0.478888 15.8805 0.254404 15.8648 0.0299192 15.8648C0.0299192 28.7107 0.0299192 41.5409 0.0149536 54.3868C0.0149536 54.8428 0.0448849 55.283 0.119713 55.7233C0.538751 58.0818 2.63394 59.9843 4.89375 59.9843C12.8255 60 20.7573 59.9843 28.6891 59.9843C28.6891 54.151 28.6891 48.3333 28.6741 42.5C28.6741 42.2642 28.719 41.9969 28.5993 41.761Z" fill="#E4F3FE"/>
<path d="M8.50049 7.05974C9.4134 7.04402 10.1766 7.83018 10.1916 8.7893C10.2066 9.76414 9.42836 10.5975 8.50049 10.5818C7.58759 10.5818 6.83931 9.77987 6.82434 8.82075C6.83931 7.87735 7.58759 7.07546 8.50049 7.05974Z" fill="#7ED352"/>
<path d="M16.9112 8.80502C16.9262 9.76414 16.1779 10.5817 15.265 10.5975C14.3371 10.6289 13.5439 9.81131 13.5439 8.83646C13.5439 7.87734 14.3072 7.07546 15.2051 7.07546C16.133 7.05973 16.8962 7.8459 16.9112 8.80502Z" fill="#E8BB2D"/>
<path d="M21.9396 10.5975C21.0417 10.5975 20.2784 9.77987 20.2784 8.83647C20.2784 7.86163 21.0716 7.04402 21.9995 7.07546C22.8974 7.09119 23.6607 7.92452 23.6457 8.86792C23.6158 9.79559 22.8376 10.5975 21.9396 10.5975Z" fill="#CC3B10"/>
<path d="M13.7495 22.0157C15.3658 22.0157 16.997 22.0157 18.6133 22.0157C19.6759 22.0157 20.4391 22.7704 20.4391 23.7925C20.4242 24.7987 19.6759 25.5377 18.6433 25.5377C15.3658 25.5377 12.0883 25.5377 8.79588 25.5377C7.77822 25.5377 7 24.7673 7 23.7767C7 22.7862 7.77821 22 8.78091 22C10.4421 22.0157 12.0883 22.0157 13.7495 22.0157Z" fill="#2F53BD"/>
<path d="M42.7495 22.0157C44.3658 22.0157 45.997 22.0157 47.6133 22.0157C48.6759 22.0157 49.4391 22.7704 49.4391 23.7925C49.4242 24.7987 48.6759 25.5377 47.6433 25.5377C44.3658 25.5377 41.0883 25.5377 37.7959 25.5377C36.7782 25.5377 36 24.7673 36 23.7767C36 22.7862 36.7782 22 37.7809 22C39.4421 22.0157 41.0883 22.0157 42.7495 22.0157Z" fill="#2F53BD"/>
<path d="M13.7495 30.0157C15.3658 30.0157 16.997 30.0157 18.6133 30.0157C19.6759 30.0157 20.4391 30.7704 20.4391 31.7925C20.4242 32.7987 19.6759 33.5377 18.6433 33.5377C15.3658 33.5377 12.0883 33.5377 8.79588 33.5377C7.77822 33.5377 7 32.7673 7 31.7767C7 30.7862 7.77821 30 8.78091 30C10.4421 30.0157 12.0883 30.0157 13.7495 30.0157Z" fill="#2F53BD"/>
<path d="M42.7495 30.0157C44.3658 30.0157 45.997 30.0157 47.6133 30.0157C48.6759 30.0157 49.4391 30.7704 49.4391 31.7925C49.4242 32.7987 48.6759 33.5377 47.6433 33.5377C44.3658 33.5377 41.0883 33.5377 37.7959 33.5377C36.7782 33.5377 36 32.7673 36 31.7767C36 30.7862 36.7782 30 37.7809 30C39.4421 30.0157 41.0883 30.0157 42.7495 30.0157Z" fill="#2F53BD"/>
<path d="M13.7495 38.0157C15.3658 38.0157 16.997 38.0157 18.6133 38.0157C19.6759 38.0157 20.4391 38.7704 20.4391 39.7925C20.4242 40.7987 19.6759 41.5377 18.6433 41.5377C15.3658 41.5377 12.0883 41.5377 8.79588 41.5377C7.77822 41.5377 7 40.7673 7 39.7767C7 38.7862 7.77821 38 8.78091 38C10.4421 38.0157 12.0883 38.0157 13.7495 38.0157Z" fill="#2F53BD"/>
<path d="M42.7495 38.0157C44.3658 38.0157 45.997 38.0157 47.6133 38.0157C48.6759 38.0157 49.4391 38.7704 49.4391 39.7925C49.4242 40.7987 48.6759 41.5377 47.6433 41.5377C44.3658 41.5377 41.0883 41.5377 37.7959 41.5377C36.7782 41.5377 36 40.7673 36 39.7767C36 38.7862 36.7782 38 37.7809 38C39.4421 38.0157 41.0883 38.0157 42.7495 38.0157Z" fill="#2F53BD"/>
</g>
<defs>
<clipPath id="clip0_253_39117">
<rect width="57.3333" height="60" fill="white"/>
</clipPath>
</defs>
</svg>
