<svg width="49" height="60" viewBox="0 0 49 60" fill="none" xmlns="http://www.w3.org/2000/svg">
<g clip-path="url(#clip0_253_39432)">
<path d="M5.04627 60C5.01513 59.8904 4.90614 59.8904 4.81271 59.8591C3.42693 59.3112 2.74182 58.3094 2.74182 56.791C2.74182 55.3039 2.72625 53.8169 2.74182 52.3454C2.74182 52.001 2.67954 51.7975 2.33698 51.6254C1.30932 51.0775 0.76435 50.1696 0.748779 49.0112C0.748779 43.0003 0.748779 37.005 0.76435 31.0097C0.76435 29.8669 1.29375 28.959 2.2747 28.4112C2.66397 28.192 2.74182 27.9572 2.74182 27.5502C2.72625 19.4417 2.72625 11.3488 2.74182 3.24028C2.74182 1.56535 3.66049 0.360027 5.17084 0.0469566C5.41997 -3.96743e-06 5.6691 -0.0156575 5.91823 -0.0156575C16.5841 -0.0156575 27.2344 -0.0156575 37.9003 -0.031311C38.6321 -0.031311 39.2082 0.219145 39.722 0.735712C41.7151 2.75502 43.7237 4.77432 45.7323 6.77798C46.2773 7.32585 46.5108 7.95199 46.5108 8.71902C46.4953 15.0117 46.5108 21.2888 46.4953 27.5815C46.4953 27.9572 46.5731 28.1764 46.9468 28.3955C47.9433 28.9434 48.4416 29.8356 48.4727 30.9783C48.4883 31.5888 48.4883 32.1837 48.4727 32.7942C48.4572 33.5299 48.208 33.8273 47.4606 33.9838C46.6977 33.796 46.4953 33.5455 46.4953 32.7785C46.4953 32.3245 46.4953 31.8862 46.4953 31.4323C46.4953 30.2739 46.1994 29.9765 45.0472 29.9765C31.4229 29.9765 17.783 29.9765 4.15875 29.9765C3.02209 29.9765 2.72625 30.2739 2.72625 31.4479C2.72625 37.1302 2.72625 42.8124 2.72625 48.4946C2.72625 49.6843 3.03766 49.9974 4.20546 49.9974C17.8142 49.9974 31.4229 49.9974 45.0316 49.9974C46.1839 49.9974 46.4953 49.6843 46.4953 48.4946C46.4953 44.7535 46.4953 40.9966 46.4953 37.2554C46.4953 36.4258 46.651 36.2223 47.4606 35.9718C48.2703 36.2066 48.4727 36.4571 48.4727 37.3024C48.4727 41.1218 48.4727 44.957 48.4727 48.7764C48.4727 50.0757 47.9589 51.0775 46.7755 51.6723C46.5108 51.8132 46.4797 51.9697 46.4797 52.2202C46.4953 53.5664 46.4797 54.9126 46.4797 56.2588C46.4797 58.4346 46.0126 59.1704 44.0507 59.9843C31.0648 60 18.0633 60 5.04627 60ZM24.5718 28.0042C31.0336 28.0042 37.4954 28.0042 43.9573 28.0042C44.2998 28.0042 44.5178 28.0042 44.5178 27.5346C44.5022 21.5236 44.5022 15.5127 44.5178 9.50169C44.5178 9.12601 44.4244 9.00078 44.0351 9.00078C42.8829 9.03209 41.7462 9.01643 40.594 9.00078C38.819 8.96947 37.5577 7.70154 37.5422 5.91703C37.5266 4.82129 37.511 3.72554 37.5577 2.64544C37.5889 2.09757 37.402 1.98799 36.8882 1.98799C26.6427 2.00365 16.3817 2.00365 6.13621 2.00365C5.01513 2.00365 4.71929 2.30107 4.71929 3.42812C4.71929 11.4114 4.71929 19.3947 4.70372 27.378C4.70372 27.8946 4.84385 28.0198 5.34211 28.0198C11.7572 28.0042 18.1723 28.0042 24.5718 28.0042ZM24.6185 52.001C18.1879 52.001 11.7728 52.001 5.34211 51.9854C4.81271 51.9854 4.68815 52.1263 4.70372 52.6428C4.73486 53.9734 4.71929 55.3039 4.71929 56.6188C4.71929 57.6676 5.04627 57.9963 6.07393 57.9963C18.437 57.9963 30.8001 57.9963 43.1632 57.9963C44.1752 57.9963 44.5022 57.6676 44.5178 56.6188C44.5178 55.2883 44.4867 53.9577 44.5334 52.6428C44.5489 52.1263 44.4088 52.001 43.895 52.001C37.4643 52.0167 31.0492 52.001 24.6185 52.001ZM42.8206 7.01278C41.7151 5.91703 40.594 4.78998 39.5352 3.74119C39.5352 4.38299 39.5196 5.15001 39.5352 5.93269C39.5508 6.57448 39.8933 6.98147 40.5161 7.01278C41.3258 7.04409 42.1355 7.01278 42.8206 7.01278Z" fill="#383838"/>
<path d="M47.4762 35.9718C46.6665 36.2223 46.5108 36.4258 46.5108 37.2554C46.5108 40.9966 46.5108 44.7534 46.5108 48.4946C46.5108 49.6843 46.1994 49.9974 45.0472 49.9974C31.4385 49.9974 17.8298 49.9974 4.22103 49.9974C3.05323 49.9974 2.74182 49.6843 2.74182 48.4946C2.74182 42.8124 2.74182 37.1302 2.74182 31.4479C2.74182 30.2739 3.03766 29.9765 4.17432 29.9765C17.7986 29.9765 31.4385 29.9765 45.0628 29.9765C46.215 29.9765 46.5108 30.2739 46.5108 31.4323C46.5108 31.8862 46.5108 32.3245 46.5108 32.7785C46.5264 33.5612 46.7288 33.8116 47.4762 33.9838C47.4762 34.6569 47.4762 35.3144 47.4762 35.9718ZM15.6654 39.9635C15.6654 41.5758 15.6654 43.2037 15.6654 44.816C15.6654 45.5518 16.0547 45.9744 16.6931 45.9744C17.3004 45.9588 17.6429 45.5674 17.6585 44.8317C17.6585 43.7203 17.674 42.6089 17.6585 41.4975C17.6585 41.1218 17.7363 40.9809 18.1412 40.9966C18.8263 41.0279 19.4958 41.0122 20.1809 40.9966C21.9404 40.9653 23.4663 39.6034 23.6065 37.9441C23.7777 35.9718 22.6722 34.4065 20.7726 34.0777C19.5114 33.8586 18.219 34.0151 16.9422 33.9995C16.0391 33.9838 15.681 34.3595 15.681 35.283C15.6654 36.8327 15.6654 38.3981 15.6654 39.9635ZM29.5856 38.0381C28.8849 36.8797 28.2465 35.784 27.5925 34.7039C27.1877 34.0151 26.6583 33.8273 26.0978 34.156C25.5684 34.4691 25.4905 35.0639 25.8953 35.737C26.6894 37.0832 27.4835 38.4138 28.2932 39.7443C28.4956 40.073 28.6046 40.3861 28.5891 40.7774C28.5735 42.108 28.5735 43.4229 28.5891 44.7534C28.5891 45.5205 28.9939 45.9901 29.6167 45.9744C30.2084 45.9588 30.5665 45.5048 30.5665 44.7534C30.5665 43.4542 30.5821 42.1393 30.5665 40.8401C30.5665 40.4487 30.6599 40.1356 30.8624 39.8069C31.7187 38.3981 32.5751 36.9736 33.4004 35.5492C33.7274 34.9856 33.5717 34.4221 33.0734 34.1247C32.5751 33.8273 32.0457 33.9838 31.6876 34.5473C31.4229 34.97 31.1738 35.4083 30.9091 35.8466C30.4887 36.551 30.0527 37.271 29.5856 38.0381Z" fill="#DFC43A"/>
<path d="M24.5718 28.0042C18.1723 28.0042 11.7572 28.0042 5.35769 28.0198C4.84386 28.0198 4.7193 27.9103 4.7193 27.378C4.73487 19.3947 4.73487 11.4114 4.73487 3.42813C4.73487 2.30108 5.04628 2.00366 6.1518 2.00366C16.3973 2.00366 26.6583 2.00366 36.9038 1.98801C37.4176 1.98801 37.6045 2.09758 37.5733 2.64546C37.5266 3.7412 37.5577 4.83695 37.5577 5.91704C37.5733 7.68589 38.8345 8.96948 40.6096 9.00079C41.7618 9.01644 42.8985 9.01644 44.0507 9.00079C44.44 8.98514 44.5334 9.11037 44.5334 9.5017C44.5178 15.5127 44.5178 21.5236 44.5334 27.5346C44.5334 28.0042 44.3154 28.0042 43.9728 28.0042C37.4955 28.0042 31.0337 28.0042 24.5718 28.0042Z" fill="#D3E5E6"/>
<path d="M24.6185 52.001C31.0492 52.001 37.4643 52.001 43.895 51.9854C44.4088 51.9854 44.5489 52.1106 44.5334 52.6272C44.4866 53.9577 44.5178 55.2883 44.5178 56.6032C44.5178 57.652 44.1908 57.9807 43.1631 57.9807C30.8001 57.9807 18.437 57.9807 6.07392 57.9807C5.04626 57.9807 4.71928 57.652 4.71928 56.6032C4.71928 55.2726 4.75042 53.9421 4.70371 52.6272C4.68814 52.1263 4.8127 51.9697 5.3421 51.9697C11.7728 52.0167 18.2034 52.001 24.6185 52.001Z" fill="#D3E5E6"/>
<path d="M42.8206 7.01277C42.1355 7.01277 41.3258 7.04408 40.5161 6.99711C39.8933 6.96581 39.5508 6.55882 39.5352 5.91702C39.5196 5.13434 39.5352 4.36732 39.5352 3.72552C40.594 4.78997 41.7307 5.91702 42.8206 7.01277Z" fill="#A7C4C5"/>
<path d="M15.6654 39.9635C15.6654 38.3981 15.6654 36.8484 15.6654 35.2831C15.6654 34.3595 16.0236 33.9838 16.9266 33.9995C18.2034 34.0151 19.4958 33.8586 20.757 34.0777C22.6411 34.4065 23.7622 35.9718 23.5909 37.9442C23.4507 39.6034 21.9248 40.9653 20.1653 40.9966C19.4802 41.0123 18.8107 41.0279 18.1256 40.9966C17.7207 40.981 17.6429 41.1375 17.6429 41.4975C17.6585 42.6089 17.6585 43.7203 17.6429 44.8317C17.6429 45.5518 17.2848 45.9588 16.6775 45.9744C16.0547 45.9901 15.6654 45.5674 15.6499 44.8161C15.6654 43.2038 15.6654 41.5758 15.6654 39.9635ZM17.6429 37.4589C17.6429 37.8659 17.6429 38.2729 17.6429 38.6799C17.6429 38.8834 17.7052 39.0086 17.9387 39.0086C18.7328 38.993 19.5269 39.0399 20.321 38.9773C21.1619 38.899 21.6601 38.2259 21.6134 37.3963C21.5823 36.6293 20.9906 36.0501 20.1809 36.0031C19.8384 35.9875 19.4802 36.0031 19.1377 36.0031C17.6429 35.9875 17.6429 35.9875 17.6429 37.4589Z" fill="#393837"/>
<path d="M29.5856 38.0381C30.0527 37.2711 30.4731 36.551 30.9091 35.8466C31.1738 35.4083 31.4229 34.97 31.6876 34.5474C32.0457 33.9838 32.5751 33.8273 33.0734 34.1247C33.5717 34.4221 33.7274 34.9857 33.4004 35.5492C32.5751 36.9737 31.7188 38.3981 30.8624 39.8069C30.6599 40.1357 30.5665 40.4644 30.5665 40.8401C30.5821 42.1393 30.5821 43.4542 30.5665 44.7535C30.5665 45.5048 30.2084 45.9588 29.6167 45.9744C28.9939 45.9901 28.5891 45.5205 28.5891 44.7535C28.5891 43.4229 28.5735 42.108 28.5891 40.7775C28.5891 40.3861 28.4801 40.0574 28.2932 39.7443C27.4835 38.4138 26.6894 37.0676 25.8953 35.737C25.4905 35.0639 25.5839 34.4691 26.0978 34.156C26.6427 33.8273 27.1721 34.0151 27.5925 34.7039C28.2465 35.784 28.9005 36.8797 29.5856 38.0381Z" fill="#393937"/>
<path d="M17.6429 37.4589C17.6429 35.9875 17.6429 35.9875 19.1221 35.9875C19.4647 35.9875 19.8228 35.9718 20.1653 35.9875C20.975 36.0344 21.5667 36.6136 21.5978 37.3807C21.6446 38.2103 21.1307 38.8834 20.3055 38.9617C19.5114 39.0399 18.7173 38.993 17.9232 38.993C17.6896 38.993 17.6273 38.8677 17.6273 38.6642C17.6585 38.2729 17.6429 37.8659 17.6429 37.4589Z" fill="#DCC13A"/>
</g>
<defs>
<clipPath id="clip0_253_39432">
<rect width="47.7551" height="60" fill="white" transform="translate(0.748779)"/>
</clipPath>
</defs>
</svg>
