<svg width="61" height="60" viewBox="0 0 61 60" fill="none" xmlns="http://www.w3.org/2000/svg">
<g clip-path="url(#clip0_253_39448)">
<path d="M60.0924 15.8805C50.3195 15.8805 40.5623 15.8805 30.7894 15.8805C30.5545 15.8805 30.3195 15.8962 30.0846 15.8962L30.1003 15.8648C30.1003 10.5818 30.1003 5.29874 30.1003 0.0157233C30.2569 0.0157233 30.4135 0 30.5701 0C38.6516 0 46.733 0 54.8301 0C57.2577 0 59.325 1.60377 59.9515 3.94654C59.9828 4.08805 59.8888 4.27673 60.0924 4.35535C60.0924 8.19182 60.0924 12.044 60.0924 15.8805ZM45.9499 7.05975C44.2115 7.05975 42.473 7.05975 40.7346 7.05975C39.6852 7.05975 38.8708 7.84591 38.8708 8.83648C38.8708 9.82705 39.6852 10.5818 40.7502 10.5975C44.1801 10.5975 47.61 10.5975 51.0556 10.5975C52.1363 10.5975 52.935 9.85849 52.935 8.8522C52.9507 7.83019 52.1519 7.07547 51.0243 7.07547C49.3485 7.05975 47.657 7.05975 45.9499 7.05975Z" fill="#1F377E"/>
<path d="M30.7894 15.8805C30.5544 15.8805 30.3195 15.8962 30.0846 15.8962C30.0846 21.1006 30.0846 26.305 30.0846 31.5094C30.0846 31.8082 30.1003 32.0912 30.1003 32.3899C30.0846 32.4843 30.0846 32.5943 30.0689 32.6887C30.0689 35.3302 30.0689 37.9717 30.0846 40.6132C30.0846 40.8333 30.0063 41.0849 30.1942 41.2893C30.1316 41.4465 30.0689 41.6038 30.0063 41.761C30.1316 41.9969 30.0846 42.2641 30.0846 42.5157C30.0846 48.3491 30.0846 54.1667 30.1003 60C38.4166 60 46.733 60.0157 55.065 60C57.1793 60 59.3093 58.3176 59.8732 56.2421C59.9358 56.0063 59.9358 55.739 60.1081 55.5346C60.1081 42.327 60.1081 29.1038 60.1081 15.8962C50.3352 15.8805 40.5623 15.8805 30.7894 15.8805Z" fill="#C2DEF3"/>
<path d="M30.1003 15.8647C29.3172 15.8647 28.5341 15.8805 27.7667 15.8805C18.7768 15.8805 9.78703 15.8805 0.812875 15.8805C0.57795 15.8805 0.343024 15.8647 0.108099 15.8647C0.108099 12.327 0.0767754 8.77355 0.108099 5.23581C0.12376 2.37418 2.39471 0.0314101 5.22948 0.0156868C13.4832 -0.0157597 21.7369 -3.64673e-05 29.9906 -3.64673e-05C30.022 -3.64673e-05 30.0689 0.0156868 30.1003 0.0156868C30.1003 5.29871 30.1003 10.5817 30.1003 15.8647ZM8.98829 7.05971C8.03292 7.07544 7.24984 7.87732 7.24984 8.82072C7.24984 9.77984 8.04858 10.5817 9.00395 10.5817C9.97497 10.5817 10.7894 9.76412 10.7737 8.78927C10.7424 7.83015 9.94365 7.05971 8.98829 7.05971ZM17.7902 8.805C17.7745 7.84588 16.9758 7.05971 16.0204 7.07544C15.065 7.07544 14.2819 7.89305 14.2819 8.83644C14.2819 9.81129 15.112 10.6289 16.083 10.5974C17.0227 10.566 17.8058 9.74839 17.7902 8.805ZM23.0525 10.5974C23.9922 10.5974 24.8066 9.81129 24.8223 8.85217C24.8379 7.90877 24.0548 7.09116 23.0995 7.05971C22.1285 7.02827 21.2984 7.8616 21.2984 8.82072C21.314 9.77984 22.1128 10.5817 23.0525 10.5974Z" fill="#2F53BD"/>
<path d="M45.9499 7.05973C47.6414 7.05973 49.3485 7.05973 51.04 7.05973C52.1519 7.05973 52.9507 7.81445 52.9507 8.83646C52.935 9.84275 52.1519 10.5817 51.0713 10.5817C47.6414 10.5817 44.2115 10.5817 40.7659 10.5817C39.7009 10.5817 38.8865 9.8113 38.8865 8.82074C38.8865 7.83017 39.7009 7.04401 40.7502 7.04401C42.4887 7.05973 44.2115 7.05973 45.9499 7.05973Z" fill="#2F53BD"/>
<path d="M30.022 41.761C28.863 44.4497 27.704 47.1383 26.5607 49.8427C27.704 47.1541 28.863 44.4497 30.022 41.761C30.0846 41.6037 30.1472 41.4465 30.2099 41.2893C30.0376 41.0849 30.1003 40.8333 30.1003 40.6132C30.0846 37.9717 30.0846 35.3302 30.0846 32.6886C30.1003 32.5943 30.1003 32.4842 30.1159 32.3899C30.1159 32.0912 30.1003 31.8081 30.1003 31.5094C30.1003 26.305 30.1003 21.1006 30.1003 15.8962L30.1159 15.8647C29.3328 15.8647 28.5498 15.8805 27.7823 15.8805C18.7925 15.8805 9.80269 15.8805 0.828526 15.8805C0.593601 15.8805 0.358675 15.8647 0.123749 15.8647C0.123749 28.7107 0.123749 41.5409 0.108088 54.3868C0.108088 54.8427 0.139411 55.283 0.21772 55.7232C0.656247 58.0817 2.84889 59.9843 5.21381 59.9843C13.5145 60 21.8152 59.9843 30.1159 59.9843C30.1159 54.1509 30.1159 48.3333 30.1003 42.5C30.1003 42.2641 30.1472 41.9968 30.022 41.761Z" fill="#E4F3FE"/>
<path d="M8.98827 7.05974C9.94364 7.04402 10.7424 7.83018 10.758 8.7893C10.7737 9.76414 9.9593 10.5975 8.98827 10.5818C8.03291 10.5818 7.24982 9.77987 7.23416 8.82075C7.24982 7.87735 8.03291 7.07546 8.98827 7.05974Z" fill="#7ED352"/>
<path d="M17.7902 8.80499C17.8058 9.76411 17.0227 10.5817 16.0674 10.5974C15.0963 10.6289 14.2663 9.81128 14.2663 8.83643C14.2663 7.87731 15.065 7.07543 16.0047 7.07543C16.9757 7.0597 17.7745 7.84587 17.7902 8.80499Z" fill="#E8BB2D"/>
<path d="M23.0525 10.5975C22.1128 10.5975 21.314 9.77987 21.314 8.83647C21.314 7.86163 22.1441 7.04402 23.1151 7.07546C24.0548 7.09119 24.8536 7.92452 24.8379 8.86792C24.8066 9.79559 23.9922 10.5975 23.0525 10.5975Z" fill="#CC3B10"/>
<g clip-path="url(#clip1_253_39448)">
<path d="M53.3216 39.5591C53.695 42.0191 54.0916 44.4791 54.465 46.9391C54.885 49.7222 53.1816 52.7786 50.5916 53.9216C47.9316 55.0895 44.7582 54.1701 43.1015 51.7349C42.4948 50.8652 42.0982 49.8464 41.6315 48.9022C40.6748 46.9143 39.7415 44.9264 38.8315 42.9385C38.6215 42.4664 38.3881 42.3173 37.8981 42.3421C35.2848 42.367 32.6714 42.3421 30.058 42.3173C30.058 34.2912 30.058 26.2402 30.058 18.2141V18.1395C34.0947 18.1395 38.1315 18.1644 42.1915 18.1644C42.9148 18.1644 43.6382 18.2638 44.3382 18.4874C47.8616 19.5311 50.0316 22.0159 51.1283 25.6438C51.8516 30.2657 52.5983 34.9124 53.3216 39.5591ZM40.5348 30.7378C40.5348 29.2469 39.3448 27.9548 37.9448 27.9299C36.5448 27.9051 35.3314 29.1723 35.3081 30.6633C35.2848 32.179 36.4514 33.4712 37.8515 33.5209C39.2748 33.5457 40.5348 32.2784 40.5348 30.7378Z" fill="#E85D04"/>
<path d="M30.0582 18.2122C30.0582 26.2383 30.0582 34.2893 30.0582 42.3154C27.4915 42.3154 24.9482 42.3651 22.3815 42.3403C21.7748 42.3403 21.4481 42.5142 21.1915 43.1106C20.0248 45.6452 18.8348 48.1549 17.6448 50.6646C16.2214 53.6713 13.6314 54.9634 10.528 54.2677C7.82133 53.6464 5.74464 51.0373 5.67464 47.9064C5.62797 46.0924 6.16465 44.3033 6.39798 42.5142C6.53798 41.5451 6.67799 40.5512 6.81799 39.5821C7.35466 36.2772 7.868 32.9972 8.40467 29.7172C8.61467 28.3505 8.84801 26.9838 9.05801 25.6171C9.12801 25.3935 9.19801 25.145 9.29135 24.9214C10.528 21.1444 13.8414 18.3365 17.5281 18.2122C21.7048 18.088 25.8815 18.1874 30.0582 18.2122ZM22.1948 33.519C23.6648 33.519 24.8548 32.202 24.8315 30.6614C24.8082 29.1705 23.5715 27.9032 22.1715 27.9281C20.7715 27.9529 19.5815 29.2202 19.5815 30.736C19.5815 32.2269 20.7948 33.519 22.1948 33.519Z" fill="#F48C06"/>
<path d="M40.5348 30.7378C40.5348 32.2784 39.2748 33.5706 37.8281 33.5209C36.4281 33.4712 35.2614 32.179 35.2848 30.6633C35.3081 29.1724 36.5214 27.9051 37.9215 27.9299C39.3448 27.9548 40.5348 29.2221 40.5348 30.7378Z" fill="#433658"/>
<path d="M22.1946 33.5209C20.7946 33.5209 19.6046 32.2536 19.6046 30.7378C19.6046 29.2221 20.7713 27.9548 22.1946 27.9299C23.5946 27.9051 24.808 29.1724 24.8546 30.6633C24.8546 32.2039 23.6413 33.496 22.1946 33.5209Z" fill="#564672"/>
<path d="M29.8182 41.6551C29.8097 41.6528 29.8012 41.6506 29.7927 41.6484C29.925 41.5532 30.0571 41.4582 30.1891 41.3632C30.8682 40.8744 31.5442 40.3879 32.2306 39.9078C32.4444 40.3982 32.8965 40.7552 33.4586 40.8413L33.4586 40.8414L33.466 40.8424C34.2276 40.9473 34.9301 40.382 35.1139 39.6706L35.1144 39.6683C35.2129 39.2794 35.1714 38.8903 34.97 38.5485C34.8875 38.4084 34.783 38.2844 34.6615 38.1756C34.7807 38.0908 34.8994 38.0056 35.0172 37.9212L35.0186 37.9202C35.1936 37.7947 35.3667 37.6705 35.5391 37.549C35.5389 37.7145 35.5409 37.8732 35.5429 38.028C35.5476 38.402 35.5521 38.7535 35.5238 39.124C35.473 39.7476 35.1656 40.2109 34.6192 40.6008C33.9874 41.0453 33.2504 41.2704 32.4269 41.4633L32.4269 41.4633L32.4247 41.4638C32.0655 41.5497 31.7009 41.6095 31.3306 41.6362C31.3248 41.636 31.317 41.6359 31.3089 41.6359C31.2839 41.6359 31.2304 41.6367 31.1672 41.6508C31.1415 41.6566 31.1139 41.6645 31.0854 41.6755C30.6574 41.6561 30.2322 41.6552 29.8182 41.6551Z" fill="#5B7A03" stroke="white"/>
<path d="M31.0393 24.1773C31.0775 24.132 31.1152 24.087 31.1524 24.0425L31.1533 24.0414C31.2395 23.9385 31.3233 23.8385 31.409 23.7389L31.4102 23.7375C31.6042 23.5103 31.7983 23.2852 31.9934 23.059L31.994 23.0583C32.1886 22.8327 32.3842 22.606 32.5799 22.3768L32.5804 22.3762C33.0811 21.7897 33.5836 21.2012 34.0771 20.6123C34.1356 20.543 34.1829 20.491 34.2357 20.4331C34.2802 20.3843 34.3284 20.3314 34.3903 20.2603C34.4092 20.2388 34.4283 20.2165 34.4475 20.1936C34.594 20.2862 34.7261 20.3892 34.8437 20.5054C34.8173 20.5352 34.7935 20.5631 34.7722 20.588C34.7689 20.592 34.7655 20.5959 34.7623 20.5997L34.7596 20.6029L33.1172 22.5591C33.1171 22.5592 33.117 22.5594 33.1169 22.5595C32.7754 22.9641 32.4309 23.361 32.0832 23.7616C31.8546 24.025 31.6246 24.29 31.3931 24.5598L31.3927 24.5604C31.2525 24.7242 31.1131 24.8887 30.9742 25.0534C31.0664 24.8794 31.054 24.6994 31.0452 24.6164C31.0414 24.5618 31.0427 24.5214 31.0444 24.4656C31.0457 24.425 31.0472 24.3761 31.0472 24.3075L31.0472 24.3047C31.0473 24.2907 31.0473 24.2543 31.0439 24.2163C31.0429 24.2054 31.0415 24.1922 31.0393 24.1773ZM30.8083 25.2507C30.6379 25.4536 30.4683 25.6566 30.2991 25.859L30.2981 25.8603C29.9357 26.294 29.5756 26.7251 29.2111 27.1513L29.2085 27.1543C28.8814 27.5428 28.5493 27.9272 28.2147 28.3144L28.2136 28.3156C27.8801 28.7016 27.5442 29.0904 27.2126 29.4842L27.1971 29.5026L27.1835 29.5224C27.1758 29.5336 27.1651 29.5471 27.1406 29.5772L27.1366 29.582C27.1161 29.6072 27.0825 29.6483 27.0515 29.6932C27.0417 29.7074 27.0315 29.7229 27.0212 29.7397C26.7479 29.8003 26.4433 29.8789 26.1551 30.0158C26.3138 29.8263 26.4723 29.6371 26.6308 29.4487C26.8704 29.1666 27.1102 28.8888 27.3516 28.6092L27.3522 28.6085C27.5928 28.3298 27.8349 28.0494 28.0772 27.764C28.6731 27.0723 29.2592 26.3717 29.8427 25.6743C29.8572 25.6574 29.8717 25.6418 29.8923 25.6194C29.8998 25.6112 29.9082 25.6021 29.9177 25.5917C29.9496 25.557 29.9917 25.5102 30.0329 25.4566C30.0515 25.4324 30.0705 25.4059 30.0893 25.3771C30.1571 25.3775 30.2323 25.3806 30.318 25.3847C30.4167 25.3898 30.6283 25.3901 30.8083 25.2507ZM23.7982 32.7866C23.8682 32.7046 23.9382 32.623 24.0083 32.5414C23.9171 32.872 23.8653 33.2264 23.8553 33.6049L23.8553 33.606C23.8389 34.2839 23.844 34.9535 23.8518 35.6212C23.6885 35.6207 23.5259 35.6227 23.3683 35.6247C23.2784 35.6258 23.1901 35.6269 23.1043 35.6275C22.7714 35.6298 22.4587 35.6249 22.1547 35.591L22.1547 35.5909L22.1473 35.5902C21.9283 35.5691 21.7288 35.5186 21.5481 35.4359C21.8266 35.1255 22.0909 34.8104 22.3491 34.5026L22.3505 34.5009C22.3508 34.5006 22.3511 34.5002 22.3514 34.4998C22.5931 34.2152 22.8347 33.9284 23.0755 33.6425L23.0759 33.642C23.3172 33.3554 23.5578 33.0698 23.7982 32.7866Z" fill="white" stroke="white"/>
<path d="M28.7531 25.423C28.2569 25.4236 27.7587 25.4251 27.2582 25.4288C27.2122 25.5046 27.1605 25.5681 27.1125 25.6202C27.0615 25.6756 27.0052 25.7278 26.9665 25.7637C26.9604 25.7694 26.9547 25.7747 26.9495 25.7796C26.9036 25.8224 26.8832 25.8436 26.8712 25.8586L26.8683 25.8623L26.8683 25.8623C26.5565 26.2462 26.2318 26.6255 25.9117 26.9994C25.7247 27.2178 25.5394 27.4343 25.359 27.6488L25.3561 27.6524L25.3561 27.6524C25.1294 27.917 24.9027 28.1841 24.6751 28.4522L24.6749 28.4525C24.4478 28.72 24.2199 28.9885 23.9919 29.2548C23.7468 29.5427 23.5015 29.833 23.2555 30.1242L23.2551 30.1247C23.0095 30.4155 22.7631 30.7072 22.5166 30.9967C22.5165 30.9969 22.5164 30.997 22.5162 30.9971L22.1355 30.673C21.6529 31.2414 21.1702 31.8006 20.6875 32.3597L28.7531 25.423ZM28.7531 25.423C28.5654 25.6454 28.3769 25.8675 28.1878 26.0902L28.1874 26.0906C27.8938 26.4365 27.5989 26.7838 27.306 27.1338C26.8245 27.6916 26.3414 28.2512 25.8581 28.8204M28.7531 25.423L20.1591 33.7608C20.1622 33.757 20.1654 33.7533 20.1686 33.7495C20.1917 33.8137 20.2188 33.8825 20.2494 33.9595M25.8581 28.8204C25.8583 28.8202 25.8584 28.82 25.8586 28.8199L26.2388 29.1445L25.8577 28.8209C25.8578 28.8207 25.858 28.8206 25.8581 28.8204ZM25.8581 28.8204C25.496 29.2446 25.1361 29.6746 24.7769 30.1038C24.5831 30.3355 24.3894 30.5669 24.1957 30.797M24.1957 30.797C24.0021 31.0238 23.8083 31.2484 23.6136 31.4741L23.6132 31.4746C23.4185 31.7003 23.2229 31.9271 23.0271 32.1564L23.0262 32.1574C22.7842 32.4425 22.5422 32.7298 22.301 33.0162L22.3008 33.0164C22.0594 33.3031 21.8186 33.5889 21.578 33.8723L21.578 33.8723L21.5761 33.8746C21.3003 34.2033 21.0314 34.5238 20.7496 34.8356M24.1957 30.797C24.1961 30.7966 24.1965 30.7961 24.1968 30.7957L24.5771 31.1203M24.1957 30.797C24.1953 30.7975 24.1949 30.7979 24.1946 30.7984L24.5771 31.1203M20.7496 34.8356C20.5502 34.5975 20.395 34.3037 20.2494 33.9595M20.7496 34.8356C20.852 34.9578 20.9661 35.0654 21.0965 35.1576L21.0388 35.2393L21.0387 35.2394L20.808 35.5659L20.4538 35.2131C20.4627 35.2041 20.4761 35.1876 20.5149 35.1304C20.5175 35.1265 20.5202 35.1225 20.5232 35.1181C20.556 35.0695 20.6102 34.9892 20.6788 34.9135L20.6806 34.9115C20.7037 34.8862 20.7267 34.8609 20.7496 34.8356ZM20.2494 33.9595C20.2501 33.9611 20.2507 33.9627 20.2513 33.9643L19.7868 34.1493L20.2475 33.9549C20.2481 33.9564 20.2488 33.958 20.2494 33.9595ZM24.5771 31.1203C24.3821 31.3487 24.1872 31.5747 23.9922 31.8007C23.7973 32.0267 23.6023 32.2527 23.4074 32.4811M24.5771 31.1203L23.4074 32.4811M23.4074 32.4811C23.166 32.7653 22.9246 33.0519 22.6833 33.3385C22.4419 33.6251 22.2005 33.9117 21.9592 34.1959L23.4074 32.4811Z" fill="white" stroke="white"/>
<path d="M41.2189 28.6227C41.2261 28.6572 41.2332 28.6917 41.2401 28.7261C41.2068 28.7497 41.1783 28.7721 41.1565 28.7894C41.1453 28.7983 41.136 28.8057 41.1279 28.8122C41.1058 28.8298 41.0933 28.8398 41.079 28.8501L41.3702 29.2562L41.0796 28.8496C40.1926 29.4837 39.3057 30.12 38.4192 30.7561C37.5326 31.3922 36.6464 32.028 35.7602 32.6615L35.7591 32.6623C35.1055 33.1323 34.4495 33.6 33.7926 34.0684L33.7919 34.0689C33.1355 34.537 32.4781 35.0057 31.8229 35.4769L31.8228 35.4768L31.814 35.4834C31.8138 35.4836 31.813 35.4841 31.8119 35.485C31.7963 35.4959 31.7043 35.5607 31.6338 35.6393C31.5574 35.6423 31.4809 35.6432 31.4026 35.6429C31.8289 35.3376 32.2573 35.0341 32.687 34.7298L32.6875 34.7294C33.1441 34.4059 33.6022 34.0815 34.0581 33.7545L41.2189 28.6227ZM41.2189 28.6227C41.2099 28.629 41.2008 28.6354 41.1916 28.6417C40.2297 29.3196 39.2765 30.0071 38.3208 30.6964L38.3192 30.6976C37.6095 31.2051 36.8998 31.7151 36.1896 32.2254L36.1895 32.2254L36.1895 32.2254C35.4795 32.7356 34.7689 33.2462 34.0582 33.7545L41.2189 28.6227ZM26.8361 38.9174L30.0507 36.6123C30.052 36.6347 30.0538 36.6566 30.0561 36.6776C30.0664 36.7731 30.096 36.9602 30.2462 37.1141C30.2662 37.1346 30.2869 37.1529 30.3078 37.1694C29.9282 37.4396 29.5472 37.7092 29.1656 37.9792C28.1282 38.7133 27.0864 39.4503 26.0568 40.2109C25.9052 40.0581 25.7906 39.8951 25.7146 39.7142C25.8722 39.6025 26.0288 39.4909 26.1847 39.3798L26.185 39.3796C26.401 39.2257 26.6159 39.0727 26.8328 38.9197L26.8328 38.9197L26.8361 38.9174Z" fill="#F5DC62" stroke="white"/>
<path d="M34.1478 25.5611C34.6113 25.0094 35.0742 24.4584 35.5369 23.911C35.541 24.4277 35.5447 24.9407 35.5395 25.4581L35.5394 25.4581V25.4632C35.5394 25.6876 35.5432 25.9036 35.5469 26.1142C35.5561 26.6341 35.5646 27.1213 35.5141 27.6218L35.5139 27.6245C35.407 28.7432 34.501 29.6132 33.3961 29.6514C32.4897 29.6787 31.5856 29.6705 30.6673 29.6606C30.6947 29.6285 30.7221 29.5964 30.7494 29.5643C30.8512 29.4449 30.9523 29.3262 31.0524 29.2099L31.0525 29.21L31.0566 29.2051L32.6988 27.249C32.9384 26.9669 33.1781 26.6892 33.4194 26.4097L33.4201 26.4089C33.661 26.1298 33.9035 25.8489 34.1461 25.5631L34.1478 25.5611Z" fill="white" stroke="white"/>
<path d="M25.9394 25.4229C25.5115 25.9501 25.0628 26.4662 24.6075 26.9897L24.6075 26.9897L24.605 26.9926C24.3769 27.259 24.1489 27.5276 23.9217 27.7952L23.9213 27.7958C23.6937 28.0639 23.467 28.331 23.2403 28.5956L23.2394 28.5967C22.9928 28.8863 22.7464 29.1781 22.5006 29.469L22.5001 29.4696C22.2544 29.7606 22.0093 30.0506 21.7644 30.3383C21.2823 30.8968 20.7986 31.4571 20.3147 32.0269L20.3135 32.0283L20.3129 32.029C20.1658 32.2037 20.0187 32.3782 19.8706 32.5536C19.7974 32.1842 19.7437 31.8054 19.6978 31.4159L19.6978 31.4159L19.6974 31.4127C19.665 31.1524 19.6478 30.8979 19.6515 30.6476C19.6744 30.6276 19.6951 30.6076 19.7137 30.5886C19.7708 30.5299 19.8456 30.4343 19.873 30.3993C19.8773 30.3938 19.8804 30.3898 19.8821 30.3877L21.3268 28.6863C21.3269 28.6861 21.3271 28.686 21.3272 28.6858C21.5211 28.4587 21.715 28.2339 21.91 28.0079L21.9104 28.0074C22.105 27.7817 22.3007 27.5549 22.4965 27.3256L22.4969 27.3251C22.7619 27.0139 23.0289 26.6972 23.2936 26.3831C23.5164 26.1187 23.7377 25.8561 23.9548 25.6004L23.9549 25.6005L23.9613 25.5926C23.9625 25.5911 23.9655 25.5876 23.9699 25.5826C23.9917 25.5572 24.0481 25.4916 24.093 25.4293C24.7081 25.4249 25.3234 25.4234 25.9394 25.4229Z" fill="white" stroke="white"/>
<path d="M26.2501 38.096C26.0189 38.2626 25.7847 38.4292 25.5489 38.5962C25.5486 38.5894 25.5483 38.5826 25.5479 38.5758C25.5734 38.5593 25.5971 38.5428 25.6191 38.5267C25.6749 38.4859 25.7254 38.4436 25.7639 38.4111L25.7753 38.4016C25.8082 38.3739 25.8322 38.3537 25.8556 38.3354C26.7115 37.7317 27.5649 37.1189 28.4175 36.5067C29.0219 36.0727 29.6259 35.639 30.23 35.2091L30.2302 35.2089L31.9569 33.9787L33.6837 32.7485L33.6849 32.7476C34.3999 32.2349 35.1171 31.7199 35.8343 31.205C36.5512 30.6902 37.268 30.1755 37.9825 29.6632C38.3515 29.4006 38.7154 29.138 39.078 28.8763C39.6656 28.4523 40.2495 28.0309 40.8457 27.6166L40.8466 27.6159C40.8917 27.5844 40.9345 27.5512 40.9724 27.5206C40.9743 27.5273 40.9762 27.534 40.978 27.5407C40.9534 27.5573 40.9302 27.5738 40.9084 27.5897C40.8555 27.6283 40.8041 27.6691 40.762 27.7025C40.7555 27.7077 40.7492 27.7126 40.7432 27.7174C40.6943 27.7561 40.6568 27.785 40.6214 27.8093L40.6214 27.8092L40.6158 27.8131C39.6482 28.495 38.6902 29.1859 37.7349 29.875L37.7342 29.8755C37.0238 30.3836 36.3135 30.894 35.6037 31.404L35.6037 31.404L35.6028 31.4046C34.8928 31.9147 34.1834 32.4244 33.474 32.9318L33.4735 32.9322C33.02 33.2574 32.5639 33.5804 32.1065 33.9044L32.1059 33.9049C31.6491 34.2284 31.1909 34.553 30.7349 34.88L26.251 38.0954L26.2501 38.096Z" fill="#F6DF68" stroke="white"/>
<path d="M33.386 24.9345L33.3862 24.9343C33.6536 24.6198 33.9243 24.2962 34.197 23.9704C34.5725 23.5216 34.9517 23.0684 35.3309 22.6285C35.3333 22.6258 35.3357 22.623 35.338 22.6203L33.386 24.9345ZM33.386 24.9345C33.1462 25.217 32.9061 25.495 32.6646 25.7749L32.6639 25.7757C32.4229 26.0548 32.1805 26.3356 31.9378 26.6214L31.936 26.6236M33.386 24.9345L31.936 26.6236M31.936 26.6236L31.1144 27.6022L30.2928 28.5807L30.2919 28.5819M31.936 26.6236L30.2919 28.5819M30.2919 28.5819C30.0988 28.8133 29.9037 29.0378 29.7035 29.2682C29.6088 29.3771 29.5131 29.4873 29.4159 29.6001M30.2919 28.5819L29.4159 29.6001M32.144 25.2451L32.1436 25.2456C31.8446 25.599 31.5458 25.9558 31.2466 26.3132C30.8194 26.8234 30.3913 27.3346 29.9606 27.8382M32.144 25.2451L29.5803 27.5136M32.144 25.2451C32.4856 24.8403 32.8302 24.4433 33.178 24.0426C33.4067 23.7793 33.6367 23.5143 33.8682 23.2444L33.8682 23.2444M32.144 25.2451L33.8682 23.2444M29.9606 27.8382C29.9605 27.8383 29.9604 27.8385 29.9603 27.8386L29.5803 27.5136M29.9606 27.8382C29.9607 27.8381 29.9608 27.838 29.9609 27.8379L29.5803 27.5136M29.9606 27.8382C29.6853 28.1613 29.4101 28.4805 29.1355 28.7992C28.8826 29.0925 28.6302 29.3853 28.3786 29.6801M29.5803 27.5136C29.3094 27.8316 29.0353 28.1496 28.7606 28.4682C28.4123 28.8723 28.0631 29.2775 27.7182 29.685C27.9391 29.683 28.1591 29.6815 28.3786 29.6801M28.3786 29.6801C28.4345 29.6798 28.4904 29.6794 28.5463 29.6791L28.5468 29.6791C28.8175 29.6774 29.0873 29.6758 29.3576 29.6733C29.3769 29.6467 29.3966 29.6223 29.4159 29.6001M28.3786 29.6801C28.2443 29.8375 28.1102 29.9954 27.9764 30.1543C27.9686 30.1645 27.961 30.1741 27.9538 30.183L29.4159 29.6001M33.8682 23.2444L33.8716 23.2404M33.8682 23.2444L33.8716 23.2404M33.8716 23.2404L35.406 21.4127M33.8716 23.2404L35.406 21.4127M35.406 21.4127C35.4797 21.6186 35.5204 21.8427 35.533 22.0872L35.5335 22.0969L35.5343 22.1065C35.5432 22.2041 35.5417 22.2913 35.5386 22.397L35.406 21.4127Z" fill="white" stroke="white"/>
<path d="M28.3764 34.8857C30.0845 33.6647 31.8019 32.4345 33.5101 31.2043C33.5563 31.1688 33.609 31.1397 33.6619 31.1104C33.7896 31.0398 33.919 30.9682 33.965 30.8035M28.3764 34.8857C27.3552 35.6219 26.3247 36.3582 25.2943 37.0852M28.3764 34.8857L28.5834 35.1753C28.5441 35.2035 28.5049 35.2316 28.4656 35.2598C27.4927 35.9583 26.5203 36.6564 25.5436 37.3472V37.347V37.345V37.3429V37.3408V37.3388V37.3367V37.3346V37.3326V37.3305V37.3285V37.3264V37.3243V37.3223V37.3202V37.3181V37.3161V37.314V37.3119V37.3099V37.3078V37.3057V37.3037V37.3016V37.2995V37.2975V37.2954V37.2933V37.2913V37.2892V37.2871V37.285V37.283V37.2809V37.2788V37.2768V37.2747V37.2726V37.2706V37.2685V37.2664V37.2643V37.2623V37.2602V37.2581V37.2561V37.254V37.2519V37.2498V37.2478V37.2457V37.2436V37.2415V37.2395V37.2374V37.2353V37.2333V37.2312V37.2291V37.227V37.225H25.3995L25.2943 37.0852M28.3764 34.8857L28.5845 35.1744C28.9378 34.9208 29.2912 34.6672 29.6448 34.4139L29.6458 34.4132L33.098 31.9536C33.0982 31.9535 33.0984 31.9533 33.0986 31.9532C33.3074 31.8035 33.5164 31.6535 33.7256 31.5035C33.7286 31.5013 33.7317 31.4991 33.7347 31.4969C33.8544 31.411 33.9742 31.3251 34.094 31.2391L33.965 30.8035M25.2943 37.0852C25.2812 37.095 25.2682 37.1054 25.255 37.1159C25.193 37.1653 25.1278 37.2173 25.0436 37.225M25.2943 37.0852L25.3929 37.225H25.0436M25.0436 37.225V37.72C25.0564 37.7099 25.07 37.6988 25.0857 37.6859L25.0436 37.225ZM33.965 30.8035L34.4466 30.9379C34.4406 30.9593 34.434 30.9801 34.4268 31.0002C34.6997 30.8043 34.9727 30.6082 35.2458 30.4122L35.2469 30.4114L35.2488 30.41C35.3737 30.3203 35.4987 30.2306 35.6236 30.1409L35.4967 29.9927M33.965 30.8035C34.5313 30.6358 35.0418 30.3841 35.4967 29.9927M35.4967 29.9927L35.624 30.1406C35.9113 29.9343 36.1986 29.728 36.4857 29.522C36.4087 29.5407 36.3222 29.5492 36.2266 29.5396L36.2765 29.0421M35.4967 29.9927C35.8124 29.7224 36.0537 29.3869 36.2765 29.0421M36.2765 29.0421L36.6965 29.3134C36.6734 29.3491 36.6499 29.3851 36.6259 29.4214C36.6759 29.3855 36.7258 29.3497 36.7758 29.3138L36.5179 28.9582M36.2765 29.0421C36.3694 29.0514 36.4436 29.0141 36.5179 28.9582M36.5179 28.9582L36.7822 29.3092C36.9868 29.1624 37.1913 29.0157 37.3957 28.8692C37.5602 28.7505 37.7248 28.6316 37.8893 28.5127C38.5193 28.0575 39.1501 27.6018 39.7873 27.1527L39.535 26.796M36.5179 28.9582C37.0192 28.5947 37.5228 28.2359 38.0265 27.8771C38.5301 27.5183 39.0337 27.1595 39.535 26.796M39.535 26.796L39.7915 27.1497C39.9507 27.0375 40.1102 26.9257 40.2703 26.8145C40.3059 26.7896 40.3435 26.7594 40.397 26.7157L40.4053 26.7089C40.4532 26.6699 40.5149 26.6195 40.5809 26.5723C40.5844 26.5698 40.5879 26.5673 40.5914 26.5647C40.5285 26.4445 40.4587 26.3408 40.3748 26.2501L40.7419 25.9106M39.535 26.796C39.631 26.7281 39.7275 26.6613 39.8238 26.5945C40.1377 26.377 40.4507 26.1601 40.7419 25.9106M40.7419 25.9106L40.8258 26.0085C40.7992 25.9751 40.7713 25.9424 40.7419 25.9106ZM40.9409 26.9327L40.7727 26.9932C40.7252 26.8612 40.6784 26.7434 40.6278 26.6376C40.521 26.7166 40.4137 26.7929 40.3077 26.8672L40.5562 27.2247M40.9409 26.9327L29.936 34.8204C29.5436 35.1014 29.1513 35.383 28.7588 35.6648C27.6931 36.4299 26.6261 37.1959 25.5542 37.9519C25.5507 37.9544 25.5471 37.957 25.5436 37.9595V37.9594V37.9574V37.9553V37.9533V37.9513V37.9493V37.9472V37.9452V37.9432V37.9412V37.9391V37.9371V37.937V37.9369V37.9351V37.9331V37.931V37.929V37.927V37.925V37.9229V37.9209V37.9189V37.9168V37.9148V37.9128V37.9108V37.9087V37.9067V37.9047V37.9027V37.9006V37.8986V37.8966V37.8945V37.8925V37.8905V37.8885V37.8864V37.8844V37.8824V37.8804V37.8783V37.8763V37.8743V37.8722V37.8702V37.8682V37.8662V37.8641V37.8621V37.8601V37.858V37.856V37.854V37.8519V37.8499V37.8479V37.8459V37.8438V37.8418V37.8398V37.8377V37.8357V37.8337V37.8317V37.8296V37.8276V37.8256V37.8235V37.8215V37.8195V37.8174V37.8154V37.8134V37.8113V37.8093V37.8073V37.8053V37.8032V37.8012V37.7992V37.7971V37.7951V37.7931V37.791V37.789V37.787V37.7849V37.7829V37.7809V37.7788V37.7768V37.7748V37.7727V37.7707V37.7687V37.7666V37.7646V37.7626V37.7605V37.7585V37.7565V37.7544V37.7524V37.7504V37.7483V37.7463V37.7443V37.7422V37.7402V37.7382V37.7361V37.7341V37.7321V37.73V37.728V37.7259V37.7239V37.7219V37.7198V37.7178V37.7158V37.7137V37.7117V37.7097V37.7076V37.7056V37.7035V37.7015V37.6995V37.6974V37.6954V37.6934V37.6913V37.6893V37.6873V37.6852V37.6832V37.6811V37.6791V37.6771V37.675V37.673V37.6709V37.6689V37.6669V37.6648V37.6628V37.6608V37.6587V37.6567V37.6546V37.6526V37.6506V37.6485V37.6465V37.6444V37.6424V37.6404V37.6383V37.6363V37.6342V37.6322V37.6301V37.6281V37.6261V37.624V37.622V37.6199V37.6179V37.6159V37.6138V37.6118V37.6097V37.6077V37.6056V37.6036V37.6016V37.5995V37.5975V37.5954V37.5934V37.5913V37.5893V37.5873V37.5852V37.5832V37.5811V37.5791V37.577V37.575V37.5729V37.5709V37.5689V37.5668V37.5648V37.5627V37.5607V37.5586V37.5566V37.5545V37.5525V37.5504V37.5484V37.5463V37.5443V37.5423V37.5402V37.5382V37.5361V37.5341V37.532V37.53V37.5279V37.5259V37.5251C25.5451 37.524 25.5465 37.5228 25.5479 37.5217C25.5589 37.513 25.5666 37.5069 25.5727 37.502C25.5797 37.4965 25.5845 37.4926 25.5897 37.4886C26.6191 36.7624 27.6483 36.027 28.6679 35.2918C29.0215 35.0391 29.3755 34.786 29.7298 34.5325C29.73 34.5323 29.7302 34.5322 29.7305 34.532C30.8781 33.7109 32.0282 32.8864 33.1752 32.0613L33.3894 32.36M40.9409 26.9327C40.8625 26.9812 40.7901 27.0403 40.7184 27.0988C40.6647 27.1426 40.6114 27.1861 40.5562 27.2247M40.9409 26.9327L33.3894 32.36M40.5562 27.2247L40.3069 26.8677C40.2353 26.9178 40.1644 26.967 40.0947 27.0153C40.0027 27.079 39.9127 27.1413 39.8261 27.2025C39.3239 27.5666 38.8197 27.9259 38.3174 28.2837L38.3166 28.2843C38.0206 28.4952 37.7252 28.7056 37.4307 28.9168L37.6876 29.2751M40.5562 27.2247C39.7578 27.7796 38.9721 28.3473 38.1833 28.9171C38.0183 29.0364 37.8531 29.1557 37.6876 29.2751M37.6876 29.2751L37.4297 28.9175C37.2243 29.0647 37.0192 29.2123 36.8146 29.3606C36.7565 29.4041 36.6771 29.4562 36.5775 29.4936C36.3733 29.7951 36.1321 30.1069 35.8219 30.3725C35.3614 30.7685 34.8544 31.0348 34.3116 31.2182C34.2283 31.3324 34.1285 31.4106 34.0452 31.4648C33.9927 31.499 33.9358 31.5304 33.8992 31.5505C33.8928 31.5541 33.887 31.5573 33.8819 31.5601C33.8386 31.5843 33.8225 31.5948 33.8146 31.6009L33.8085 31.6056L33.8023 31.61C33.5937 31.7602 33.385 31.9105 33.1762 32.0607L33.3894 32.36M37.6876 29.2751C36.9729 29.7876 36.2558 30.3025 35.5387 30.8174C34.8215 31.3323 34.1043 31.8473 33.3894 32.36M40.9699 26.3719C40.9897 26.3556 41.0094 26.3392 41.029 26.3227C41.0341 26.3323 41.0391 26.3418 41.0441 26.3515C41.0187 26.3576 40.994 26.3644 40.9699 26.3719Z" fill="#F6E26E" stroke="white"/>
<path d="M25.5513 34.835C25.5495 34.3824 25.5483 33.9345 25.5539 33.4873C25.5653 33.0137 25.7831 32.52 26.1441 32.1211C26.5058 31.7215 26.9781 31.4538 27.4487 31.3925L27.4487 31.3926L27.4568 31.3914C27.7191 31.3529 27.9748 31.3552 28.2737 31.3579C28.3543 31.3587 28.4381 31.3594 28.5259 31.3594C29.0724 31.3594 29.6191 31.3618 30.167 31.3641L30.1675 31.3641C30.2459 31.3644 30.3244 31.3648 30.4029 31.3651C30.0206 31.6374 29.6405 31.9096 29.261 32.1815L29.2606 32.1818C28.8636 32.4661 28.4673 32.75 28.0688 33.0338L28.0682 33.0342C27.5528 33.4024 27.0352 33.773 26.5177 34.1433L26.5175 34.1435C26.1952 34.3742 25.8729 34.6049 25.5513 34.835Z" fill="#F8E67A" stroke="white"/>
<path d="M28.2116 23.4967L28.4514 23.6957L31.8972 19.0697C31.8366 19.279 31.6932 19.4297 31.5517 19.5783C31.498 19.6348 31.4444 19.691 31.3959 19.7501C30.8296 20.4397 30.2447 21.1294 29.6599 21.8098C29.5351 21.9542 29.4098 22.0987 29.2843 22.2433C28.9241 22.6585 28.5628 23.075 28.2116 23.4967ZM28.2116 23.4967C28.1593 23.5597 28.1033 23.6213 28.0469 23.6832C28.0431 23.6874 28.0394 23.6915 28.0356 23.6957H28.0397H28.0452H28.0506H28.0561H28.0615H28.067H28.0724H28.0779H28.0833H28.0888H28.0942H28.0997H28.1051H28.1106H28.116H28.1215H28.127H28.1324H28.1379H28.1433H28.1488H28.1542H28.1597H28.1651H28.1706H28.1761H28.1815H28.187H28.1924H28.1979H28.2033H28.2088H28.2142H28.2197H28.2252H28.2306H28.2361H28.2415H28.247H28.2524H28.2579H28.2634H28.2688H28.2743H28.2797H28.2852H28.2907H28.2961H28.3016H28.307H28.3125H28.3179H28.3234H28.3289H28.3343H28.3398H28.3452H28.3507H28.3562H28.3616H28.3671H28.3725H28.378H28.3835H28.3889H28.3944H28.3998H28.4053H28.4108H28.4162H28.4217H28.4272H28.4326H28.4381H28.4435H28.449H28.4506L28.2116 23.4967ZM32.1915 19.5955C32.6513 19.6345 33.0775 19.6804 33.4826 19.7875C33.4211 19.8556 33.3563 19.928 33.3065 19.987L33.3065 19.987L33.3031 19.9911C32.9326 20.4403 32.5577 20.8777 32.178 21.3208C32.0571 21.4618 31.9358 21.6034 31.814 21.7461C31.62 21.9733 31.4258 22.1983 31.2308 22.4245L31.2304 22.4249C31.0359 22.6504 30.8405 22.877 30.6449 23.1061C30.5548 23.2108 30.4673 23.3152 30.3823 23.4167L30.3813 23.4179C30.3022 23.5123 30.2252 23.6042 30.1469 23.6957H30.1424H30.137H30.1315H30.1261H30.1206H30.1152H30.1097H30.1042H30.0988H30.0933H30.0879H30.0824H30.077H30.0715H30.0661H30.0606H30.0552H30.0497H30.0443H30.0388H30.0334H30.0279H30.0225H30.017H30.0115H30.0061H30.0006H29.9952H29.9897H29.9843H29.9788H29.9734H29.9679H29.9625H29.957H29.9515H29.9461H29.9406H29.9352H29.9297H29.9243H29.9188H29.9134H29.9079H29.9024H29.897H29.8915H29.8861H29.8806H29.8752H29.8697H29.8642H29.8588H29.8533H29.8479H29.8424H29.8369H29.8315H29.826H29.8206H29.8151H29.8097H29.8042H29.7987H29.7933H29.7878H29.7824H29.7769H29.7714H29.766H29.7605H29.7551H29.7496H29.7441H29.7387H29.7332H29.7278H29.7223H29.7168H29.7114H29.7059H29.7005H29.695H29.6895H29.6841H29.6786H29.6731H29.6677H29.6622H29.6568H29.6513H29.6458H29.6404H29.6349H29.6295H29.624H29.6185H29.6131H29.6076H29.6021H29.5967H29.5912H29.5858H29.5803H29.5748H29.5694H29.5639H29.5584H29.553H29.5475H29.542H29.5366H29.5311H29.5257H29.5202H29.5147H29.5093H29.5038H29.4983H29.4929H29.4874H29.4819H29.4765H29.471H29.4656H29.4601H29.4546H29.4492H29.4437H29.4382H29.4328H29.4273H29.4218H29.4164H29.4109H29.4054H29.4H29.3945H29.389H29.3836H29.3781H29.3726H29.3672H29.3617H29.3563H29.3508H29.3453H29.3399H29.3344H29.3289H29.3235H29.318H29.3125H29.3071H29.3016H29.2961H29.2907H29.2852H29.2797H29.2743H29.2688H29.2633H29.2579H29.2524H29.2469H29.2415H29.236H29.2305H29.2251H29.2196H29.2141H29.2087H29.2032H29.1977H29.1923H29.1868H29.1813H29.1759H29.1704H29.1649H29.1595H29.154H29.1485H29.1431H29.1376H29.1321H29.1267H29.1212H29.1157H29.1103H29.1048H29.0993H29.0939H29.0884H29.0829H29.0775H29.072H29.0665H29.0611H29.0556H29.0501H29.0447H29.0392H29.0337H29.0283H29.0228H29.0173H29.0119H29.0064H29.0009H28.9955H28.99H28.9845H28.9791H28.9736H28.9681H28.9627H28.9572H28.9517H28.9463H28.9408H28.9353H28.9299H28.9244H28.9189H28.9135H28.908H28.9025H28.8971H28.8916H28.8861H28.8807H28.8752H28.8697H28.8643H28.8588H28.8533H28.8479H28.8424H28.8369H28.8315H28.826H28.8205H28.8151H28.8096H28.8042H28.7987H28.7932H28.7878H28.7823H28.7768H28.7714H28.7659H28.7604H28.755H28.7495H28.744H28.7386H28.7331H28.7276H28.7222H28.7167H28.7112H28.7058H28.7003H28.697C29.0125 23.3197 29.3348 22.9482 29.6593 22.5742C29.7854 22.4288 29.9118 22.283 30.0383 22.1365L30.039 22.1357C30.6251 21.4539 31.2125 20.7613 31.7819 20.0678C31.8134 20.0295 31.8503 19.9899 31.8992 19.9385C31.904 19.9334 31.9089 19.9282 31.914 19.9229C31.9569 19.8779 32.0093 19.8228 32.0593 19.7652C32.102 19.7158 32.1476 19.6595 32.1915 19.5955Z" fill="white" stroke="white"/>
<path d="M30.9607 19.5117C30.4179 20.1712 29.858 20.8311 29.2969 21.4838L29.2949 21.4862C29.1912 21.6083 29.0852 21.7317 28.9778 21.856C28.99 21.6797 28.9728 21.4994 28.9232 21.3223C28.8272 20.971 28.611 20.6818 28.3296 20.4873C28.4105 20.3993 28.5056 20.2932 28.5824 20.1885C28.646 20.1048 28.7127 20.0312 28.7948 19.9407C28.8225 19.9101 28.852 19.8776 28.8838 19.8421C28.9529 19.7648 29.0292 19.6766 29.103 19.5762C29.7148 19.5102 30.3353 19.4913 30.9607 19.5117ZM26.6347 23.0722C26.9774 23.2909 27.3776 23.3585 27.7543 23.2794C27.7408 23.2944 27.7268 23.3099 27.7122 23.326C27.7061 23.3326 27.6999 23.3394 27.6937 23.3463C27.6504 23.3939 27.6017 23.4474 27.5545 23.5021C27.5047 23.5598 27.4518 23.6242 27.4001 23.6957C26.7954 23.6958 26.1886 23.6964 25.5772 23.7013C25.5962 23.6809 25.6106 23.6636 25.6203 23.6518C25.6946 23.5657 25.7651 23.4824 25.8338 23.4012C26.0003 23.2044 26.1561 23.0202 26.33 22.8392C26.3311 22.8381 26.3321 22.837 26.3332 22.8359C26.4244 22.9273 26.5263 23.0055 26.6347 23.0722Z" fill="white" stroke="white"/>
<path d="M37.7425 33.2513C38.9823 32.3683 40.2219 31.4778 41.4545 30.5867C41.4546 30.6363 41.4545 30.6868 41.4544 30.7385C41.4543 30.7681 41.4543 30.798 41.4542 30.8284C41.4226 30.8493 41.3965 30.869 41.3802 30.8814L41.3703 30.8888C41.3512 30.9033 41.3467 30.9067 41.3419 30.9099L41.3358 30.914L41.3298 30.9182C40.4007 31.5805 39.481 32.2427 38.5624 32.904L38.5621 32.9043C38.1357 33.209 37.7084 33.5132 37.281 33.8175C36.5487 34.3387 35.8164 34.86 35.0893 35.384L35.0746 35.3945L35.0612 35.4058L35.0611 35.4058C35.0607 35.4061 35.0584 35.4079 35.0531 35.4116C35.0452 35.417 35.0359 35.4232 35.0197 35.4336C35.0179 35.4348 35.0158 35.4361 35.0137 35.4375C34.9861 35.4552 34.9341 35.4887 34.8845 35.5292C34.8532 35.5547 34.8204 35.585 34.7886 35.6206C34.6617 35.6255 34.5346 35.6291 34.4073 35.6314C34.4779 35.5811 34.5485 35.5312 34.6194 35.4815L34.6194 35.4816L34.6239 35.4783C35.1431 35.106 35.6623 34.736 36.1823 34.3655L36.1827 34.3652C36.7021 33.995 37.2223 33.6244 37.7425 33.2513Z" fill="#F4D857" stroke="white"/>
<path d="M32.445 31.3641C30.9986 32.4055 29.5521 33.4452 28.0991 34.4781L28.0981 34.4788C27.5831 34.8468 27.0703 35.2125 26.5574 35.5783C26.2239 35.8162 25.8903 36.0541 25.556 36.2927V36.0624C25.9358 35.791 26.3145 35.5192 26.6931 35.2474C27.3437 34.7804 27.9941 34.3135 28.6499 33.8491L28.6509 33.8484C29.0507 33.5637 29.448 33.2791 29.8447 32.995L29.845 32.9948C30.2419 32.7105 30.6382 32.4266 31.0368 32.1428L31.0368 32.1428L31.0393 32.141C31.1324 32.0738 31.2284 32.0055 31.326 31.9361C31.5274 31.7929 31.7354 31.6449 31.9387 31.4919C31.9409 31.4903 31.9443 31.4879 31.9487 31.4848C31.9728 31.468 32.0282 31.4294 32.089 31.3676C32.2084 31.3667 32.3272 31.3654 32.445 31.3641Z" fill="#F7E474" stroke="white"/>
<path d="M33.7269 37.5667C33.6729 37.6061 33.6091 37.6582 33.5496 37.7258C33.4195 37.7321 33.292 37.753 33.1691 37.7902C33.3393 37.6693 33.5095 37.5484 33.6797 37.4277L33.6855 37.4236L33.6912 37.4193C33.6921 37.4186 33.6937 37.4175 33.6958 37.416C33.7114 37.4046 33.7573 37.3715 33.8064 37.3242H33.8085H33.8124H33.8162H33.8201H33.824H33.8278H33.8317H33.8355H33.8394H33.8433H33.8471H33.851H33.8549H33.8587H33.8626H33.8664H33.8703H33.8742H33.878H33.8819H33.8857H33.8896H33.8935H33.8973H33.9012H33.9051H33.9089H33.9128H33.9166H33.9205H33.9244H33.9282H33.9321H33.936H33.9398H33.9437H33.9475H33.9514H33.9553H33.9591H33.963H33.9669H33.9707H33.9746H33.9784H33.9823H33.9862H33.99H33.9939H33.9977H34.0016H34.0055H34.0093H34.0132H34.0171H34.0209H34.0248H34.0286H34.0325H34.0364H34.0402H34.0441H34.048H34.0518H34.0557H34.0595H34.0634H34.0673H34.0707C33.9588 37.4039 33.8473 37.4827 33.7359 37.5602L33.7359 37.5601L33.7269 37.5667ZM29.5834 40.5477C29.2423 40.7931 28.9021 41.038 28.5623 41.2808C28.5591 41.283 28.5546 41.286 28.5491 41.2896C28.5233 41.3063 28.4749 41.3379 28.4202 41.3862C28.3494 41.3704 28.2792 41.3534 28.2096 41.3352C28.2337 41.3174 28.2577 41.2997 28.2815 41.282C28.3766 41.2117 28.4691 41.1433 28.5578 41.0793C29.848 40.1571 31.1378 39.2352 32.4275 38.3175C32.3453 38.4277 32.2764 38.5494 32.2194 38.6795C32.1106 38.7273 32.0202 38.7865 31.9475 38.84C31.8883 38.8836 31.8318 38.9305 31.7886 38.9664C31.7833 38.9707 31.7782 38.9749 31.7734 38.979C31.7233 39.0204 31.6899 39.0472 31.6598 39.0677L31.6598 39.0677L31.6557 39.0706C30.9599 39.5571 30.27 40.0536 29.5834 40.5477Z" fill="#F3D551" stroke="white"/>
<path d="M20.2891 27.0889C20.775 26.0347 21.6071 25.4934 22.7822 25.4246C22.4936 25.767 22.2033 26.1087 21.9147 26.4485C21.8526 26.5216 21.7906 26.5946 21.7286 26.6675C21.5348 26.8946 21.3408 27.1194 21.1459 27.3454L21.1454 27.346C20.9507 27.5717 20.7551 27.7984 20.5594 28.0277L20.5585 28.0287C20.3934 28.2231 20.2315 28.4161 20.0707 28.6077C19.9673 28.7311 19.8642 28.8538 19.7612 28.9761C19.8533 28.3165 20.0154 27.6842 20.2891 27.0889Z" fill="white" stroke="white"/>
<path d="M27.9847 40.2658L27.9847 40.2658L27.9818 40.2678C27.8722 40.3469 27.7692 40.4231 27.6692 40.4972C27.4794 40.6376 27.3 40.7703 27.1051 40.9008L27.143 40.9574L27.1051 40.9008C27.0935 40.9086 27.0818 40.9168 27.0701 40.9255C27.0094 40.8981 26.9505 40.8696 26.8932 40.8398C27.8356 40.1489 28.791 39.4724 29.7503 38.7931C30.2113 38.4667 30.6731 38.1396 31.1349 37.81C31.2296 37.7434 31.3217 37.6771 31.411 37.6127L31.4121 37.6119C31.503 37.5464 31.5911 37.4829 31.6811 37.4196L31.6983 37.4075L31.7142 37.3942C31.7143 37.3941 31.716 37.3928 31.7209 37.389C31.7216 37.3885 31.7226 37.3877 31.7238 37.3868C31.7293 37.3826 31.7392 37.3749 31.7478 37.3681C31.7585 37.3596 31.7744 37.3468 31.7929 37.3301C31.901 37.329 32.0089 37.3281 32.1167 37.3273C31.1288 38.0316 30.1402 38.7341 29.1489 39.4384C28.7613 39.7138 28.3733 39.9895 27.9847 40.2658Z" fill="#F4D857" stroke="white"/>
<path d="M36.5676 35.6214C36.5433 35.6225 36.5191 35.6235 36.4948 35.6245C36.9477 35.3005 37.4016 34.9774 37.8566 34.6535C38.2846 34.3488 38.7136 34.0435 39.1437 33.7361C39.8731 33.2161 40.5968 32.6963 41.3186 32.1768C41.3154 32.1905 41.3121 32.2043 41.3088 32.2181C41.2574 32.2493 41.2156 32.2824 41.1896 32.3035C41.1712 32.3185 41.1621 32.3261 41.1555 32.3316C41.1511 32.3354 41.1477 32.3382 41.1434 32.3417C40.9086 32.5082 40.6735 32.6749 40.438 32.8417C39.2842 33.6593 38.1243 34.4813 36.9774 35.3158C36.9599 35.3276 36.9398 35.3397 36.9047 35.3608C36.8998 35.3637 36.8947 35.3668 36.8892 35.3701C36.8479 35.3949 36.7878 35.4314 36.7278 35.4761C36.6773 35.5138 36.6211 35.5614 36.5676 35.6214Z" fill="#F3D551" stroke="white"/>
<path d="M41.5659 29.9088C41.5826 29.8967 41.5992 29.884 41.616 29.8713C41.6982 29.8088 41.7833 29.7441 41.8856 29.7248L41.4866 29.7911C41.4856 29.7918 41.4846 29.7925 41.4836 29.7932L41.5659 29.9088ZM41.5659 29.9088L41.4823 29.7942C40.6528 30.3874 39.8233 30.9825 38.9935 31.5779L38.9934 31.578C38.4516 31.9667 37.9097 32.3555 37.3677 32.7438L37.4534 32.8632M41.5659 29.9088C40.192 30.8874 38.818 31.8753 37.4534 32.8632M37.4534 32.8632L37.3672 32.7442C37.0227 32.991 36.6782 33.2376 36.3337 33.4839C35.6785 33.955 35.0212 34.4237 34.3648 34.8918L34.3645 34.892C34.3268 34.9189 34.2891 34.9457 34.2514 34.9726L34.3341 35.0907M37.4534 32.8632C36.9335 33.236 36.4137 33.6065 35.8938 33.9769C35.3739 34.3474 34.854 34.7179 34.3341 35.0907M34.3341 35.0907L34.2501 34.9735C33.854 35.256 33.4583 35.5382 33.0633 35.8209C33.0629 35.8212 33.0625 35.8216 33.062 35.8219C33.0438 35.8349 33.0255 35.848 33.0073 35.8611L33.0345 36.1252M34.3341 35.0907C34.1346 35.2305 33.9373 35.3726 33.74 35.5147C33.5427 35.6569 33.3455 35.799 33.1459 35.9388C33.0809 35.9854 33.0252 36.032 33.0345 36.1252M33.0345 36.1252L32.999 36.1287C33.0109 36.1276 33.0227 36.1264 33.0345 36.1252ZM31.9483 36.1252H32.2737L32.2911 36.1493C32.1768 36.145 32.0626 36.137 31.9483 36.1252ZM31.9483 36.1252L31.9528 36.0817C31.9499 36.0954 31.9483 36.1098 31.9483 36.1252ZM41.5885 29.0986C41.5355 29.1266 41.4881 29.1653 41.4411 29.2036C41.4148 29.2251 41.3887 29.2464 41.3617 29.2657L41.5885 29.0986ZM41.5885 29.0986L41.798 29.0607M41.5885 29.0986L41.798 29.0607M41.798 29.0607L41.7727 29.2376C41.7899 29.2339 41.8076 29.2306 41.8258 29.228M41.798 29.0607L41.8258 29.228M41.8258 29.228C41.8356 29.2916 41.845 29.3567 41.8546 29.4225C41.869 29.5221 41.8837 29.6232 41.9001 29.7224L41.8258 29.228ZM38.702 31.1716C39.5778 30.5433 40.4536 29.9149 41.3294 29.2888C41.3376 29.3408 41.345 29.3915 41.3525 29.4438C41.328 29.4619 41.306 29.4786 41.2906 29.4903C41.2828 29.4962 41.2767 29.5008 41.2728 29.5037C39.899 30.4822 38.5253 31.47 37.1611 32.4575C36.8167 32.7045 36.4723 32.9505 36.1276 33.1962L36.0423 33.0776L36.1273 33.1965C35.9528 33.3209 35.7783 33.4452 35.6037 33.5697L35.6036 33.5698L35.603 33.5702C35.0842 33.9399 34.5647 34.3101 34.045 34.6827C33.8435 34.8239 33.6447 34.9672 33.449 35.1081L33.4477 35.1091C33.25 35.2515 33.0554 35.3917 32.859 35.5293L32.859 35.5292L32.8545 35.5325C32.8535 35.5332 32.8524 35.534 32.8512 35.5348C32.8268 35.5523 32.7735 35.5904 32.7188 35.6477C32.6256 35.6522 32.5325 35.6539 32.4394 35.6529C32.9834 35.2627 33.5288 34.8738 34.0742 34.4849C34.731 34.0166 35.3878 33.5482 36.0423 33.0776C36.9289 32.4438 37.8154 31.8077 38.702 31.1716ZM32.4483 36.1252C32.4483 36.1344 32.4478 36.1437 32.4469 36.153C32.398 36.1525 32.349 36.1515 32.3 36.1497L32.2816 36.1252H32.4483Z" fill="#F4DA5D" stroke="white"/>
<path d="M38.8754 35.6069C38.6677 35.6155 38.4609 35.6223 38.2545 35.6264C39.1132 35.0099 39.9775 34.3939 40.8408 33.7804C40.7514 34.0099 40.6518 34.2338 40.5405 34.4512C40.2464 35.0159 39.9079 35.3896 39.383 35.5412C39.2222 35.585 39.0633 35.6065 38.896 35.6065H38.8857L38.8754 35.6069Z" fill="#5B7A03" stroke="white"/>
<path d="M26.4286 20.1398C26.7999 19.9508 27.199 19.8356 27.6279 19.7506C27.6138 19.766 27.599 19.782 27.5834 19.7988C27.5456 19.8397 27.5029 19.8858 27.4528 19.942C27.3858 20.0174 27.3111 20.1061 27.241 20.2101C26.4707 20.2966 25.9329 20.991 25.9157 21.7463C25.8516 21.7977 25.8028 21.8523 25.7663 21.8986C25.7219 21.9548 25.6809 22.0195 25.6578 22.0557C25.6538 22.0621 25.6503 22.0675 25.6474 22.072C25.6231 22.1095 25.6148 22.1192 25.6149 22.1192C25.6149 22.1192 25.6149 22.1192 25.6149 22.1192C25.5841 22.1502 25.5538 22.1815 25.5242 22.213C25.5322 21.8391 25.5624 21.4752 25.6333 21.1182C25.7282 20.6727 25.9873 20.3613 26.4262 20.141L26.4262 20.141L26.4286 20.1398Z" fill="white" stroke="white"/>
<path d="M38.0075 25.418C38.355 25.418 38.6989 25.418 39.0444 25.4223C39.0222 25.4381 39 25.4538 38.9778 25.4696C38.4159 25.8684 37.8563 26.2656 37.2951 26.6557L37.295 26.6556L37.2903 26.659C37.2701 26.6734 37.2486 26.6891 37.2263 26.7056V26.7034V26.6985V26.6936V26.6887V26.6838V26.6789V26.674V26.6691V26.6643V26.6594V26.6545V26.6496V26.6447V26.6398V26.6349V26.63V26.6252V26.6203V26.6154V26.6105V26.6056V26.6007V26.5958V26.5909V26.586V26.5812V26.5763V26.5714V26.5665V26.5616V26.5567V26.5518V26.5469V26.5421V26.5372V26.5323V26.5274V26.5225V26.5176V26.5127V26.5078V26.5029V26.4981V26.4932V26.4883V26.4834V26.4785V26.4736V26.4687V26.4638V26.459V26.4541V26.4492V26.4443V26.4394V26.4345V26.4296V26.4247V26.4199V26.415V26.4101V26.4052V26.4003V26.3954V26.3905V26.3856V26.3808V26.3759V26.371V26.3661V26.3612V26.3563V26.3514V26.3465V26.3417V26.3368V26.3319V26.327V26.3221V26.3172V26.3123V26.3074V26.3026V26.2977V26.2928V26.2879V26.283V26.2781V26.2732V26.2683V26.2635V26.2586V26.2537V26.2488V26.2439V26.239V26.2341V26.2292V26.2244V26.2195V26.2146V26.2097V26.2048V26.1999V26.195V26.1901V26.1853V26.1804V26.1755V26.1706V26.1657V26.1608V26.1559V26.151V26.1461V26.1413V26.1364V26.1315V26.1266V26.1217V26.1168V26.1119V26.107V26.1021V26.0973V26.0924V26.0875V26.0826V26.0777V26.0728V26.0679V26.063V26.0581V26.0533V26.0484V26.0435V26.0386V26.0337V26.0288V26.0239V26.019V26.0141V26.0092V26.0044V25.9995V25.9946V25.9897V25.9848V25.9799V25.975V25.9701V25.9652V25.9603V25.9555V25.9506V25.9457V25.9408V25.9359V25.931V25.9261V25.9212V25.9163V25.9114V25.9065V25.9016V25.8968V25.8919V25.887V25.8821V25.8772V25.8723V25.8674V25.8625V25.8576V25.8527V25.8478V25.8429V25.838V25.8332V25.8283V25.8234V25.8185V25.8136V25.8087V25.8038V25.7989V25.794V25.7891V25.7842V25.7793V25.7744V25.7695V25.7646V25.7598V25.7549V25.75V25.7451V25.7402V25.7353V25.7304V25.7255V25.7206V25.7157V25.7108V25.7059V25.701V25.6961V25.6912V25.6863V25.6814V25.6765V25.6716V25.6667V25.6618V25.6569V25.652V25.6471V25.6423V25.6374V25.6325V25.6276V25.6227V25.6178V25.6129V25.608V25.6031V25.5982V25.5933V25.5884V25.5835V25.5786V25.5737V25.5688V25.5639V25.559V25.5541V25.5492V25.5443V25.5394V25.5345V25.5296V25.5247V25.5198V25.5149V25.51V25.5051V25.5002V25.4953V25.4904V25.4855V25.4806V25.4757V25.4708V25.4659V25.461V25.4561V25.4512V25.4463V25.4413V25.4364V25.4315V25.4266V25.4217V25.4168V25.4162C37.488 25.418 37.7479 25.418 38.0059 25.418H38.0075ZM36.9277 25.4139C36.9276 25.4138 36.9301 25.4135 36.9359 25.4134C36.9308 25.4139 36.9279 25.414 36.9277 25.4139Z" fill="#F8E67A" stroke="white"/>
<mask id="path-35-inside-1_253_39448" fill="white">
<path d="M36.7311 27.6441C37.056 27.5136 37.3067 27.2713 37.5852 27.0849C38.43 26.4977 39.2748 25.8919 40.1196 25.2955C40.3424 25.4819 40.6116 25.631 40.7601 25.9106C40.3888 26.2461 39.9618 26.5071 39.5533 26.796C38.5507 27.5229 37.5388 28.2406 36.5362 28.9582C36.4619 29.0141 36.3876 29.0607 36.2948 29.0421C36.5176 28.604 36.6569 28.1287 36.7311 27.6441Z"/>
</mask>
<path d="M36.7311 27.6441C37.056 27.5136 37.3067 27.2713 37.5852 27.0849C38.43 26.4977 39.2748 25.8919 40.1196 25.2955C40.3424 25.4819 40.6116 25.631 40.7601 25.9106C40.3888 26.2461 39.9618 26.5071 39.5533 26.796C38.5507 27.5229 37.5388 28.2406 36.5362 28.9582C36.4619 29.0141 36.3876 29.0607 36.2948 29.0421C36.5176 28.604 36.6569 28.1287 36.7311 27.6441Z" fill="white"/>
<path d="M36.7311 27.6441L36.3585 26.7161L35.8291 26.9287L35.7427 27.4926L36.7311 27.6441ZM37.5852 27.0849L38.1414 27.9159L38.1487 27.9111L38.1559 27.906L37.5852 27.0849ZM40.1196 25.2955L40.7612 24.5285L40.1712 24.0349L39.5428 24.4786L40.1196 25.2955ZM40.7601 25.9106L41.4305 26.6526L42.009 26.1299L41.6432 25.4414L40.7601 25.9106ZM39.5533 26.796L38.9758 25.9795L38.9663 25.9864L39.5533 26.796ZM36.5362 28.9582L35.9541 28.145L35.9443 28.1521L35.9347 28.1593L36.5362 28.9582ZM36.2948 29.0421L35.4035 28.5887L34.8061 29.7631L36.098 30.0225L36.2948 29.0421ZM37.1038 28.5721C37.3791 28.4615 37.6006 28.3125 37.7628 28.1949C37.9675 28.0464 38.0143 28.001 38.1414 27.9159L37.029 26.2538C36.8776 26.3552 36.6598 26.5242 36.5883 26.5761C36.4743 26.6588 36.4081 26.6962 36.3585 26.7161L37.1038 28.5721ZM38.1559 27.906C39.0043 27.3164 39.8601 26.7028 40.6964 26.1124L39.5428 24.4786C38.6895 25.0811 37.8557 25.6791 37.0145 26.2637L38.1559 27.906ZM39.4779 26.0625C39.5558 26.1276 39.6346 26.1869 39.6894 26.2283C39.751 26.275 39.7902 26.3049 39.8245 26.3338C39.8894 26.3883 39.8872 26.399 39.877 26.3797L41.6432 25.4414C41.4845 25.1426 41.2734 24.9389 41.1109 24.8024C41.0315 24.7357 40.9523 24.6759 40.8962 24.6335C40.8332 24.5858 40.7948 24.5566 40.7612 24.5285L39.4779 26.0625ZM40.0897 25.1686C39.7773 25.4509 39.4577 25.6388 38.9758 25.9796L40.1308 27.6124C40.4659 27.3754 41.0003 27.0413 41.4305 26.6526L40.0897 25.1686ZM38.9663 25.9864C37.9669 26.711 36.9616 27.424 35.9541 28.145L37.1182 29.7714C38.116 29.0572 39.1345 28.3349 40.1403 27.6056L38.9663 25.9864ZM35.9347 28.1593C35.9071 28.1801 35.9551 28.1392 36.0404 28.1039C36.1489 28.0591 36.3095 28.0251 36.4917 28.0616L36.098 30.0225C36.6656 30.1365 37.0678 29.8096 37.1377 29.7571L35.9347 28.1593ZM37.1861 29.4954C37.4649 28.9473 37.632 28.367 37.7196 27.7956L35.7427 27.4926C35.6817 27.8904 35.5703 28.2607 35.4035 28.5887L37.1861 29.4954Z" fill="white" mask="url(#path-35-inside-1_253_39448)"/>
</g>
</g>
<defs>
<clipPath id="clip0_253_39448">
<rect width="60" height="60" fill="white" transform="translate(0.0924072)"/>
</clipPath>
<clipPath id="clip1_253_39448">
<rect width="48.8372" height="36.2791" fill="white" transform="translate(5.67444 18.1395)"/>
</clipPath>
</defs>
</svg>
