<svg width="62" height="61" viewBox="0 0 62 61" fill="none" xmlns="http://www.w3.org/2000/svg">
<path d="M28.7328 60.402C27.8735 60.1201 26.9505 60.1671 26.0753 59.9323C25.9958 59.9166 25.9321 59.8853 25.8685 59.854C25.9003 59.5252 26.1549 59.3686 26.4095 59.1964C29.1306 57.2862 31.8358 55.3447 34.5728 53.4658C35.1298 53.09 35.5754 52.5264 36.3233 52.4481C36.3073 52.589 36.2755 52.7143 36.2755 52.8552C36.2755 54.2957 37.3099 55.4699 38.7579 55.6735C40.0151 55.8457 41.3199 54.9063 41.67 53.5911C42.036 52.1663 41.3199 50.9763 39.6809 50.2874C39.6809 49.9586 39.8559 49.7707 40.1105 49.5828C41.3199 48.753 42.5134 47.9075 43.7069 47.062C43.8978 46.9368 43.9933 46.8115 43.9774 46.5923C45.3936 46.514 45.3936 46.514 45.3777 47.8605C45.3618 49.4419 45.4414 51.0233 45.33 52.589C45.1708 54.6714 44.0729 56.1902 42.3861 57.3645C40.5084 58.6797 38.3442 59.306 36.1323 59.7913C35.098 60.0262 34.0318 60.1828 32.9656 60.2767C32.8542 60.2924 32.7269 60.2611 32.6474 60.3863C31.3425 60.402 30.0377 60.402 28.7328 60.402Z" fill="#F2D34D"/>
<path d="M22.5428 29.3537C21.5244 29.5729 20.4741 29.7451 19.5671 30.2618C16.3845 32.0154 14.6022 34.6615 14.4909 38.294C14.4272 40.2668 14.459 42.2396 14.4909 44.2124C14.4909 44.6821 14.3476 44.8074 13.8862 44.7917C12.1039 44.7291 10.3058 44.87 8.53942 44.6978C7.26638 44.5725 6.12065 44.1498 5.14996 43.3043C5.40457 43.0694 5.5637 42.7406 5.80239 42.4901C6.62987 41.5977 7.42551 40.6895 8.20525 39.7658C9.47828 38.294 10.7513 36.8065 12.0243 35.3191C13.0428 34.1448 14.093 32.9705 15.1115 31.7962C16.5754 30.0896 18.0235 28.383 19.5034 26.692C20.7765 25.2359 22.0495 23.7797 23.3225 22.3236C24.882 20.523 26.4415 18.7224 28.0009 16.9219C28.3033 16.5774 28.6852 16.2643 28.7488 15.7632C29.274 15.6536 29.7991 15.7006 30.3242 15.7163C30.7857 15.7319 30.913 15.5753 30.8812 15.1526C30.8493 14.8394 30.8653 14.542 30.8812 14.2288C30.8812 14.0722 30.8812 13.9157 30.6584 13.8844C30.6584 13.7434 30.6743 13.6182 30.7698 13.5086C31.2313 12.9762 31.6927 12.4439 32.1542 11.9115C33.1885 10.7373 34.2229 9.56296 35.2413 8.37301C36.5621 6.85426 37.8829 5.33551 39.1877 3.8011C39.7288 3.15915 40.3494 2.59549 40.779 1.8596C42.0998 2.47024 43.2296 3.30007 44.0412 4.50568C43.6274 4.74054 43.3092 5.10065 43.0068 5.46077C41.5428 7.13609 40.1266 8.84273 38.6626 10.5337C37.1509 12.2717 35.6073 13.994 34.1115 15.7319C32.186 17.9552 30.2765 20.2099 28.351 22.4332C26.6006 24.453 24.8183 26.4571 23.0679 28.4769C22.8292 28.7118 22.4951 28.9466 22.5428 29.3537Z" fill="#5174A1"/>
<path d="M28.7136 15.7475C28.65 16.2486 28.2681 16.5617 27.9657 16.9062C26.4222 18.7224 24.8627 20.523 23.2873 22.3079C22.0143 23.7641 20.7254 25.2045 19.4682 26.6763C18.0042 28.3673 16.5562 30.0896 15.0763 31.7806C14.0578 32.9705 13.0076 34.1291 11.9892 35.3034C10.7161 36.7752 9.44309 38.2627 8.17006 39.7501C7.37441 40.6582 6.59468 41.582 5.76721 42.4744C5.52851 42.7406 5.36938 43.0538 5.11478 43.2886C3.794 42.3648 3.03018 41.034 2.42549 39.6092C2.21862 39.1238 2.02767 38.6384 1.93219 38.1217C2.13906 38.1217 2.23454 37.9808 2.36184 37.8399C3.1734 36.8848 3.98496 35.9454 4.79652 34.9903C6.06955 33.5342 7.3585 32.0937 8.61562 30.6219C9.92048 29.1188 11.2094 27.6001 12.5143 26.097C13.7237 24.7035 14.9331 23.3256 16.1265 21.9322C17.4632 20.3977 18.8158 18.879 20.0888 17.3133C20.4867 16.8122 21.1868 16.4834 21.1868 15.7162C23.717 15.7475 26.2153 15.7475 28.7136 15.7475Z" fill="#5579A8"/>
<path d="M18.9292 57.02C17.7516 56.1588 16.8764 55.0942 16.5581 53.6537C16.6218 53.5284 16.7173 53.4501 16.8446 53.3719C17.9903 52.5733 19.136 51.7748 20.2658 50.9763C24.2123 48.205 28.1587 45.418 32.121 42.6467C34.5238 40.9557 36.9585 39.2803 39.3614 37.5894C43.1168 34.9433 46.8723 32.2972 50.6277 29.6668C53.1579 27.8819 55.688 26.0813 58.25 24.3277C58.791 23.9519 59.2684 23.4509 59.9368 23.2787C60.2073 24.3277 60.4619 25.3767 60.621 26.4414C60.1277 26.3788 59.8095 26.7389 59.4753 26.9738C54.781 30.2618 50.1026 33.5655 45.4083 36.8535C41.9393 39.296 38.4543 41.7229 34.9853 44.1497C34.7784 44.2907 34.5557 44.4472 34.5557 44.7447C33.5054 44.87 32.4551 44.7917 31.4208 44.7917C30.9912 44.7917 30.832 44.9013 30.8479 45.3397C30.8639 46.5766 30.832 46.5766 32.0732 46.5766C32.5029 46.5766 32.9485 46.5923 33.3781 46.5923C33.4258 46.8428 33.2349 46.9367 33.0758 47.0463C32.5984 47.3908 32.121 47.7353 31.6436 48.0797C27.3948 51.0546 23.1143 53.9668 18.9292 57.02Z" fill="#F5DC62"/>
<path d="M45.3466 10.0171C45.3625 12.397 45.3785 14.7769 45.3785 17.1568C45.3625 19.0669 45.4898 20.9771 45.2989 22.8873C44.9488 26.4102 42.0367 29.1972 38.4245 29.3068C35.1623 29.4164 31.8843 29.3224 28.6062 29.3224C28.5744 29.0719 28.6699 28.884 28.8449 28.6961C29.6247 27.8193 30.4044 26.9425 31.1682 26.0501C32.6163 24.3591 34.0644 22.6681 35.5124 20.9771C36.7855 19.521 38.0744 18.0805 39.3474 16.6087C41.082 14.6203 42.7846 12.6005 44.5192 10.612C44.726 10.3615 44.917 10.0171 45.3466 10.0171Z" fill="#496A96"/>
<path d="M21.2222 15.7476C21.2063 16.5148 20.522 16.8436 20.1242 17.3446C18.8512 18.926 17.4826 20.4291 16.1619 21.9635C14.9525 23.357 13.7431 24.7348 12.5496 26.1283C11.2448 27.6314 9.95583 29.1502 8.65097 30.6532C7.37793 32.1094 6.1049 33.5655 4.83186 35.0216C4.00439 35.9611 3.20874 36.9161 2.39718 37.8712C2.28579 38.0121 2.1744 38.1531 1.96754 38.1531C1.41058 36.3838 1.10824 34.5676 0.885456 32.7357C0.774066 31.7649 0.710414 30.7942 0.774066 29.8234C1.1878 29.7138 1.41058 29.3694 1.66519 29.0875C2.95414 27.6157 4.21126 26.1283 5.48429 24.6565C6.50272 23.4822 7.55297 22.3079 8.5714 21.1336C9.86035 19.6462 11.1493 18.1431 12.4223 16.6557C12.6451 16.3895 12.9156 16.1546 12.8997 15.7632C15.6686 15.7476 18.4533 15.7476 21.2222 15.7476Z" fill="#5C82B2"/>
<path d="M59.9373 23.263C59.2531 23.4196 58.7916 23.9363 58.2506 24.3121C55.7045 26.0657 53.1743 27.8663 50.6283 29.6512C46.8728 32.2973 43.1174 34.9433 39.3619 37.5738C36.9591 39.2647 34.5244 40.9401 32.1215 42.631C28.1751 45.4024 24.2287 48.1894 20.2664 50.9607C19.1207 51.7592 17.9909 52.5577 16.8451 53.3562C16.7337 53.4345 16.6223 53.5128 16.5587 53.6381C16.1768 52.8552 16.3677 52.0097 16.32 51.1799C16.3041 50.8981 16.32 50.6006 16.3359 50.3187C16.8929 50.2248 17.2589 49.8021 17.6885 49.5046C21.5554 46.8115 25.4063 44.0872 29.2572 41.3941C32.2966 39.2647 35.3519 37.151 38.3753 35.0216C42.1626 32.3599 45.9499 29.6825 49.7372 27.0208C52.2514 25.2515 54.7656 23.4509 57.3117 21.713C57.8846 21.3215 58.362 20.7266 59.1258 20.6796C59.5077 21.4938 59.81 22.3549 59.9373 23.263Z" fill="#F6DF68"/>
<path d="M45.344 10.017C44.9144 10.0014 44.7234 10.3615 44.5165 10.612C42.782 12.6005 41.0793 14.6046 39.3448 16.6087C38.0718 18.0649 36.7829 19.5053 35.5098 20.9771C34.0458 22.6681 32.6137 24.3591 31.1656 26.0501C30.4018 26.9425 29.622 27.8193 28.8423 28.6961C28.6673 28.884 28.5718 29.0719 28.6036 29.3224C26.5827 29.3381 24.5458 29.3537 22.5249 29.3537C22.4771 28.9466 22.8113 28.7118 23.0341 28.4613C24.7845 26.4415 26.5668 24.4374 28.3172 22.4176C30.2426 20.1943 32.1522 17.9396 34.0777 15.7163C35.5894 13.9783 37.1329 12.256 38.6287 10.5181C40.0927 8.84275 41.509 7.13612 42.973 5.44513C43.2753 5.10068 43.5936 4.7249 44.0073 4.49004C44.8984 5.60171 45.2804 6.8856 45.3599 8.27909C45.3917 8.85841 45.3599 9.43773 45.344 10.017Z" fill="#4F719F"/>
<path d="M59.1425 20.6639C58.3627 20.7266 57.9013 21.3059 57.3284 21.6973C54.7823 23.4353 52.2681 25.2359 49.7538 27.0051C45.9666 29.6669 42.1793 32.3442 38.392 35.006C35.3526 37.1354 32.3133 39.2491 29.2739 41.3785C25.423 44.0872 21.572 46.7959 17.7052 49.4889C17.2755 49.7864 16.9096 50.2091 16.3526 50.3031C16.3526 49.4106 16.3526 48.5025 16.3526 47.61C16.6231 47.5944 16.8141 47.3908 17.0209 47.2499C19.7421 45.3554 22.4632 43.4609 25.1684 41.5663C29.7035 38.3879 34.2228 35.2252 38.7262 32.0154C39.1558 31.7179 39.7605 31.577 39.9356 30.9664C41.4314 30.5437 42.784 29.8704 43.9774 28.8683C44.8049 28.1638 45.4414 27.3026 46.0302 26.4101C46.2848 26.4415 46.4599 26.3319 46.6667 26.1753C49.3242 24.2964 51.9976 22.4489 54.6391 20.57C55.7053 19.8185 56.8351 19.1295 57.8217 18.2684C58.4423 18.973 58.8083 19.8028 59.1425 20.6639Z" fill="#F6E26E"/>
<path d="M16.3367 43.7583C16.3367 41.8012 16.3049 39.8597 16.3367 37.9025C16.4004 34.7084 19.2806 31.6396 22.495 31.2012C23.4976 31.0603 24.516 31.1073 25.5185 31.1073C28.4147 31.1073 31.3108 31.1229 34.1911 31.1386C34.1433 31.4204 33.9205 31.577 33.7137 31.7179C32.9339 32.2816 32.1383 32.8296 31.3586 33.3776C29.258 34.8494 27.1575 36.3368 25.0411 37.8086C22.3041 39.7188 19.583 41.6446 16.846 43.5548C16.7027 43.68 16.5436 43.7896 16.3367 43.7583Z" fill="#F8E67A"/>
<path d="M40.7634 1.8439C40.3337 2.57979 39.7131 3.14345 39.1721 3.7854C37.8672 5.31981 36.5465 6.83856 35.2257 8.35731C34.2072 9.53161 33.157 10.7059 32.1386 11.8958C31.6771 12.4282 31.2156 12.9605 30.7541 13.4929C30.6587 13.6025 30.6428 13.7434 30.6428 13.8687C28.1762 13.8687 25.7257 13.8687 23.2592 13.8687C23.6092 13.1641 24.2139 12.6474 24.7231 12.0524C25.9803 10.5806 27.2692 9.14017 28.5422 7.68405C30.0858 5.91478 31.6294 4.14552 33.1252 2.34494C33.6026 1.78128 34.2232 1.31156 34.4459 0.575668C36.26 0.732241 38.09 0.857499 39.8404 1.45247C40.1587 1.56207 40.4451 1.71865 40.7634 1.8439Z" fill="#5579A8"/>
<path d="M34.4439 0.575677C34.2052 1.31157 33.5846 1.78128 33.1231 2.34495C31.6114 4.14553 30.0678 5.91479 28.5402 7.68406C27.2672 9.14019 25.9782 10.5807 24.7211 12.0524C24.2278 12.6474 23.6072 13.1484 23.2571 13.8687C21.0611 13.8687 18.881 13.8843 16.6851 13.8843C16.4145 13.8843 16.2872 13.7904 16.3031 13.5242C16.3191 12.9762 16.3191 12.4439 16.335 11.8959C16.5578 11.8959 16.6851 11.7393 16.8124 11.5984C17.4489 10.8781 18.0536 10.1109 18.7378 9.42202C19.1197 9.03059 19.2629 8.32601 20.0109 8.37298C20.2018 9.01493 20.6155 9.46899 21.1884 9.8291C22.1432 10.4241 23.3367 10.3771 24.2596 9.7195C25.1826 9.0619 25.5804 7.85629 25.2621 6.74463C24.9598 5.67994 24.0209 4.92839 22.8911 4.83445C23.2412 3.95764 24.0209 3.40964 24.562 2.67375C25.0871 1.98483 25.7873 1.40551 26.2169 0.653963C28.9698 0.340819 31.7069 0.325161 34.4439 0.575677Z" fill="#5C82B2"/>
<path d="M42.8962 44.7291C41.0662 44.823 39.2522 44.823 37.4222 44.7291C37.4063 44.4942 37.5495 44.369 37.7086 44.2594C38.7589 43.5235 39.7932 42.7876 40.8435 42.0673C43.5964 40.1415 46.3493 38.2313 49.0863 36.3055C52.7145 33.7534 56.3426 31.2012 59.9708 28.6648C60.2413 28.4769 60.4959 28.242 60.846 28.195C61.0051 29.1971 60.9892 30.1992 61.0051 31.2169C61.0051 31.5144 60.9733 31.7962 60.8619 32.0624C60.5437 32.0311 60.3527 32.2503 60.1299 32.4068C57.6793 34.1135 55.2446 35.8514 52.81 37.5581C49.7547 39.7031 46.6835 41.8168 43.6282 43.9775C43.3577 44.1498 42.9121 44.2594 42.8962 44.7291Z" fill="#F4D857"/>
<path d="M16.3353 43.7584C16.5581 43.7897 16.7172 43.6801 16.8763 43.5548C19.6134 41.6447 22.3345 39.7188 25.0715 37.8086C27.172 36.3368 29.2725 34.8494 31.3889 33.3776C32.1687 32.8296 32.9643 32.2816 33.744 31.718C33.9509 31.577 34.1737 31.4205 34.2214 31.1386C35.3194 31.123 36.4333 31.1073 37.5313 31.1073C38.3429 31.1073 39.1385 31.076 39.9342 30.9664C39.7591 31.5614 39.1544 31.7023 38.7248 32.0154C34.2214 35.2095 29.6862 38.3879 25.167 41.5664C22.4459 43.4765 19.7407 45.3554 17.0196 47.2499C16.8127 47.3909 16.6376 47.5944 16.3512 47.6101C16.3353 46.3418 16.3353 45.0423 16.3353 43.7584Z" fill="#F7E474"/>
<path d="M36.3112 52.4481C35.5633 52.5263 35.1178 53.09 34.5608 53.4658C31.8238 55.3603 29.1186 57.2861 26.3975 59.1963C26.1588 59.3686 25.9042 59.5251 25.8564 59.8539C24.5834 59.6347 23.3581 59.2903 22.1646 58.8049C22.1646 58.5544 22.2601 58.3821 22.4988 58.2412C23.2945 57.7089 24.0742 57.1296 24.8539 56.5816C29.3732 53.4188 33.8925 50.256 38.4117 47.1089C38.6027 46.9837 38.7618 46.8584 38.7459 46.6079C40.4963 46.6079 42.2468 46.6079 43.9813 46.6079C43.9972 46.8271 43.8858 46.9524 43.7107 47.0776C42.5014 47.9075 41.3238 48.7686 40.1144 49.5984C39.8439 49.7863 39.6689 49.9742 39.6848 50.303C37.9821 50.0212 36.8045 50.7727 36.3112 52.4481Z" fill="#F3D551"/>
<path d="M12.8802 15.7476C12.8961 16.139 12.6256 16.3895 12.4028 16.64C11.1139 18.1275 9.84083 19.6306 8.55188 21.118C7.53345 22.2923 6.4832 23.4666 5.46477 24.6409C4.19174 26.1127 2.91871 27.6001 1.64567 29.0719C1.39106 29.3537 1.1842 29.7138 0.754547 29.8078C0.818199 26.7076 1.21602 23.6388 2.5368 20.8049C4.04852 17.5795 6.76963 15.9198 10.3819 15.7476C11.2253 15.7006 12.0527 15.7476 12.8802 15.7476Z" fill="#6289BA"/>
<path d="M38.725 46.5923C38.7568 46.8428 38.5818 46.9524 38.3908 47.0934C33.8716 50.2405 29.3523 53.4032 24.833 56.566C24.0374 57.114 23.2736 57.6933 22.4779 58.2256C22.2551 58.3822 22.1437 58.5388 22.1437 58.7893C20.9662 58.3822 19.8364 57.8499 18.9134 57.0044C23.0985 53.9512 27.3791 51.039 31.6278 48.0641C32.1052 47.7196 32.5826 47.3752 33.06 47.0307C33.2191 46.9211 33.4101 46.8272 33.3624 46.5767C35.1605 46.5923 36.9428 46.5923 38.725 46.5923Z" fill="#F4D857"/>
<path d="M42.8936 44.7291C42.8936 44.2594 43.3391 44.1498 43.6256 43.9463C46.6808 41.7856 49.7361 39.6719 52.8073 37.5268C55.2579 35.8202 57.6926 34.0822 60.1273 32.3756C60.35 32.219 60.541 31.9998 60.8592 32.0311C60.9866 33.268 60.7319 34.4737 60.3978 35.6636C60.0795 35.6166 59.8726 35.8358 59.6658 35.9924C55.974 38.5602 52.2822 41.128 48.6222 43.7114C48.2244 43.9933 47.6833 44.1655 47.5401 44.7135C45.9966 44.8231 44.453 44.8231 42.8936 44.7291Z" fill="#F3D551"/>
<path d="M60.8643 28.1794C60.5142 28.2264 60.2596 28.4612 59.9891 28.6491C56.3609 31.2013 52.7328 33.7534 49.1046 36.2899C46.3517 38.2157 43.5988 40.1415 40.8617 42.0517C39.8115 42.7876 38.7772 43.5079 37.7269 44.2437C37.5678 44.3533 37.4086 44.4786 37.4405 44.7135C36.4857 44.8074 35.5309 44.7917 34.5761 44.7135C34.5761 44.416 34.7989 44.2594 35.0058 44.1185C38.4748 41.6916 41.9597 39.2647 45.4288 36.8222C50.1231 33.5342 54.8015 30.2149 59.4958 26.9425C59.83 26.7076 60.1482 26.3475 60.6415 26.4102C60.7052 27.0051 60.7847 27.6001 60.8643 28.1794Z" fill="#F4DA5D"/>
<path d="M47.543 44.7291C47.6862 44.1811 48.2272 44.0089 48.625 43.727C52.3009 41.1279 55.9768 38.5758 59.6686 36.008C59.8914 35.8514 60.0824 35.6322 60.4006 35.6792C59.971 37.5424 59.3504 39.343 58.4592 41.034C57.5999 42.6623 56.4701 43.9775 54.5765 44.5099C54.0354 44.6665 53.4944 44.7134 52.9375 44.7447C51.1393 44.8074 49.3411 44.8387 47.543 44.7291Z" fill="#F2D34D"/>
<path d="M26.2352 0.669701C25.7896 1.43691 25.1053 2.00057 24.5802 2.68948C24.0233 3.40972 23.2594 3.97338 22.9094 4.85018C21.0157 4.59967 19.504 6.46288 20.045 8.38872C19.2971 8.34175 19.1539 9.04632 18.772 9.43775C18.0877 10.1267 17.4831 10.8782 16.8465 11.6141C16.7192 11.755 16.5919 11.9116 16.3691 11.9116C16.2737 9.82918 16.1941 7.74677 16.6238 5.68002C16.9579 4.08298 17.9604 2.97131 19.4403 2.25108C21.2385 1.37428 23.1958 1.04547 25.1531 0.779302C25.4713 0.716673 25.8533 0.607072 26.2352 0.669701Z" fill="#6289BA"/>
<path d="M47.1929 22.7933C47.1929 20.6326 47.2088 18.4719 47.177 16.3112C47.177 15.8885 47.2724 15.7319 47.7339 15.7319C49.6116 15.7632 51.4894 15.7162 53.383 15.7632C54.3855 15.7945 55.3244 16.0763 56.136 16.687C53.9081 18.237 51.6803 19.8028 49.4366 21.3215C48.7046 21.8382 48.0363 22.4488 47.1929 22.7933Z" fill="#F8E67A"/>
<path d="M47.1944 22.7933C48.0537 22.4645 48.7062 21.8382 49.4382 21.3372C51.6819 19.8028 53.9097 18.2527 56.1375 16.7027C56.7422 17.2037 57.4424 17.5795 57.8243 18.2997C56.8377 19.1608 55.7079 19.8498 54.6417 20.6013C51.9842 22.4802 49.3268 24.3277 46.6693 26.2066C46.4625 26.3475 46.2874 26.4571 46.0328 26.4415C46.6375 25.2828 47.0035 24.0616 47.1944 22.7933Z" fill="#F7E474"/>
<path d="M36.3085 52.4481C36.8178 50.7728 37.9794 50.0212 39.6662 50.2718C41.3211 50.9763 42.0372 52.1663 41.6553 53.5754C41.3052 54.8907 40.0003 55.8301 38.7432 55.6579C37.2792 55.4543 36.2449 54.2957 36.2608 52.8396C36.2608 52.7143 36.2926 52.589 36.3085 52.4481Z" fill="#FEFEFE"/>
<path d="M20.0326 8.37296C19.5074 6.44712 21.0192 4.59957 22.8969 4.83443C24.0108 4.92837 24.9656 5.67992 25.2679 6.74461C25.5862 7.85627 25.1883 9.04622 24.2654 9.71948C23.3584 10.3771 22.149 10.4241 21.1942 9.82908C20.6373 9.48463 20.2235 9.01491 20.0326 8.37296Z" fill="#FEFEFE"/>
</svg>
