<svg width="142" height="50" viewBox="0 0 142 50" fill="none" xmlns="http://www.w3.org/2000/svg">
<path d="M0.142688 41.1708C0.142688 38.4133 0.107016 35.6204 0.17836 32.8628C0.17836 32.2618 0.285375 31.5901 0.606423 31.0952C1.60524 29.6104 1.53389 28.0548 1.35553 26.3579C0.998814 22.5751 1.60524 18.9337 3.74555 15.7166C5.38646 13.2419 7.84782 11.9692 10.8443 11.9692C12.0928 11.9692 13.27 11.8278 14.3758 11.1914C18.1927 8.92884 23.9715 11.6864 24.0072 17.06C24.0072 17.5196 23.9715 18.0146 23.9715 18.4742C23.9359 19.1105 24.2212 19.4287 24.899 19.358C27.5744 19.0398 30.2498 18.757 32.6041 17.2722C32.9965 17.0247 33.4959 16.8833 33.7456 16.459C35.2082 14.055 37.5269 13.2066 40.2023 12.9237C44.5186 12.4995 48.7992 12.252 53.0441 13.348C53.3652 13.4187 53.6862 13.4894 53.9716 13.6308C54.9704 14.1257 55.5412 13.9843 56.0406 12.853C56.9324 10.6611 58.7873 9.5652 61.0703 9.17632C62.9253 8.85814 64.8159 8.61067 66.7065 8.3632C69.9526 7.93896 72.4853 9.07026 74.0549 12.0046C74.5543 12.9591 75.0894 13.0651 75.9812 12.5349C76.659 12.146 77.4081 12.0046 78.1572 12.0046C84.3284 11.7924 90.464 11.6157 96.6352 11.4036C99.6317 11.2975 101.665 12.6763 102.985 15.2924C103.912 17.1661 104.982 17.4136 106.73 16.2823C108.407 15.1863 110.298 14.4439 111.76 12.9591C112.759 11.9339 114.293 11.7571 115.755 11.7217C117.147 11.7217 118.502 11.7217 119.893 11.7217C120.928 11.7217 121.998 11.545 122.676 10.8733C124.031 9.52985 125.672 9.35308 127.384 9.31773C129.667 9.24702 131.95 9.21167 134.198 9.21167C137.052 9.24702 139.513 10.944 140.476 13.4894C141.439 16.1055 140.726 18.863 138.478 20.7368C137.622 21.4438 137.301 22.2216 137.337 23.2822C137.408 26.9942 137.408 30.7063 137.373 34.4184C137.373 35.5143 137.765 36.2567 138.585 36.9638C140.726 38.7668 141.546 41.0647 140.726 43.7869C139.905 46.4737 138.05 47.9939 135.232 48.4535C132.343 48.9131 129.453 49.408 126.564 49.8676C124.78 50.1505 123.282 49.5848 122.069 48.3475C121.07 47.3222 120 46.8273 118.538 46.9333C116.79 47.0747 115.042 46.9687 113.33 46.5091C112.795 46.3677 112.331 46.5091 111.796 46.6859C106.98 48.3828 102.343 48.3121 97.9908 45.2717C97.5984 44.9889 97.1346 44.6707 96.7066 45.0596C94.7446 46.6505 92.3903 46.5445 90.0716 46.6152C87.9313 46.6859 85.791 46.7919 83.6863 46.7212C80.9753 46.6505 78.8349 45.4839 77.6934 42.9384C77.2297 41.9132 76.7303 41.7364 75.7315 42.1253C73.6625 42.9384 71.6649 42.691 69.7386 41.5597C67.955 40.5344 65.9574 41.0294 65.0299 42.8677C62.3902 47.9939 56.1119 49.8676 51.0108 46.3677C50.012 45.696 49.0132 45.802 48.0144 46.0142C45.4104 46.5444 42.8063 46.9333 40.1309 47.0747C38.8467 47.1455 37.7052 47.7111 36.528 48.2767C31.641 50.6454 26.6469 50.61 22.2593 47.4636C20.2617 46.0142 18.7991 45.4132 16.7301 46.6859C16.6945 46.7212 16.6588 46.7212 16.5874 46.7212C13.8764 46.9687 11.415 47.7465 8.95365 49.1252C5.42213 51.105 0.677767 48.1 0.17836 44.0697C0.0713438 43.1506 0.0713438 42.196 0 41.2415C0.0356719 41.2061 0.107016 41.2061 0.142688 41.1708ZM129.097 22.2923C129.132 22.2923 129.168 22.2923 129.168 22.2923C129.168 23.565 129.168 24.8377 129.168 26.1104C129.168 26.8175 128.883 27.3124 128.169 27.4185C126.065 27.772 123.96 28.0902 121.855 28.4437C121.035 28.5851 120.714 28.2316 120.714 27.4538C120.714 25.2973 120.714 23.1408 120.678 20.9842C120.678 20.0297 121.142 19.6055 122.105 19.6762C122.426 19.7115 122.783 19.6762 123.104 19.6762C123.889 19.6408 124.317 19.1459 124.388 18.4035C124.424 17.6964 124.103 16.9893 123.318 16.954C120.535 16.8126 117.717 16.7419 114.935 17.0247C114.293 17.0954 114.007 17.6257 113.972 18.2267C113.936 18.7923 114.15 19.2519 114.685 19.4994C115.006 19.6408 115.434 19.6408 115.791 19.7115C117.753 19.9236 117.753 19.9236 117.753 21.9388C117.753 26.3932 117.753 30.8831 117.717 35.3375C117.717 36.3274 118.003 37.388 117.468 38.2365C116.968 39.0496 115.898 38.6961 115.113 38.9082C114.364 39.1203 113.9 39.6153 113.972 40.4637C114.043 41.3122 114.578 41.7011 115.399 41.7011C116.54 41.7011 117.682 41.7011 118.823 41.7364C120.321 41.7364 121.855 41.8071 123.354 41.7718C124.138 41.7718 124.531 41.2769 124.531 40.4637C124.531 39.686 124.174 39.2264 123.389 39.085C122.961 39.0143 122.533 38.9436 122.105 38.9789C121.071 39.0496 120.642 38.6607 120.678 37.6001C120.749 36.0446 120.714 34.4891 120.678 32.9335C120.642 32.0497 120.963 31.5548 121.927 31.4134C123.889 31.1305 125.851 30.7417 127.812 30.3881C128.883 30.2114 129.275 30.6356 129.275 31.6608C129.275 34.383 129.275 37.1052 129.311 39.8274C129.311 40.7466 128.954 41.2061 128.027 41.3476C127.242 41.4536 126.457 41.6304 125.744 42.09C125.066 42.5496 124.638 43.1152 124.959 43.9637C125.351 44.9182 126.1 44.8475 126.849 44.6C128.062 44.2112 129.311 43.9283 130.595 43.8223C131.915 43.6809 133.235 43.5041 134.519 43.2566C135.304 43.1152 135.767 42.5496 135.625 41.7011C135.482 40.9233 134.947 40.4991 134.126 40.4637C132.093 40.3223 132.129 40.3223 132.093 38.3426C131.986 31.8729 132.2 25.368 131.843 18.8984C131.772 17.4136 132.486 17.0247 133.841 17.0954C134.804 17.1661 135.553 16.7419 135.482 15.6459C135.446 14.656 134.769 14.2671 133.841 14.2671C131.38 14.3379 128.918 14.4086 126.457 14.5146C125.672 14.55 125.244 14.9742 125.208 15.752C125.173 16.5297 125.494 17.06 126.243 17.2015C126.742 17.3075 127.277 17.3075 127.812 17.3075C128.669 17.2722 128.99 17.661 128.99 18.4742C129.097 19.7822 129.097 21.0196 129.097 22.2923ZM45.0893 34.4184C45.0893 33.4638 45.0893 32.5447 45.0893 31.5901C45.0893 30.9891 45.3033 30.4942 45.8027 30.1407C48.4425 28.2316 50.8325 29.1508 51.3676 32.3325C51.4032 32.474 51.3676 32.6154 51.4032 32.7568C51.867 35.0547 51.5816 37.4587 52.295 39.7213C53.0085 41.9486 54.7921 43.1506 56.861 42.9031C58.93 42.6556 60.7136 40.8526 60.9276 38.8021C60.999 38.0244 60.6779 37.5294 60.0002 37.2466C59.3581 36.9638 58.8943 37.3173 58.5376 37.7769C58.2166 38.2365 57.9312 38.7314 57.6815 39.2264C57.3961 39.792 56.9681 40.0749 56.326 40.0041C55.6125 39.9334 55.1845 39.5092 55.0774 38.8728C54.9348 38.2011 54.8634 37.4941 54.7564 36.787C54.3997 34.0648 54.6494 31.2366 53.2225 28.6912C52.8301 27.9841 53.1512 27.3478 53.6506 26.7821C54.471 25.8629 55.2915 24.9438 55.5769 23.7064C56.2189 20.9842 54.7564 19.0045 51.4389 18.262C47.836 17.4489 44.1975 17.661 40.559 18.156C39.4531 18.2974 38.0263 18.1913 38.276 19.9236C38.49 21.5499 39.8455 21.1256 40.88 21.0196C41.8075 20.9135 42.0572 21.267 42.0572 22.0802C42.0215 23.3882 42.0572 24.6963 42.0572 26.0397C42.0572 26.8882 42.0929 27.6306 40.9157 27.7366C40.3093 27.8074 40.0239 28.373 40.0239 29.0094C40.0239 29.575 40.2379 30.176 40.773 30.2467C42.2712 30.4588 42.1999 31.4841 42.1999 32.5447C42.1999 33.4992 42.1642 34.4184 42.1999 35.3729C42.3069 37.2113 42.3069 38.8728 39.8812 39.2971C39.0608 39.4385 38.9537 40.287 39.1321 41.0294C39.3105 41.7364 39.8455 42.0546 40.5233 41.9486C42.9133 41.595 45.3033 41.2415 47.6934 40.8526C48.4425 40.7466 48.8705 40.2163 48.7992 39.4385C48.7278 38.6961 48.2998 38.2365 47.5863 38.0951C47.301 38.0597 47.0156 38.0597 46.7302 38.1304C45.3747 38.59 45.018 37.9537 45.0893 36.7517C45.125 35.9385 45.0893 35.1961 45.0893 34.4184ZM16.0167 19.2519C15.1606 18.6509 14.6255 18.262 14.0904 17.9085C11.0583 16.0348 8.02618 17.2014 7.09871 20.5953C6.63498 22.2216 6.42095 23.9185 6.45662 25.6155C6.52796 29.0447 7.99051 30.7417 11.3793 31.5194C12.9846 31.9083 14.6612 32.0144 16.088 32.9689C17.8716 34.1709 18.0857 36.1153 16.5874 37.6355C15.1962 39.085 12.8419 39.4738 11.094 38.484C9.5244 37.6001 8.45425 36.3628 8.31156 34.4891C8.27589 34.2062 8.16887 33.9234 8.16887 33.6406C8.1332 32.6861 7.70513 32.0851 6.70632 32.0851C5.60049 32.0851 5.31512 32.9335 5.27944 33.8174C5.24377 36.5042 5.2081 39.191 5.2081 41.8425C5.2081 42.9384 4.92273 44.3879 6.63498 44.3526C8.31156 44.3172 8.06185 42.9031 8.02618 41.8071C7.99051 40.7112 8.34723 40.4637 9.34604 40.9233C10.7729 41.595 12.2711 41.9839 13.8764 41.8778C17.0869 41.7011 19.9763 39.1203 20.5114 35.9032C20.9394 33.3578 19.2272 30.9538 16.1594 29.7164C14.6968 29.1154 13.1629 28.9033 11.629 28.5851C10.5946 28.373 9.66709 27.8781 9.5244 26.7468C9.31037 24.8377 9.31037 22.8933 9.98814 21.0549C10.4519 19.8529 11.201 19.5701 12.3068 20.2065C14.3401 21.4085 15.3033 23.2468 15.5886 25.5448C15.6956 26.4639 16.0167 27.3478 17.2652 27.2064C18.4424 27.1003 18.5494 26.2165 18.5851 25.368C18.7278 22.7872 18.7991 20.2065 18.9061 17.6257C18.9061 17.3782 18.9061 17.1661 18.8704 16.9186C18.7278 16.0702 18.2997 15.5752 17.3366 15.6106C16.4448 15.6459 16.0524 16.1762 16.0167 16.9893C15.981 17.6257 16.0167 18.2974 16.0167 19.2519ZM64.2451 36.08C64.6732 36.08 65.1013 36.08 65.5293 36.08C66.2784 36.08 66.9919 36.0093 67.2416 35.1608C67.4556 34.4184 67.3129 33.782 66.5281 33.3931C65.8504 33.0396 66.1357 32.4386 66.1357 31.873C66.1714 31.2719 66.5281 31.0598 67.0275 30.9538C68.7041 30.6356 70.3807 30.3528 72.0573 30.1053C72.3783 30.0699 72.735 29.9639 72.9491 30.3528C73.4485 31.2719 73.9479 32.1911 74.0549 33.2164C74.1263 34.0648 73.1631 34.0648 72.735 34.5244C72.521 34.7719 72.2713 34.984 72.0929 35.2668C71.6649 35.8325 71.7006 36.4335 72.2 36.9284C72.6994 37.4587 73.3771 37.7062 73.9836 37.2113C75.9099 35.585 78.1929 34.7365 80.4402 33.7467C81.1893 33.3931 81.653 32.8275 81.2606 31.9437C80.8682 31.0245 80.2262 30.8477 79.2987 31.1659C76.8373 32.0144 76.8373 31.979 75.8028 29.575C75.6958 29.3275 75.5888 29.0447 75.4818 28.7972C73.5912 24.3074 71.7362 19.7822 69.8456 15.2924C69.4532 14.3732 69.0252 13.3833 67.7766 13.5247C65.7077 13.7722 63.6387 14.055 61.6054 14.4086C60.8563 14.55 60.3569 15.1156 60.4996 15.9641C60.6423 16.7419 61.106 17.2368 61.9978 17.1661C62.9966 17.0954 63.9598 16.9893 64.9586 16.8479C65.9574 16.7065 66.2071 17.06 66.0287 18.0146C65.0656 22.6105 64.1738 27.2064 63.282 31.8022C63.068 32.8628 62.5329 33.2517 61.5341 33.181C60.6423 33.1103 59.7505 33.0042 58.823 33.0396C58.0025 33.075 57.3248 33.4285 57.2891 34.383C57.2534 35.3022 57.7885 35.7264 58.6803 35.8325C60.5709 35.9739 62.4259 36.08 64.2451 36.08ZM89.4652 29.2922C89.3938 29.2922 89.3582 29.2922 89.2868 29.2922C89.2868 26.7114 89.2868 24.1306 89.2868 21.5499C89.2868 19.9236 89.4652 19.7115 91.1418 19.6408C91.4271 19.6408 91.7125 19.6408 91.9979 19.6055C95.351 19.5347 95.3867 19.5347 95.4224 22.964C95.4224 23.9539 95.5651 24.8731 96.7422 24.9084C97.9194 24.9438 98.2048 24.0246 98.2405 23.07C98.3118 21.6206 98.3118 20.1711 98.3118 18.6863C98.3118 16.8833 97.8838 16.4237 96.0288 16.5297C90.3926 16.8479 84.7565 17.2014 79.1203 17.0954C79.0133 17.0954 78.942 17.0954 78.8349 17.0954C77.6935 17.1661 77.0514 17.7317 77.194 18.8984C77.5151 21.161 77.9075 23.4236 78.2642 25.6862C78.4069 26.6407 79.0133 27.1003 79.9764 26.9235C80.9753 26.7114 81.1536 25.969 81.0466 25.0852C80.8326 23.7771 80.6542 22.469 80.4045 21.1963C80.2262 20.2418 80.5472 19.8883 81.5103 19.8883C82.5448 19.9236 83.615 19.959 84.6495 19.8529C85.9693 19.7115 86.3974 20.2418 86.3974 21.5145C86.3617 26.2165 86.3974 30.9184 86.3974 35.6204C86.3974 38.2011 86.3974 38.2011 83.7933 38.5547C83.6507 38.59 83.508 38.59 83.3653 38.6254C82.6162 38.8021 82.0454 39.191 82.0454 40.0395C82.0454 40.9587 82.6518 41.4536 83.508 41.4536C86.5044 41.4536 89.4652 41.3476 92.4616 41.2415C93.2107 41.2061 93.6388 40.6405 93.6745 39.8981C93.6745 39.1557 93.2821 38.6254 92.533 38.5193C92.0336 38.4133 91.4985 38.4133 90.9634 38.484C89.8219 38.6254 89.3582 38.2011 89.3938 36.9991C89.5008 34.4891 89.4652 31.9083 89.4652 29.2922ZM36.207 26.4993C36.1713 26.4993 36.1357 26.4993 36.1 26.4993C36.1 25.368 36.1713 24.2367 36.0643 23.1408C36.0286 22.363 35.4222 21.9741 34.6731 22.0095C33.9597 22.0448 33.4603 22.3983 33.3532 23.2115C33.2462 23.9892 33.71 25.1205 33.1035 25.4387C32.4258 25.7922 31.6053 24.8731 30.8205 24.6256C30.7849 24.6256 30.7492 24.5902 30.6779 24.5549C27.0036 23.1408 23.9002 24.7316 22.9014 28.5144C22.5447 29.8578 22.509 31.2012 22.402 32.5447C22.2236 34.9487 22.0809 37.3527 22.6873 39.686C23.6505 43.4334 27.4317 45.3424 31.8907 44.3879C35.4936 43.6455 38.2046 39.792 37.5625 36.2567C37.3842 35.3022 37.2772 34.1355 35.8503 34.277C34.4234 34.383 34.5304 35.5143 34.5304 36.5042C34.6018 41.0294 32.1761 42.3728 27.8241 41.3476C26.4329 41.0294 25.6481 40.0041 25.5054 38.6254C25.1487 35.5497 25.0417 32.4386 25.7551 29.3629C26.2902 27.0649 27.396 26.4286 29.679 27.2064C31.32 27.772 32.4971 28.9033 33.5316 30.2114C33.9597 30.777 34.5661 31.0598 35.2795 30.8124C36.0286 30.5649 36.2427 29.9285 36.2427 29.2568C36.2427 28.373 36.207 27.4538 36.207 26.4993ZM112.295 24.5195C112.26 23.4236 112.331 22.363 112.26 21.267C112.224 20.4539 111.653 19.959 110.868 19.959C110.048 19.959 109.548 20.4539 109.477 21.267C109.441 21.8327 109.441 22.3983 109.441 22.964C109.441 23.6003 109.192 23.7064 108.657 23.4236C108.407 23.2822 108.157 23.1408 107.908 22.9993C103.377 20.7014 100.024 22.2923 98.9182 27.2064C98.1691 30.4588 98.2761 33.7467 98.7399 36.9991C99.0253 38.8728 99.7744 40.5344 101.594 41.4536C103.912 42.6203 106.409 42.9384 108.906 42.196C112.866 40.994 113.972 37.0698 113.437 33.5345C113.33 32.9335 112.83 32.6154 112.188 32.6154C111.475 32.6154 110.94 32.8982 110.797 33.5699C110.654 34.2062 110.69 34.878 110.654 35.5143C110.512 37.1052 110.191 38.6607 108.478 39.2971C107.123 39.792 105.696 39.8274 104.269 39.4738C102.842 39.1203 101.915 38.2718 101.701 36.8224C101.273 33.5699 101.13 30.2821 102.022 27.0649C102.557 25.1205 103.627 24.5902 105.553 25.1912C107.194 25.7215 108.478 26.7114 109.477 28.0902C109.977 28.7619 110.547 29.2215 111.403 28.9033C112.26 28.6205 112.402 27.8781 112.402 27.0649C112.295 26.2165 112.295 25.368 112.295 24.5195Z" fill="#EBB82E"/>
<path d="M137.375 0.974426C137.41 1.04548 137.446 1.08101 137.482 1.15206C137.41 1.11653 137.339 1.08101 137.303 1.04548C137.267 1.04548 137.375 0.974426 137.375 0.974426Z" fill="#62ABF2"/>
<path d="M129.096 22.2923C129.096 21.0196 129.06 19.7469 129.096 18.4742C129.096 17.661 128.775 17.2722 127.919 17.3075C127.419 17.3429 126.884 17.3075 126.349 17.2014C125.6 17.06 125.243 16.5297 125.315 15.752C125.35 14.9742 125.778 14.5146 126.563 14.5146C129.024 14.4086 131.486 14.3379 133.947 14.2671C134.875 14.2318 135.552 14.6207 135.588 15.6459C135.624 16.7419 134.91 17.1661 133.947 17.0954C132.592 17.0247 131.878 17.4136 131.95 18.8984C132.306 25.368 132.092 31.8729 132.199 38.3425C132.235 40.3223 132.199 40.3223 134.233 40.4637C135.053 40.4991 135.588 40.9233 135.731 41.7011C135.873 42.5496 135.41 43.0798 134.625 43.2566C133.341 43.5041 132.021 43.6808 130.701 43.8223C129.417 43.9283 128.168 44.2111 126.955 44.6C126.206 44.8475 125.422 44.9182 125.065 43.9637C124.708 43.0798 125.136 42.5496 125.85 42.09C126.527 41.6304 127.312 41.4536 128.133 41.3475C129.06 41.2061 129.417 40.7466 129.417 39.8274C129.381 37.1052 129.381 34.383 129.381 31.6608C129.381 30.6356 128.953 30.176 127.919 30.3881C125.957 30.7416 123.995 31.0952 122.033 31.4134C121.105 31.5548 120.784 32.0497 120.784 32.9335C120.82 34.4891 120.856 36.0446 120.784 37.6001C120.749 38.6607 121.177 39.0496 122.211 38.9789C122.639 38.9435 123.067 39.0496 123.495 39.085C124.28 39.191 124.637 39.686 124.637 40.4637C124.637 41.2415 124.244 41.7364 123.46 41.7718C121.961 41.8071 120.427 41.7364 118.929 41.7364C117.788 41.7364 116.646 41.7364 115.505 41.7011C114.684 41.7011 114.149 41.3122 114.078 40.4637C114.007 39.6153 114.47 39.1203 115.219 38.9082C116.004 38.6961 117.074 39.0496 117.574 38.2365C118.109 37.388 117.823 36.2921 117.823 35.3375C117.859 30.8831 117.859 26.3932 117.859 21.9388C117.859 19.9236 117.859 19.9236 115.897 19.7115C115.54 19.6762 115.112 19.6762 114.791 19.4994C114.256 19.2519 114.042 18.7923 114.078 18.2267C114.114 17.5903 114.399 17.0954 115.041 17.0247C117.823 16.7419 120.606 16.8126 123.424 16.954C124.209 16.9893 124.53 17.6964 124.494 18.4035C124.458 19.1459 124.03 19.6055 123.21 19.6762C122.889 19.7115 122.532 19.7115 122.211 19.6762C121.248 19.6055 120.784 20.0297 120.784 20.9842C120.784 23.1408 120.82 25.2973 120.82 27.4538C120.82 28.2316 121.141 28.5851 121.961 28.4437C124.066 28.0902 126.171 27.772 128.275 27.4185C128.989 27.3124 129.31 26.8175 129.274 26.1104C129.274 24.8377 129.274 23.565 129.274 22.2923C129.167 22.2923 129.131 22.2923 129.096 22.2923Z" fill="#FBFAF5"/>
<path d="M45.0881 34.4183C45.0881 35.1607 45.1238 35.9385 45.0881 36.6809C45.0168 37.9183 45.3735 38.5193 46.7291 38.0597C46.9788 37.989 47.2998 37.9536 47.5852 38.0243C48.3343 38.1657 48.7624 38.6253 48.798 39.3677C48.8694 40.1455 48.4413 40.6404 47.6922 40.7818C45.3022 41.1707 42.9122 41.5243 40.5221 41.8778C39.8444 41.9839 39.3093 41.6657 39.1309 40.9586C38.9526 40.2162 39.0596 39.3677 39.88 39.2263C42.3057 38.8021 42.3057 37.1405 42.1987 35.3021C42.1274 34.3476 42.163 33.4284 42.1987 32.4739C42.1987 31.4133 42.2701 30.3881 40.7718 30.1759C40.2368 30.1052 40.0227 29.5042 40.0227 28.9386C40.0227 28.3022 40.3081 27.7012 40.9145 27.6659C42.0917 27.5598 42.0917 26.8174 42.056 25.9689C42.056 24.6609 42.0204 23.3528 42.056 22.0094C42.056 21.1609 41.8063 20.8428 40.8789 20.9488C39.8444 21.0549 38.5245 21.4791 38.2748 19.8529C38.0251 18.1206 39.452 18.2266 40.5578 18.0852C44.1963 17.6256 47.8349 17.3782 51.4377 18.1913C54.7552 18.9337 56.2178 20.9135 55.5757 23.6356C55.2903 24.873 54.4699 25.7922 53.6494 26.7114C53.1143 27.277 52.829 27.9134 53.2213 28.6204C54.6482 31.1658 54.3985 33.9941 54.7552 36.7163C54.8266 37.4233 54.9336 38.095 55.0763 38.8021C55.219 39.4738 55.6114 39.8627 56.3248 39.9334C56.9669 40.0041 57.395 39.7213 57.6803 39.1556C57.93 38.6607 58.2154 38.1657 58.5365 37.7061C58.8932 37.2112 59.3569 36.893 59.999 37.1758C60.6768 37.4587 61.0335 37.989 60.9265 38.7314C60.6768 40.7819 58.8932 42.6202 56.8599 42.8323C54.7909 43.0798 53.0073 41.8424 52.2939 39.6506C51.5804 37.388 51.8301 34.984 51.4021 32.686C51.3664 32.5446 51.3664 32.4032 51.3664 32.2618C50.8313 29.08 48.4413 28.1608 45.8016 30.0699C45.3022 30.4234 45.0881 30.9537 45.0881 31.5194C45.0881 32.5446 45.0881 33.4991 45.0881 34.4183ZM46.301 20.2418C45.6232 20.2064 44.9811 20.6306 45.0168 21.868C45.0525 23.1407 45.0525 24.4134 45.0168 25.6508C44.9811 26.5699 45.3378 26.8528 46.2296 26.5699C47.4425 26.2164 48.691 25.8629 49.9039 25.474C51.1524 25.0851 51.9372 24.2013 52.5436 23.07C53.0787 22.0448 52.7576 21.4084 51.7231 21.0195C50.0822 20.4185 48.4056 20.4892 46.301 20.2418Z" fill="#FCFBF7"/>
<path d="M16.0131 19.2518C16.0131 18.2973 15.9774 17.6256 16.0131 16.9892C16.0487 16.1761 16.4411 15.6812 17.3329 15.6105C18.2604 15.5751 18.7241 16.0701 18.8668 16.9185C18.9025 17.166 18.9025 17.3781 18.9025 17.6256C18.7955 20.2064 18.7241 22.7871 18.5815 25.3679C18.5458 26.2164 18.4388 27.1002 17.2616 27.2063C16.0131 27.3123 15.7277 26.4639 15.585 25.5447C15.2996 23.3174 14.3365 21.4791 12.3032 20.2771C11.1974 19.6054 10.4483 19.8882 9.98452 21.1255C9.30675 22.9639 9.30675 24.9083 9.52078 26.8174C9.66347 27.9487 10.5553 28.4436 11.6254 28.6557C13.1593 28.9386 14.6932 29.186 16.1558 29.787C19.2592 31.0244 20.9358 33.4284 20.5077 35.9738C19.9727 39.1556 17.0832 41.7717 13.8728 41.9131C12.2675 41.9838 10.7693 41.6303 9.34242 40.9586C8.34361 40.4636 7.98689 40.7465 8.02256 41.8424C8.05824 42.9384 8.30794 44.3525 6.63136 44.3878C4.91911 44.4232 5.20448 42.9737 5.20448 41.8778C5.20448 39.1909 5.24015 36.5041 5.27583 33.8526C5.27583 32.9335 5.59687 32.1203 6.7027 32.1203C7.66584 32.1203 8.12958 32.7213 8.16525 33.6759C8.16525 33.9587 8.27227 34.2415 8.30794 34.5243C8.45063 36.398 9.52078 37.6354 11.0903 38.5192C12.8383 39.5091 15.2283 39.1202 16.5838 37.6708C18.0464 36.1152 17.868 34.1708 16.0844 33.0042C14.6575 32.0496 12.981 31.9436 11.3757 31.5547C7.98689 30.7769 6.52434 29.08 6.453 25.6507C6.41733 23.9538 6.63136 22.2568 7.09509 20.6306C8.05824 17.2367 11.0903 16.1054 14.0868 17.9438C14.6219 18.262 15.1569 18.6508 16.0131 19.2518Z" fill="#FCFBF8"/>
<path d="M64.2462 36.0799C62.3913 36.1153 60.572 35.9739 58.7171 35.7617C57.8253 35.6557 57.2902 35.2668 57.3259 34.3123C57.3616 33.3577 58.0393 33.0042 58.8598 32.9689C59.7516 32.9335 60.6434 33.0396 61.5709 33.1103C62.5697 33.181 63.1404 32.7921 63.3188 31.7315C64.2106 27.1356 65.1024 22.5397 66.0655 17.9438C66.2796 16.9539 65.9942 16.6358 64.9954 16.7772C63.9965 16.9186 63.0334 17.0246 62.0346 17.0954C61.1785 17.1661 60.6791 16.7065 60.5364 15.8934C60.3937 15.0449 60.8931 14.4792 61.6422 14.3378C63.6755 13.9843 65.7445 13.6661 67.8134 13.454C69.062 13.3126 69.49 14.3025 69.8824 15.2216C71.773 19.7115 73.6636 24.2367 75.5186 28.7265C75.6256 28.974 75.7326 29.2568 75.8396 29.5043C76.8384 31.9083 76.8741 31.9436 79.3355 31.0951C80.2629 30.777 80.905 30.9537 81.2974 31.8729C81.6898 32.7921 81.2261 33.3224 80.477 33.6759C78.2296 34.6658 75.911 35.5143 74.0204 37.1405C73.4139 37.6355 72.7362 37.4233 72.2368 36.8577C71.773 36.3274 71.7374 35.7617 72.1297 35.1961C72.3081 34.9486 72.5578 34.7012 72.7718 34.4537C73.1999 33.9941 74.163 33.9941 74.0917 33.1456C73.9847 32.1204 73.4496 31.2012 72.9859 30.282C72.7718 29.8931 72.4151 29.9992 72.0941 30.0346C70.4175 30.3174 68.7409 30.6002 67.0643 30.883C66.5649 30.9891 66.1725 31.2012 66.1725 31.8022C66.1369 32.3325 65.8872 32.9689 66.5649 33.3224C67.3497 33.7113 67.4924 34.3476 67.2784 35.09C67.0287 35.9385 66.3152 36.0092 65.5661 36.0092C65.1024 36.0446 64.6743 36.0799 64.2462 36.0799ZM68.8479 20.7721C68.7409 20.7721 68.5982 20.8074 68.4912 20.8074C67.9918 23.1407 67.5281 25.474 67.0287 27.8073C66.886 28.5497 67.2427 28.7265 67.9205 28.6204C68.8836 28.4437 69.8824 28.2669 70.8456 28.0901C71.4163 27.9841 71.7017 27.7013 71.452 27.1003C70.5959 24.9791 69.7397 22.8932 68.8479 20.7721Z" fill="#FCFBF8"/>
<path d="M89.4641 29.2922C89.4641 31.8729 89.4997 34.4537 89.4284 37.0345C89.3927 38.2365 89.8564 38.6607 90.9979 38.5193C91.4974 38.4486 92.0324 38.4486 92.5675 38.5547C93.3166 38.6961 93.7447 39.191 93.709 39.9334C93.709 40.6758 93.2809 41.2415 92.4962 41.2768C89.4997 41.3829 86.539 41.4536 83.5425 41.489C82.7221 41.489 82.1156 40.994 82.08 40.0748C82.08 39.2264 82.615 38.8375 83.3998 38.6607C83.5425 38.6254 83.6852 38.59 83.8279 38.59C86.4319 38.2365 86.4319 38.2365 86.4319 35.6557C86.4319 30.9538 86.3963 26.2518 86.4319 21.5499C86.4319 20.2772 86.0039 19.7469 84.684 19.8883C83.6495 19.9943 82.615 19.959 81.5449 19.9236C80.5817 19.8883 80.2607 20.2772 80.4391 21.2317C80.6888 22.5044 80.8671 23.8125 81.0811 25.1205C81.2238 26.0044 81.0455 26.7468 80.011 26.9589C79.0478 27.171 78.4414 26.6761 78.2987 25.7215C77.9064 23.4589 77.5496 21.1963 77.2286 18.9337C77.0502 17.7317 77.728 17.2014 78.8695 17.1307C78.9765 17.1307 79.0479 17.1307 79.1549 17.1307C84.791 17.2368 90.4272 16.8833 96.0634 16.5651C97.9183 16.459 98.3464 16.9186 98.3464 18.7216C98.3464 20.1711 98.3107 21.6206 98.275 23.1054C98.2393 24.0599 97.9183 24.9791 96.7768 24.9438C95.5639 24.9084 95.4569 23.9892 95.4569 22.9993C95.4213 19.6055 95.3856 19.6055 92.0324 19.6408C91.7471 19.6408 91.4617 19.6408 91.1763 19.6762C89.4997 19.7469 89.3214 19.959 89.3214 21.5852C89.3214 24.166 89.3214 26.7468 89.3214 29.3275C89.357 29.2922 89.3927 29.2922 89.4641 29.2922Z" fill="#FBFAF6"/>
<path d="M36.2057 26.4993C36.2057 27.4539 36.2057 28.3731 36.2057 29.3276C36.2057 30.0346 35.9917 30.6356 35.2426 30.8831C34.5291 31.1306 33.9227 30.8478 33.4946 30.2821C32.4601 28.9741 31.283 27.8428 29.6421 27.2771C27.3591 26.4993 26.2532 27.1357 25.7181 29.4336C25.0404 32.5094 25.1117 35.5851 25.4684 38.6961C25.6111 40.0749 26.3959 41.1001 27.7871 41.4183C32.1391 42.4436 34.5648 41.0648 34.4934 36.575C34.4934 35.5851 34.3864 34.4538 35.8133 34.3477C37.2402 34.2417 37.3472 35.4083 37.5256 36.3275C38.1677 39.8628 35.4923 43.7163 31.8537 44.4587C27.3947 45.3779 23.6492 43.5041 22.6504 39.7567C22.0439 37.4234 22.1866 34.9841 22.365 32.6154C22.472 31.272 22.5077 29.8932 22.8644 28.5852C23.8632 24.8024 26.9667 23.2115 30.6409 24.6256C30.6765 24.6256 30.7122 24.661 30.7836 24.6963C31.5683 24.9438 32.3888 25.863 33.0666 25.5095C33.7087 25.1913 33.2449 24.06 33.3163 23.2822C33.4233 22.4691 33.9227 22.1156 34.6361 22.0802C35.3852 22.0449 35.956 22.4691 36.0273 23.2115C36.0987 24.3428 36.063 25.4741 36.063 26.5701C36.1343 26.4993 36.17 26.4993 36.2057 26.4993Z" fill="#FCFBF7"/>
<path d="M112.292 24.5195C112.292 25.368 112.292 26.2165 112.292 27.0649C112.292 27.878 112.185 28.6205 111.293 28.9033C110.437 29.1861 109.866 28.7619 109.367 28.0902C108.368 26.7114 107.12 25.7215 105.443 25.1912C103.517 24.5902 102.447 25.1205 101.912 27.0649C101.02 30.282 101.162 33.5699 101.59 36.8224C101.769 38.2718 102.696 39.1203 104.159 39.4738C105.586 39.8274 107.013 39.792 108.368 39.2971C110.116 38.6607 110.437 37.1052 110.544 35.5143C110.615 34.8779 110.58 34.2062 110.687 33.5699C110.829 32.8982 111.365 32.6153 112.078 32.6153C112.72 32.6153 113.255 32.9335 113.327 33.5345C113.862 37.0698 112.791 40.994 108.796 42.196C106.335 42.9384 103.838 42.6556 101.483 41.4536C99.6642 40.5344 98.9151 38.8728 98.6297 36.9991C98.166 33.7466 98.059 30.4588 98.8081 27.2063C99.9139 22.2923 103.267 20.7014 107.797 22.9993C108.047 23.1407 108.297 23.2822 108.546 23.4236C109.082 23.7064 109.331 23.6003 109.331 22.964C109.331 22.3983 109.296 21.8327 109.367 21.267C109.438 20.4539 109.938 19.959 110.758 19.959C111.579 19.959 112.114 20.4539 112.149 21.267C112.292 22.363 112.256 23.4236 112.292 24.5195Z" fill="#FCFBF8"/>
<path d="M46.2993 20.2418C48.4039 20.4893 50.0805 20.4539 51.65 21.0549C52.7202 21.4791 53.0413 22.0801 52.4705 23.1054C51.8641 24.2367 51.0793 25.1205 49.8308 25.5094C48.6179 25.8983 47.4051 26.2165 46.1566 26.6053C45.3004 26.8528 44.9437 26.57 44.9437 25.6862C44.9794 24.4134 44.9794 23.1407 44.9437 21.9034C44.9794 20.6307 45.6215 20.1711 46.2993 20.2418Z" fill="#EBB92F"/>
<path d="M68.8497 20.772C69.7059 22.8932 70.5977 24.979 71.4538 27.1002C71.7035 27.6658 71.4181 27.984 70.8474 28.09C69.8842 28.2668 68.8854 28.4436 67.9223 28.6203C67.2802 28.7264 66.8878 28.585 67.0305 27.8072C67.5299 25.4739 67.9936 23.1406 68.493 20.8073C68.6 20.8073 68.7427 20.772 68.8497 20.772Z" fill="#ECBA33"/>
</svg>
