<svg width="71" height="100" viewBox="0 0 71 100" fill="none" xmlns="http://www.w3.org/2000/svg">
<path d="M20.2822 54.1446C17.4603 55.0265 14.6384 55.8201 11.8166 56.7019C7.93651 64.1975 3.96825 71.6931 0 79.1887L8.37742 73.9859C11.2875 68.5185 14.1093 63.0511 17.0194 57.672C19.8413 56.7901 22.6631 55.9965 25.485 55.1146C23.7213 58.5538 21.9577 62.0811 20.4586 65.0794C19.7531 66.4021 19.1358 67.6367 18.5185 68.8713L19.4004 67.1076C32.6279 41.2698 35.8907 31.2169 51.1464 17.1076C55.2028 13.3157 60.1411 9.25926 66.3139 4.58554C66.2257 3.08642 66.1376 1.5873 66.0494 0C29.7178 28.2187 32.1869 32.4515 20.2822 54.1446Z" fill="#F08926"/>
<path d="M18.254 69.0476C17.5485 70.4586 16.843 71.7813 16.1376 73.1041C16.9312 71.6931 17.6367 70.3704 18.254 69.0476Z" fill="#F08926"/>
<path d="M30.5996 80.6878L30.776 80.776L29.8942 82.1869L30.3351 82.4515L30.4233 82.3633L34.3033 84.3915C34.6561 84.5679 34.9206 84.7443 35.1852 85.0088L37.3016 86.1552C37.4779 90.4762 37.6543 94.8854 37.8307 99.2063C39.418 96.2081 41.0053 93.2099 42.5926 90.2116C42.5926 89.1534 42.5044 88.0952 42.5044 87.037L30.5996 80.6878Z" fill="#F08926"/>
<path d="M25.7496 91.2698L29.6297 83.8624C29.4533 83.7742 29.3651 83.6861 29.1887 83.5979L28.2187 85.097L27.5133 84.6561L26.3669 86.8607L26.896 87.2134C26.0141 88.6243 25.1323 90.0353 24.3387 91.4462L22.2223 90.1234C23.1041 88.7125 23.9859 87.3016 24.8678 85.8025L25.3969 86.1552L26.5432 83.9506L26.1023 83.7742L26.9842 82.3633L26.0141 81.8342L22.0459 89.2416C21.6931 89.9471 21.164 90.4762 20.4586 90.9171C20.2822 91.7108 20.194 92.5044 20.2822 93.2099C20.4586 92.8571 20.6349 92.5926 20.8113 92.2399L22.9277 93.5626C22.4868 94.2681 22.0459 95.0617 21.605 95.7672C21.7813 95.9436 22.0459 96.1199 22.3104 96.2081L26.1905 98.2363L26.9842 96.7372C25.3087 95.5908 24.6914 93.2099 25.7496 91.2698Z" fill="#F08926"/>
<path d="M17.0194 80.1587C17.4603 79.2769 18.2539 78.5714 19.1358 78.2187L17.813 77.5132C15.6966 76.3668 13.0511 77.2487 11.9047 79.3651L7.23102 88.2716L11.1111 90.2998C12.3457 90.9171 13.6684 90.9171 14.903 90.388L12.3457 89.0652L17.0194 80.1587Z" fill="#F08926"/>
<path d="M26.8077 80.4233L26.7196 80.5115L27.7778 81.0406L28.6596 79.6296L16.2257 73.104C15.6966 73.4568 15.1675 73.8095 14.6384 74.1622L22.0458 78.0423C22.3986 78.1305 22.6631 78.2187 23.0159 78.3951L26.8077 80.4233Z" fill="#F08926"/>
<path d="M31.9224 76.2787L29.806 80.3351L30.5996 80.776L42.328 87.037C43.0335 85.6261 43.739 84.3033 44.4444 82.9806L31.9224 76.2787Z" fill="white"/>
<path d="M19.3122 67.0194L20.3704 64.9912L32.9806 71.6931L33.5979 70.4586L20.9877 63.7566L23.1041 59.7002L35.7143 66.4021L38.1834 61.7284L39.2416 62.2575L36.8607 67.0194L49.4709 73.7213L47.3545 77.7778L34.7443 71.0758L34.127 72.3104L46.7372 78.9242C47.5309 77.5132 48.3245 76.1023 49.03 74.7795C60.4939 53.8801 66.1376 45.3263 69.0476 26.5432L51.1464 17.1076C35.8907 31.2169 32.6279 41.2698 19.3122 67.0194ZM57.8483 44.4445C55.6438 48.5891 50.4409 50.2646 46.2963 48.06C42.0635 45.8554 40.4762 40.6526 42.6808 36.4198C44.8854 32.187 50.0882 30.5997 54.321 32.8042C58.4656 35.097 60.0529 40.2116 57.8483 44.4445Z" fill="#E9F3FF"/>
<path d="M30.8642 75.7496L18.254 69.0476C17.5485 70.3704 16.843 71.6931 16.1376 73.1041L28.5714 79.6296L28.7478 79.7178L30.8642 75.7496Z" fill="white"/>
<path d="M51.1464 17.1076L69.0476 26.5432V26.455C69.0476 26.1905 69.1358 25.8377 69.1358 25.5732C69.1358 25.3968 69.1358 25.3086 69.224 25.1323C69.3121 24.7795 69.3121 24.4268 69.4003 24.1622C69.4003 24.0741 69.4003 23.8977 69.4885 23.8095C69.5767 23.4568 69.5767 23.104 69.6649 22.7513C69.6649 22.6631 69.6649 22.5749 69.6649 22.4868C69.7531 22.134 69.7531 21.6931 69.8412 21.3404C69.8412 21.2522 69.8412 21.164 69.8412 21.0758C69.9294 20.6349 69.9294 20.2822 70.0176 19.8413C70.0176 19.7531 70.0176 19.6649 70.0176 19.5767C70.1058 19.1358 70.1058 18.6949 70.1058 18.254C70.1058 18.1658 70.1058 18.0776 70.1058 18.0776C70.1058 17.6367 70.194 17.1958 70.194 16.7548C70.194 16.6667 70.194 16.5785 70.194 16.5785C70.194 16.1376 70.2822 15.6966 70.2822 15.2557C70.2822 15.1675 70.2822 15.0794 70.2822 15.0794C70.2822 14.6384 70.3703 14.1975 70.3703 13.6684C70.3703 13.5802 70.3703 13.4921 70.3703 13.4039C70.3703 12.963 70.4585 12.4339 70.4585 11.9929C70.4585 11.9048 70.4585 11.8166 70.4585 11.7284C70.4585 11.1993 70.5467 10.7584 70.5467 10.2293C70.5467 10.1411 70.5467 10.0529 70.5467 9.96472C70.5467 9.43562 70.6349 8.9947 70.6349 8.4656C70.6349 8.37742 70.6349 8.28923 70.6349 8.11286C70.6349 7.58376 70.7231 7.14285 70.7231 6.61375C70.7231 6.52556 70.7231 6.43738 70.7231 6.26101C70.7231 5.73191 70.8113 5.20281 70.8113 4.67371C70.8113 4.58553 70.8113 4.40916 70.8113 4.32098C70.8113 3.79188 70.8994 3.26278 70.8994 2.73368C70.8994 2.11639 70.9876 1.41092 70.9876 0.79364C69.224 2.11639 67.6367 3.35096 66.0494 4.49734C60.0529 9.25925 55.2028 13.3157 51.1464 17.1076Z" fill="#000B36"/>
<path d="M42.6808 36.4197C40.4762 40.5644 42.0635 45.7672 46.2963 48.06C50.4409 50.2645 55.6437 48.6772 57.8483 44.4444C60.0529 40.2116 58.4656 35.097 54.321 32.8042C50.0882 30.5996 44.8854 32.1869 42.6808 36.4197ZM53.351 34.5679C56.6138 36.2434 57.8483 40.2998 56.0846 43.4744C54.4092 46.7372 50.3527 47.9718 47.1781 46.2081C43.9153 44.5326 42.6808 40.4762 44.4444 37.3016C46.1199 34.127 50.0882 32.8924 53.351 34.5679Z" fill="#000B36"/>
<path d="M44.3563 37.3016C42.6808 40.5644 43.9154 44.5326 47.09 46.2081C50.3528 47.8836 54.321 46.649 55.9965 43.4744C57.672 40.2116 56.4374 36.2434 53.2628 34.5679C50.0882 32.8924 46.1199 34.127 44.3563 37.3016Z" fill="#4885CA"/>
<path d="M44.6208 82.9806C43.8271 84.3033 43.1217 85.6261 42.4162 86.9489C42.4162 88.0071 42.5044 89.0653 42.5044 90.1235C42.5926 93.3862 42.7689 96.649 42.8571 100C46.8254 92.5044 50.7936 85.0088 54.7619 77.6014C53.88 74.7795 52.9982 71.9577 52.1164 69.1358C51.0582 71.0758 50 72.9277 49.03 74.7795C48.2363 76.1905 47.4427 77.6014 46.7372 78.9242L44.6208 82.9806Z" fill="#000B36"/>
<path d="M18.254 69.0476L18.4303 68.7831C19.0476 67.5485 19.6649 66.3139 20.3704 64.9912C21.8695 61.9929 23.6331 58.4656 25.3968 55.0265C22.5749 55.9083 19.7531 56.7019 16.9312 57.5838C14.0211 63.0512 11.1993 68.5185 8.28923 73.8977C7.23103 75.9259 6.17283 77.9541 5.11462 79.9824C8.28923 78.0423 11.3756 76.0141 14.5503 74.0741C15.0794 73.7213 15.6084 73.3686 16.1376 73.0159C16.843 71.7813 17.5485 70.4586 18.254 69.0476Z" fill="#000B36"/>
<path d="M44.5327 82.8924V82.9806H44.6208L46.7372 78.9242L34.0388 72.2222L31.9224 76.2786L44.5327 82.8924Z" fill="#4885CA"/>
<path d="M18.254 69.0476L30.8642 75.7496L32.9806 71.6931L20.3704 64.9912L19.3122 67.0194L18.4303 68.7831L18.254 69.0476Z" fill="#4885CA"/>
<path d="M36.845 66.9319L34.7013 70.9855L47.3299 77.6641L49.4736 73.6104L36.845 66.9319Z" fill="#4885CA"/>
<path d="M23.2505 59.7299L21.1068 63.7835L33.7353 70.4621L35.8791 66.4085L23.2505 59.7299Z" fill="#4885CA"/>
<path d="M28.7478 79.7178L26.455 84.0388L25.3086 86.2434L23.4568 89.7707L24.515 90.2998L26.3668 86.8607L27.5132 84.6561L29.806 80.3351L31.9224 76.2787L34.0388 72.2222L34.7443 70.9877L36.8607 67.0194L39.3298 62.3457L38.2716 61.8166L35.8025 66.4903L33.6861 70.4586L32.9806 71.6931L30.8642 75.7496L28.7478 79.7178Z" fill="#000B36"/>
<path d="M30.4233 82.3633L30.3351 82.4515L29.6297 83.8624L25.7496 91.2698C24.6914 93.2099 25.3087 95.5908 27.0723 96.9136C27.2487 97.0018 27.3369 97.0899 27.5133 97.1781L31.3933 99.2063L36.067 90.2998C37.0371 88.448 36.5961 86.3316 35.097 85.0088C34.8325 84.7443 34.5679 84.5679 34.2152 84.3915L30.4233 82.3633Z" fill="#F4572D"/>
<path d="M22.0459 89.3298L26.0141 81.9224L26.7196 80.5996L26.8078 80.5115L22.9277 78.3951C22.575 78.2187 22.3104 78.1305 21.9577 78.0423C20.9877 77.7778 20.0177 77.866 19.1358 78.3069C18.254 78.6596 17.4603 79.3651 17.0194 80.2469L12.3457 89.0652L14.8148 90.388L16.1376 91.0935C17.5485 91.8871 19.224 91.7107 20.4586 90.9171C21.164 90.5644 21.6931 90.0353 22.0459 89.3298Z" fill="#F4572D"/>
</svg>
