<svg width="120" height="120" viewBox="0 0 120 120" fill="none" xmlns="http://www.w3.org/2000/svg">
<rect x="0.5" y="0.5" width="119" height="119" rx="59.5" fill="white"/>
<path d="M82.5904 88.218C83.5282 88.218 84.4544 88.2298 85.3923 88.218C85.8846 88.2063 86.3536 88.2649 86.5294 88.8042C86.717 89.3669 86.4239 89.7303 85.9667 90C68.5107 90 51.0429 90 33.5869 90C33.2703 89.7421 32.9303 89.4842 33.0124 89.0035C33.0945 88.4994 33.411 88.218 33.9386 88.218C34.9116 88.2063 35.8846 88.2063 36.8577 88.1946C39.4602 88.2063 42.0745 88.218 44.6771 88.218C45.8964 88.218 47.1273 88.1946 48.3465 88.1829C52.1332 88.2532 55.9198 88.2298 59.7064 88.1946C63.54 88.1946 67.3735 88.1946 71.1953 88.2063C74.9937 88.218 78.792 88.218 82.5904 88.218Z" fill="#2F5066"/>
<path d="M74.5955 30C75.3458 30.6096 75.0058 31.4537 75.0879 32.204C74.783 32.3447 74.2203 31.9343 74.2321 32.6964C74.2555 34.7597 74.2555 36.8347 74.2321 38.898C74.2321 39.2849 74.361 39.4256 74.7362 39.3904C74.8534 39.3787 74.9706 39.4138 75.0879 39.4256C75.0879 40.5393 75.0879 41.6413 75.0761 42.755C74.6658 43.1419 74.0796 43.2239 73.6576 43.5991C73.5521 43.6342 73.4349 43.6811 73.3294 43.7163C73.3294 39.4842 73.3294 35.2403 73.3059 31.0082C73.3059 30.5393 73.5638 30.2579 73.8921 30C74.1265 30 74.361 30 74.5955 30Z" fill="#A9C7D2"/>
<path d="M59.7065 88.2064C55.9199 88.2415 52.1333 88.265 48.3466 88.1946C48.3466 87.4443 48.3701 86.6823 48.3466 85.932C48.3349 85.381 48.4521 84.8183 48.2646 84.279C48.2646 82.8371 48.2411 81.3951 48.2646 79.9531C48.288 78.5698 49.1907 77.7023 50.5623 77.7023C51.6526 77.7023 52.7429 77.7023 53.8332 77.7023C54.6186 77.7023 55.3924 77.7023 56.1778 77.7023C56.5295 77.7023 56.8812 77.714 57.2212 77.6905C58.4404 77.6202 59.2611 78.1477 59.6831 79.2966C59.6948 82.2626 59.6948 85.2404 59.7065 88.2064Z" fill="#89B3C8"/>
<path d="M56.1777 77.7023C55.3922 77.7023 54.6185 77.7023 53.833 77.7023C54.8295 75.5687 55.7439 73.3881 56.8694 71.3248C57.8307 69.5546 58.1941 67.714 58.2175 65.7328C58.2293 64.2557 58.3699 62.7785 58.4637 61.3014C58.4989 61.2545 58.5223 61.2193 58.5575 61.1724H58.5458C58.8037 61.1841 59.0264 61.0435 59.2609 60.9614C61.0194 60.258 62.7779 59.5546 64.5247 58.8395C64.5481 58.8746 64.5599 58.9098 64.5599 58.945C64.2785 59.3436 64.3254 59.836 64.2433 60.2814C63.9737 61.7117 63.7275 63.1419 63.4813 64.5722C63.3289 65.4163 63.1882 66.2603 63.0124 67.0927C62.8248 68.0188 62.7662 68.9684 62.1214 69.7656C61.1132 71.02 60.1519 72.333 59.2023 73.6343C58.1824 74.9825 57.1038 76.2838 56.1777 77.7023Z" fill="#507693"/>
<path d="M48.2645 84.2791C48.452 84.8184 48.3231 85.3811 48.3465 85.9321C48.37 86.6824 48.3465 87.4444 48.3465 88.1947C47.1273 88.2064 45.8964 88.2299 44.6771 88.2299C42.0745 88.2299 39.4602 88.2182 36.8577 88.2064C36.8694 87.2334 36.8694 86.2604 36.8694 85.2756C36.8694 83.8102 37.7252 82.9661 39.1906 82.9661C41.2187 82.9661 43.2469 83.013 45.275 82.9427C46.5294 82.9075 47.5962 83.1068 48.2645 84.2791Z" fill="#A7C6D2"/>
<path d="M64.5133 58.8276C62.7548 59.531 60.9963 60.2461 59.2495 60.9495C59.0151 61.0433 58.8041 61.1722 58.5344 61.1605C58.6282 60.3985 58.8392 59.6599 59.1558 58.9565C59.2847 58.9448 59.4488 58.9565 59.5544 58.8979C60.926 58.1711 62.1335 57.2566 63.0479 55.9788C64.0444 54.5837 64.4899 52.9776 64.994 51.3833C65.205 50.7033 65.6036 50.2344 66.1898 49.8709C67.9014 48.8393 69.6012 47.7842 71.3246 46.7643C72.5555 46.0374 73.3879 45.0175 73.6692 43.599C74.0913 43.2238 74.6774 43.1418 75.0878 42.7549C75.4512 43.4935 75.3457 44.2555 75.205 45.0175C75.1581 45.2402 75.1112 45.4747 75.076 45.6974C74.6423 46.5298 74.0678 47.2449 73.3293 47.8194C71.266 49.0738 69.1909 50.3164 67.1276 51.5591C66.9049 51.6998 66.8228 51.8991 66.7525 52.1218C65.9905 54.361 65.2519 56.5884 64.5133 58.8276Z" fill="#60C9EC"/>
<path d="M73.6573 43.5992C73.3759 45.0295 72.5436 46.0377 71.3126 46.7645C69.5893 47.7845 67.8894 48.8278 66.1778 49.8712C65.5916 50.2229 65.193 50.7036 64.982 51.3835C64.4779 52.9779 64.0324 54.584 63.0359 55.9791C62.1215 57.2686 60.914 58.1713 59.5424 58.8982C59.4252 58.9568 59.2728 58.9334 59.1438 58.9568C59.39 57.5852 59.8824 56.2722 60.2341 54.924C60.5154 53.8572 60.832 52.8021 61.1485 51.7352C61.4533 50.6801 62.016 49.8361 63.0125 49.332C63.6456 49.0271 64.2903 48.7575 64.8531 48.3237C66.4709 47.4562 68.0887 46.6121 69.7065 45.7329C70.9257 45.0764 72.1215 44.3964 73.329 43.7165C73.4345 43.6813 73.5518 43.6344 73.6573 43.5992Z" fill="#83D8FE"/>
<path d="M64.8533 48.3117C64.2906 48.7455 63.6458 49.0151 63.0127 49.3199C61.9459 49.3785 61.1722 48.9799 60.7384 47.9717C60.4922 47.4207 60.1991 46.8932 59.9295 46.3539C59.402 45.2754 59.7771 44.3023 60.797 43.6927C62.5555 42.6376 63.681 43.1183 64.4078 44.8533C64.5837 45.2636 64.8181 45.6505 65.0292 46.0491C65.4278 46.8346 65.2402 47.5849 64.8533 48.3117Z" fill="#FDCBAA"/>
<path d="M58.5345 61.1605C58.4993 61.2074 58.4758 61.2426 58.4407 61.2895C58.4407 61.2191 58.4524 61.1722 58.5345 61.1605Z" fill="#60C9EC"/>
<path d="M82.5902 88.218C78.7918 88.218 74.9935 88.218 71.1951 88.2062C71.1951 83.4583 71.1951 78.7103 71.1951 73.9741C71.1951 73.81 71.2537 73.6224 71.0896 73.4817C71.0896 70.9847 71.0896 68.4993 71.1013 66.0022C71.1013 64.3844 71.7344 63.6459 73.317 63.3997C73.9032 63.3997 74.4894 63.3879 75.0755 63.3879C76.7168 63.3997 78.3581 63.4114 79.9993 63.4231C81.7227 63.4348 82.5667 64.2555 82.5667 65.9554C82.5667 73.1183 82.5667 80.293 82.5667 87.4559C82.555 87.7138 82.5785 87.9718 82.5902 88.218Z" fill="#618AA9"/>
<path d="M75.0877 39.4257C74.9704 39.414 74.8532 39.3788 74.736 39.3905C74.3608 39.4374 74.2319 39.2967 74.2319 38.8981C74.2436 36.8348 74.2553 34.7598 74.2319 32.6965C74.2201 31.9227 74.7946 32.3448 75.0877 32.2041C78.4171 32.2158 81.7582 32.2158 85.0877 32.2275C85.2401 32.2275 85.4042 32.2275 85.5566 32.2275C85.7676 32.2158 85.9435 32.2862 86.0373 32.4855C86.1428 32.7082 86.0021 32.8606 85.8497 32.9896C84.9704 33.7633 84.1029 34.5488 83.2237 35.3225C82.7547 35.7445 82.743 35.9087 83.2354 36.3424C84.0443 37.0576 84.8532 37.7492 85.6504 38.4644C85.8028 38.605 86.0255 38.7223 86.0607 38.945C86.1193 39.3788 85.8028 39.4022 85.498 39.4022C83.7043 39.4022 81.9106 39.4022 80.117 39.4022C78.4405 39.4022 76.7641 39.414 75.0877 39.4257Z" fill="#FCB659"/>
<path d="M75.0761 63.3881C74.49 63.3881 73.9038 63.3999 73.3176 63.3999C73.3176 58.2064 73.3176 53.013 73.3059 47.8078C74.0445 47.2334 74.6189 46.5183 75.0527 45.6859C75.0644 47.8313 75.0761 49.9649 75.0761 52.1103C75.0879 55.8735 75.0761 59.6367 75.0761 63.3881Z" fill="#A7C6D2"/>
<path d="M71.0897 73.4819C71.2538 73.6226 71.1952 73.8102 71.1952 73.9743C71.1952 78.7223 71.1952 83.4702 71.1952 88.2064C67.3616 88.2064 63.5281 88.2064 59.7063 88.1947C59.7063 85.2287 59.6946 82.251 59.6946 79.285C59.7063 77.5968 59.7063 75.8969 59.718 74.2088C59.7297 72.9192 60.5738 72.0517 61.8751 72.04C63.0592 72.0165 64.2432 72.04 65.4273 72.0282C65.6383 72.0282 65.8611 72.0986 66.0486 71.9462C66.7872 71.9462 67.514 71.9462 68.2526 71.9344C68.3464 71.9696 68.4285 72.0282 68.5222 72.0165C69.718 71.8993 70.5504 72.4268 71.0897 73.4819Z" fill="#6C96B2"/>
<path d="M64.548 58.9332C65.9197 60.4924 67.2678 62.0868 68.5808 63.7046C69.2725 64.5721 69.0615 65.4983 68.9443 66.4362C68.7215 68.2767 68.4871 70.1056 68.2643 71.9461C67.5257 71.9461 66.7989 71.9461 66.0603 71.9578C65.8728 70.1173 65.6735 68.2767 65.5093 66.4244C65.4624 65.9321 65.2631 65.5804 64.8294 65.3576C64.3605 65.1114 63.9736 64.748 63.4812 64.5604C63.7274 63.1302 63.9736 61.6999 64.2432 60.2697C64.3136 59.8242 64.2667 59.3318 64.548 58.9332Z" fill="#3A637D"/>
<rect x="0.5" y="0.5" width="119" height="119" rx="59.5" stroke="#E9E4E4"/>
</svg>
