<svg width="87" height="99" viewBox="0 0 87 99" fill="none" xmlns="http://www.w3.org/2000/svg">
<path d="M70.3556 37.0747C69.1461 39.5072 67.591 41.728 65.9495 43.8432C69.3189 40.9877 72.429 37.392 74.9344 33.3732C77.699 25.9702 79.0813 17.6154 80.4636 9.89517H70.1828C70.1828 10.9527 70.1828 12.0103 70.0964 13.0679C72.429 13.0679 74.7616 13.0679 77.0942 13.0679C75.6255 21.2112 73.8977 29.989 70.3556 37.0747Z" fill="#CD4727"/>
<path d="M21.1973 7.14551C19.2966 7.14551 17.396 7.14551 15.4089 7.14551V9.89519H9.4478C9.62059 10.9528 9.87977 12.0103 10.0526 13.0679C11.8668 13.0679 13.5947 13.0679 15.4089 13.0679C15.4089 19.9421 15.6681 26.6048 16.3592 32.3157C19.7286 38.3438 24.653 43.3144 29.8366 46.8044C26.2081 42.1511 23.7891 36.6517 22.4932 29.2487C21.5428 22.9033 21.2837 15.183 21.1973 7.14551Z" fill="#CD4727"/>
<path d="M53.9414 54.3131C52.0408 55.7937 50.1401 57.2743 48.2395 58.6491V60.87C51.004 59.2836 53.7686 57.9088 56.706 55.8994C60.5937 53.3612 64.395 50.0828 67.5051 46.1698C65.8636 47.5446 64.1358 48.9195 62.4079 49.977C59.6433 51.8807 56.7924 53.2555 53.9414 54.3131Z" fill="#CD4727"/>
<path d="M42.5365 64.5716C42.7957 64.3601 42.9685 64.2543 43.2277 64.0428V58.6492C41.1542 57.1686 39.0808 55.688 37.0938 53.9959C34.502 52.9383 31.9966 51.6692 29.4048 49.9771C25.1715 47.2274 21.111 43.6317 17.7417 39.2956C19.124 44.5835 21.1974 48.9195 24.1348 52.621C18.6056 48.9195 13.4221 43.5259 10.0527 36.969C6.42422 29.989 4.69635 21.2112 3.22767 13.0679C4.60996 13.0679 6.07864 13.0679 7.46093 13.0679C7.28815 12.0103 7.02897 10.9527 6.85618 9.89517H0.0311279C1.84538 19.6248 3.48685 30.2005 7.8929 38.7668C11.6078 46.0641 17.4825 51.9865 23.6164 56.0052C28.4545 59.178 32.4285 60.9758 37.4393 64.5716V92.3857C39.0808 91.8569 40.8087 91.3281 42.4501 90.6936V64.5716H42.5365Z" fill="#CD4727"/>
<path d="M66.726 98.308C66.8124 97.7793 66.9852 97.2505 67.0716 96.6159C60.7649 94.6065 54.5446 92.4914 48.3243 90.482V60.87V58.6491C50.225 57.2743 52.212 55.7937 54.0263 54.3131C56.8772 53.2555 59.6418 51.8807 62.4928 50.0828C64.2206 48.9195 65.9485 47.6504 67.59 46.2756C71.8232 42.6798 75.5381 38.1323 78.3027 32.9502C82.3632 25.0184 84.1774 15.0772 85.8189 5.98212L86.1645 4.0785H84.523C79.9442 4.0785 75.279 4.0785 70.7001 4.0785H70.2682C70.2682 2.91517 70.2682 1.64609 70.2682 0.482758C66.2077 0.482758 62.0608 0.482758 58.0003 0.482758C57.8275 0.482758 57.5684 0.482758 57.3956 0.482758C53.5079 0.482758 49.6202 0.482758 45.7325 0.482758C44.6094 0.482758 43.5727 0.482758 42.4496 0.482758C42.1904 0.482758 42.0176 0.482758 41.7584 0.482758C34.9334 0.482758 28.0219 0.482758 21.1969 0.482758C21.1969 1.64609 21.1969 2.91517 21.1969 4.0785H5.73251L6.07809 5.98212C6.33727 7.25121 6.59644 8.52029 6.85562 9.89513C7.02841 10.9527 7.28759 12.0103 7.46038 13.0678C8.84267 19.9421 10.5705 27.0278 13.5943 32.8444C14.8038 35.1711 16.1861 37.2862 17.7412 39.2956C21.1105 43.6316 25.171 47.2274 29.4042 49.9771C31.996 51.6692 34.5014 52.9383 37.0932 53.9958C39.0802 55.6879 41.1537 57.1685 43.2271 58.6491V64.0428V90.482C42.9679 90.5878 42.7952 90.5878 42.536 90.6935C40.8945 91.2223 39.1666 91.7511 37.5252 92.3856C33.2055 93.8662 28.7995 95.2411 24.4798 96.7217C24.5662 97.2505 24.739 97.7793 24.8254 98.4138C31.8232 98.4138 38.8211 98.4138 45.8189 98.4138C52.7304 98.308 59.7282 98.308 66.726 98.308ZM68.8859 29.2487C69.6634 24.4896 70.009 18.9902 70.1818 13.0678C70.1818 12.0103 70.1818 10.9527 70.2682 9.89513C70.2682 8.94332 70.2682 8.09727 70.2682 7.14545H70.7001C74.7606 7.14545 78.8211 7.14545 82.9679 7.14545C81.4993 15.2887 79.7714 24.1723 76.1429 31.1523C75.7973 31.8926 75.3653 32.6329 74.9334 33.3732C72.5144 37.392 69.4042 40.882 65.9485 43.8432C64.4798 45.1122 62.9247 46.2756 61.2833 47.3331L61.1105 47.4389C64.9982 42.5741 67.59 36.9689 68.8859 29.2487ZM16.4453 32.3156C16.2725 31.8926 16.0133 31.5753 15.8405 31.1523C13.0759 25.8645 11.4345 19.4133 10.1386 13.0678C9.96578 12.0103 9.7066 10.9527 9.53381 9.89513C9.36102 8.94332 9.18824 8.09727 9.01545 7.14545C11.1753 7.14545 13.3351 7.14545 15.4949 7.14545C17.3956 7.14545 19.2962 7.14545 21.2833 7.14545C21.3697 15.183 21.5424 22.9033 22.6656 29.2487C23.9615 36.6517 26.2941 42.151 30.009 46.8044C24.739 43.3144 19.8146 38.3438 16.4453 32.3156Z" fill="#FFB224"/>
</svg>
