<svg width="100" height="50" viewBox="0 0 100 50" fill="none" xmlns="http://www.w3.org/2000/svg">
<g clip-path="url(#clip0_218_166993)">
<path d="M23.9506 50.0001C23.5429 50.0001 23.168 49.9343 22.8326 49.8027C22.4907 49.6711 22.1947 49.4803 21.9448 49.2435C21.6949 49.0066 21.4976 48.7237 21.3595 48.3948C21.2214 48.0724 21.1491 47.7172 21.1491 47.329C21.1491 46.9409 21.2214 46.5856 21.3595 46.2632C21.4976 45.9409 21.6949 45.658 21.9448 45.4145C22.1947 45.1711 22.4972 44.9869 22.8326 44.8553C23.1746 44.7237 23.5429 44.658 23.944 44.658C24.3517 44.658 24.72 44.7237 25.062 44.8553C25.4039 44.9869 25.6933 45.1777 25.9497 45.4145C26.1996 45.658 26.3969 45.9343 26.535 46.2632C26.6731 46.5856 26.7455 46.9409 26.7455 47.329C26.7455 47.7172 26.6731 48.0724 26.535 48.4014C26.3969 48.7303 26.1996 49.0132 25.9497 49.2501C25.6998 49.4869 25.4039 49.6711 25.062 49.8093C24.72 49.9343 24.3517 50.0001 23.9506 50.0001ZM23.944 49.1514C24.207 49.1514 24.4504 49.1053 24.674 49.0198C24.8976 48.9277 25.0883 48.8027 25.2527 48.6382C25.4171 48.4737 25.542 48.2764 25.6341 48.0593C25.7262 47.8422 25.7722 47.5922 25.7722 47.329C25.7722 47.0593 25.7262 46.8159 25.6341 46.5987C25.542 46.3816 25.4171 46.1843 25.2527 46.0198C25.0883 45.8553 24.8976 45.7237 24.674 45.6382C24.4504 45.5461 24.207 45.5066 23.944 45.5066C23.681 45.5066 23.4376 45.5527 23.2206 45.6382C23.0036 45.7303 22.8063 45.8553 22.6419 46.0198C22.4775 46.1843 22.346 46.3816 22.2539 46.5987C22.1618 46.8159 22.1158 47.0659 22.1158 47.329C22.1158 47.5922 22.1618 47.8356 22.2539 48.0593C22.346 48.283 22.4709 48.4738 22.6353 48.6448C22.7997 48.8093 22.9904 48.9409 23.214 49.0264C23.4376 49.1053 23.681 49.1514 23.944 49.1514Z" fill="#004693"/>
<path d="M28.6986 49.9276V44.7302H29.4943L32.7496 48.7302H32.355V44.7302H33.3151V49.9276H32.5194L29.2642 45.921H29.6587V49.921H28.6986V49.9276Z" fill="#004693"/>
<path d="M36.2415 49.1184H39.1745V49.9276H35.2814V44.7302H39.0758V45.5394H36.2481V49.1184H36.2415ZM36.1626 46.8881H38.747V47.6842H36.1626V46.8881Z" fill="#004693"/>
<path d="M47.7959 50C47.4013 50 47.0331 49.9343 46.6911 49.8027C46.3491 49.6711 46.0598 49.4869 45.8099 49.2435C45.56 49.0066 45.3627 48.7171 45.2246 48.3948C45.0865 48.0658 45.0142 47.7106 45.0142 47.3224C45.0142 46.9342 45.0865 46.579 45.2246 46.25C45.3627 45.9211 45.56 45.6382 45.8099 45.4014C46.0598 45.1645 46.3557 44.9737 46.6911 44.8421C47.0265 44.7106 47.3947 44.6448 47.7959 44.6448C48.2234 44.6448 48.6113 44.7171 48.9599 44.8619C49.3084 45.0066 49.6109 45.2237 49.8477 45.5132L49.2229 46.0987C49.0322 45.8948 48.8218 45.7435 48.5916 45.6448C48.3615 45.5461 48.105 45.4935 47.8354 45.4935C47.5657 45.4935 47.3158 45.5395 47.0922 45.625C46.8687 45.7171 46.6714 45.8421 46.507 46.0066C46.3426 46.1711 46.211 46.3619 46.119 46.5856C46.0269 46.8092 45.9809 47.0527 45.9809 47.3224C45.9809 47.5921 46.0269 47.8356 46.119 48.0593C46.211 48.2829 46.336 48.4737 46.507 48.6382C46.6714 48.8027 46.8687 48.9277 47.0922 49.0198C47.3158 49.1119 47.5657 49.1514 47.8354 49.1514C48.105 49.1514 48.3615 49.0987 48.5916 49C48.8218 48.9014 49.0322 48.7435 49.2229 48.5329L49.8477 49.125C49.6044 49.4079 49.3084 49.625 48.9599 49.7698C48.6179 49.9277 48.2234 50 47.7959 50Z" fill="#004693"/>
<path d="M51.814 49.9276L54.1485 44.7302H55.0955L57.4432 49.9276H56.437L54.4247 45.2434H54.8127L52.807 49.9276H51.814ZM52.8925 48.7236L53.1555 47.9671H55.9636L56.2266 48.7236H52.8925Z" fill="#004693"/>
<path d="M59.4095 49.9276V44.7302H60.2052L63.4604 48.7302H63.0659V44.7302H64.026V49.9276H63.2303L59.975 45.921H60.3696V49.921H59.4095V49.9276Z" fill="#004693"/>
<path d="M69.9512 49.9276V44.7302H70.9179V49.1118H73.6339V49.9276H69.9512Z" fill="#004693"/>
<path d="M76.2183 49.1184H79.1513V49.9276H75.2582V44.7302H79.0526V45.5394H76.2249V49.1184H76.2183ZM76.146 46.8881H78.7304V47.6842H76.146V46.8881Z" fill="#004693"/>
<path d="M81.111 49.9276L83.4456 44.7302H84.3926L86.7403 49.9276H85.7341L83.7218 45.2434H84.1098L82.104 49.9276H81.111ZM82.1829 48.7236L82.446 47.9671H85.254L85.5171 48.7236H82.1829Z" fill="#004693"/>
<path d="M88.7065 49.9276V44.7302H90.8438C91.3041 44.7302 91.6987 44.8026 92.0275 44.9539C92.3563 45.1052 92.6128 45.3157 92.7904 45.5921C92.9679 45.8684 93.06 46.1973 93.06 46.5789C93.06 46.9605 92.9679 47.2894 92.7904 47.5657C92.6128 47.8421 92.3563 48.0526 92.0275 48.1973C91.6987 48.3421 91.3041 48.4144 90.8438 48.4144H89.2392L89.6667 47.9736V49.9276H88.7065ZM89.6732 48.0789L89.2458 47.6184H90.8044C91.2318 47.6184 91.5475 47.5263 91.7645 47.3421C91.9815 47.1579 92.0867 46.9013 92.0867 46.5789C92.0867 46.25 91.9815 45.9934 91.7645 45.8158C91.5475 45.6381 91.2318 45.546 90.8044 45.546H89.2392L89.6667 45.0723V48.0789H89.6732ZM92.1064 49.9276L90.7912 48.0394H91.8237L93.1455 49.9276H92.1064Z" fill="#004693"/>
<path d="M95.1118 49.9276V44.7302H95.9075L99.1627 48.7302H98.7681V44.7302H99.7283V49.9276H98.9325L95.6773 45.9276H96.0719V49.9276H95.1118Z" fill="#004693"/>
<path d="M16.1841 49.9276V47.8684L16.4011 48.4605L14.1454 44.7236H15.1779L16.9864 47.7302H16.4077L18.2358 44.7236H19.1828L16.9272 48.4605L17.1508 47.8684V49.9276H16.1841Z" fill="#004693"/>
<path d="M7.58899 49.9276V44.7302H8.38471L11.6399 48.7302H11.2454V44.7302H12.2055V49.9276H11.4098L8.15454 45.921H8.54912V49.921H7.58899V49.9276Z" fill="#004693"/>
<path d="M0 49.9276L2.33456 44.7302H3.28811L5.63581 49.9276H4.62308L2.61076 45.2434H2.99875L0.993008 49.9276H0ZM1.0785 48.7236L1.33497 47.9671H4.14301L4.39949 48.7236H1.0785Z" fill="#004693"/>
<path d="M36.3993 23.6776C37.4252 23.7697 38.438 23.9276 39.431 24.1316C39.8518 24.2171 40.2727 24.3158 40.687 24.4276C40.6541 24.2895 40.6278 24.1579 40.6015 24.0197C40.2925 22.5789 40.1412 21.0789 40.1412 19.5526C40.1412 18.5461 40.2135 17.5395 40.3516 16.5658C40.3582 16.4934 40.3648 16.4276 40.3779 16.3553C39.9965 16.2829 39.6085 16.2171 39.2205 16.1579C37.4121 15.8816 35.5576 15.7368 33.6702 15.7368C33.4072 15.7368 33.1375 15.7368 32.8745 15.75L32.8613 15.7368L25.8577 0H17.2889L10.2786 15.7303L6.7998 23.5329L3.44594 31.0855L0 38.7961H8.6543C10.1405 35.8947 12.1265 33.2829 14.5005 31.0855C18.2095 27.6184 22.8589 25.1513 28.0212 24.1118L31.1384 31.0855L34.5712 38.7961H43.14L39.7072 31.0855L36.3993 23.6776ZM17.0324 19.8158L18.8474 15.7303L21.57 9.61184L24.2925 15.7303L24.7792 16.8355C22.0566 17.5263 19.4656 18.5263 17.0324 19.8158Z" fill="#004693"/>
<path d="M70.0235 29.0131L69.5237 27.8947C67.7613 29.5131 65.4925 30.5986 62.9738 30.8486C62.9738 30.8486 62.9738 30.8486 62.9606 30.8486C62.5792 30.8881 62.1978 30.9144 61.8032 30.9144C61.4086 30.9144 61.0141 30.8947 60.6326 30.8486C56.2726 30.4012 52.6491 27.4999 51.1695 23.5328C50.7354 22.3947 50.4921 21.171 50.4592 19.8881C50.4461 19.7697 50.4461 19.6644 50.4461 19.546C50.4461 18.2039 50.6828 16.921 51.1037 15.7302C52.5571 11.6447 56.2923 8.63808 60.7642 8.24334C61.1061 8.20387 61.4415 8.19071 61.7966 8.19071C64.7296 8.19071 67.3996 9.30913 69.4185 11.1249L70.0169 9.78282L72.7592 3.62492C70.7403 2.23019 68.4452 1.19729 65.9528 0.670976C64.6113 0.374923 63.2237 0.210449 61.7966 0.210449C60.2841 0.210449 58.8176 0.381502 57.4037 0.723607C50.0844 2.4144 44.3434 8.30913 42.8637 15.7302C42.7782 16.1052 42.7125 16.4736 42.673 16.8552C42.5481 17.7368 42.4823 18.6315 42.4823 19.546C42.4823 20.921 42.6204 22.2499 42.8966 23.5328C43.015 24.1183 43.1596 24.6841 43.3438 25.2433C43.9948 27.3683 45.001 29.3354 46.2965 31.0789C48.9533 34.6644 52.8267 37.2894 57.2985 38.3552C57.726 38.4604 58.16 38.546 58.594 38.6118V38.6249C58.9952 38.6907 59.4095 38.7499 59.8303 38.796C59.8303 38.796 61.5928 38.9999 63.7827 38.796C64.4732 38.7236 65.1439 38.6183 65.8147 38.4802C66.2159 38.3947 66.6104 38.3026 66.9918 38.1841C69.1291 37.5986 71.1086 36.6512 72.871 35.4078L70.9442 31.092L70.0235 29.0131Z" fill="#004693"/>
<path d="M84.1229 31.0855V0H76.317V38.7961H99.7283V31.0855H84.1229Z" fill="#004693"/>
</g>
<defs>
<clipPath id="clip0_218_166993">
<rect width="99.7283" height="50" fill="white"/>
</clipPath>
</defs>
</svg>
