<svg width="180" height="90" viewBox="0 0 180 90" fill="none" xmlns="http://www.w3.org/2000/svg">
<g clip-path="url(#clip0_218_47550)">
<path d="M43.111 90.0001C42.3771 90.0001 41.7024 89.8816 41.0987 89.6448C40.4831 89.408 39.9505 89.0645 39.5007 88.6382C39.0508 88.2119 38.6957 87.7027 38.4471 87.1106C38.1986 86.5303 38.0684 85.8909 38.0684 85.1922C38.0684 84.4935 38.1986 83.854 38.4471 83.2738C38.6957 82.6935 39.0508 82.1843 39.5007 81.7461C39.9505 81.308 40.495 80.9764 41.0987 80.7395C41.7142 80.5027 42.3771 80.3843 43.0992 80.3843C43.8331 80.3843 44.4959 80.5027 45.1115 80.7395C45.727 80.9764 46.2479 81.3198 46.7095 81.7461C47.1593 82.1843 47.5144 82.6816 47.763 83.2738C48.0116 83.854 48.1418 84.4935 48.1418 85.1922C48.1418 85.8909 48.0116 86.5303 47.763 87.1224C47.5144 87.7145 47.1593 88.2237 46.7095 88.6501C46.2597 89.0764 45.727 89.408 45.1115 89.6566C44.4959 89.8816 43.8331 90.0001 43.111 90.0001ZM43.0992 88.4724C43.5726 88.4724 44.0106 88.3895 44.4131 88.2356C44.8156 88.0698 45.1588 87.8448 45.4548 87.5488C45.7507 87.2527 45.9756 86.8974 46.1413 86.5066C46.307 86.1159 46.3899 85.6659 46.3899 85.1922C46.3899 84.7067 46.307 84.2685 46.1413 83.8777C45.9756 83.4869 45.7507 83.1316 45.4548 82.8356C45.1588 82.5395 44.8156 82.3027 44.4131 82.1488C44.0106 81.983 43.5726 81.9119 43.0992 81.9119C42.6257 81.9119 42.1877 81.9948 41.7971 82.1488C41.4064 82.3145 41.0513 82.5395 40.7554 82.8356C40.4595 83.1316 40.2227 83.4869 40.057 83.8777C39.8913 84.2685 39.8084 84.7185 39.8084 85.1922C39.8084 85.6659 39.8913 86.104 40.057 86.5066C40.2227 86.9093 40.4476 87.2527 40.7436 87.5606C41.0395 87.8567 41.3828 88.0935 41.7852 88.2474C42.1877 88.3895 42.6257 88.4724 43.0992 88.4724Z" fill="white"/>
<path d="M51.6575 89.8699V80.5146H53.0898L58.9492 87.7146H58.2389V80.5146H59.9672V89.8699H58.5349L52.6755 82.6581H53.3857V89.8581H51.6575V89.8699Z" fill="white"/>
<path d="M65.2347 88.4133H70.5141V89.8699H63.5065V80.5146H70.3365V81.9712H65.2465V88.4133H65.2347ZM65.0927 84.3989H69.7447V85.8317H65.0927V84.3989Z" fill="white"/>
<path d="M86.0326 90.0001C85.3224 90.0001 84.6595 89.8817 84.044 89.6448C83.4285 89.408 82.9076 89.0764 82.4578 88.6382C82.008 88.2119 81.6529 87.6909 81.4043 87.1106C81.1557 86.5185 81.0255 85.879 81.0255 85.1803C81.0255 84.4816 81.1557 83.8422 81.4043 83.2501C81.6529 82.658 82.008 82.1488 82.4578 81.7224C82.9076 81.2961 83.4403 80.9527 84.044 80.7159C84.6477 80.479 85.3106 80.3606 86.0326 80.3606C86.8021 80.3606 87.5005 80.4909 88.1278 80.7514C88.7552 81.0119 89.2997 81.4027 89.7258 81.9238L88.6013 82.9777C88.258 82.6106 87.8792 82.3382 87.4649 82.1606C87.0506 81.983 86.589 81.8882 86.1037 81.8882C85.6183 81.8882 85.1685 81.9711 84.7661 82.1251C84.3636 82.2909 84.0085 82.5159 83.7126 82.8119C83.4166 83.108 83.1799 83.4514 83.0142 83.854C82.8484 84.2566 82.7656 84.6948 82.7656 85.1803C82.7656 85.6659 82.8484 86.104 83.0142 86.5067C83.1799 86.9093 83.4048 87.2527 83.7126 87.5488C84.0085 87.8448 84.3636 88.0698 84.7661 88.2356C85.1685 88.4014 85.6183 88.4724 86.1037 88.4724C86.589 88.4724 87.0506 88.3777 87.4649 88.2001C87.8792 88.0224 88.258 87.7382 88.6013 87.3593L89.7258 88.4251C89.2879 88.9343 88.7552 89.3251 88.1278 89.5856C87.5123 89.8698 86.8021 90.0001 86.0326 90.0001Z" fill="white"/>
<path d="M93.2651 89.8699L97.4673 80.5146H99.1719L103.398 89.8699H101.587L97.9645 81.4383H98.6629L95.0525 89.8699H93.2651ZM95.2064 87.7028L95.6799 86.341H100.734L101.208 87.7028H95.2064Z" fill="white"/>
<path d="M106.937 89.8699V80.5146H108.369L114.229 87.7146H113.519V80.5146H115.247V89.8699H113.814L107.955 82.6581H108.665V89.8581H106.937V89.8699Z" fill="white"/>
<path d="M125.912 89.8699V80.5146H127.652V88.4015H132.541V89.8699H125.912Z" fill="white"/>
<path d="M137.193 88.4133H142.472V89.8699H135.465V80.5146H142.295V81.9712H137.205V88.4133H137.193ZM137.063 84.3989H141.715V85.8317H137.063V84.3989Z" fill="white"/>
<path d="M146 89.8699L150.202 80.5146H151.907L156.132 89.8699H154.321L150.699 81.4383H151.398L147.787 89.8699H146ZM147.929 87.7028L148.403 86.341H153.457L153.931 87.7028H147.929Z" fill="white"/>
<path d="M159.672 89.8699V80.5146H163.519C164.347 80.5146 165.058 80.6449 165.65 80.9173C166.241 81.1896 166.703 81.5686 167.023 82.066C167.342 82.5633 167.508 83.1554 167.508 83.8423C167.508 84.5291 167.342 85.1212 167.023 85.6186C166.703 86.116 166.241 86.4949 165.65 86.7554C165.058 87.016 164.347 87.1462 163.519 87.1462H160.631L161.4 86.3528V89.8699H159.672ZM161.412 86.5423L160.642 85.7133H163.448C164.217 85.7133 164.785 85.5475 165.176 85.216C165.567 84.8844 165.756 84.4225 165.756 83.8423C165.756 83.2502 165.567 82.7883 165.176 82.4686C164.785 82.1489 164.217 81.9831 163.448 81.9831H160.631L161.4 81.1304V86.5423H161.412ZM165.792 89.8699L163.424 86.4712H165.283L167.662 89.8699H165.792Z" fill="white"/>
<path d="M171.201 89.8699V80.5146H172.633L178.493 87.7146H177.783V80.5146H179.511V89.8699H178.079L172.219 82.6699H172.929V89.8699H171.201Z" fill="white"/>
<path d="M29.1313 89.8698V86.1632L29.5219 87.229L25.4618 80.5027H27.3202L30.5755 85.9145H29.5338L32.8245 80.5027H34.5291L30.4689 87.229L30.8714 86.1632V89.8698H29.1313Z" fill="white"/>
<path d="M13.6602 89.8699V80.5146H15.0925L20.9519 87.7146H20.2416V80.5146H21.9699V89.8699H20.5376L14.6782 82.6581H15.3884V89.8581H13.6602V89.8699Z" fill="white"/>
<path d="M0 89.8699L4.2022 80.5146H5.91859L10.1445 89.8699H8.32154L4.69936 81.4383H5.39776L1.78741 89.8699H0ZM1.9413 87.7028L2.40295 86.341H7.45743L7.91908 87.7028H1.9413Z" fill="white"/>
<path d="M65.5188 42.6197C67.3654 42.7855 69.1883 43.0697 70.9757 43.4368C71.7333 43.5908 72.4909 43.7684 73.2366 43.9697C73.1775 43.721 73.1301 43.4842 73.0828 43.2355C72.5264 40.6421 72.2542 37.9421 72.2542 35.1947C72.2542 33.3829 72.3844 31.571 72.6329 29.8184C72.6448 29.6882 72.6566 29.5697 72.6803 29.4395C71.9937 29.3092 71.2954 29.1908 70.597 29.0842C67.3417 28.5868 64.0036 28.3263 60.6064 28.3263C60.1329 28.3263 59.6476 28.3263 59.1741 28.35L59.1504 28.3263L46.5438 0H31.12L18.5015 28.3145L12.2396 42.3592L6.20268 55.9539L0 69.8329H15.5777C18.2529 64.6105 21.8278 59.9092 26.101 55.9539C32.7772 49.7131 41.146 45.2724 50.4382 43.4013L56.0491 55.9539L62.2281 69.8329H77.6519L71.4729 55.9539L65.5188 42.6197ZM30.6583 35.6684L33.9254 28.3145L38.826 17.3013L43.7266 28.3145L44.6025 30.3039C39.7019 31.5474 35.0381 33.3474 30.6583 35.6684Z" fill="white"/>
<path d="M126.042 52.2236L125.143 50.2105C121.97 53.1236 117.887 55.0776 113.353 55.5276C113.353 55.5276 113.353 55.5276 113.329 55.5276C112.643 55.5986 111.956 55.646 111.246 55.646C110.536 55.646 109.825 55.6105 109.139 55.5276C101.291 54.7223 94.7685 49.5 92.1051 42.3592C91.3239 40.3105 90.8859 38.1079 90.8267 35.7986C90.803 35.5855 90.803 35.396 90.803 35.1829C90.803 32.7671 91.2292 30.4579 91.9867 28.3144C94.6028 20.9605 101.326 15.5486 109.376 14.8381C109.991 14.7671 110.595 14.7434 111.234 14.7434C116.513 14.7434 121.319 16.7565 124.953 20.025L126.03 17.6092L130.967 6.52496C127.333 4.01443 123.201 2.15522 118.715 1.20785C116.3 0.674959 113.803 0.378906 111.234 0.378906C108.511 0.378906 105.872 0.686801 103.327 1.30259C90.152 4.34601 79.8181 14.9565 77.1548 28.3144C77.0009 28.9894 76.8825 29.6526 76.8115 30.3394C76.5866 31.9263 76.4682 33.5368 76.4682 35.1829C76.4682 37.6579 76.7168 40.05 77.2139 42.3592C77.427 43.4131 77.6874 44.4315 78.0189 45.4381C79.1907 49.2631 81.0018 52.8039 83.3338 55.9421C88.116 62.396 95.0881 67.121 103.137 69.0394C103.907 69.2289 104.688 69.3829 105.469 69.5013V69.525C106.191 69.6434 106.937 69.75 107.695 69.8329C107.695 69.8329 110.867 70.2 114.809 69.8329C116.052 69.7026 117.259 69.5131 118.467 69.2644C119.189 69.1105 119.899 68.9447 120.585 68.7315C124.432 67.6776 127.995 65.9723 131.168 63.7342L127.7 55.9657L126.042 52.2236Z" fill="white"/>
<path d="M151.421 55.9539V0H137.37V69.8329H179.511V55.9539H151.421Z" fill="white"/>
</g>
<defs>
<clipPath id="clip0_218_47550">
<rect width="179.511" height="90" fill="white"/>
</clipPath>
</defs>
</svg>
