<svg width="429" height="420" viewBox="0 0 429 420" fill="none" xmlns="http://www.w3.org/2000/svg">
<g clip-path="url(#clip0_253_36968)">
<path d="M271.961 327.225L276.229 323.065L283.549 326.331C285.24 322.805 287.192 319.395 288.786 316.182L290.518 317.312L290.087 313.909C280.676 309.71 271.527 305.627 262.116 301.427C277.739 277.007 293.265 252.899 308.889 228.478C309.298 220.456 309.804 212.12 309.951 203.981C288.015 239.141 265.653 273.754 243.291 308.367L271.001 320.732L271.961 327.225Z" fill="#E89A01"/>
<path d="M290.251 314.339C303.299 275.213 316.25 236.401 329.201 197.588C322.365 208.094 315.889 218.403 309.053 228.908C293.527 253.016 277.903 277.437 262.28 301.857C271.429 305.94 280.84 310.14 290.251 314.339Z" fill="white"/>
<path d="M304.629 320.755C310.641 323.438 316.915 326.238 322.928 328.921C324.997 284.895 326.968 241.183 329.201 197.588C317.819 237.101 306.436 276.613 294.957 316.439C298.093 317.839 301.23 319.239 304.629 320.755Z" fill="white"/>
<path d="M290.518 317.312L292.251 318.442C292.153 318.755 291.697 319.265 291.6 319.579L295.054 316.126C306.436 276.613 317.819 237.101 329.201 197.588C316.25 236.401 303.299 275.213 290.251 314.339L290.518 317.312Z" fill="#F4572D"/>
</g>
<g clip-path="url(#clip1_253_36968)">
<path d="M27.5095 222.36C36.1328 224.1 44.5541 226.814 52.7318 229.87L54.4729 223.97C46.0101 220.622 37.0603 217.957 28.152 215.926L27.5095 222.36Z" fill="white"/>
<path d="M-8.40898 213.943C-10.5233 214.141 -12.6377 214.34 -14.467 214.831L-13.5237 221.116C-11.4094 220.917 -9.58004 220.427 -7.46568 220.228C-1.1226 219.632 5.79054 219.62 12.4601 219.95L12.574 213.565C5.37582 213.285 -1.53731 213.297 -8.40898 213.943Z" fill="white"/>
<path d="M102.55 263.752C108.82 270.175 114.604 277.28 121.04 286.236L125.02 282.038C118.299 272.79 112.515 265.684 105.959 258.97L102.55 263.752Z" fill="white"/>
<path d="M277.048 329.582L274.607 328.856C273.276 336.948 271.903 344.407 267.845 351.481L272.323 354.885C276.624 347.469 278.24 339.669 279.328 331.918L277.048 329.582Z" fill="white"/>
<path d="M90.0911 252.175L93.2159 247.101C92.0758 245.933 90.6921 245.107 89.837 244.231C83.6908 239.709 77.0159 235.237 69.8539 231.448L67.5842 237.398C74.4612 240.895 81.136 245.367 86.7537 249.939C87.8524 250.473 89.236 251.299 90.0911 252.175Z" fill="white"/>
<path d="M217.987 381.98L218.101 375.596C213.546 375.067 209.234 374.198 205.166 372.986C201.626 371.726 197.76 369.539 193.894 367.353L191.34 373.011C195.491 375.489 199.357 377.675 203.181 379.228C208.348 380.974 213.188 381.794 217.987 381.98Z" fill="white"/>
<path d="M234.658 380.733C244.09 378.572 252.869 374.56 260.466 368.747L257.45 363.294C250.868 368.374 242.375 372.678 233.715 374.447L234.658 380.733Z" fill="white"/>
<path d="M181.519 357.042C180.379 355.875 179.239 354.707 177.814 353.247C172.968 348.285 167.796 342.397 162.541 335.241L158.561 339.44C164.101 346.887 169.273 352.775 174.404 358.029C175.544 359.197 176.969 360.657 178.109 361.824L181.519 357.042Z" fill="white"/>
<path d="M144.874 321.285C145.771 322.794 146.911 323.962 147.808 325.471L151.788 321.273C150.891 319.763 149.751 318.596 149.139 317.378C146.206 313.192 143.273 309.006 140.868 304.77C138.832 302.093 137.323 299.367 135.287 296.69L131.022 300.596C133.058 303.273 134.567 306 136.603 308.677C139.537 312.863 141.941 317.099 144.874 321.285Z" fill="white"/>
</g>
<defs>
<clipPath id="clip0_253_36968">
<rect width="82.7291" height="142.711" fill="white" transform="matrix(0.913203 0.407504 -0.296682 0.954976 283.976 177.407)"/>
</clipPath>
<clipPath id="clip1_253_36968">
<rect width="523.566" height="405.956" fill="white" transform="matrix(0.58056 -0.814218 0.698613 0.7155 -302.823 473.299)"/>
</clipPath>
</defs>
</svg>
