<svg width="435" height="435" viewBox="0 0 435 435" fill="none" xmlns="http://www.w3.org/2000/svg">
<path d="M229.851 217.819C229.851 210.537 224.19 204.711 216.749 204.711C209.632 204.711 203.809 210.375 203.809 217.495C203.809 224.777 209.47 230.603 216.749 230.603C224.028 230.765 229.851 225.101 229.851 217.819Z" fill="#004693"/>
<path d="M236.16 249.86C243.277 249.86 248.938 244.196 248.776 237.076C248.615 230.118 243.115 224.454 235.998 224.615C229.043 224.615 223.381 230.279 223.381 237.238C223.543 244.196 229.204 249.86 236.16 249.86Z" fill="#004693"/>
<path d="M197.339 249.86C204.456 249.86 210.117 244.196 209.956 237.076C209.956 230.118 204.294 224.454 197.177 224.615C190.222 224.615 184.56 230.279 184.56 237.238C184.722 244.196 190.384 249.86 197.339 249.86Z" fill="#004693"/>
<path d="M184.884 198.4C184.884 205.358 190.545 210.86 197.339 210.86C204.294 210.86 209.794 205.196 209.794 198.4C209.794 191.441 204.133 185.939 197.339 185.939C190.545 185.777 184.884 191.441 184.884 198.4Z" fill="#004693"/>
<path d="M223.705 198.238C223.705 205.196 229.204 210.86 236.16 210.86C243.115 210.86 248.776 205.358 248.776 198.4C248.776 191.441 243.277 185.777 236.321 185.777C229.366 185.777 223.866 191.279 223.705 198.238Z" fill="#004693"/>
<path d="M229.204 256.657C229.204 249.86 223.705 244.196 216.911 244.196C210.117 244.035 204.294 249.699 204.294 256.657C204.294 263.454 209.794 269.118 216.588 269.118C223.543 269.118 229.204 263.616 229.204 256.657Z" fill="#004693"/>
<path d="M178.09 205.52C171.297 205.358 165.797 210.86 165.797 217.819C165.797 224.615 171.135 229.956 177.928 229.956C184.722 229.956 190.06 224.615 190.222 217.819C190.222 211.022 184.884 205.682 178.09 205.52Z" fill="#004693"/>
<path d="M267.863 217.657C267.863 210.86 262.525 205.52 255.732 205.52C248.938 205.52 243.6 210.86 243.439 217.657C243.439 224.454 248.776 229.956 255.732 229.956C262.525 229.956 267.863 224.454 267.863 217.657Z" fill="#004693"/>
<path d="M216.911 166.843C210.279 166.843 204.78 172.184 204.78 178.818C204.78 185.615 210.117 190.955 216.911 190.955C223.543 190.955 228.881 185.615 228.881 178.818C228.881 172.184 223.543 166.843 216.911 166.843Z" fill="#004693"/>
<path d="M267.54 256.657C267.54 250.184 262.202 244.844 255.732 244.844C249.262 244.844 243.762 250.184 243.762 256.657C243.762 263.13 249.1 268.47 255.57 268.47C262.04 268.632 267.54 263.13 267.54 256.657Z" fill="#004693"/>
<path d="M177.767 268.47C184.237 268.632 189.737 263.13 189.737 256.657C189.737 250.184 184.56 244.844 178.09 244.682C171.62 244.52 166.121 250.022 166.121 256.495C166.121 262.968 171.297 268.309 177.767 268.47Z" fill="#004693"/>
<path d="M236.321 287.728C242.953 287.728 247.968 282.549 247.968 275.915C247.968 269.441 242.792 264.425 236.321 264.425C229.69 264.425 224.675 269.603 224.675 276.238C224.675 282.549 229.851 287.728 236.321 287.728Z" fill="#004693"/>
<path d="M197.177 287.728C203.809 287.728 208.985 282.711 208.985 276.076C208.985 269.603 203.971 264.425 197.501 264.425C190.869 264.425 185.693 269.441 185.693 276.076C185.693 282.549 190.869 287.566 197.177 287.728Z" fill="#004693"/>
<path d="M178.09 167.329C171.62 167.329 166.444 172.345 166.282 178.819C166.282 185.292 171.297 190.47 177.767 190.632C184.237 190.632 189.413 185.615 189.575 179.142C189.575 172.507 184.56 167.329 178.09 167.329Z" fill="#004693"/>
<path d="M267.216 178.98C267.216 172.507 262.202 167.329 255.732 167.329C249.262 167.329 244.086 172.345 244.086 178.819C244.086 185.292 249.1 190.47 255.57 190.47C262.04 190.47 267.216 185.453 267.216 178.98Z" fill="#004693"/>
<path d="M286.627 237.238C286.627 230.765 281.451 225.586 275.142 225.586C268.834 225.586 263.658 230.603 263.496 236.914C263.334 243.387 268.51 248.566 274.98 248.728C281.451 248.889 286.627 243.711 286.627 237.238Z" fill="#004693"/>
<path d="M158.518 248.728C164.988 248.728 170.164 243.549 170.164 237.076C170.164 230.765 164.988 225.586 158.842 225.586C152.372 225.586 147.195 230.603 147.034 237.076C146.872 243.549 152.048 248.728 158.518 248.728Z" fill="#004693"/>
<path d="M147.034 198.076C146.872 204.225 152.048 209.727 158.356 209.727C164.665 209.889 169.841 204.711 170.003 198.4C170.003 192.088 164.827 186.91 158.518 186.748C152.372 186.748 147.195 191.927 147.034 198.076Z" fill="#004693"/>
<path d="M275.142 186.91C268.834 186.91 263.658 192.088 263.658 198.399C263.658 204.549 268.672 209.727 274.98 209.889C281.127 210.051 286.465 204.873 286.627 198.561C286.627 192.25 281.451 186.91 275.142 186.91Z" fill="#004693"/>
<path d="M197.501 148.071C191.192 148.071 186.178 152.926 186.178 159.237C186.178 165.549 191.031 170.565 197.339 170.565C203.647 170.565 208.662 165.711 208.662 159.399C208.823 153.25 203.809 148.233 197.501 148.071Z" fill="#004693"/>
<path d="M236.16 148.071C229.851 148.071 224.837 153.25 224.999 159.399C224.999 165.711 230.175 170.727 236.322 170.565C242.63 170.565 247.644 165.387 247.482 159.237C247.482 153.088 242.468 148.071 236.16 148.071Z" fill="#004693"/>
<path d="M216.911 306.662C222.896 306.662 227.91 301.645 227.91 295.657C227.91 289.508 222.896 284.491 216.749 284.491C210.764 284.491 205.75 289.508 205.75 295.496C205.75 301.645 210.764 306.662 216.911 306.662Z" fill="#004693"/>
<path d="M294.714 206.814C288.729 206.653 283.715 211.831 283.715 217.819C283.715 223.806 288.568 228.661 294.553 228.823C300.537 228.985 305.552 223.806 305.552 217.819C305.552 211.831 300.699 206.814 294.714 206.814Z" fill="#004693"/>
<path d="M139.108 228.661C145.093 228.661 149.945 223.806 150.107 217.819C150.107 211.831 145.416 206.976 139.431 206.814C133.446 206.653 128.432 211.669 128.432 217.819C128.27 223.806 133.123 228.661 139.108 228.661Z" fill="#004693"/>
<path d="M275.142 286.919C281.127 286.919 285.98 282.064 286.142 276.076C286.142 270.089 281.289 265.234 275.304 265.072C269.319 265.072 264.467 269.927 264.305 275.915C264.143 282.064 269.157 286.919 275.142 286.919Z" fill="#004693"/>
<path d="M158.68 286.919C164.665 286.919 169.517 282.064 169.356 275.914C169.194 269.927 164.503 265.234 158.518 265.234C152.533 265.234 147.681 270.089 147.681 276.076C147.681 282.226 152.533 286.919 158.68 286.919Z" fill="#004693"/>
<path d="M178.09 306.176C184.075 306.176 188.766 301.483 188.766 295.496C188.766 289.508 184.075 284.815 178.09 284.815C172.105 284.815 167.415 289.508 167.415 295.496C167.253 301.483 171.944 306.176 178.09 306.176Z" fill="#004693"/>
<path d="M255.408 306.176C261.393 306.338 266.246 301.645 266.408 295.657C266.569 289.508 261.879 284.653 255.732 284.653C249.747 284.653 245.056 289.184 244.894 295.172C244.894 301.321 249.585 306.176 255.408 306.176Z" fill="#004693"/>
<path d="M216.749 129.3C210.764 129.3 206.074 134.154 206.235 140.142C206.235 146.13 211.088 150.823 217.073 150.661C223.058 150.661 227.749 145.806 227.587 139.818C227.425 133.993 222.734 129.3 216.749 129.3Z" fill="#004693"/>
<path d="M294.553 267.338C300.376 267.338 305.228 262.645 305.228 256.819C305.228 250.831 300.538 245.977 294.553 245.977C288.73 245.977 283.877 250.67 283.877 256.495C283.877 262.483 288.568 267.338 294.553 267.338Z" fill="#004693"/>
<path d="M139.269 267.338C145.093 267.338 149.783 262.483 149.783 256.657C149.783 250.67 144.931 245.977 139.108 245.977C133.285 245.977 128.594 250.831 128.594 256.657C128.432 262.483 133.285 267.338 139.269 267.338Z" fill="#004693"/>
<path d="M275.142 148.881C269.319 148.881 264.467 153.735 264.628 159.561C264.628 165.387 269.481 170.242 275.304 170.08C281.127 170.08 285.98 165.225 285.818 159.399C285.656 153.574 280.965 148.881 275.142 148.881Z" fill="#004693"/>
<path d="M158.518 148.881C152.695 148.881 147.842 153.735 147.842 159.561C147.842 165.387 152.695 170.242 158.518 170.242C164.341 170.242 169.194 165.387 169.194 159.561C169.194 153.574 164.341 148.881 158.518 148.881Z" fill="#004693"/>
<path d="M294.391 189.337C300.214 189.337 305.067 184.482 305.067 178.819C305.067 173.155 300.376 168.462 294.714 168.3C288.891 168.3 284.039 173.155 284.039 178.819C284.039 184.644 288.73 189.337 294.391 189.337Z" fill="#004693"/>
<path d="M139.108 168.3C133.446 168.3 128.756 172.993 128.594 178.819C128.594 184.644 133.446 189.499 139.108 189.499C144.769 189.499 149.46 184.806 149.622 178.98C149.783 173.155 144.769 168.3 139.108 168.3Z" fill="#004693"/>
<path d="M178.09 129.623C172.267 129.461 167.576 134.154 167.576 139.98C167.576 145.806 172.105 150.499 177.929 150.499C183.752 150.499 188.281 145.806 188.281 140.142C188.281 134.316 183.752 129.623 178.09 129.623Z" fill="#004693"/>
<path d="M255.57 129.623C249.909 129.785 245.38 134.316 245.38 139.98C245.38 145.806 250.07 150.337 255.732 150.337C261.555 150.337 266.084 145.644 266.084 139.818C266.084 134.154 261.393 129.461 255.57 129.623Z" fill="#004693"/>
<path d="M197.339 325.272C203 325.272 207.529 320.741 207.529 315.077C207.529 309.413 203.162 304.882 197.339 304.72C191.516 304.72 186.987 309.089 186.987 314.753C187.148 320.579 191.516 325.272 197.339 325.272Z" fill="#004693"/>
<path d="M236.16 325.272C241.821 325.272 246.35 320.902 246.512 315.077C246.512 309.251 242.145 304.72 236.483 304.72C230.66 304.72 226.131 309.251 226.131 315.077C225.969 320.741 230.498 325.272 236.16 325.272Z" fill="#004693"/>
<path d="M119.697 247.271C125.197 247.271 129.888 242.578 129.888 237.076C129.888 231.574 125.197 226.881 119.697 226.881C114.198 226.881 109.507 231.574 109.507 237.076C109.507 242.74 114.198 247.271 119.697 247.271Z" fill="#004693"/>
<path d="M313.963 227.043C308.463 227.043 303.773 231.574 303.773 237.076C303.773 242.578 308.302 247.271 313.801 247.271C319.301 247.271 323.992 242.74 323.992 237.238C324.153 231.736 319.624 227.043 313.963 227.043Z" fill="#004693"/>
<path d="M119.536 208.433C125.035 208.595 129.726 203.902 129.726 198.399C129.726 192.897 125.197 188.366 119.697 188.366C114.198 188.366 109.669 192.897 109.507 198.399C109.507 203.578 114.036 208.271 119.536 208.433Z" fill="#004693"/>
<path d="M314.125 208.433C319.624 208.433 324.153 203.74 324.153 198.399C324.153 192.897 319.624 188.366 314.125 188.366C308.625 188.366 304.096 192.897 303.934 198.399C303.772 203.74 308.463 208.433 314.125 208.433Z" fill="#004693"/>
<path d="M236.321 130.432C241.821 130.432 246.188 126.063 246.188 120.561C246.188 115.059 241.983 110.689 236.483 110.689C230.984 110.689 226.616 114.897 226.616 120.399C226.293 126.063 230.66 130.432 236.321 130.432Z" fill="#004693"/>
<path d="M197.501 130.432C203 130.432 207.206 126.063 207.206 120.561C207.206 115.059 202.838 110.851 197.339 110.851C191.839 110.851 187.472 115.221 187.472 120.723C187.472 126.063 192.001 130.432 197.501 130.432Z" fill="#004693"/>
<path d="M138.946 305.205C144.446 305.205 148.813 300.998 148.813 295.496C148.813 289.993 144.607 285.624 139.108 285.624C133.77 285.624 129.403 289.832 129.241 295.172C129.241 300.836 133.446 305.205 138.946 305.205Z" fill="#004693"/>
<path d="M294.553 285.786C289.053 285.786 284.686 290.155 284.686 295.657C284.686 300.998 288.891 305.367 294.229 305.367C299.729 305.367 304.096 301.159 304.096 295.657C304.42 290.155 300.052 285.786 294.553 285.786Z" fill="#004693"/>
<path d="M275.142 305.205C269.804 305.205 265.437 309.575 265.437 314.915C265.437 320.255 269.804 324.624 275.142 324.624C280.48 324.624 284.847 320.255 284.847 314.915C284.847 309.575 280.48 305.205 275.142 305.205Z" fill="#004693"/>
<path d="M158.518 305.205C153.18 305.205 148.813 309.575 148.813 314.915C148.813 320.255 153.18 324.624 158.518 324.624C163.856 324.624 168.223 320.255 168.223 314.915C168.223 309.575 163.856 305.205 158.518 305.205Z" fill="#004693"/>
<path d="M216.911 324.786C211.735 324.786 207.368 329.155 207.206 334.334C207.206 339.674 211.573 344.205 216.911 344.044C222.087 344.044 226.455 339.674 226.455 334.334C226.455 329.155 222.087 324.786 216.911 324.786Z" fill="#004693"/>
<path d="M313.963 266.367C308.787 266.367 304.42 270.736 304.42 275.914C304.42 281.255 308.949 285.624 314.125 285.624C319.301 285.624 323.668 281.255 323.668 276.076C323.668 270.898 319.139 266.367 313.963 266.367Z" fill="#004693"/>
<path d="M119.697 266.367C114.521 266.367 110.154 270.736 109.992 275.914C109.83 281.255 114.359 285.624 119.697 285.624C124.873 285.624 129.241 281.255 129.403 276.076C129.403 270.898 125.035 266.367 119.697 266.367Z" fill="#004693"/>
<path d="M139.108 149.528C144.284 149.528 148.651 145.32 148.651 139.98C148.651 134.802 144.284 130.432 139.108 130.432C133.932 130.432 129.726 134.64 129.726 139.818C129.564 145.159 133.77 149.528 139.108 149.528Z" fill="#004693"/>
<path d="M294.553 149.528C299.729 149.528 304.096 145.159 304.096 139.98C304.096 134.802 299.729 130.432 294.553 130.432C289.377 130.432 285.171 134.64 285.171 139.818C285.009 145.159 289.215 149.528 294.553 149.528Z" fill="#004693"/>
<path d="M119.697 168.785C125.035 168.785 129.079 164.74 129.079 159.561C129.079 154.221 125.035 150.175 119.859 150.175C114.521 150.175 110.477 154.221 110.477 159.399C110.316 164.578 114.36 168.785 119.697 168.785Z" fill="#004693"/>
<path d="M313.963 168.785C319.301 168.785 323.345 164.74 323.345 159.399C323.345 154.059 319.301 150.013 313.963 150.013C308.625 150.013 304.581 154.059 304.581 159.399C304.581 164.74 308.625 168.785 313.963 168.785Z" fill="#004693"/>
<path d="M333.535 208.433C328.197 208.433 324.153 212.478 324.153 217.657C324.153 222.835 328.197 227.043 333.535 227.043C338.711 227.043 342.917 222.835 342.755 217.657C342.755 212.478 338.711 208.433 333.535 208.433Z" fill="#004693"/>
<path d="M100.125 227.043C105.463 227.043 109.507 222.997 109.669 217.819C109.669 212.478 105.625 208.433 100.449 208.433C95.2726 208.433 91.0671 212.478 91.0671 217.819C90.9053 222.835 94.9491 227.043 100.125 227.043Z" fill="#004693"/>
<path d="M158.518 129.785C163.694 129.785 167.9 125.739 167.9 120.399C167.9 115.221 163.856 111.175 158.68 111.175C153.504 111.175 149.298 115.221 149.298 120.561C149.298 125.739 153.342 129.785 158.518 129.785Z" fill="#004693"/>
<path d="M274.98 129.785C280.157 129.785 284.362 125.739 284.362 120.561C284.362 115.382 280.318 111.337 275.142 111.337C269.966 111.337 265.76 115.382 265.76 120.561C265.922 125.739 269.966 129.785 274.98 129.785Z" fill="#004693"/>
<path d="M178.09 325.11C172.914 325.11 168.709 329.317 168.709 334.496C168.709 339.674 172.914 343.72 178.09 343.72C183.266 343.72 187.31 339.512 187.31 334.496C187.31 329.156 183.105 325.11 178.09 325.11Z" fill="#004693"/>
<path d="M255.732 325.11C250.556 325.11 246.512 329.156 246.512 334.334C246.512 339.512 250.718 343.72 255.894 343.72C261.07 343.72 265.114 339.512 265.114 334.334C264.952 329.156 260.908 325.11 255.732 325.11Z" fill="#004693"/>
<path d="M216.911 110.366C221.925 110.204 225.969 105.996 225.969 101.142C225.969 96.125 221.764 92.0793 216.749 92.0793C211.735 92.0793 207.691 96.2868 207.529 101.142C207.691 106.158 211.897 110.366 216.911 110.366Z" fill="#004693"/>
<path d="M100.287 247.433C95.2727 247.433 91.0671 251.479 91.0671 256.495C90.9053 261.512 95.2727 265.881 100.287 265.719C105.301 265.719 109.345 261.512 109.345 256.495C109.507 251.64 105.301 247.433 100.287 247.433Z" fill="#004693"/>
<path d="M333.535 247.433C328.521 247.433 324.315 251.479 324.315 256.495C324.315 261.512 328.521 265.881 333.535 265.719C338.549 265.719 342.593 261.512 342.593 256.495C342.593 251.64 338.388 247.433 333.535 247.433Z" fill="#004693"/>
<path d="M333.373 187.881C338.388 187.881 342.27 183.997 342.432 178.98C342.432 173.964 338.549 170.08 333.535 169.918C328.521 169.918 324.477 173.64 324.477 178.657C324.315 183.673 328.359 187.881 333.373 187.881Z" fill="#004693"/>
<path d="M100.287 187.881C105.301 187.881 109.183 183.997 109.345 178.98C109.345 173.964 105.463 170.08 100.449 169.918C95.4344 169.918 91.3906 173.802 91.3906 178.98C91.2288 183.835 95.2726 187.881 100.287 187.881Z" fill="#004693"/>
<path d="M255.732 110.042C260.746 110.042 264.628 106.158 264.628 101.142C264.628 96.2869 260.746 92.4031 255.732 92.4031C250.718 92.4031 246.835 96.2869 246.835 101.304C246.835 106.158 250.718 109.88 255.732 110.042Z" fill="#004693"/>
<path d="M177.929 110.042C182.781 110.042 186.825 106.158 186.825 101.304C186.825 96.2869 182.943 92.2412 178.09 92.2412C173.238 92.2412 169.194 96.1251 169.194 100.98C169.032 105.996 172.914 109.88 177.929 110.042Z" fill="#004693"/>
<path d="M236.16 345.176C231.469 345.176 227.425 349.222 227.587 353.915C227.587 358.608 231.631 362.654 236.321 362.492C241.012 362.492 245.056 358.446 244.894 353.753C244.894 349.06 240.85 345.014 236.16 345.176Z" fill="#004693"/>
<path d="M197.501 345.176C192.81 345.176 188.766 349.06 188.766 353.753C188.766 358.446 192.648 362.492 197.339 362.492C202.03 362.492 206.074 358.608 206.074 353.915C206.235 349.222 202.192 345.176 197.501 345.176Z" fill="#004693"/>
<path d="M119.536 306.338C114.845 306.5 111.125 310.384 111.125 315.077C111.125 319.769 115.007 323.653 119.697 323.492C124.388 323.492 128.27 319.608 128.27 314.915C128.27 310.222 124.388 306.338 119.536 306.338Z" fill="#004693"/>
<path d="M314.287 306.338C309.596 306.176 305.714 309.736 305.39 314.429C305.067 319.122 308.949 323.168 313.639 323.492C318.33 323.653 322.212 319.931 322.374 315.238C322.698 310.545 319.139 306.662 314.287 306.338Z" fill="#004693"/>
<path d="M294.391 325.919C289.7 325.919 286.141 329.641 286.141 334.334C286.141 339.189 289.862 342.911 294.714 342.749C299.405 342.749 303.126 339.027 303.126 334.172C302.964 329.479 299.244 325.757 294.391 325.919Z" fill="#004693"/>
<path d="M352.946 228.823C348.255 228.823 344.534 232.383 344.534 237.076C344.534 241.931 348.093 245.653 352.946 245.653C357.636 245.653 361.357 242.093 361.357 237.4C361.357 232.545 357.636 228.823 352.946 228.823Z" fill="#004693"/>
<path d="M138.946 325.919C134.255 325.919 130.697 329.641 130.697 334.334C130.697 339.189 134.417 342.749 139.269 342.749C143.96 342.749 147.519 339.027 147.519 334.334C147.519 329.641 143.799 325.919 138.946 325.919Z" fill="#004693"/>
<path d="M80.8766 228.823C76.024 228.823 72.3037 232.545 72.3037 237.238C72.3037 241.931 76.024 245.653 80.5531 245.653C85.4057 245.653 89.126 241.931 89.126 237.238C89.2878 232.545 85.5675 228.823 80.8766 228.823Z" fill="#004693"/>
<path d="M100.449 287.081C95.7579 286.919 92.0376 290.641 91.8758 295.172C91.7141 300.027 95.4344 303.749 100.125 303.749C104.816 303.749 108.536 300.189 108.536 295.496C108.698 290.964 105.14 287.242 100.449 287.081Z" fill="#004693"/>
<path d="M333.535 287.081C328.844 287.081 325.124 290.641 325.124 295.334C325.124 300.027 328.683 303.749 333.373 303.911C338.064 303.911 341.785 300.35 341.946 295.819C341.946 290.964 338.226 287.081 333.535 287.081Z" fill="#004693"/>
<path d="M352.946 206.653C357.636 206.653 361.195 202.931 361.195 198.238C361.195 193.545 357.475 189.985 352.946 189.823C348.255 189.823 344.534 193.383 344.534 198.076C344.373 202.931 348.093 206.653 352.946 206.653Z" fill="#004693"/>
<path d="M80.8766 206.653C85.5674 206.653 89.2877 202.931 89.2877 198.238C89.2877 193.545 85.5674 189.823 80.8766 189.985C76.3475 189.985 72.6272 193.707 72.6272 198.238C72.4654 202.931 76.1857 206.653 80.8766 206.653Z" fill="#004693"/>
<path d="M313.639 128.814C318.007 128.976 322.051 125.416 322.212 120.884C322.374 116.515 318.816 112.47 314.286 112.308C309.919 112.146 305.875 115.706 305.714 120.237C305.552 124.607 309.11 128.652 313.639 128.814Z" fill="#004693"/>
<path d="M119.697 128.814C124.227 128.814 127.947 125.092 127.947 120.561C127.947 116.03 124.227 112.308 119.697 112.308C115.168 112.308 111.448 116.03 111.448 120.561C111.448 124.93 115.168 128.814 119.697 128.814Z" fill="#004693"/>
<path d="M236.16 89.8138C240.689 89.8138 244.409 86.0918 244.409 81.5607C244.409 77.1913 240.689 73.4693 236.321 73.3075C231.954 73.1457 228.072 77.0295 227.91 81.3988C228.072 86.0918 231.792 89.8138 236.16 89.8138Z" fill="#004693"/>
<path d="M197.339 89.8139C201.868 89.8139 205.588 85.93 205.588 81.5607C205.427 77.1914 201.868 73.4694 197.339 73.4694C192.81 73.4694 189.089 77.3532 189.089 81.7225C189.251 86.2537 192.972 89.8139 197.339 89.8139Z" fill="#004693"/>
<path d="M100.287 148.071C104.654 148.071 108.375 144.511 108.375 139.98C108.375 135.611 104.816 131.889 100.449 131.727C96.0814 131.565 92.3611 135.125 92.1993 139.656C92.0375 144.349 95.7579 148.071 100.287 148.071Z" fill="#004693"/>
<path d="M333.373 148.071C337.903 148.071 341.623 144.349 341.623 139.818C341.461 135.449 337.903 131.727 333.373 131.889C329.006 131.889 325.286 135.611 325.286 139.98C325.286 144.511 328.844 148.071 333.373 148.071Z" fill="#004693"/>
<path d="M275.304 345.662C270.937 345.5 267.216 349.06 267.055 353.591C266.893 358.122 270.613 361.844 275.142 361.844C279.51 361.844 283.23 358.284 283.23 353.753C283.23 349.546 279.671 345.824 275.304 345.662Z" fill="#004693"/>
<path d="M158.842 345.662C154.313 345.5 150.592 349.222 150.431 353.753C150.431 358.122 153.989 361.844 158.518 361.844C162.886 361.844 166.606 358.284 166.768 353.915C166.768 349.546 163.209 345.824 158.842 345.662Z" fill="#004693"/>
<path d="M294.391 109.071C298.92 109.233 302.479 105.673 302.64 101.142C302.64 96.7724 299.405 93.2122 294.876 93.0503C290.347 92.8885 286.627 96.2869 286.465 100.818C286.465 105.349 289.862 109.071 294.391 109.071Z" fill="#004693"/>
<path d="M139.108 109.071C143.637 109.071 147.195 105.511 147.195 100.98C147.195 96.4487 143.637 92.8885 139.108 93.0503C134.74 93.0503 131.182 96.6105 131.182 100.98C131.02 105.511 134.579 109.071 139.108 109.071Z" fill="#004693"/>
<path d="M80.8766 268.147C76.3475 268.147 72.9507 271.545 72.9507 276.076C72.9507 280.608 76.5093 284.168 81.0383 284.168C85.4057 284.168 88.9643 280.608 88.8025 276.238C88.8025 271.545 85.2439 268.147 80.8766 268.147Z" fill="#004693"/>
<path d="M352.946 268.147C348.416 268.147 344.858 271.545 344.858 276.076C344.858 280.446 348.255 284.006 352.622 284.006C357.151 284.006 360.71 280.608 360.71 276.076C360.871 271.707 357.313 268.147 352.946 268.147Z" fill="#004693"/>
<path d="M80.8766 167.167C85.0822 167.167 88.6407 163.607 88.6407 159.237C88.6407 155.03 85.0822 151.47 80.7148 151.47C76.5093 151.47 72.9507 155.03 72.9507 159.399C73.1124 163.769 76.671 167.329 80.8766 167.167Z" fill="#004693"/>
<path d="M352.784 167.167C356.989 167.167 360.548 163.607 360.71 159.399C360.71 155.192 357.151 151.632 352.946 151.47C348.74 151.47 345.181 155.03 345.02 159.237C345.02 163.607 348.578 167.167 352.784 167.167Z" fill="#004693"/>
<path d="M216.749 365.405C212.544 365.405 208.985 369.127 208.985 373.334C208.985 377.542 212.705 381.102 216.911 381.102C221.117 381.102 224.675 377.38 224.675 373.172C224.513 368.965 220.955 365.405 216.749 365.405Z" fill="#004693"/>
<path d="M275.142 89.3283C279.348 89.3283 282.745 85.9299 282.745 81.7224C282.745 77.5149 279.348 74.1166 275.142 74.1166C270.937 74.1166 267.54 77.5149 267.54 81.7224C267.54 85.9299 270.937 89.3283 275.142 89.3283Z" fill="#004693"/>
<path d="M158.195 89.3284C162.4 89.4902 165.959 86.2537 166.121 82.0462C166.282 77.8387 163.047 74.2785 158.842 74.1167C154.636 73.9548 151.077 77.1914 150.916 81.3989C150.754 85.6063 153.989 89.1665 158.195 89.3284Z" fill="#004693"/>
<path d="M177.929 365.728C173.723 365.728 170.488 369.127 170.488 373.172C170.488 377.38 173.885 380.616 177.929 380.616C182.134 380.616 185.369 377.218 185.369 373.172C185.369 368.965 182.134 365.728 177.929 365.728Z" fill="#004693"/>
<path d="M372.356 210.213C368.15 210.213 364.915 213.449 364.915 217.657C364.915 221.864 368.15 225.101 372.356 225.101C376.562 225.101 379.797 221.864 379.797 217.657C379.797 213.611 376.562 210.213 372.356 210.213Z" fill="#004693"/>
<path d="M255.732 365.728C251.526 365.728 248.291 368.965 248.291 373.172C248.291 377.38 251.526 380.616 255.57 380.778C259.937 380.778 263.173 377.542 263.173 373.334C263.173 369.127 259.938 365.728 255.732 365.728Z" fill="#004693"/>
<path d="M61.4662 210.375C57.2606 210.375 54.0255 213.611 54.0255 217.819C54.0255 221.864 57.2606 225.101 61.3044 225.263C65.51 225.263 68.7451 222.026 68.9068 217.819C68.9068 213.611 65.51 210.375 61.4662 210.375Z" fill="#004693"/>
<path d="M61.4662 249.375C57.5841 249.213 54.0255 252.611 54.0255 256.657C54.0255 260.541 57.2606 263.939 61.1427 263.939C65.0247 264.101 68.5833 260.703 68.5833 256.657C68.7451 252.773 65.51 249.375 61.4662 249.375Z" fill="#004693"/>
<path d="M372.356 249.213C368.312 249.213 364.915 252.612 364.915 256.657C364.915 260.541 368.15 263.939 372.032 263.939C376.076 264.101 379.473 260.703 379.473 256.657C379.635 252.773 376.238 249.375 372.356 249.213Z" fill="#004693"/>
<path d="M333.212 327.214C329.33 327.375 326.256 330.45 326.256 334.334C326.256 338.38 329.491 341.616 333.535 341.454C337.579 341.454 340.814 338.218 340.652 334.172C340.491 330.288 337.255 327.052 333.212 327.214Z" fill="#004693"/>
<path d="M216.749 69.4237C220.631 69.4237 224.028 66.1872 224.028 62.3033C224.028 58.4195 220.793 55.0211 216.911 55.0211C213.029 55.0211 209.632 58.2577 209.632 62.1415C209.632 66.1872 212.867 69.4237 216.749 69.4237Z" fill="#004693"/>
<path d="M100.287 327.214C96.4049 327.214 93.1699 330.288 93.1699 334.172C93.0081 338.056 96.2432 341.454 100.287 341.454C104.331 341.454 107.566 338.218 107.566 334.334C107.404 330.45 104.169 327.214 100.287 327.214Z" fill="#004693"/>
<path d="M372.194 186.101C376.076 186.263 379.473 183.026 379.473 178.98C379.473 175.096 376.238 171.698 372.356 171.698C368.474 171.698 365.239 174.773 365.077 178.657C364.915 182.541 368.15 185.939 372.194 186.101Z" fill="#004693"/>
<path d="M313.963 346.795C310.081 346.795 307.008 349.869 307.008 353.915C307.008 357.799 310.081 360.874 314.125 360.874C318.007 360.874 321.08 357.799 321.08 353.753C320.918 349.869 317.845 346.795 313.963 346.795Z" fill="#004693"/>
<path d="M119.697 346.795C115.654 346.795 112.742 349.869 112.58 353.753C112.58 357.799 115.654 360.712 119.536 360.874C123.579 360.874 126.491 357.799 126.653 353.915C126.653 349.869 123.741 346.795 119.697 346.795Z" fill="#004693"/>
<path d="M61.4661 185.939C65.3482 185.939 68.4215 182.864 68.4215 178.98C68.4215 174.935 65.3482 171.86 61.3044 171.86C57.2606 171.86 54.1872 175.097 54.349 179.142C54.349 183.026 57.5841 185.939 61.4661 185.939Z" fill="#004693"/>
<path d="M80.8765 307.956C76.9945 307.956 73.9211 310.869 73.9211 314.753C73.7594 318.637 76.8327 321.873 80.7148 322.035C84.5969 322.035 87.8319 319.122 87.8319 315.238C87.8319 311.193 84.7586 307.956 80.8765 307.956Z" fill="#004693"/>
<path d="M352.784 307.956C348.902 307.956 345.828 311.193 345.828 315.077C345.828 318.96 348.902 321.873 352.784 321.873C356.666 321.873 359.739 318.799 359.739 314.915C359.739 311.031 356.666 307.956 352.784 307.956Z" fill="#004693"/>
<path d="M177.767 69.1C181.649 69.2618 184.884 66.0253 184.884 62.1414C184.884 58.4194 181.811 55.1829 178.09 55.1829C174.37 55.1829 171.135 58.2576 171.135 61.9796C170.973 65.8634 174.046 69.1 177.767 69.1Z" fill="#004693"/>
<path d="M255.732 69.1C259.452 69.1 262.687 66.0253 262.687 62.1414C262.687 58.4194 259.614 55.1829 255.894 55.1829C252.173 55.1829 248.938 58.2576 248.938 61.9796C248.615 66.0253 251.85 69.2618 255.732 69.1Z" fill="#004693"/>
<path d="M294.553 366.537C290.832 366.537 287.759 369.612 287.921 373.334C288.083 377.056 290.994 379.969 294.553 379.969C298.273 379.969 301.346 376.894 301.346 373.172C301.185 369.45 298.273 366.537 294.553 366.537Z" fill="#004693"/>
<path d="M139.108 366.537C135.387 366.537 132.476 369.45 132.476 373.011C132.314 376.733 135.387 379.807 139.108 379.807C142.828 379.807 145.901 376.894 145.901 373.172C145.901 369.612 142.828 366.537 139.108 366.537Z" fill="#004693"/>
<path d="M100.125 107.777C103.845 107.938 106.919 104.864 106.919 101.142C106.919 97.4197 104.007 94.345 100.287 94.345C96.5666 94.345 93.4933 97.4197 93.4933 101.142C93.4933 104.864 96.4048 107.777 100.125 107.777Z" fill="#004693"/>
<path d="M333.05 107.777C336.77 108.1 340.005 105.187 340.167 101.465C340.329 97.7433 337.579 94.5068 333.697 94.3449C329.977 94.1831 326.903 97.096 326.742 100.818C326.58 104.54 329.33 107.615 333.05 107.777Z" fill="#004693"/>
<path d="M352.784 127.196C356.504 127.196 359.416 124.445 359.416 120.723C359.416 117.001 356.666 114.088 352.945 113.926C349.225 113.764 346.314 116.677 346.152 120.237C346.152 124.121 348.902 127.196 352.784 127.196Z" fill="#004693"/>
<path d="M80.7148 127.196C84.4351 127.196 87.3467 124.445 87.5084 120.723C87.6702 117.001 84.9204 114.088 81.2001 113.926C77.318 113.764 74.4064 116.677 74.4064 120.399C74.2447 124.121 76.9945 127.034 80.7148 127.196Z" fill="#004693"/>
<path d="M197.177 386.119C193.619 386.119 190.869 389.031 190.869 392.592C190.869 396.314 193.78 399.226 197.501 399.065C201.221 399.065 203.971 396.152 203.971 392.43C203.971 388.87 200.897 386.119 197.177 386.119Z" fill="#004693"/>
<path d="M119.536 88.1956C123.256 88.1956 126.167 85.4446 126.167 81.7225C126.167 78.0005 123.418 75.0876 119.697 75.0876C116.139 75.0876 113.227 77.8387 113.065 81.3989C113.065 85.2827 115.815 88.1956 119.536 88.1956Z" fill="#004693"/>
<path d="M236.16 386.119C232.601 386.119 229.69 389.031 229.69 392.592C229.69 396.314 232.439 399.226 236.16 399.226C239.88 399.226 242.792 396.314 242.63 392.592C242.792 388.87 239.88 386.119 236.16 386.119Z" fill="#004693"/>
<path d="M372.356 289.022C368.636 289.022 365.724 291.774 365.724 295.496C365.724 299.218 368.636 302.13 372.356 302.13C376.076 302.13 378.988 299.218 378.826 295.496C378.826 291.774 375.915 289.022 372.356 289.022Z" fill="#004693"/>
<path d="M313.963 88.1955C317.683 88.1955 320.595 85.2826 320.595 81.7224C320.595 78.0004 317.683 75.0875 313.963 75.2493C310.243 75.2493 307.493 78.1622 307.493 81.8842C307.493 85.4444 310.243 88.1955 313.963 88.1955Z" fill="#004693"/>
<path d="M61.4662 289.022C57.7459 289.022 54.8344 291.774 54.8344 295.496C54.8344 299.218 57.5842 302.13 61.3045 302.13C65.0248 302.13 67.9364 299.218 67.7746 295.496C67.9364 291.935 65.1866 289.022 61.4662 289.022Z" fill="#004693"/>
<path d="M391.766 230.927C388.37 230.927 385.458 233.84 385.458 237.238C385.458 240.636 388.37 243.549 391.766 243.549C395.163 243.549 398.075 240.475 398.075 237.076C397.913 233.678 395.163 230.927 391.766 230.927Z" fill="#004693"/>
<path d="M42.2176 230.927C38.8207 230.765 35.7474 233.516 35.5857 236.914C35.4239 240.313 38.012 243.226 41.4088 243.387C44.8056 243.711 47.8789 240.96 48.0407 237.4C48.5259 234.163 45.7761 231.089 42.2176 230.927Z" fill="#004693"/>
<path d="M372.032 146.291C375.429 146.453 378.503 143.702 378.664 140.304C378.826 136.905 376.238 133.993 372.841 133.831C369.444 133.507 366.371 136.258 366.209 139.818C365.724 143.055 368.474 146.13 372.032 146.291Z" fill="#004693"/>
<path d="M60.981 146.291C64.3778 146.615 67.4511 143.864 67.6128 140.304C67.7746 136.905 65.1865 133.831 61.628 133.669C58.2312 133.507 55.1578 136.258 54.9961 139.656C54.9961 143.055 57.5841 145.968 60.981 146.291Z" fill="#004693"/>
<path d="M391.605 204.549C395.001 204.549 397.913 201.798 397.913 198.238C397.913 194.839 395.001 191.927 391.605 191.927C388.208 191.927 385.458 194.678 385.296 198.076C385.296 201.636 388.208 204.549 391.605 204.549Z" fill="#004693"/>
<path d="M42.0558 204.549C45.4526 204.549 48.2024 201.798 48.0407 198.238C48.0407 194.839 45.2909 192.088 41.8941 192.088C38.4972 192.088 35.7474 194.839 35.7474 198.238C35.7474 201.798 38.4972 204.549 42.0558 204.549Z" fill="#004693"/>
<path d="M294.229 68.2909C297.788 68.4527 300.537 65.8635 300.699 62.4652C300.861 58.905 298.273 56.1539 294.876 56.1539C291.318 55.9921 288.729 58.5813 288.568 62.1415C288.406 65.5399 290.832 68.1291 294.229 68.2909Z" fill="#004693"/>
<path d="M139.108 68.2909C142.505 68.2909 145.254 65.7017 145.254 62.1415C145.254 58.7431 142.505 55.9921 139.108 55.9921C135.711 55.9921 132.961 58.7431 133.123 62.1415C133.123 65.7017 135.711 68.2909 139.108 68.2909Z" fill="#004693"/>
<path d="M275.142 386.604C271.745 386.604 269.157 389.193 268.996 392.592C268.996 395.99 271.584 398.579 274.819 398.741C278.216 398.741 280.965 396.152 280.965 392.753C281.127 389.355 278.539 386.604 275.142 386.604Z" fill="#004693"/>
<path d="M158.68 386.604C155.283 386.604 152.695 389.193 152.533 392.43C152.533 395.828 155.121 398.579 158.68 398.579C162.077 398.579 164.665 395.828 164.665 392.592C164.665 389.355 161.915 386.766 158.68 386.604Z" fill="#004693"/>
<path d="M197.339 48.7098C200.574 48.7098 203.324 45.9587 203.486 42.7222C203.486 39.4857 200.736 36.7346 197.501 36.7346C194.266 36.7346 191.678 39.3238 191.516 42.5604C191.354 45.9587 194.104 48.7098 197.339 48.7098Z" fill="#004693"/>
<path d="M236.16 48.7098C239.395 48.7098 242.145 46.1206 242.306 42.7222C242.306 39.4857 239.557 36.7346 236.321 36.7346C233.086 36.7346 230.337 39.4857 230.337 42.7222C230.337 46.1206 232.925 48.7098 236.16 48.7098Z" fill="#004693"/>
<path d="M42.2175 270.251C38.9825 270.089 36.2327 272.678 36.2327 275.915C36.2327 278.989 38.659 281.74 41.894 281.902C45.1291 282.064 47.8789 279.475 47.8789 276.238C47.8789 273.002 45.2908 270.412 42.2175 270.251Z" fill="#004693"/>
<path d="M391.766 270.251C388.531 270.251 385.781 272.84 385.781 276.076C385.781 279.151 388.37 281.902 391.443 281.902C394.678 281.902 397.428 279.313 397.428 276.076C397.589 273.002 395.001 270.251 391.766 270.251Z" fill="#004693"/>
<path d="M42.0558 165.063C45.1291 165.063 47.5554 162.474 47.5554 159.399C47.5554 156.325 44.9673 153.897 41.894 153.897C38.8207 153.897 36.3944 156.486 36.3944 159.561C36.3944 162.636 38.9825 165.063 42.0558 165.063Z" fill="#004693"/>
<path d="M391.605 165.063C394.678 165.063 397.104 162.636 397.104 159.561C397.104 156.486 394.678 154.059 391.605 154.059C388.531 154.059 386.105 156.486 386.105 159.561C386.105 162.474 388.531 165.063 391.605 165.063Z" fill="#004693"/>
<path d="M352.784 348.413C349.872 348.413 347.284 351.002 347.446 353.915C347.608 356.828 350.034 359.255 352.784 359.255C355.695 359.255 358.283 356.666 358.283 353.753C358.283 350.84 355.695 348.251 352.784 348.413Z" fill="#004693"/>
<path d="M274.98 48.2243C277.892 48.2243 280.48 45.7969 280.48 42.8841C280.48 39.9712 278.054 37.382 275.142 37.382C272.231 37.382 269.804 39.8094 269.804 42.5604C269.643 45.6351 272.069 48.0625 274.98 48.2243Z" fill="#004693"/>
<path d="M158.518 48.2243C161.43 48.2243 164.018 45.7969 164.018 42.884C164.018 39.9711 161.753 37.5437 158.842 37.3819C155.93 37.2201 153.342 39.6475 153.18 42.5604C153.018 45.6351 155.445 48.0625 158.518 48.2243Z" fill="#004693"/>
<path d="M80.8766 348.413C77.965 348.413 75.377 351.002 75.377 353.915C75.377 356.828 77.8033 359.255 80.7148 359.255C83.6264 359.417 86.2144 356.828 86.2144 353.915C86.3762 351.002 83.7881 348.413 80.8766 348.413Z" fill="#004693"/>
<path d="M217.073 406.67C214.161 406.509 211.573 408.936 211.573 412.011C211.573 414.924 214 417.513 216.911 417.513C219.823 417.513 222.411 415.085 222.411 412.173C222.249 409.26 219.823 406.832 217.073 406.67Z" fill="#004693"/>
<path d="M333.373 367.994C330.462 367.994 328.036 370.421 328.197 373.334C328.197 376.247 330.624 378.674 333.535 378.513C336.447 378.513 338.873 376.085 338.711 373.172C338.711 370.259 336.285 367.994 333.373 367.994Z" fill="#004693"/>
<path d="M100.125 367.994C97.2136 367.994 94.9491 370.421 94.9491 373.334C94.9491 376.247 97.3754 378.513 100.287 378.513C103.199 378.513 105.463 376.085 105.463 373.172C105.463 370.259 103.037 367.994 100.125 367.994Z" fill="#004693"/>
<path d="M372.194 329.156C369.283 329.156 367.18 331.421 367.18 334.334C367.18 337.247 369.444 339.512 372.518 339.512C375.429 339.512 377.532 337.247 377.532 334.334C377.37 331.421 375.106 329.156 372.194 329.156Z" fill="#004693"/>
<path d="M61.4661 329.156C58.5546 329.156 56.29 331.421 56.29 334.334C56.29 337.247 58.5546 339.351 61.3044 339.512C64.216 339.512 66.4805 337.247 66.4805 334.334C66.4805 331.421 64.3777 329.317 61.4661 329.156Z" fill="#004693"/>
<path d="M177.929 407.156C175.179 407.156 172.914 409.422 172.914 412.173C172.914 414.924 175.34 417.351 178.09 417.351C180.84 417.351 183.105 414.924 182.943 412.173C182.943 409.26 180.678 406.994 177.929 407.156Z" fill="#004693"/>
<path d="M255.57 406.994C252.82 406.994 250.556 409.26 250.556 412.011C250.556 414.762 252.982 417.189 255.732 417.027C258.482 416.866 260.746 414.6 260.585 411.849C260.746 409.26 258.32 406.994 255.57 406.994Z" fill="#004693"/>
<path d="M22.8072 212.802C20.2191 212.64 17.7928 214.906 17.6311 217.657C17.4693 220.246 19.7339 222.674 22.4837 222.835C25.0717 222.835 27.498 220.57 27.498 217.981C27.498 215.23 25.3952 212.964 22.8072 212.802Z" fill="#004693"/>
<path d="M411.177 212.802C408.427 212.802 406.162 215.068 406.162 217.819C406.162 220.57 408.589 222.835 411.177 222.835C413.926 222.835 416.191 220.408 416.029 217.657C416.029 215.068 413.765 212.802 411.177 212.802Z" fill="#004693"/>
<path d="M352.784 86.5773C355.534 86.5773 357.636 84.4735 357.636 81.7225C357.636 78.9714 355.534 76.8677 352.784 76.8677C350.034 76.8677 347.931 78.9714 347.931 81.7225C347.931 84.3117 350.034 86.4155 352.784 86.5773Z" fill="#004693"/>
<path d="M80.7149 86.4154C83.4647 86.4154 85.5675 84.3117 85.5675 81.7224C85.5675 79.1332 83.6264 77.0295 81.0384 76.8676C78.2886 76.7058 76.1858 78.8096 76.024 81.5606C76.024 84.3117 77.9651 86.4154 80.7149 86.4154Z" fill="#004693"/>
<path d="M411.177 251.964C408.589 251.964 406.486 253.906 406.486 256.657C406.486 259.408 408.589 261.512 411.338 261.35C413.926 261.35 415.868 259.246 415.868 256.495C415.868 253.906 413.765 251.964 411.177 251.964Z" fill="#004693"/>
<path d="M119.697 387.899C116.948 387.899 114.845 390.164 115.007 392.753C115.007 395.504 117.271 397.608 119.859 397.446C122.609 397.446 124.712 395.181 124.55 392.592C124.388 390.002 122.285 387.899 119.697 387.899Z" fill="#004693"/>
<path d="M313.963 387.899C311.213 387.899 309.11 390.002 309.11 392.753C309.11 395.504 311.213 397.608 313.963 397.608C316.713 397.608 318.816 395.504 318.816 392.753C318.816 390.002 316.713 387.899 313.963 387.899Z" fill="#004693"/>
<path d="M372.356 105.835C374.944 105.835 376.885 103.731 376.885 101.142C376.885 98.5525 374.944 96.4487 372.194 96.4487C369.606 96.4487 367.503 98.3907 367.503 100.98C367.503 103.731 369.606 105.835 372.356 105.835Z" fill="#004693"/>
<path d="M61.3045 105.673C63.8925 105.673 65.9953 103.731 65.9953 101.142C65.9953 98.5525 63.8925 96.4487 61.3045 96.4487C58.7164 96.4487 56.6136 98.5525 56.6136 101.142C56.7754 103.731 58.7164 105.673 61.3045 105.673Z" fill="#004693"/>
<path d="M22.6454 251.964C20.0574 251.964 17.9546 254.068 17.9546 256.657C17.9546 259.085 19.8956 261.188 22.4837 261.188C25.0717 261.188 27.1745 259.246 27.3363 256.657C27.1745 254.068 25.2335 251.964 22.6454 251.964Z" fill="#004693"/>
<path d="M333.373 66.8345C335.962 66.8345 338.064 64.8926 338.064 62.3033C338.064 59.7141 335.962 57.6104 333.373 57.6104C330.947 57.6104 328.844 59.5523 328.683 62.1415C328.683 64.7307 330.785 66.8345 333.373 66.8345Z" fill="#004693"/>
<path d="M391.605 310.384C389.178 310.384 387.075 312.326 387.075 314.915C387.075 317.504 389.016 319.608 391.605 319.608C394.193 319.608 396.295 317.504 396.295 314.915C396.295 312.326 394.193 310.222 391.605 310.384Z" fill="#004693"/>
<path d="M42.0558 310.384C39.6295 310.384 37.5267 312.325 37.3649 314.915C37.2032 317.504 39.306 319.608 41.894 319.769C44.4821 319.769 46.5849 317.828 46.5849 315.238C46.5849 312.487 44.6438 310.384 42.0558 310.384Z" fill="#004693"/>
<path d="M100.125 66.8345C102.713 66.8345 104.816 64.7307 104.816 62.1415C104.816 59.7141 102.713 57.6104 100.287 57.6104C97.699 57.6104 95.5962 59.7141 95.5962 62.3033C95.5962 64.7307 97.699 66.8345 100.125 66.8345Z" fill="#004693"/>
<path d="M22.4837 183.511C24.91 183.511 27.0128 181.408 27.1745 178.98C27.1745 176.553 25.0717 174.449 22.6454 174.287C20.2191 174.287 18.1163 176.391 17.9546 178.819C17.9546 181.246 20.0574 183.35 22.4837 183.511Z" fill="#004693"/>
<path d="M411.015 183.511C413.441 183.511 415.544 181.408 415.706 178.98C415.706 176.553 413.603 174.449 411.177 174.287C408.75 174.287 406.648 176.391 406.486 178.819C406.486 181.246 408.589 183.35 411.015 183.511Z" fill="#004693"/>
<path d="M216.588 27.996C219.014 28.1578 221.278 26.0541 221.278 23.6267C221.44 21.1993 219.337 18.9337 216.911 18.9337C214.485 18.7719 212.22 20.8756 212.22 23.303C212.22 25.5686 214.161 27.8342 216.588 27.996Z" fill="#004693"/>
<path d="M41.8941 124.768C44.3204 124.768 46.0997 122.988 46.0997 120.561C46.0997 118.133 44.1586 116.353 41.8941 116.353C39.6295 116.353 37.8503 118.133 37.8503 120.399C37.6885 122.826 39.6295 124.768 41.8941 124.768Z" fill="#004693"/>
<path d="M391.766 124.768C394.193 124.768 395.972 122.826 395.972 120.561C395.972 118.295 394.193 116.515 391.928 116.353C389.502 116.353 387.723 118.133 387.561 120.561C387.561 122.826 389.34 124.768 391.766 124.768Z" fill="#004693"/>
<path d="M255.732 27.5105C257.996 27.5105 259.776 25.5686 259.776 23.303C259.776 21.0374 257.835 19.2573 255.57 19.2573C253.306 19.2573 251.526 21.1992 251.526 23.4648C251.526 25.5686 253.467 27.5105 255.732 27.5105Z" fill="#004693"/>
<path d="M177.929 27.5105C180.193 27.5105 182.134 25.7304 182.134 23.4648C182.134 21.1992 180.355 19.2573 178.09 19.2573C175.826 19.2573 173.885 21.0374 173.885 23.303C173.885 25.5686 175.664 27.5105 177.929 27.5105Z" fill="#004693"/>
<path d="M197.339 8.25316C199.604 8.25316 201.545 6.47307 201.545 4.20749C201.545 1.94192 199.765 0 197.501 0C195.236 0 193.295 1.78009 193.295 4.04567C193.295 6.31124 195.074 8.25316 197.339 8.25316Z" fill="#004693"/>
<path d="M119.859 46.7679C121.962 46.6061 123.741 44.826 123.741 42.7222C123.741 40.6185 121.8 38.8384 119.697 38.8384C117.595 38.8384 115.654 40.6185 115.654 42.884C115.654 44.9878 117.595 46.9297 119.859 46.7679Z" fill="#004693"/>
<path d="M314.125 46.7679C316.228 46.6061 318.007 44.826 318.007 42.7222C318.007 40.6185 316.066 38.8384 313.963 38.8384C311.86 38.8384 310.081 40.7803 309.919 42.884C309.919 44.9878 312.022 46.9297 314.125 46.7679Z" fill="#004693"/>
<path d="M139.108 408.127C137.005 408.127 135.064 409.907 135.064 412.011C135.064 414.276 137.005 416.218 139.108 416.056C141.211 416.056 142.99 414.115 142.99 412.011C143.152 409.907 141.211 408.127 139.108 408.127Z" fill="#004693"/>
<path d="M294.714 408.127C292.612 408.127 290.671 409.907 290.671 412.011C290.509 414.115 292.288 416.056 294.553 416.218C296.817 416.38 298.758 414.438 298.758 412.173C298.597 410.069 296.817 408.127 294.714 408.127Z" fill="#004693"/>
<path d="M411.177 291.774C409.074 291.774 407.456 293.23 407.295 295.334C407.133 297.437 408.75 299.218 410.853 299.218C412.956 299.218 414.573 297.761 414.735 295.657C414.897 293.554 413.279 291.774 411.177 291.774Z" fill="#004693"/>
<path d="M430.587 272.354C428.484 272.354 426.867 273.811 426.705 275.915C426.543 278.018 428.161 279.798 430.264 279.798C432.366 279.798 433.984 278.342 434.146 276.238C434.307 274.134 432.69 272.354 430.587 272.354Z" fill="#004693"/>
<path d="M22.4836 291.774C20.3808 291.774 18.925 293.392 18.925 295.496C18.925 297.599 20.5426 299.218 22.8071 299.218C24.9099 299.218 26.3657 297.599 26.3657 295.496C26.2039 293.392 24.5864 291.774 22.4836 291.774Z" fill="#004693"/>
<path d="M197.501 428.032C195.721 428.032 194.104 429.488 193.942 431.268C193.78 433.21 195.398 434.828 197.339 434.99C199.28 434.99 200.897 433.534 200.897 431.592C200.897 429.65 199.28 428.032 197.501 428.032Z" fill="#004693"/>
<path d="M236.16 428.032C234.38 428.032 232.763 429.65 232.763 431.43C232.763 433.372 234.38 434.99 236.322 434.99C238.263 434.99 239.88 433.372 239.88 431.43C239.718 429.65 238.101 428.032 236.16 428.032Z" fill="#004693"/>
<path d="M22.6454 143.378C24.5865 143.378 25.8805 141.922 25.8805 139.98C25.8805 138.038 24.2629 136.744 22.4837 136.744C20.7044 136.744 19.4103 138.2 19.4103 139.98C19.2486 141.922 20.7044 143.378 22.6454 143.378Z" fill="#004693"/>
<path d="M3.07331 156.163C1.29403 156.163 0 157.619 0 159.399C0 161.341 1.45578 162.798 3.39682 162.798C5.33786 162.798 6.63188 161.341 6.63188 159.399C6.63188 157.457 5.01435 156.001 3.07331 156.163Z" fill="#004693"/>
<path d="M411.177 143.378C413.118 143.378 414.574 141.922 414.574 139.98C414.574 138.038 413.118 136.744 411.177 136.744C409.236 136.744 407.942 138.362 407.942 140.142C407.942 141.922 409.236 143.217 411.177 143.378Z" fill="#004693"/>
<path d="M430.911 162.798C432.852 162.798 434.307 161.341 434.307 159.399C434.307 157.457 432.852 156.163 430.911 156.163C428.97 156.163 427.676 157.781 427.676 159.561C427.676 161.341 428.97 162.798 430.911 162.798Z" fill="#004693"/>
<path d="M294.553 26.3778C296.17 26.3778 297.626 24.9214 297.626 23.1413C297.626 21.523 296.008 20.0666 294.391 20.2284C292.612 20.3902 291.641 21.523 291.479 23.3031C291.479 25.0832 292.935 26.3778 294.553 26.3778Z" fill="#004693"/>
<path d="M236.483 7.12036C238.101 7.12036 239.557 5.66392 239.557 3.88382C239.557 2.26556 237.939 0.809117 236.321 0.970944C234.542 1.13277 233.572 2.26556 233.41 4.04565C233.248 5.82574 234.866 7.28219 236.483 7.12036Z" fill="#004693"/>
<path d="M139.108 26.3777C140.725 26.3777 142.181 24.9213 142.181 23.303C142.181 21.6847 140.564 20.2283 138.946 20.3901C137.167 20.552 136.196 21.6847 136.034 23.4648C136.034 24.9213 137.49 26.3777 139.108 26.3777Z" fill="#004693"/>
<path d="M430.587 240.313C432.205 240.313 433.822 238.856 433.66 237.238C433.499 235.458 432.528 234.325 430.749 234.325C429.131 234.163 427.676 235.62 427.514 237.4C427.514 238.856 428.97 240.313 430.587 240.313Z" fill="#004693"/>
<path d="M3.07328 234.163C1.45575 234.163 -0.161782 235.62 -2.8768e-05 237.238C0.161724 239.018 1.13224 240.151 2.91153 240.313C4.52906 240.474 6.14659 239.018 6.14659 237.4C6.14659 235.62 4.85257 234.163 3.07328 234.163Z" fill="#004693"/>
<path d="M3.07328 273.002C1.45575 273.002 -0.161782 274.458 -2.8768e-05 276.076C0.161724 277.857 1.13224 278.989 2.91153 279.151C4.52906 279.313 6.14659 277.857 6.14659 276.238C6.14659 274.458 4.85257 273.002 3.07328 273.002Z" fill="#004693"/>
<path d="M3.07324 201.151C4.85252 200.989 5.9848 200.18 5.9848 198.238C5.9848 196.458 5.01428 195.487 3.39674 195.325C1.61746 195.163 0.485185 196.134 0.323432 198.076C0.161678 200.018 1.29395 200.989 3.07324 201.151Z" fill="#004693"/>
<path d="M430.587 195.487C428.808 195.649 427.676 196.619 427.837 198.4C427.837 200.18 428.808 201.151 430.587 201.151C432.366 201.151 433.499 200.18 433.499 198.4C433.337 196.458 432.366 195.649 430.587 195.487Z" fill="#004693"/>
<path d="M61.3045 370.421C59.5252 370.421 58.5547 371.392 58.5547 373.172C58.5547 374.952 59.5252 376.085 61.3045 376.085C63.0838 376.085 64.0543 375.114 64.2161 373.172C64.0543 371.554 63.2455 370.421 61.3045 370.421Z" fill="#004693"/>
<path d="M275.304 428.841C273.686 428.841 272.554 429.812 272.554 431.43C272.554 433.21 273.525 434.019 275.304 434.181C276.922 434.019 278.054 433.048 278.054 431.268C277.73 429.974 276.76 428.841 275.304 428.841Z" fill="#004693"/>
<path d="M80.8766 390.002C79.2591 390.002 78.1268 390.973 78.1268 392.753C78.1268 394.533 79.2591 395.343 80.8766 395.504C82.4942 395.181 83.6264 394.372 83.6264 392.592C83.4647 390.973 82.4942 390.002 80.8766 390.002Z" fill="#004693"/>
<path d="M158.518 428.841C156.901 428.841 155.768 429.812 155.768 431.592C155.768 433.372 156.901 434.181 158.518 434.343C160.136 434.019 161.268 433.21 161.106 431.43C161.268 429.812 160.136 428.841 158.518 428.841Z" fill="#004693"/>
<path d="M100.287 409.422C98.6694 409.422 97.5371 410.392 97.5371 412.173C97.5371 413.953 98.6694 414.762 100.287 414.924C101.904 414.6 103.037 413.791 102.875 412.011C102.875 410.392 101.904 409.422 100.287 409.422Z" fill="#004693"/>
<path d="M23.4542 331.583C21.8366 331.583 20.7043 332.554 20.7043 334.334C20.7043 336.114 21.8366 336.923 23.4542 337.085C25.0717 336.761 26.204 335.952 26.0422 334.172C26.0422 332.716 24.9099 331.583 23.4542 331.583Z" fill="#004693"/>
<path d="M44.4821 353.915V353.753C44.4821 353.43 44.3204 353.106 44.3204 352.782V352.62C44.1586 352.459 44.1586 352.135 43.9969 352.135C43.5116 351.649 42.8646 351.326 42.0558 351.326C40.6001 351.326 39.6295 352.135 39.4678 353.43C39.4678 353.43 39.4678 353.43 39.306 353.43C39.306 353.591 39.306 353.753 39.306 353.915C39.306 354.077 39.306 354.239 39.306 354.401C39.306 354.401 39.306 354.401 39.4678 354.562C39.7913 355.857 40.7618 356.504 42.0558 356.666C42.5411 356.666 42.8646 356.504 43.1881 356.342C43.8351 356.181 44.3204 355.695 44.4821 355.048C44.4821 355.048 44.4821 355.048 44.4821 354.886C44.4821 354.562 44.4821 354.239 44.4821 353.915Z" fill="#004693"/>
</svg>
